<?xml version="1.0" encoding="utf-8"?>
<!-- Generator: Adobe Illustrator 19.0.1, SVG Export Plug-In . SVG Version: 6.00 Build 0)  -->
<svg version="1.1" id="Layer_1" xmlns="http://www.w3.org/2000/svg" xmlns:xlink="http://www.w3.org/1999/xlink" x="0px" y="0px"
	 width="906.1px" height="857.4px" viewBox="0 0 906.1 857.4" style="enable-background:new 0 0 906.1 857.4;" xml:space="preserve"
	>
<style type="text/css">
	.st0{fill:#FFFFFF;}
</style>
<g>
	<path d="M-464.8,362.3c0.4,6.6,1,13.2,1.2,19.8c0.8,22.8,1.3,45.5,2.1,68.3c1.6,45.2,3.4,90.5,5,135.7c1,29.1,2,58.2,2.8,87.3
		c0.9,37.9,1.6,75.9,2.4,113.8c1.1,55.4,2.2,110.9,3.3,166.3c1.2,67.3,2.5,134.5,3.5,201.8c0.6,44,0.9,87.9,1.1,131.9
		c0.2,34.1,0.1,68.2,0.2,102.4c0.2,45.5,0.3,90.9,0.6,136.4c0.2,33.6,0.7,67.2,1.2,100.8c0.4,30.8,1,61.5,1.4,92.3
		c0.4,30.3,0.7,60.5,1,90.8c0.2,15.8,0.2,31.6,0.2,47.4c-7,0-14,0-21,0c-0.3-24.1-0.8-48.1-0.9-72.2c-0.2-34.5,0-69-0.2-103.5
		c-0.1-12.4-1.2-24.8-1.5-37.3c-0.5-20.8-0.7-41.5-1.2-62.3c-0.2-7.9-0.7-15.8-1.1-23.8C-464.8,1159.6-464.8,760.9-464.8,362.3z"/>
	<path class="st0" d="M-464.8,1558.3c0.4,7.9,0.9,15.8,1.1,23.8c0.5,20.8,0.7,41.5,1.2,62.3c0.3,12.4,1.4,24.8,1.5,37.3
		c0.3,34.5,0.1,69,0.2,103.5c0.1,24.1,0.6,48.1,0.9,72.2c-1.7,0-3.3,0-5,0C-464.8,1757.6-464.8,1657.9-464.8,1558.3z"/>
	<path d="M612.2,569.3c-0.6,6.4-0.8,13.2-2,19.8c-3.2,18.6-5.4,37.7-10.7,55.7c-7.7,26.1-19.3,50.6-36.4,72.2
		c-6.2,7.8-11.6,16.2-17.5,24.3c-9,12.3-19.6,23-31.4,32.6c-6.3,5.1-11.9,11.1-18.1,16.2c-2.1,1.7-5.2,2.7-8,3
		c-3.2,0.3-5.8-1.1-5.6-5.3c0-0.5-2-1.6-3.1-1.6c-9.1-0.4-18.3-0.7-27.4-0.8c-1.2,0-2.8,0.9-3.7,1.9c-5.9,6.1-11.5,12.5-17.4,18.6
		c-2.7,2.8-2.1,4.8,1.1,6c8.3,2.9,16.6,5.8,25,8.2c10.1,2.9,18.3,8.6,25.6,15.8c1.2,1.2,1.1,3.7,1.6,5.6c-2.2-0.1-5.6,0.7-6.5-0.5
		c-9.4-12-23-15-36.7-18.4c-8.2-2-16.1-5-24-8.1c-1.7-0.6-3.2-3-3.7-4.9c-0.7-2.8,1.1-4.4,3.9-5.3c9.7-3.3,14.6-11.8,22-19.6
		c-4.2-0.8-7-1.4-9.9-1.8c-22.6-3.3-43.3-11.6-62.7-23.4c-2.8-1.7-5.3-3.2-8.4-0.1c-0.8,0.8-3.5,0.4-5-0.3c-0.7-0.3-0.2-2.6-0.7-3.9
		c-0.7-1.9-1.2-4.3-2.7-5.4c-13.7-10-28.1-19.2-41.2-29.9c-14.8-12-28.7-25.3-42.9-38.1c-2.8-2.5-4.9-4.8-8.9-2
		c-1,0.7-3.3-0.3-5-0.5c0.2-1.5,0.1-1.9,0.3-2.1c4.6-4.7,4.7-4.8,0.2-9.7c-15.8-17.1-31.7-34.2-44.9-53.4c-2.3-3.4-4.3-1.8-6.6-0.3
		c-6.9,4.6-13.6,9.6-20.7,13.8c-19.4,11.6-40.1,19.4-63.1,19.3c-6,0-11.9,0.6-17.9,1.2c-7.4,0.8-13.9-1-19.5-5.8
		c-6.2-5.4-13.2-9.2-21-12c-4.6-1.6-8.3-6.3-11.9-10.1c-3-3.2-5.9-7-7.8-11c-2.2-4.9-3.4-10.3-4.9-15.5c-0.1-0.3-0.1-0.8,0.1-1
		c1.2-1.3,3.1-3.8,3.5-3.5c4,2,8.5-4.7,11.8,0.5c0.7,1.2-0.3,4.4-1.5,5.7c-4.8,5.3-5.1,5.3-0.8,11.1c2.4,3.2,5,6.3,7.8,9.1
		c1.3,1.3,3.5,2.9,5.1,2.7c4.6-0.7,6.7,2,9.7,4.7c6,5.5,12.3,10.7,19.1,15.1c2.6,1.7,6.7,1.8,10,1.6c10.8-0.5,21.8-0.5,32.3-2.4
		c10.9-2,21.8-5.1,31.8-9.6c11.5-5.1,22.1-12.2,32.9-18.7c5.3-3.1,5.1-3.6,1.9-8.7c-13.2-21-26.6-41.9-39.4-63.1
		c-5.4-8.9-9.7-18.6-14.5-27.8c-0.8-1.6-2-3-3.4-5.3c-17.3,11.3-34.7,22.1-51.4,33.7c-16.4,11.5-32.2,23.9-48.3,35.9
		c-0.6-0.7-1.2-1.3-1.9-2c3.7-4.1,6.9-9,11.3-12.3c18.1-13.5,36.6-26.5,55.1-39.5c9.4-6.6,19.2-12.6,28.8-18.8
		c2.1-1.4,3.7-2.6,1.9-5.5c-8.2-13.3-16.3-26.7-24.3-39.9c-0.5,0-0.8,0-1.1,0c-2.2,0.3-4.5,0.6-6.7,0.9c0.8-2.2,1.8-4.4,2.5-6.7
		c0.6-2.1,1.1-4.2,1.2-6.3c0.1-2.3-0.7-4.7-0.4-6.9c0.2-1.5,1.5-3.7,2.7-4c1.3-0.3,3.5,0.8,4.5,2c1.4,1.7,2.2,4,3.4,6.5
		c1.3-0.5,2.6-0.8,3.6-1.5c10.3-7.2,21.5-13.6,30.8-21.9c20-18,43.4-29.9,67.6-40.7c13.2-5.9,26.1-12.7,39.8-17.2
		c11.6-3.8,24-5.9,36.1-6.7c26-1.8,52.1-3.2,78.2-2.9c22.9,0.2,45.8,2.5,68.5,4.9c8.8,0.9,17.2,4.8,25.9,7.3c1.4,0.4,2.8,0.8,3.4,1
		c1.5-4.5,3.2-8.5,4.3-12.7c2.8-10.7,5.3-21.5,7.8-32.3c0.2-0.7-0.2-1.7-0.6-2.2c-3.6-4.1-0.8-6.7,1.8-9.7c1.8-2.1,3.4-4.8,3.8-7.5
		c0.6-4.6,3.4-7.2,7-9c1.1-0.6,3.7,0.2,4.7,1.2c6.6,6.6,12.3,14.1,19.4,19.9c7.4,6,16.5,9.9,24.3,15.4c13.7,9.6,30.1,13.1,44.6,20.8
		c1.2,0.6,2.1,1.8,3.3,2.1c1.3,0.2,3.2,0.1,4-0.7c8.5-8.1,16.4-17,25.5-24.5c22.1-18.1,33.2-41.3,32.8-69.5
		c-0.2-17.9-7.4-33.5-20.7-45.5c-7.7-6.9-17.7-10-28-11c-0.2,0.5-0.4,0.9-0.7,1.4c1.4,0.7,2.7,1.6,4.1,2.1c4.2,1.4,5.5,4.7,3.3,8.5
		c-0.3,0.6-0.9,1-1.2,1.6c-3.7,7.4-4.1,7.6-12.2,6.5c-2.4-0.3-4.7-1.4-5.9,2.3c-0.3,1-4.3,1.8-6.1,1.3c-11.5-3.1-23.1-6.1-34.3-10.2
		c-7.7-2.8-14.7-7.6-22.3-10.9c-2.9-1.3-7.4-2.4-9.7-1c-12.4,7-25.2,13.8-36.3,22.6c-14.9,11.8-24,27.8-26.6,47
		c-1.3,9.5,3.2,16.7,9.4,23.2c1.1,1.2,3.2,1.8,5,2c3.2,0.3,5.7,1.7,4.8,4.8c-0.6,2.1-3.3,4.7-5.5,5.2c-6.4,1.4-10.5-3.1-14.3-7.3
		c-10.3-11.6-10.1-25.2-7.5-39.5c2.8-16,11.4-28.9,21.9-40.1c7.6-8,18.1-13.3,27.3-19.7c3.2-2.2,6.6-4.1,11-6.8
		c-5.3-2.4-9.2-4.6-13.3-6c-12.2-4.3-24.3-9-36.8-12.3c-16.3-4.4-31.4-11.3-46.5-18.6c-4.9-2.4-10.4-3.7-15-6.5
		c-2.5-1.6-4.8-5.3-5.2-8.3c-0.4-3.6,2-7.1,6.1-8.1c1.3-0.4,3.1-0.3,4.4,0.4c6.6,3.3,13,7.1,19.6,10.3c6.3,3.1,12.8,5.8,19.3,8.4
		c10.6,4.3,21.2,8.6,32,12.4c11.4,4,23.1,7.3,34.6,11c5.7,1.9,11.2,4.5,16.9,6c4.7,1.2,9.8,2.1,14.6,1.8c11.9-0.8,23.7-2.5,36.5-3.9
		c-3.8-6-7.3-11.8-11-17.4c-3.5-5.4-6.8-11-10.8-16c-2.6-3.3-6.3-5.6-9.5-8.4c-2.2-1.8-4.5-3.5-6.7-5.3
		c-15.8-13.5-28-30.1-40.4-46.6c-2.8-3.7-6.5-6.8-10.1-9.8c-4-3.4-4.2-13.2-0.1-17.2c2.5-2.5,5.1-4.8,9.1-2.9c0.7,0.4,1.9,0.7,2,1.2
		c0.8,6,5.4,8.7,9.8,11.7c1.3,0.9,4.1,1.6,2.1,4.5c-0.2,0.2,1.9,2,3,3c5.2,4.7,10.2,9.9,15.8,14.1c10.8,8.1,17.1,19.5,24,30.5
		c6.4,10.1,14,18.9,22.7,27.1c7.3,6.8,13,15.3,19.8,22.7c5,5.5,10.2,11.1,16.1,15.5c3.8,2.8,9,3.7,13.6,5.3c12,4,20,12.9,26.8,22.8
		c6.5,9.5,11.7,20.2,13.2,31.3c1.5,10.8,0.4,22.3-1.8,33.1c-2,10.1-5.9,20.1-10.8,29.2c-4.2,7.7-10,15.2-16.7,20.8
		c-10.4,8.6-22.1,15.6-33.3,23.3c-1.3,0.9-2.6,2-4.6,3.5c4.8,3.3,9,6.4,13.5,9.2c5.6,3.5,11.4,6.8,17.2,10.1
		c8.3,4.7,14.9,10.8,19.3,19.5c6.5,12.9,11,16.5,28.2,25.1c3.8,1.9,7.7,3.9,10.7,6.8c5.7,5.5,3.6,12.4-4,14.2
		c-5.1,1.2-10.3,2-15.5,2.7c-2.5,0.4-4.3,0.8-4.8,3.9c-0.3,1.8-1.6,3.8-3,5c-10.1,8-19.7,17.6-33.6,17.4c-7.1-0.1-14.3-2.3-21.3-4
		c-5.6-1.4-11-3.4-17.3-5.5c0.6,1.8,0.9,3,1.4,4c14.9,28.2,23.1,58,22.7,90c0,2,1.6,4.8,3.3,6c11.3,7.7,24.1,11.6,37.3,14.7
		c15.4,3.5,30.7,7.6,46.1,11c23.5,5.2,47.2,5.6,70.8,1c8.7-1.7,17.1-4.8,25.6-7.2c2-0.6,4.1-0.8,6.1-1.2c0.3,0.4,0.5,0.7,0.8,1.1
		c-0.9,1.1-1.5,2.8-2.7,3.3c-5.7,3-12.3,4.8-17.2,8.7c-4.8,3.8-7.2,10.4-12,14.2c-19.7,15.8-40.6,29.3-65.8,35.2
		c-19.4,4.5-38.4,10.7-57.6,16c-7.8,2.1-15.8,3-23.8,1.4c-0.1-0.5-0.3-1.1-0.4-1.6c2.8-0.9,5.5-2,8.3-2.8
		c27.5-7.9,55.1-15.4,82.5-23.6c19.1-5.8,34.7-17.9,50-30.2c0.9-0.7,1.7-1.6,2.4-2.5c0.2-0.2,0.1-0.6,0.1-1.2
		C712.7,602.8,662.8,587.4,612.2,569.3z M520.6,504.5c0.5,0.5,1,0.9,1.5,1.4c-0.6,1.5-1,3.3-2,4.6c-4.3,5.9-8.7,11.7-13,17.5
		c-19.1,25.6-38.2,51.1-57.1,76.8c-5.6,7.6-10.2,16-15.8,23.6c-18.3,24.7-36.9,49.3-55.3,73.9c-8.4,11.2-14.3,23.5-16.5,37.5
		c-0.5,3.2,0.4,5.3,3.2,7.1c21.8,13.4,44.9,23,70.4,26.8c7.8,1.2,13.7,0.7,17.4-7c0.9-1.9,2.7-3.4,3.8-5.3
		c22.5-37.7,45.5-75.2,67.3-113.4c13.5-23.7,22-49.5,26.3-76.6c0.7-4.3,2-8.5,3.1-12.7c1.6,1.3,2.4,2.5,2.3,3.7
		c-0.6,9.6-0.1,19.5-2.2,28.7c-6,26.2-16.3,51-29.7,74.4c-11.2,19.5-22.8,38.8-34.4,58c-9.6,15.8-19.5,31.3-29.3,47
		c-0.8,1.3-1.4,2.8-2.5,5.2c10.6,0.4,20.2,0.9,29.8,1.1c2.6,0.1,5.8,0.1,7.6-1.3c9.7-7.5,19.8-14.8,28.5-23.4
		c17.2-17.1,30.2-37.5,43.8-57.5c14.4-21.2,23-45,28.1-69.9c3.7-17.7,4.8-35.9,7.6-53.8c1-6.2-0.5-10-6.1-13.4
		c-18.3-10.8-34.6-24.1-48.3-40.5c-10.2-12.3-20.2-24.7-30.7-36.7c-5.3-6.1-11.6-11.3-17.3-16.8c-6.4,5.2-12.3,9.5-17.7,14.4
		c-14.3,13.2-28.6,26.4-42.4,40c-23,22.6-45.4,45.9-68.6,68.3c-15.3,14.8-30.9,29.4-47.2,43c-15.9,13.3-33,25.3-49.6,37.7
		c-5.2,3.8-5.5,4.3-1.1,9c0.7,0.7,1.4,1.5,2.1,2.1c17.3,16.6,35.5,32.2,55.1,46.1c7.3,5.2,14.7,10.1,22.5,15.4c0.8-2,1.5-3,1.5-4
		c1.1-15.6,9.1-27.9,18.2-39.8c17.9-23.4,36.1-46.6,53.5-70.3c20.1-27.4,39.3-55.4,59.2-82.9c7.3-10.1,15.2-19.8,23.3-29.3
		C512.8,509.9,517,507.4,520.6,504.5z M395.7,466.8c0.5,0.6,1,1.2,1.5,1.9c-2.7,2.3-5.3,4.8-8.1,6.9c-19.5,13.9-39.1,27.6-58.5,41.5
		c-17.7,12.7-35.2,25.6-52.8,38.4c-11,8-22.1,15.9-32.9,24.1c-9,6.8-17.8,13.9-26.6,20.9c-4.7,3.7-5,5.1-1.1,9.7
		c13.8,16.4,27.7,32.8,41.7,49c7.8,9.1,6.5,8.1,14.5,1.4c1.5-1.3,3.1-2.5,4.7-3.7c17.3-13.7,35-27.1,52-41.2
		c32-26.5,59.8-57.3,89-86.7c15.2-15.4,30.7-30.5,46.3-45.4c9.2-8.8,19-17.1,28.9-26c-1.2-1.5-2-2.9-3.2-4
		c-4.4-4.5-9.1-8.8-13.2-13.6c-14.6-17.4-32.2-31.2-50.9-43.7c-0.9-0.6-2.1-1.3-3.1-1.3c-7.6-0.1-15.3-0.5-22.9-0.1
		c-22.5,1.1-43.1,9.8-63.8,17.5c-19.5,7.2-38.5,15.5-57.7,23.6c-19.9,8.4-39.9,16.5-59.4,25.9c-21,10.1-41.3,21.4-61.9,32.2
		c-12.3,6.4-9.2,5.5-4.2,15.2c15.3,29.4,32.1,57.9,51.3,85c4,5.6,3.9,5.8,9.5,1.5c19.7-15.1,39.1-30.5,58.9-45.4
		c18.4-13.8,37.1-27,55.8-40.3c11.8-8.4,23.8-16.5,35.9-24.4C375.3,479.1,385.6,473.1,395.7,466.8z M410.7,387.4
		c0.3-0.4,0.5-0.8,0.8-1.2c-10-5-19.7-10.8-30.1-14.8c-8.6-3.3-17.8-5.3-26.9-6.8c-14.4-2.3-28.6-3.4-43.4-0.5
		c-31.9,6.4-61.4,19.4-91.1,31.8c-10.1,4.2-19.8,9.3-29.5,14.3c-15.3,8-30.5,16.2-45.6,24.5c-7.6,4.2-14.9,9.1-22.5,13.4
		c-3,1.7-2.2,3.7-0.9,5.8c7,11.5,14,23,21,34.5c1.1,1.8,2.2,3.5,3.5,5.6c3.5-2.1,6.6-4,9.8-5.9c28.5-16.9,58.6-30.6,89-43.8
		c24.7-10.7,49.4-21.6,74.3-31.8c21.1-8.7,42.2-17.2,64.7-21.8C392.6,389,401.7,388.5,410.7,387.4z M645.8,446.5
		c-0.7-0.4-1.5-0.7-2.1-1.1c-1.2-0.9-2.3-1.9-3.5-2.8c1-1.2,1.9-2.5,3.1-3.5c0.7-0.6,1.8-1.1,2.7-1.1c6-0.5,7.1-4.3,6.5-9.4
		c-0.2-1.3-0.6-2.7-0.4-4c0.6-5.5-2.1-8.3-6.7-10.9c-10.9-6.2-21.5-13-32.3-19.6c-9.2-5.7-18.4-11.3-27.5-17
		c-7.1-4.5-14.6-8.5-21.1-13.8c-8.4-6.8-15.8-14.7-23.8-21.9c-5.9-5.3-11.7-10.8-20.2-11.6c-4.1-0.4-8.3-0.4-12.2-1.4
		c-5.8-1.5-9.7,0-12,5.6c-1.5,3.7-2.5,7.6-4.3,11.1c-2.3,4.4-1.7,8.5,0.5,12.3c7.2,12.4,16.3,23,28.6,30.6
		c15.3,9.4,28.6,21.2,40.4,34.7c6.9,7.9,13.7,15.9,23.3,20.7c6.1,3,12.1,6.2,18.4,8.7c4.9,2,10.2,2.9,15.3,4.4
		C629,459.6,639.9,455.9,645.8,446.5z M603,550.1c0.7-1.2,1-1.4,1-1.7c0.1-0.8,0.1-1.6,0.1-2.5c-1.3-35.8-13.4-67.9-32.9-97.6
		c-1.2-1.9-3.1-3.6-5-4.7c-10.1-6.1-20.3-11.9-30.7-18c-4,11.2-12.9,18.5-21.7,25.9c-6.4,5.4-6.2,4.9-0.2,11.1
		c13.5,14,26.9,28.1,39.6,42.8c9.3,10.8,17.5,22.6,29.5,30.9C589.3,540.9,596,545.4,603,550.1z M377.7,360.1
		c1.1,0.8,1.7,1.5,2.3,1.7c16.9,5.9,31.9,15.3,47,24.5c1.8,1.1,3.7,2.2,5.7,2.8c7.5,2.2,15.1,3.7,22.4,6.3
		c17.6,6.3,26.9,19.6,30.9,37.3c0.3,1.6,0.8,3.3,1.9,4.5c3.7,4.1,7.5,8,11.6,11.7c0.9,0.8,3.6,1,4.4,0.3
		c8.9-7.8,17.5-15.9,26.3-23.7c2.4-2.1,2.1-3.5,0.1-5.7c-4.5-5.1-8.9-10.3-13-15.7c-7.2-9.4-14.2-18.8-26.2-22.8
		c-6.3-2.1-12.1-5.5-18.5-7.5c-12.7-3.9-25.4-8-38.4-10.4c-12.2-2.2-24.8-2.5-37.2-3.3C390.9,359.8,384.7,360.1,377.7,360.1z
		 M636.1,394.2c-4-8.3-59.5-43.3-69.8-44.1C588.5,367.8,613.5,379,636.1,394.2z M588.3,202.2c-1.8-8.9-5.5-11.2-14.4-8
		C579.1,197.1,583.6,199.5,588.3,202.2z M470.1,418.5c-2.8-8.7-9.8-12.4-17.7-15C458.2,408.5,464.1,413.5,470.1,418.5z M479.1,366.6
		c3.1,1.5,5.6,2.7,8.2,3.8c0.3-0.4,0.6-0.8,0.9-1.2c-1.3-2.2-2.6-4.4-4.1-6.9C482.4,363.8,481.2,364.9,479.1,366.6z M670,428.3
		c-2.7-1.9-4.6-3.2-7.5-5.3c0.5,3.8,0.8,6.1,1.3,9.2C665.9,430.8,667.5,429.8,670,428.3z M534.8,408.1c-0.4,0.3-0.7,0.7-1.1,1
		c4,3.7,8,7.4,12,11.1c0.4-0.4,0.8-0.8,1.1-1.2C542.8,415.4,538.8,411.8,534.8,408.1z"/>
	<path d="M263.6,1052.8c-1-5.6-1.8-10.3-2.8-15c-0.7-3.4-1.4-6.8,2.4-8.8c3.9-2.1,6.4,0,8.8,3.2c1.3,1.8,3.4,3.2,5.3,4.4
		c21.3,13.3,42.7,26.5,63.9,40c8.7,5.5,16.5,12.5,25.6,17.3c19.5,10.3,38.5,21.2,56.1,34.4c22.2,16.8,40,37.6,55,60.8
		c15,23.2,29.8,46.5,44.5,69.9c14.9,23.6,26.3,48.7,30.1,76.6c2.8,20.1,2.9,40.3-0.1,60.3c-2.8,18.9-7.3,37.5-11.6,56.1
		c-1.4,5.9-0.7,11.4,0.1,17.2c4.5,31.6,9.6,63.2,13,94.9c2.5,23.9-1.4,47.5-8.7,70.4c-1,3.3-2,6.8-4,9.5c-3.3,4.5-6.4,4.4-9.5-0.2
		c-6.1-9.1-12-18.3-17.5-27.8c-6.8-11.8-13-23.9-19.5-35.9c-0.7-1.2-1.8-2.2-3.6-4.2c-36.8,83.8-95.1,151.3-155.7,217.1
		c0.3,0.5,0.6,1,0.9,1.5c3.9-1.3,8.1-2,11.8-3.9c22.6-11.7,45.2-23.3,67.5-35.6c13.7-7.5,26.6-16.4,40-24.4c2.3-1.4,5.2-1.5,7.9-2.3
		c-1.5,2.1-2.7,4.8-4.7,6.1c-15,10.1-29.9,20.5-45.5,29.8c-17.2,10.3-34.8,20.1-52.8,29.1c-10.2,5.1-21.5,7.9-32.1,12.1
		c-2.8,1.1-5.4,3.4-7.2,5.8c-2.5,3.2-6.4,4-10,1.7c-1.8-1.2-4.4-2.1-6.5-1.8c-33.2,4.7-64.8-0.7-95.2-14.5
		c-27.2-12.3-53.2-26.6-77.6-43.8c-17.9-12.6-35.7-25.5-53.4-38.4c-14.8-10.8-29.7-21.3-43.9-32.8c-20.5-16.7-40.5-33.9-60.2-51.6
		c-14.5-13-28.2-26.8-42-40.5c-13.2-13.1-26.5-26.2-39-39.9c-10.2-11.1-19.2-23.3-29-34.9c-4.7-5.5-10.1-10.5-14.5-16.2
		c-5.8-7.7-10.9-15.8-16.2-23.8c-8.7-13-17.4-26-26.1-38.9c-0.4-0.6-1-1.1-2.5-1.3c0.5,3.3,0.9,6.7,1.6,10
		c2.6,13.6,4.9,27.2,7.9,40.7c0.9,4.1,3.1,8.1,5.3,11.7c4.6,7.5,9.8,9.2,18.3,6.8c1.6-0.4,3.5,0.1,5.3,0.2c-1.3,1.3-2.3,3.1-3.8,3.9
		c-14.1,7.7-24.2,0-29.5-13c-3.6-8.9-5.6-18.4-7.4-27.9c-3.1-16.5-4.8-33.3-8.4-49.7c-1.9-8.4-6.3-16.3-10.1-24.2
		c-11.1-23.1-22.9-45.9-33.6-69.1c-7-15.2-12.7-31.1-18.8-46.7c-1-2.5-1.4-5.3-2.4-9c-10.8,12.9-23,20.1-40.2,16
		c2.6-4.6,6.2-6.1,10.2-6.5c12.9-1.2,20.5-10.1,27.9-19.2c1.2-1.5,1.1-4.1,1.6-6.2c1.2-5.2,1.9-10.5,3.7-15.5
		c4.6-12.7,12.1-15.5,24.4-9.7c-45.7-37.6-50.6-84.6-31.3-136.5c3.8-10.3,9.9-19.8,17.4-28.1c0.8,0.4,1.5,0.7,2.3,1.1
		c-1.2,3.2-2,6.6-3.5,9.6c-6.9,13.3-13.7,26.9-16.1,41.7c-4,25-4,50.3,8.7,73c6.4,11.5,16.9,20.8,25.7,30.9c2.6,3,4.7,0.7,6.6-1.3
		c9.7-10.1,19.2-20.4,29.1-30.3c20.5-20.5,42.3-39.5,65.4-57c9.7-7.4,17.7-17,27-25.1c16.1-14.1,34.2-25.1,53.3-34.8
		c8.8-4.5,16.6-10.9,24.6-16.9c22.6-17,46.4-32.2,71.8-44.9c8.6-4.3,17-9.2,25.3-14.1c13.8-8.2,28.5-14.2,44.2-17.7
		c6.8-1.5,9.9-0.1,11.4,4.2c-8.5,2.5-17.1,4.6-25.4,7.7c-9.4,3.5-18.7,7.5-27.8,11.8c-12.9,6.2-25.8,12.3-38.2,19.5
		c-13.8,8-27,16.9-40.4,25.7c-6.2,4.1-12.1,8.7-19.2,13.9c3.4,0.5,5.5,0.9,8.6,1.4c-12.1,7.5-26.1,10-34.7,21.8
		c1.7-0.5,3.6-0.7,5.2-1.4c43.5-19.4,88-35.4,135.4-42.1c21.7-3.1,43.6-3.2,65.3-1.4c28.2,2.3,56.3,5.4,84.4,8.7
		c9.1,1,17.9,3.6,26.9,5.4C260.2,1052.2,261.3,1052.4,263.6,1052.8z M65.6,1078.8c0.6,0.4,1.3,0.9,1.9,1.3
		c-3.1,5.2-5.8,10.6-9.3,15.4c-20.2,27.1-40.6,54-60.8,81.1c-19.5,26.2-37.3,53.4-49.9,83.8c-9,21.6-16.5,43.7-20.3,66.7
		c-5.6,33.8-9.4,67.9-15.1,101.7c-2.3,13.7-6.7,27.1-11.5,40.2c-3.2,8.9-8.8,17-18.3,20.8c-4.1,1.7-8.6,2.6-12.9,3.7
		c-7.9,2-8.9,5.2-3.4,11.1c4.1,4.5,8.1,9.2,12,13.9c9.2,10.9,18.1,22.1,27.8,32.6c14.2,15.4,28.7,30.6,43.7,45.2
		c17.6,17,35.2,34.1,54,49.8c24.1,20.2,49.2,39.2,74.2,58.3c32.2,24.7,64.8,48.9,100.8,68c28.9,15.3,57.9,30.2,91.7,30.8
		c11.1,0.2,22.2,0.1,33.2-0.4c8.1-0.4,14.7-4.1,20.1-10.5c5-6,10.9-11.2,16.3-16.8c28-28.8,53.8-59.5,78.3-91.3
		c26.2-34.1,47.3-71.2,65.3-110.1c1.4-3.1,0.9-4.7-1.8-6.6c-5.4-3.9-11.2-7.5-15.6-12.3c-15.4-17-30.4-34.5-45.4-51.8
		c-11.6-13.3-19.3-28.8-23.7-45.7c-3.2-12.2-5.5-24.7-8.3-37c-6-27.3-10.9-54.9-18.5-81.8c-7.4-26.2-17.4-51.7-26.6-77.4
		c-3.8-10.7-8.4-21-12.5-31.6c-1.4-3.5-2.7-7.2,1.7-10.6c1.1,1.7,2.4,3.1,3,4.7c3.3,8,6.3,16.1,9.7,24c17.5,39.9,32,80.8,40.2,123.7
		c4.3,22.4,9.4,44.6,14.2,66.9c3.9,18,9,35.7,20.1,50.7c8.3,11.4,17.6,22.2,26.8,32.8c10.7,12.3,21.1,24.9,34.5,34.6
		c2.3,1.7,4.8,3.3,7.2,5.1c0.7-1.1,1.2-1.6,1.5-2.2c13.1-32.2,26.2-64.4,39.2-96.7c0.9-2.1,0.7-4.9,0.3-7.3
		c-7.4-39.3-19.8-77-34.6-114.1c-9.9-24.9-20.1-49.7-30.2-74.5c-10.7-26.3-22.8-51.9-37.4-76.1c-17.3-28.7-36.7-56-60.1-80.2
		c-8.7-9-18.2-18.1-29.1-23.9c-15.5-8.2-32.6-13.5-49-19.8c-3.7-1.4-7.7-2.3-11.6-3.4c-0.3,0.4-0.6,0.8-0.9,1.2
		c2,4.1,3.9,8.3,5.9,12.4c7.7,16.6,15.4,33.2,23,49.8c8.4,18.5,19.1,35.4,33.5,49.9c1.3,1.3,0.4,4.7,0.6,7.2
		c-2.1-0.7-4.9-0.8-6.2-2.2c-3.1-3.4-5.6-7.4-8.3-11.2c-5-7-10.6-13.7-15-21.1c-5.9-10-11.1-20.5-16.2-30.9
		c-9.2-18.5-18.1-37.1-27.3-55.5c-1-1.9-3.3-3.9-5.3-4.3c-13.2-2.9-26.3-6.1-39.7-7.7c-25.1-2.9-50.4-4.7-75.6-7.1
		c-43.1-4.2-84.7,3-125.4,16.2c-27.9,9-55.1,19.7-81.4,32.7c-9.5,4.7-19.3,9.5-27.2,16.3c-8.9,7.6-16,17.4-23.4,26.6
		c-17.6,21.8-31.7,45.9-41.2,72.1c-11.8,32.5-22,65.7-32.2,98.7c-8.6,27.8-14.8,56-14.1,85.4c0.3,11.6,0.9,22.8,8.4,32.6
		c5.3,7,9.2,15,14.2,22.3c9.4,13.7,19.1,27.2,28.9,40.7c0.8,1.1,3.1,1.9,4.4,1.5c5.7-1.7,11.3-3.7,16.7-5.9
		c3.8-1.5,8.8-2.6,10.8-5.6c5.3-7.7,11.3-15.8,13.5-24.7c4.9-19.5,8.1-39.4,11.1-59.3c2.8-18.6,3.7-37.4,6.9-55.9
		c4.3-24.7,11.1-48.8,20.6-72.2c8.9-22,19.4-43,32.7-62.5c7.9-11.5,16.1-22.8,24.3-34.1c7.6-10.4,15.3-20.8,23.2-31
		c11.3-14.5,22.8-28.9,34.4-43.2C56,1089.2,60.9,1084.1,65.6,1078.8z M379,1108.4c1.4,1.8,2.8,3.6,4.2,5.4
		c6.6,8.1,13.4,16.2,19.8,24.4c28.3,36.6,50.5,76.6,67.8,119.5c11,27.3,22.1,54.6,33,82c11.3,28.3,21.2,57.1,28.2,86.8
		c1,4.4,2.3,8.7,3.5,13c0.5,0,1,0,1.5-0.1c1.9-8.9,4.1-17.7,5.7-26.7c4.2-25.2,6.4-50.5,3.5-76c-2.7-23.9-10.7-45.9-23.3-66.2
		c-12.3-19.8-24.9-39.4-37.6-58.9c-14.1-21.8-28.2-43.6-46.8-62C421.1,1132.4,401.1,1119.1,379,1108.4z M-226.5,1237.5
		c-2.6-1.8-4.5-3.5-6.6-4.5c-1-0.5-3.1-0.4-3.8,0.4c-8,8.2-16,16.5-23.5,25.1c-1.6,1.9-2.5,5.6-1.9,8.1c2,8,4.4,16.1,7.6,23.7
		c11.1,26.2,22.6,52.2,34.2,78.2c3.5,7.8,7.8,15.1,11.7,22.7c1-1.7,1.1-3,1.1-4.4c0.1-19.1,2.6-37.8,7.7-56.2
		c12.9-46.8,25.1-93.8,45.1-138.2c8.6-19,18.8-37,31.4-53.7c3.8-5.1,7.6-10.1,11.4-15.2c-0.4-0.4-0.8-0.8-1.2-1.2
		c-5.8,3.5-11.8,6.7-16.2,12.2c-14.2,17.8-28,35.9-42.4,53.6c-12.2,15.1-24.9,29.8-37.6,44.6c-3,3.4-2.5,5.5,0.9,8.1
		c6.5,4.9,12.8,10,19.2,15.1c2.7,2.2,4.7,4.6,2.4,8.4c-0.8-0.2-1.3-0.1-1.7-0.4c-8.5-6.1-17-12.2-25.5-18.4c-1.8-1.3-3.5-3-5.4-0.3
		c-2.2,2.9-4.6,3.6-7.6,1.1C-230.3,1243.4-229.8,1240.7-226.5,1237.5z M535.1,1632.5c0.6-0.2,1.2-0.4,1.7-0.6
		c4.6-14.4,7.4-29.3,8-44.4c1.6-36-4.8-71.2-10.5-106.6c-0.2-0.9-0.8-1.8-1.1-2.4c-11.1,26.2-21.8,52.3-33.2,78.1
		c-3.3,7.4-5,13.5,2.3,19.1c0.4,0.3,0.5,0.8,0.8,1.3c7.3,13.4,14.5,26.9,22,40.2C528.2,1622.5,531.8,1627.4,535.1,1632.5z
		 M-158.5,1157.5c-0.2-0.2-0.5-0.4-0.7-0.6c-0.8,0.5-1.6,0.9-2.3,1.5c-15.5,14.8-31.1,29.5-46.4,44.5c-6.5,6.4-12.5,13.4-18.9,19.9
		c-2.7,2.7-1.8,4.4,0.8,6.4c3.3,2.4,6.3,2.6,9.2-0.6c1.8-2,3.9-3.6,5.6-5.6c13.5-16.2,27.1-32.4,40.4-48.7
		C-166.4,1168.8-162.6,1163.1-158.5,1157.5z M271.2,1043.5c0.3,11,1,11.9,9.3,14.4c1.4,0.4,2.8,1,4.2,1.5c6.6,2.3,13.2,4.5,19.8,6.8
		c0.1-0.3,0.3-0.6,0.4-0.9C294.1,1058.3,283.2,1051.3,271.2,1043.5z M-247.7,1231.2c-10,0.2-13.5,4-15,14.5
		C-258.1,1241.3-253.1,1236.5-247.7,1231.2z"/>
	<path d="M672.3,1103.9c1.9,7.1-1.9,10.4-6,13.4c-8.5,6.1-16.7,12.7-25.6,18.1c-14.7,8.8-31,12.7-48.1,12.9
		c-20.1,0.2-40.2,0.1-60.4,0.2c-4.2,0-8.5,0-12.7,0c-0.1-0.5-0.3-1.1-0.4-1.6c2.9-0.9,5.8-2.4,8.7-2.6c17.4-1.5,34.8-3.4,52.3-3.7
		c25.6-0.4,48.2-9.1,69.2-22.8c4-2.6,7.9-5.5,11.7-8.4c0.5-0.3,0.6-1.1,1.5-2.7c-4.3,0-8,0.3-11.6,0c-17.7-1.7-35.4-3.2-53.1-5.3
		c-23.4-2.8-46.9-5.6-70.2-9.3c-24.8-4-48-13.4-70.9-23.6c-21.1-9.4-42.7-17.7-63.9-26.9c-23.8-10.3-47.1-21.8-69.4-35.1
		c-36.2-21.5-73.3-41.3-111.4-59.4c-22.8-10.9-46.2-19.8-70.4-26.7c-24.3-7-49-12.1-74.6-12c-15.1,0.1-30.3-2-45.3-1.4
		c-13,0.5-26,3-38.9,5.3c-11.9,2.1-23.9,4.3-35.5,7.7c-12.7,3.7-25.1,8.4-37.4,13.2c-20.2,7.8-39.8,17-57.1,30.2
		c-12.2,9.4-24.3,19.1-35.3,29.9c-11.3,11.1-21.2,23.7-31.6,35.8c-1.9,2.2-3.2,5.1-4.5,7.7c-1.5,2.9-3.3,4.9-6.6,2.7
		c-3.2-2.1-2.9-5.1-0.9-7.8c6.1-8.1,12.1-16.2,18.5-24.1c19.7-24.4,42.9-44.6,69.7-61.1c22.1-13.6,45.4-24.5,69.9-32.5
		c15.6-5.1,32-7.5,47.9-11.6c21.5-5.6,43.3-6.6,65.4-5c20.2,1.5,40.6,2,60.7,4.3c12.8,1.5,25.3,5.6,37.9,8.5
		c1.9,0.5,3.8,1.1,5.8,1.6c9.4,2.7,7,2.5,11.5-5.9c4.3-7.9,7.2-16.4,11.5-24.3c1.3-2.4,4.7-4.1,7.5-5.2c20.5-8.4,41.5-15,63.8-17
		c3.6-0.3,7.2-1.3,10.8-1.6c10.4-0.6,19.3,4.3,28.6,7.8c6,2.3,11.9,5.1,17.7,7.9c12,5.7,24.5,10.5,35.7,17.5
		c10.8,6.7,18.5,17,24.3,28.4c0.4,0.9,0.9,2,0.7,2.8c-2.5,13-4.6,26.4-11.6,37.9c-2.3,3.8-7,6.3-11,8.8c-1.4,0.9-3.8,0.1-5.4,0.1
		c3.8-7.8,7.6-14.8,10.5-22.1c6.2-15.5,1.3-33.2-11.8-43.6c-3.4-2.7-7.4-4.5-11.1-6.7c-16.2-9.8-34.2-15.1-51.4-22.4
		c-21.1-9-40.5-1.6-60.2,3.4c-9.1,2.3-18,5.5-25.3,11.8c-0.4,0.3-1,0.4-1.2,0.8c-5.2,7.7-10.2,15.6-10.6,25.2
		c-0.1,1.5,2.9,3.7,5,4.6c10.3,4.3,20.9,7.8,31,12.5c16.3,7.5,32.4,15.5,48.3,23.7c18.5,9.6,36.6,19.8,54.9,29.6
		c24.2,12.9,48.2,26.2,72.8,38.3c16.1,8,32.9,14.3,49.5,21.3c17.8,7.5,35.6,14.9,53.5,22.2c21,8.6,43,12.8,65.3,15.6
		c23.1,2.9,46.2,5.5,69.4,7.6c16.7,1.5,33.4,4.5,50.2,0.9c3-0.6,6.5,0.9,9.7,1.6c4,0.8,8,1.4,11.9,2.5c1.8,0.5,3.7,1.6,4.7,3
		c0.5,0.7-0.5,3.1-1.5,4.2c-4.3,5-8.7,5.8-15.8,3.3C678.8,1105.1,676,1104.7,672.3,1103.9z"/>
	<path d="M487.9,838.6c2.5-1.7,4.7-4,7.4-5c23.6-8.8,45.3-20.9,64.3-37.5c13.5-11.8,23.9-25.8,31.3-42.2
		c8.4-18.6,13.8-37.7,14.3-58.2c0.2-6.5,1.7-12.9,2.2-19.3c0.3-3.6-0.6-7.2-0.4-10.8c0.1-2,1.4-3.9,2.1-5.9c1.6,1.2,4.4,2.1,4.7,3.6
		c1.1,5.6,2.2,11.4,1.9,17.1c-0.5,8.8-2.6,17.5-3.1,26.2c-1.1,20.6-8.6,39.1-17.5,57.2c-10.9,22.2-28.8,37.9-48.9,51.5
		c-14.9,10.1-31.6,16.3-47.9,23.3c-2.9,1.3-6.2,1.5-9.3,2.2C488.6,840.1,488.2,839.3,487.9,838.6z"/>
	<path d="M340.6,763.5c-12.6-1.7-24.5-1.5-35-5.2c-17.7-6.2-33.1-15.9-41-35.2c-4.8-11.8-13.7-21.8-20.5-32.8
		c-1-1.6-1.7-4.6-0.8-5.6c1-1.3,4.1-2.1,5.6-1.5c2.5,1,5,3,6.4,5.2c3.8,6,7.1,12.3,10.6,18.5c4.8,8.7,8.9,17.9,14.6,26
		c3.1,4.4,8.8,7.2,13.6,10.3c3.4,2.3,7.4,3.6,10.8,5.9c2.9,2,5.5,2.8,8.7,0.8c4.6-2.8,9-2.8,13.9,0.4c4.1,2.6,9.2,3.5,13.8,5.5
		c1.5,0.7,2.5,2.3,3.8,3.5C343.3,760.9,341.7,762.4,340.6,763.5z"/>
	<path d="M865.4,599.1c0.3,0.2,1.6,0.6,1.9,1.4c0.3,0.8,0,2.4-0.7,3c-2.3,1.9-4.6,4-7.3,5c-1.8,0.7-4.3-0.4-6.5-0.7
		c1.2-2.3,1.8-5.5,3.7-6.8C858.5,599.6,861.8,599.8,865.4,599.1z"/>
	<path class="st0" d="M520.6,504.5c-3.6,2.9-7.8,5.3-10.7,8.8c-8.1,9.5-16,19.2-23.3,29.3c-19.9,27.5-39.1,55.5-59.2,82.9
		c-17.4,23.8-35.6,46.9-53.5,70.3c-9.1,11.9-17.1,24.2-18.2,39.8c-0.1,1-0.8,2-1.5,4c-7.8-5.4-15.3-10.3-22.5-15.4
		c-19.5-13.9-37.8-29.5-55.1-46.1c-0.7-0.7-1.4-1.4-2.1-2.1c-4.4-4.7-4.1-5.2,1.1-9c16.7-12.4,33.7-24.4,49.6-37.7
		c16.3-13.6,32-28.2,47.2-43c23.1-22.5,45.6-45.7,68.6-68.3c13.9-13.6,28.1-26.8,42.4-40c5.4-4.9,11.3-9.2,17.7-14.4
		c5.7,5.5,12,10.7,17.3,16.8c10.5,12,20.6,24.4,30.7,36.7c13.6,16.5,29.9,29.7,48.3,40.5c5.7,3.3,7.1,7.2,6.1,13.4
		c-2.7,17.9-3.9,36.1-7.6,53.8c-5.1,24.8-13.7,48.7-28.1,69.9c-13.6,19.9-26.6,40.4-43.8,57.5c-8.7,8.6-18.8,15.9-28.5,23.4
		c-1.8,1.4-5.1,1.4-7.6,1.3c-9.6-0.2-19.2-0.7-29.8-1.1c1.1-2.4,1.6-3.9,2.5-5.2c9.8-15.7,19.7-31.2,29.3-47
		c11.7-19.2,23.2-38.5,34.4-58c13.4-23.4,23.7-48.1,29.7-74.4c2.1-9.3,1.6-19.1,2.2-28.7c0.1-1.2-0.8-2.4-2.3-3.7
		c-1,4.2-2.4,8.4-3.1,12.7c-4.3,27.1-12.8,52.9-26.3,76.6c-21.7,38.2-44.7,75.6-67.3,113.4c-1.1,1.9-2.8,3.4-3.8,5.3
		c-3.7,7.7-9.7,8.2-17.4,7c-25.5-3.8-48.7-13.4-70.4-26.8c-2.8-1.7-3.7-3.8-3.2-7.1c2.2-14,8.1-26.3,16.5-37.5
		c18.4-24.6,37-49.2,55.3-73.9c5.6-7.6,10.2-16,15.8-23.6c18.9-25.7,38.1-51.2,57.1-76.8c4.3-5.8,8.8-11.6,13-17.5
		c1-1.3,1.3-3.1,2-4.6C521.6,505.5,521.1,505,520.6,504.5z"/>
	<path class="st0" d="M395.7,466.8c-10.1,6.2-20.4,12.3-30.3,18.8c-12.1,7.9-24.1,16-35.9,24.4c-18.7,13.3-37.5,26.6-55.8,40.3
		c-19.8,14.9-39.2,30.3-58.9,45.4c-5.6,4.3-5.5,4-9.5-1.5c-19.3-27-36-55.5-51.3-85c-5-9.7-8.1-8.8,4.2-15.2
		c20.6-10.8,41-22.1,61.9-32.2c19.5-9.3,39.5-17.5,59.4-25.9c19.1-8.1,38.2-16.3,57.7-23.6c20.7-7.7,41.2-16.5,63.8-17.5
		c7.6-0.4,15.3,0,22.9,0.1c1.1,0,2.2,0.7,3.1,1.3c18.7,12.6,36.3,26.4,50.9,43.7c4,4.8,8.8,9,13.2,13.6c1.1,1.2,2,2.5,3.2,4
		c-9.9,8.9-19.6,17.1-28.9,26c-15.6,14.9-31.1,30.1-46.3,45.4c-29.2,29.4-57,60.2-89,86.7c-17,14.1-34.6,27.5-52,41.2
		c-1.6,1.2-3.2,2.4-4.7,3.7c-8,6.7-6.6,7.7-14.5-1.4c-14.1-16.2-27.9-32.6-41.7-49c-3.8-4.6-3.6-6,1.1-9.7
		c8.8-7,17.6-14.1,26.6-20.9c10.9-8.2,21.9-16.1,32.9-24.1c17.6-12.8,35.1-25.8,52.8-38.4c19.4-13.9,39-27.6,58.5-41.5
		c2.9-2.1,5.4-4.6,8.1-6.9C396.7,468.1,396.2,467.5,395.7,466.8z"/>
	<path class="st0" d="M410.7,387.4c-9,1.1-18.1,1.6-27,3.4c-22.4,4.5-43.6,13.1-64.7,21.8c-24.9,10.3-49.6,21.1-74.3,31.8
		c-30.4,13.2-60.5,26.9-89,43.8c-3.1,1.9-6.2,3.7-9.8,5.9c-1.3-2-2.4-3.8-3.5-5.6c-7-11.5-14-23-21-34.5c-1.3-2.1-2.1-4.1,0.9-5.8
		c7.6-4.4,14.9-9.2,22.5-13.4c15.1-8.3,30.3-16.5,45.6-24.5c9.7-5.1,19.4-10.1,29.5-14.3c29.7-12.4,59.2-25.4,91.1-31.8
		c14.8-2.9,29-1.8,43.4,0.5c9.1,1.4,18.3,3.4,26.9,6.8c10.4,4.1,20.1,9.8,30.1,14.8C411.3,386.5,411,387,410.7,387.4z"/>
	<path class="st0" d="M603,550.1c-6.9-4.7-13.6-9.2-20.3-13.8c-12-8.3-20.2-20.1-29.5-30.9c-12.7-14.7-26.1-28.8-39.6-42.8
		c-5.9-6.2-6.2-5.7,0.2-11.1c8.7-7.4,17.7-14.7,21.7-25.9c10.4,6.1,20.7,11.9,30.7,18c1.9,1.2,3.8,2.9,5,4.7
		c19.5,29.6,31.6,61.8,32.9,97.6c0,0.8,0,1.7-0.1,2.5C604,548.7,603.7,549,603,550.1z"/>
	<path class="st0" d="M377.7,360.1c6.9,0,13.2-0.3,19.3,0.1c12.4,0.8,25,1.1,37.2,3.3c13,2.4,25.7,6.5,38.4,10.4
		c6.3,1.9,12.2,5.4,18.5,7.5c12.1,3.9,19,13.4,26.2,22.8c4.1,5.4,8.5,10.6,13,15.7c2,2.2,2.3,3.6-0.1,5.7
		c-8.8,7.8-17.4,16-26.3,23.7c-0.8,0.7-3.5,0.5-4.4-0.3c-4.1-3.7-7.9-7.7-11.6-11.7c-1-1.1-1.5-2.9-1.9-4.5
		c-4-17.7-13.3-31.1-30.9-37.3c-7.3-2.6-15-4.1-22.4-6.3c-2-0.6-3.9-1.7-5.7-2.8c-15.2-9.2-30.2-18.6-47-24.5
		C379.4,361.6,378.9,361,377.7,360.1z"/>
	<path class="st0" d="M636.1,394.2c-22.5-15.1-47.5-26.4-69.8-44.1C576.5,350.8,632.1,385.9,636.1,394.2z"/>
	<path class="st0" d="M588.3,202.2c-4.7-2.6-9.2-5.1-14.4-8C582.8,191,586.5,193.3,588.3,202.2z"/>
	<path class="st0" d="M470.1,418.5c-5.9-5-11.8-10-17.7-15C460.3,406.1,467.2,409.8,470.1,418.5z"/>
	<path class="st0" d="M479.1,366.6c2.1-1.8,3.3-2.9,4.9-4.3c1.5,2.5,2.8,4.7,4.1,6.9c-0.3,0.4-0.6,0.8-0.9,1.2
		C484.7,369.3,482.2,368.1,479.1,366.6z"/>
	<path class="st0" d="M670,428.3c-2.5,1.5-4.1,2.5-6.3,3.9c-0.4-3-0.7-5.4-1.3-9.2C665.4,425,667.3,426.4,670,428.3z"/>
	<path class="st0" d="M534.8,408.1c4,3.6,8,7.2,12,10.8c-0.4,0.4-0.8,0.8-1.1,1.2c-4-3.7-8-7.4-12-11.1
		C534,408.8,534.4,408.5,534.8,408.1z"/>
	<path d="M222.4,1162.1c1.8,7,4.1,13.9,5.3,20.9c5.6,32,10,64.1,16.7,95.9c7.8,37.6,17.2,74.9,26.5,112.2
		c4.1,16.5,10.8,32.3,14.3,48.9c3.9,18.4,6.1,37.4,0.7,55.9c-7.1,24.4-22.5,41.3-47.7,47.7c-9,2.3-18.1,4.5-27.3,5.4
		c-8.4,0.9-17.1,1-25.3-0.4c-14.4-2.4-25.6,3.2-36.1,11.9c-13,10.9-26.1,21.8-42.2,28.1c-8.1,3.2-16.6,5.7-25,7.9
		c-5.2,1.4-9-1.7-11.5-6.1c-5.6-9.8-6.6-20.7-5.9-31.5c0.7-11.4,2.3-22.8,4.1-34.2c2.9-18.4,6.4-36.7,9.6-55
		c4-23.2,11-45.6,18.5-67.7c12-35.6,24.8-71,37.6-106.4c9-24.9,18.8-49.5,27.7-74.4c8.3-23.3,16.9-46.6,23.6-70.5
		c6.6-23.3,8-47.3-0.5-70.8c-1.5-4.1-3.6-7.9-5-12c-0.5-1.5,0.1-3.4,0.2-5.1c1.8,0.3,3.9,0.2,5.4,1.1c1.4,0.9,2.5,2.7,3.3,4.3
		c9.1,17.1,11.8,35.4,10,54.7c-2.4,26.9-11.3,52-20.2,77.1c-5.6,15.8-11.1,31.6-16.9,47.4c-5.8,15.6-11.9,31.1-17.8,46.6
		c-6.2,16.5-12.7,32.9-18.4,49.6c-8.8,25.6-17.1,51.4-25.6,77.1c-10.8,32.5-16.4,66.2-21.3,100c-2.1,14.8-3.5,29.7-4.3,44.6
		c-0.3,5.5,1.4,11.2,2.8,16.6c1,4,4.1,5,8.2,4.1c17.8-3.9,33.4-12,47.7-23.1c6.4-5,13-9.9,19.5-14.8c10.5-7.9,22-10.6,35.2-8.7
		c18.6,2.8,36.5-1.3,54.4-6.3c24.7-6.9,35.8-30.3,37.7-51.1c2.1-22.6-3-43.8-9.9-65.1c-6.2-19.1-9.9-39-14.7-58.5
		c-4.5-18.4-9.4-36.8-13.4-55.4c-4.5-21-8.4-42.1-11.9-63.3c-3.4-21.2-6-42.5-8.8-63.8c-0.6-4.4-1-8.9-1.4-13.3
		C221,1162.4,221.7,1162.3,222.4,1162.1z"/>
</g>
</svg>
