<?xml version="1.0" encoding="utf-8"?>
<!-- Generator: Adobe Illustrator 19.0.1, SVG Export Plug-In . SVG Version: 6.00 Build 0)  -->
<svg version="1.1" id="Layer_1" xmlns="http://www.w3.org/2000/svg" xmlns:xlink="http://www.w3.org/1999/xlink" x="0px" y="0px"
	 width="882.1px" height="824.5px" viewBox="135 -16.5 882.1 824.5" style="enable-background:new 135 -16.5 882.1 824.5;"
	 xml:space="preserve">
<style type="text/css">
	.st0{fill:#FFFFFF;}
</style>
<g>
	<path d="M787.9,195.6c-1.5-11.1-6.7-21.8-13.2-31.3c-6.8-9.9-14.8-18.8-26.8-22.8c-4.6-1.6-9.8-2.5-13.6-5.3
		c-5.9-4.4-11.1-10-16.1-15.5c-6.8-7.4-12.5-15.9-19.8-22.7c-8.7-8.2-16.3-17-22.7-27.1c-6.9-11-13.2-22.4-24-30.5
		c-5.6-4.2-10.6-9.4-15.8-14.1c-1.1-1-3.2-2.8-3-3c2-2.9-0.8-3.6-2.1-4.5c-4.4-3-9-5.7-9.8-11.7c-0.1-0.5-1.3-0.8-2-1.2
		c-4-1.9-6.6,0.4-9.1,2.9c-4.1,4-3.9,13.8,0.1,17.2c3.6,3,7.3,6.1,10.1,9.8c12.4,16.5,24.6,33.1,40.4,46.6c2.2,1.8,4.5,3.5,6.7,5.3
		c3.2,2.8,6.9,5.1,9.5,8.4c4,5,7.3,10.6,10.8,16c3.7,5.6,7.2,11.4,11,17.4c-12.8,1.4-24.6,3.1-36.5,3.9c-4.8,0.3-9.9-0.6-14.6-1.8
		c-5.7-1.5-11.2-4.1-16.9-6c-11.5-3.7-23.2-7-34.6-11c-10.8-3.8-21.4-8.1-32-12.4c-6.5-2.6-13-5.3-19.3-8.4c-6.6-3.2-13-7-19.6-10.3
		c-1.3-0.7-3.1-0.8-4.4-0.4c-4.1,1-6.5,4.5-6.1,8.1c0.4,3,2.7,6.7,5.2,8.3c4.6,2.8,10.1,4.1,15,6.5c15.1,7.3,30.2,14.2,46.5,18.6
		c12.5,3.3,24.6,8,36.8,12.3c4.1,1.4,8,3.6,13.3,6c-4.4,2.7-7.8,4.6-11,6.8c-9.2,6.4-19.7,11.7-27.3,19.7
		c-10.5,11.2-19.1,24.1-21.9,40.1c-2.6,14.3-2.8,27.9,7.5,39.5c3.8,4.2,7.9,8.7,14.3,7.3c2.2-0.5,4.9-3.1,5.5-5.2
		c0.9-3.1-1.6-4.5-4.8-4.8c-1.8-0.2-3.9-0.8-5-2c-6.2-6.5-10.7-13.7-9.4-23.2c2.6-19.2,11.7-35.2,26.6-47
		c11.1-8.8,23.9-15.6,36.3-22.6c2.3-1.4,6.8-0.3,9.7,1c7.6,3.3,14.6,8.1,22.3,10.9c11.2,4.1,22.8,7.1,34.3,10.2
		c1.8,0.5,5.8-0.3,6.1-1.3c1.2-3.7,3.5-2.6,5.9-2.3c8.1,1.1,8.5,0.9,12.2-6.5c0.3-0.6,0.9-1,1.2-1.6c2.2-3.8,0.9-7.1-3.3-8.5
		c-1.4-0.5-2.7-1.4-4.1-2.1c0.3-0.5,0.5-0.9,0.7-1.4c10.3,1,20.3,4.1,28,11c13.3,12,20.5,27.6,20.7,45.5
		c0.4,28.2-10.7,51.4-32.8,69.5c-9.1,7.5-17,16.4-25.5,24.5c-0.3,0.3-0.7,0.5-1.2,0.6c-0.1,0.1-0.2,0.1-0.1,0.3c0,0.1,0,0.1,0,0.2
		c0.3,0.2,0.6,0.5,0.9,0.7c0,0,0,0,0,0c0.1,0,0.2,0,0.3,0.1c0.7,0.5,1.4,1,2.2,1.4c0.8,0.3,1.6,0.5,2.4,0.9c1.3-1,2.3-1.8,3.3-2.5
		c11.2-7.7,22.9-14.7,33.3-23.3c6.7-5.6,12.5-13.1,16.7-20.8c4.9-9.1,8.8-19.1,10.8-29.2C788.3,217.9,789.4,206.4,787.9,195.6z
		 M695.4,145.8c8.9-3.2,12.6-0.9,14.4,8C705,151.1,700.6,148.7,695.4,145.8z"/>
	<path d="M924.9,527.1c-2,0.4-4.1,0.6-6.1,1.2c-8.5,2.4-16.9,5.5-25.6,7.2c-23.6,4.6-47.3,4.2-70.8-1c-15.4-3.4-30.7-7.5-46.1-11
		c-13.2-3.1-26-7-37.3-14.7c-1.7-1.2-3.3-4-3.3-6c0.4-32-7.8-61.8-22.7-90c-0.5-1-0.8-2.2-1.4-4c6.3,2.1,11.7,4.1,17.3,5.5
		c7,1.7,14.2,3.9,21.3,4c13.9,0.2,23.5-9.4,33.6-17.4c1.4-1.2,2.7-3.2,3-5c0.5-3.1,2.3-3.5,4.8-3.9c5.2-0.7,10.4-1.5,15.5-2.7
		c7.6-1.8,9.7-8.7,4-14.2c-3-2.9-6.9-4.9-10.7-6.8c-17.2-8.6-21.7-12.2-28.2-25.1c-4.4-8.7-11-14.8-19.3-19.5
		c-5.8-3.3-11.6-6.6-17.2-10.1c-4.5-2.8-8.7-5.9-13.5-9.2c0,0,0.1,0,0.1-0.1c-0.5-0.3-1-0.6-1.6-0.9c-0.3-0.1-0.6-0.2-0.9-0.4
		c-0.7-0.3-1.3-0.8-2-1.3c0,0,0,0,0,0c-1.2-0.4-2.2-1.2-3.2-1.9c-1-0.4-1.8-1.4-2.9-2c-14.5-7.7-30.9-11.2-44.6-20.8
		c-7.8-5.5-16.9-9.4-24.3-15.4c-7.1-5.8-12.8-13.3-19.4-19.9c-1-1-3.6-1.8-4.7-1.2c-3.6,1.8-6.4,4.4-7,9c-0.4,2.7-2,5.4-3.8,7.5
		c-2.6,3-5.4,5.6-1.8,9.7c0.4,0.5,0.8,1.5,0.6,2.2c-2.5,10.8-5,21.6-7.8,32.3c-1.1,4.2-2.8,8.2-4.3,12.7c-0.6-0.2-2-0.6-3.4-1
		c-8.7-2.5-17.1-6.4-25.9-7.3c-22.7-2.4-45.6-4.7-68.5-4.9c-26.1-0.3-52.2,1.1-78.2,2.9c-12.1,0.8-24.5,2.9-36.1,6.7
		c-13.7,4.5-26.6,11.3-39.8,17.2c-24.2,10.8-47.6,22.7-67.6,40.7c-9.3,8.3-20.5,14.7-30.8,21.9c-1,0.7-2.3,1-3.6,1.5
		c-1.2-2.5-2-4.8-3.4-6.5c-1-1.2-3.2-2.3-4.5-2c-1.2,0.3-2.5,2.5-2.7,4c-0.3,2.2,0.5,4.6,0.4,6.9c-0.1,2.1-0.6,4.2-1.2,6.3
		c-0.7,2.3-1.7,4.5-2.5,6.7c2.2-0.3,4.5-0.6,6.7-0.9h1.1c8,13.2,16.1,26.6,24.3,39.9c1.8,2.9,0.2,4.1-1.9,5.5
		c-9.6,6.2-19.4,12.2-28.8,18.8c-18.5,13-37,26-55.1,39.5c-4.4,3.3-7.6,8.2-11.3,12.3c0.7,0.7,1.3,1.3,1.9,2
		c16.1-12,31.9-24.4,48.3-35.9c16.7-11.6,34.1-22.4,51.4-33.7c1.4,2.3,2.6,3.7,3.4,5.3c4.8,9.2,9.1,18.9,14.5,27.8
		c12.8,21.2,26.2,42.1,39.4,63.1c3.2,5.1,3.4,5.6-1.9,8.7c-10.8,6.5-21.4,13.6-32.9,18.7c-10,4.5-20.9,7.6-31.8,9.6
		c-10.5,1.9-21.5,1.9-32.3,2.4c-3.3,0.2-7.4,0.1-10-1.6c-6.8-4.4-13.1-9.6-19.1-15.1c-3-2.7-5.1-5.4-9.7-4.7
		c-1.6,0.2-3.8-1.4-5.1-2.7c-2.8-2.8-5.4-5.9-7.8-9.1c-4.3-5.8-4-5.8,0.8-11.1c1.2-1.3,2.2-4.5,1.5-5.7c-3.3-5.2-7.8,1.5-11.8-0.5
		c-0.4-0.3-2.3,2.2-3.5,3.5c-0.2,0.2-0.2,0.7-0.1,1c1.5,5.2,2.7,10.6,4.9,15.5c1.9,4,4.8,7.8,7.8,11c3.6,3.8,7.3,8.5,11.9,10.1
		c7.8,2.8,14.8,6.6,21,12c5.6,4.8,12.1,6.6,19.5,5.8c6-0.6,11.9-1.2,17.9-1.2c23,0.1,43.7-7.7,63.1-19.3c7.1-4.2,13.8-9.2,20.7-13.8
		c2.3-1.5,4.3-3.1,6.6,0.3c13.2,19.2,29.1,36.3,44.9,53.4c4.5,4.9,4.4,5-0.2,9.7c-0.2,0.2-0.1,0.6-0.3,2.1c1.7,0.2,4,1.2,5,0.5
		c4-2.8,6.1-0.5,8.9,2c14.2,12.8,28.1,26.1,42.9,38.1c13.1,10.7,27.5,19.9,41.2,29.9c1.5,1.1,2,3.5,2.7,5.4c0.5,1.3,0,3.6,0.7,3.9
		c1.5,0.7,4.2,1.1,5,0.3c3.1-3.1,5.6-1.6,8.4,0.1c19.4,11.8,40.1,20.1,62.7,23.4c2.9,0.4,5.7,1,9.9,1.8c-7.4,7.8-12.3,16.3-22,19.6
		c-2.8,0.9-4.6,2.5-3.9,5.3c0.5,1.9,2,4.3,3.7,4.9c7.9,3.1,15.8,6.1,24,8.1c13.7,3.4,27.3,6.4,36.7,18.4c0.9,1.2,4.3,0.4,6.5,0.5
		c-0.5-1.9-0.4-4.4-1.6-5.6c-7.3-7.2-15.5-12.9-25.6-15.8c-8.4-2.4-16.7-5.3-25-8.2c-3.2-1.2-3.8-3.2-1.1-6
		c5.9-6.1,11.5-12.5,17.4-18.6c0.9-1,2.5-1.9,3.7-1.9c9.1,0.1,18.3,0.4,27.4,0.8c1.1,0,3.1,1.1,3.1,1.6c-0.2,4.2,2.4,5.6,5.6,5.3
		c2.8-0.3,5.9-1.3,8-3c6.2-5.1,11.8-11.1,18.1-16.2c11.8-9.6,22.4-20.3,31.4-32.6c5.9-8.1,11.3-16.5,17.5-24.3
		c17.1-21.6,28.7-46.1,36.4-72.2c5.3-18,7.5-37.1,10.7-55.7c1.2-6.6,1.4-13.4,2-19.8c50.5,18.1,100.4,33.5,154.3,25.3
		c0,0.6,0.1,1-0.1,1.2c-0.7,0.9-1.5,1.8-2.4,2.5c-15.3,12.3-30.9,24.4-50,30.2c-27.4,8.2-55,15.7-82.5,23.6
		c-2.8,0.8-5.5,1.9-8.3,2.8c0.1,0.5,0.3,1.1,0.4,1.6c8,1.6,16,0.7,23.8-1.4c19.2-5.3,38.2-11.5,57.6-16
		c25.2-5.9,46.1-19.4,65.8-35.2c4.8-3.8,7.2-10.4,12-14.2c4.9-3.9,11.5-5.7,17.2-8.7c1.2-0.5,1.8-2.2,2.7-3.3
		C925.4,527.8,925.2,527.5,924.9,527.1z M792.9,378.8c-2.5,1.5-4.1,2.5-6.2,3.9c-0.5-3.1-0.8-5.4-1.3-9.2
		C788.3,375.6,790.2,376.9,792.9,378.8z M759,344.7c-22.5-15.2-47.5-26.4-69.8-44.1C699.5,301.4,755,336.4,759,344.7z M615,295.6
		c1.8-3.5,2.8-7.4,4.3-11.1c2.3-5.6,6.2-7.1,12-5.6c3.9,1,8.1,1,12.2,1.4c8.5,0.8,14.3,6.3,20.2,11.6c8,7.2,15.4,15.1,23.8,21.9
		c6.5,5.3,14,9.3,21.1,13.8c9.1,5.7,18.3,11.3,27.5,17c10.8,6.6,21.4,13.4,32.3,19.6c4.6,2.6,7.3,5.4,6.7,10.9
		c-0.2,1.3,0.2,2.7,0.4,4c0.6,5.1-0.5,8.9-6.5,9.4c-0.9,0-2,0.5-2.7,1.1c-1.2,1-2.1,2.3-3.1,3.5c1.2,0.9,2.3,1.9,3.5,2.8
		c0.6,0.4,1.4,0.7,2.1,1.1c-6,9.4-16.9,13.1-27.3,10c-5.1-1.5-10.4-2.4-15.3-4.4c-6.3-2.5-12.3-5.7-18.4-8.7
		c-9.6-4.8-16.4-12.8-23.3-20.7c-11.8-13.5-25.1-25.3-40.4-34.7c-12.3-7.6-21.4-18.2-28.6-30.6C613.3,304.1,612.7,300,615,295.6z
		 M669.7,369.5c-0.3,0.4-0.7,0.8-1.1,1.2l-12-11.1c0.4-0.3,0.7-0.7,1.1-1C661.7,362.2,665.7,365.9,669.7,369.5z M607.1,312.8
		c1.5,2.5,2.8,4.7,4.1,6.9c-0.3,0.4-0.6,0.8-0.9,1.2c-2.6-1.1-5.1-2.3-8.2-3.8C604.2,315.4,605.4,314.3,607.1,312.8z M520,310.6
		c12.4,0.8,25,1.1,37.2,3.3c13,2.4,25.7,6.5,38.4,10.4c6.4,2,12.2,5.4,18.5,7.5c12,4,19,13.4,26.2,22.8c4.1,5.4,8.5,10.6,13,15.7
		c2,2.2,2.3,3.6-0.1,5.7c-8.8,7.8-17.4,15.9-26.3,23.7c-0.8,0.7-3.5,0.5-4.4-0.3c-4.1-3.7-7.9-7.6-11.6-11.7
		c-1.1-1.2-1.6-2.9-1.9-4.5c-4-17.7-13.3-31-30.9-37.3c-7.3-2.6-14.9-4.1-22.4-6.3c-2-0.6-3.9-1.7-5.7-2.8
		c-15.1-9.2-30.1-18.6-47-24.5c-0.6-0.2-1.2-0.9-2.3-1.7C507.6,310.6,513.9,310.3,520,310.6z M593,369c-5.9-5-11.8-10-17.7-15
		C583.2,356.6,590.2,360.3,593,369z M265.5,438.9l-21-34.5c-1.3-2.1-2.1-4.1,0.9-5.8c7.6-4.3,14.9-9.2,22.5-13.4
		c15.1-8.3,30.3-16.5,45.6-24.5c9.7-5,19.4-10.1,29.5-14.3c29.7-12.4,59.2-25.4,91.1-31.8c14.8-2.9,29-1.8,43.4,0.5
		c9.1,1.5,18.3,3.5,26.9,6.8c10.4,4,20.1,9.8,30.1,14.8c-0.3,0.4-0.5,0.8-0.8,1.2c-9,1.1-18.1,1.6-26.9,3.3
		c-22.5,4.6-43.6,13.1-64.7,21.8c-24.9,10.2-49.6,21.1-74.3,31.8c-30.4,13.2-60.5,26.9-89,43.8c-3.2,1.9-6.3,3.8-9.8,5.9
		C267.7,442.4,266.6,440.7,265.5,438.9z M381.9,609.7c-14-16.2-27.9-32.6-41.7-49c-3.9-4.6-3.6-6,1.1-9.7c8.8-7,17.6-14.1,26.6-20.9
		c10.8-8.2,21.9-16.1,32.9-24.1c17.6-12.8,35.1-25.7,52.8-38.4c19.4-13.9,39-27.6,58.5-41.5c2.8-2.1,5.4-4.6,8.1-6.9
		c-0.5-0.7-1-1.3-1.5-1.9c-10.2,6.3-20.4,12.3-30.3,18.9c-12.1,7.9-24.1,16-35.9,24.4c-18.7,13.3-37.4,26.5-55.8,40.3
		c-19.8,14.9-39.2,30.3-58.9,45.4c-5.6,4.3-5.5,4.1-9.5-1.5c-19.2-27.1-36-55.6-51.3-85c-5-9.7-8.1-8.8,4.2-15.2
		c20.6-10.8,40.9-22.1,61.9-32.2c19.5-9.4,39.5-17.5,59.4-25.9c19.2-8.1,38.2-16.4,57.7-23.6c20.7-7.7,41.3-16.4,63.8-17.5
		c7.6-0.4,15.3,0,22.9,0.1c1,0,2.2,0.7,3.1,1.3c18.7,12.5,36.3,26.3,50.9,43.7c4.1,4.8,8.8,9.1,13.2,13.6c1.2,1.1,2,2.5,3.2,4
		c-9.9,8.9-19.7,17.2-28.9,26c-15.6,14.9-31.1,30-46.3,45.4c-29.2,29.4-57,60.2-89,86.7c-17,14.1-34.7,27.5-52,41.2
		c-1.6,1.2-3.2,2.4-4.7,3.7C388.4,617.8,389.7,618.8,381.9,609.7z M726.5,521.4c-2.8,17.9-3.9,36.1-7.6,53.8
		c-5.1,24.9-13.7,48.7-28.1,69.9c-13.6,20-26.6,40.4-43.8,57.5c-8.7,8.6-18.8,15.9-28.5,23.4c-1.8,1.4-5,1.4-7.6,1.3
		c-9.6-0.2-19.2-0.7-29.8-1.1c1.1-2.4,1.7-3.9,2.5-5.2c9.8-15.7,19.7-31.2,29.3-47c11.6-19.2,23.2-38.5,34.4-58
		c13.4-23.4,23.7-48.2,29.7-74.4c2.1-9.2,1.6-19.1,2.2-28.7c0.1-1.2-0.7-2.4-2.3-3.7c-1.1,4.2-2.4,8.4-3.1,12.7
		c-4.3,27.1-12.8,52.9-26.3,76.6c-21.8,38.2-44.8,75.7-67.3,113.4c-1.1,1.9-2.9,3.4-3.8,5.3c-3.7,7.7-9.6,8.2-17.4,7
		c-25.5-3.8-48.6-13.4-70.4-26.8c-2.8-1.8-3.7-3.9-3.2-7.1c2.2-14,8.1-26.3,16.5-37.5c18.4-24.6,37-49.2,55.3-73.9
		c5.6-7.6,10.2-16,15.8-23.6c18.9-25.7,38-51.2,57.1-76.8c4.3-5.8,8.7-11.6,13-17.5c1-1.3,1.4-3.1,2-4.6c-0.5-0.5-1-0.9-1.5-1.4
		c-3.6,2.9-7.8,5.3-10.7,8.7c-8.1,9.5-16,19.2-23.3,29.3c-19.9,27.5-39.1,55.5-59.2,82.9c-17.4,23.7-35.6,46.9-53.5,70.3
		c-9.1,11.9-17.1,24.2-18.2,39.8c0,1-0.7,2-1.5,4c-7.8-5.3-15.2-10.2-22.5-15.4c-19.6-13.9-37.8-29.5-55.1-46.1
		c-0.7-0.6-1.4-1.4-2.1-2.1c-4.4-4.7-4.1-5.2,1.1-9c16.6-12.4,33.7-24.4,49.6-37.7c16.3-13.6,31.9-28.2,47.2-43
		c23.2-22.4,45.6-45.7,68.6-68.3c13.8-13.6,28.1-26.8,42.4-40c5.4-4.9,11.3-9.2,17.7-14.4c5.7,5.5,12,10.7,17.3,16.8
		c10.5,12,20.5,24.4,30.7,36.7c13.7,16.4,30,29.7,48.3,40.5C726,511.4,727.5,515.2,726.5,521.4z M726.9,498.9c0,0.3-0.3,0.5-1,1.7
		c-6.9-4.7-13.6-9.2-20.3-13.8c-12-8.3-20.2-20.1-29.5-30.9c-12.7-14.7-26.1-28.8-39.6-42.8c-6-6.2-6.2-5.7,0.2-11.1
		c8.8-7.4,17.7-14.7,21.7-25.9c10.4,6.1,20.6,11.9,30.7,18c1.9,1.1,3.8,2.8,5,4.7c19.5,29.7,31.6,61.8,32.9,97.6
		C727,497.3,727,498.1,726.9,498.9z"/>
	<path d="M610.8,789.1c2.5-1.7,4.7-4,7.4-5c23.6-8.8,45.3-20.9,64.3-37.5c13.5-11.8,23.9-25.8,31.3-42.2
		c8.4-18.6,13.8-37.7,14.3-58.2c0.2-6.5,1.7-12.9,2.2-19.3c0.3-3.6-0.6-7.2-0.4-10.8c0.1-2,1.4-3.9,2.1-5.9c1.6,1.2,4.4,2.1,4.7,3.6
		c1.1,5.6,2.2,11.4,1.9,17.1c-0.5,8.8-2.6,17.5-3.1,26.2c-1.1,20.6-8.6,39.1-17.5,57.2c-10.9,22.2-28.8,37.9-48.9,51.5
		c-14.9,10.1-31.6,16.3-47.9,23.3c-2.9,1.3-6.2,1.5-9.3,2.2C611.6,790.6,611.2,789.8,610.8,789.1z"/>
	<path d="M463.5,714c-12.6-1.7-24.5-1.5-35-5.2c-17.7-6.2-33.1-15.9-41-35.2c-4.8-11.8-13.7-21.8-20.5-32.8c-1-1.6-1.7-4.6-0.8-5.6
		c1-1.3,4.1-2.1,5.6-1.5c2.5,1,5,3,6.4,5.2c3.8,6,7.1,12.3,10.6,18.5c4.8,8.7,8.9,17.9,14.6,26c3.1,4.4,8.8,7.2,13.6,10.3
		c3.4,2.3,7.4,3.6,10.8,5.9c2.9,2,5.5,2.8,8.7,0.8c4.6-2.8,9-2.8,13.9,0.4c4.1,2.6,9.2,3.5,13.8,5.5c1.5,0.7,2.5,2.3,3.8,3.5
		C466.3,711.4,464.7,712.9,463.5,714z"/>
	<path d="M988.3,549.6c0.3,0.2,1.6,0.6,1.9,1.4c0.3,0.8,0,2.4-0.7,3c-2.3,1.9-4.6,4-7.3,5c-1.8,0.7-4.3-0.4-6.5-0.7
		c1.2-2.3,1.8-5.5,3.7-6.8C981.5,550.1,984.8,550.3,988.3,549.6z"/>
	<path class="st0" d="M643.6,455c-3.6,2.9-7.8,5.3-10.7,8.8c-8.1,9.5-16,19.2-23.3,29.3c-19.9,27.5-39.1,55.5-59.2,82.9
		c-17.4,23.8-35.6,46.9-53.5,70.3c-9.1,11.9-17.1,24.2-18.2,39.8c-0.1,1-0.8,2-1.5,4c-7.8-5.4-15.3-10.3-22.5-15.4
		c-19.5-13.9-37.8-29.5-55.1-46.1c-0.7-0.7-1.4-1.4-2.1-2.1c-4.4-4.7-4.1-5.2,1.1-9c16.7-12.4,33.7-24.4,49.6-37.7
		c16.3-13.6,32-28.2,47.2-43c23.1-22.5,45.6-45.7,68.6-68.3c13.9-13.6,28.1-26.8,42.4-40c5.4-4.9,11.3-9.2,17.7-14.4
		c5.7,5.5,12,10.7,17.3,16.8c10.5,12,20.6,24.4,30.7,36.7c13.6,16.5,29.9,29.7,48.3,40.5c5.7,3.3,7.1,7.2,6.1,13.4
		c-2.7,17.9-3.9,36.1-7.6,53.8c-5.1,24.8-13.7,48.7-28.1,69.9c-13.6,19.9-26.6,40.4-43.8,57.5c-8.7,8.6-18.8,15.9-28.5,23.4
		c-1.8,1.4-5.1,1.4-7.6,1.3c-9.6-0.2-19.2-0.7-29.8-1.1c1.1-2.4,1.6-3.9,2.5-5.2c9.8-15.7,19.7-31.2,29.3-47
		c11.7-19.2,23.2-38.5,34.4-58c13.4-23.4,23.7-48.1,29.7-74.4c2.1-9.3,1.6-19.1,2.2-28.7c0.1-1.2-0.8-2.4-2.3-3.7
		c-1,4.2-2.4,8.4-3.1,12.7c-4.3,27.1-12.8,52.9-26.3,76.6c-21.7,38.2-44.7,75.6-67.3,113.4c-1.1,1.9-2.8,3.4-3.8,5.3
		c-3.7,7.7-9.7,8.2-17.4,7c-25.5-3.8-48.7-13.4-70.4-26.8c-2.8-1.7-3.7-3.8-3.2-7.1c2.2-14,8.1-26.3,16.5-37.5
		c18.4-24.6,37-49.2,55.3-73.9c5.6-7.6,10.2-16,15.8-23.6c18.9-25.7,38.1-51.2,57.1-76.8c4.3-5.8,8.8-11.6,13-17.5
		c1-1.3,1.3-3.1,2-4.6C644.6,456,644.1,455.5,643.6,455z"/>
	<path class="st0" d="M518.7,417.3c-10.1,6.2-20.4,12.3-30.3,18.8c-12.1,7.9-24.1,16-35.9,24.4c-18.7,13.3-37.5,26.6-55.8,40.3
		c-19.8,14.9-39.2,30.3-58.9,45.4c-5.6,4.3-5.5,4-9.5-1.5c-19.3-27-36-55.5-51.3-85c-5-9.7-8.1-8.8,4.2-15.2
		c20.6-10.8,41-22.1,61.9-32.2c19.5-9.3,39.5-17.5,59.4-25.9c19.1-8.1,38.2-16.3,57.7-23.6c20.7-7.7,41.2-16.5,63.8-17.5
		c7.6-0.4,15.3,0,22.9,0.1c1.1,0,2.2,0.7,3.1,1.3c18.7,12.6,36.3,26.4,50.9,43.7c4,4.8,8.8,9,13.2,13.6c1.1,1.2,2,2.5,3.2,4
		c-9.9,8.9-19.6,17.1-28.9,26c-15.6,14.9-31.1,30.1-46.3,45.4c-29.2,29.4-57,60.2-89,86.7c-17,14.1-34.6,27.5-52,41.2
		c-1.6,1.2-3.2,2.4-4.7,3.7c-8,6.7-6.6,7.7-14.5-1.4c-14.1-16.2-27.9-32.6-41.7-49c-3.8-4.6-3.6-6,1.1-9.7
		c8.8-7,17.6-14.1,26.6-20.9c10.9-8.2,21.9-16.1,32.9-24.1c17.6-12.8,35.1-25.8,52.8-38.4c19.4-13.9,39-27.6,58.5-41.5
		c2.9-2.1,5.4-4.6,8.1-6.9C519.7,418.6,519.2,418,518.7,417.3z"/>
	<path class="st0" d="M533.7,337.9c-9,1.1-18.1,1.6-27,3.4c-22.4,4.5-43.6,13.1-64.7,21.8c-24.9,10.3-49.6,21.1-74.3,31.8
		c-30.4,13.2-60.5,26.9-89,43.8c-3.1,1.9-6.2,3.7-9.8,5.9c-1.3-2-2.4-3.8-3.5-5.6c-7-11.5-14-23-21-34.5c-1.3-2.1-2.1-4.1,0.9-5.8
		c7.6-4.4,14.9-9.2,22.5-13.4c15.1-8.3,30.3-16.5,45.6-24.5c9.7-5.1,19.4-10.1,29.5-14.3c29.7-12.4,59.2-25.4,91.1-31.8
		c14.8-2.9,29-1.8,43.4,0.5c9.1,1.4,18.3,3.4,26.9,6.8c10.4,4.1,20.1,9.8,30.1,14.8C534.2,337,534,337.5,533.7,337.9z"/>
	<path class="st0" d="M725.9,500.6c-6.9-4.7-13.6-9.2-20.3-13.8c-12-8.3-20.2-20.1-29.5-30.9c-12.7-14.7-26.1-28.8-39.6-42.8
		c-5.9-6.2-6.2-5.7,0.2-11.1c8.7-7.4,17.7-14.7,21.7-25.9c10.4,6.1,20.7,11.9,30.7,18c1.9,1.2,3.8,2.9,5,4.7
		c19.5,29.6,31.6,61.8,32.9,97.6c0,0.8,0,1.7-0.1,2.5C726.9,499.2,726.6,499.5,725.9,500.6z"/>
	<path class="st0" d="M500.7,310.6c6.9,0,13.2-0.3,19.3,0.1c12.4,0.8,25,1.1,37.2,3.3c13,2.4,25.7,6.5,38.4,10.4
		c6.3,1.9,12.2,5.4,18.5,7.5c12.1,3.9,19,13.4,26.2,22.8c4.1,5.4,8.5,10.6,13,15.7c2,2.2,2.3,3.6-0.1,5.7
		c-8.8,7.8-17.4,16-26.3,23.7c-0.8,0.7-3.5,0.5-4.4-0.3c-4.1-3.7-7.9-7.7-11.6-11.7c-1-1.1-1.5-2.9-1.9-4.5
		c-4-17.7-13.3-31.1-30.9-37.3c-7.3-2.6-15-4.1-22.4-6.3c-2-0.6-3.9-1.7-5.7-2.8c-15.2-9.2-30.2-18.6-47-24.5
		C502.4,312.1,501.8,311.5,500.7,310.6z"/>
	<path class="st0" d="M759,344.7c-22.5-15.1-47.5-26.4-69.8-44.1C699.5,301.3,755,336.4,759,344.7z"/>
	<path class="st0" d="M711.3,152.7c-4.7-2.6-9.2-5.1-14.4-8C705.8,141.5,709.4,143.8,711.3,152.7z"/>
	<path class="st0" d="M593,369c-5.9-5-11.8-10-17.7-15C583.2,356.6,590.2,360.3,593,369z"/>
	<path class="st0" d="M602.1,317.1c2.1-1.8,3.3-2.9,4.9-4.3c1.5,2.5,2.8,4.7,4.1,6.9c-0.3,0.4-0.6,0.8-0.9,1.2
		C607.7,319.8,605.2,318.6,602.1,317.1z"/>
	<path class="st0" d="M792.9,378.8c-2.5,1.5-4.1,2.5-6.3,3.9c-0.4-3-0.7-5.4-1.3-9.2C788.4,375.5,790.3,376.9,792.9,378.8z"/>
	<path class="st0" d="M657.7,358.6c4,3.6,8,7.2,12,10.8c-0.4,0.4-0.8,0.8-1.1,1.2c-4-3.7-8-7.4-12-11.1
		C657,359.3,657.4,359,657.7,358.6z"/>
</g>
</svg>
