<?xml version="1.0" encoding="utf-8"?>
<!-- Generator: Adobe Illustrator 20.0.0, SVG Export Plug-In . SVG Version: 6.00 Build 0)  -->
<svg version="1.1" id="Layer_1" xmlns="http://www.w3.org/2000/svg" xmlns:xlink="http://www.w3.org/1999/xlink" x="0px" y="0px"
	 viewBox="0 0 1238.9 1558.6" style="enable-background:new 0 0 1238.9 1558.6;" xml:space="preserve">
<g>
	<path style="fill:#FFFFFF;" d="M1122.9,459.2c0.9,18.6,2,36.5,0.3,54.4c-1.6-4.8-3-9.6-3.5-14.6c-1.1-10.5-3-20.8-5.5-31
		c-0.2-0.8-0.6-1.7-0.3-2.3c2-3.9-0.2-6.8-1.8-10.1c-0.6-1.3-1.1-3.1-0.7-4.4c0.7-2.3,2.8-0.9,4.8-0.7c-1-1.6-1.7-2.7-2.2-3.5
		c-1.4,0.5-2.5,0.9-3.8,1.4c-1.9-7.5-2.9-14.8-6.5-21.4c-2.1-3.8-3.1-8.3-4.8-12.4c-0.3-0.8-1.4-1.3-2.3-2.1
		c-1.3,2.1-2.2,3.8-3.3,5.3c-1,1.3,0.3,4.4-4.2,4.1c3.7-3.2,3.4-7.9,7-10.5c0.6-0.4,0.7-2.1,0.5-3c-1-3.2-2.3-6.2-3.4-9.3
		c-2.1-6-4.1-12.1-6-18.1c-0.3-1-0.4-2.3-0.2-3.3c1-3.9-1.2-5.9-4.2-7.6c-0.7-0.4-1.5-1.1-1.9-1.8c-4.2-7.3-8.5-14.5-12.6-21.8
		c-5.1-9.3-9.4-19-16.6-27.1c-3.9-4.4-6.7-9.7-9.9-14.6c-3.1-4.7-6-9.7-9.3-14.3c-2.7-3.7-5.8-7.1-8.9-10.6
		c-2.9-3.4-5.9-6.7-8.9-9.9c-2-2.1-3.6-4.4-3.8-7.6c0.8-0.5,1.7-0.9,2.3-1.5c4.9-4.5,9.8-9,14.7-13.5c7.5-6.9,15-13.9,22.5-20.8
		c2.3-2.2,4.6-4.4,7-6.5c3.2-2.9,6.5-5.6,9.5-8.6c4.2-4.1,8.1-8.5,12.2-12.7c3.5-3.6,7.1-7.2,10.8-10.6c4.6-4.2,9.5-8,13.9-12.2
		c5.9-5.6,11.4-11.5,17.2-17.2c0.9-0.9,2.5-1.7,3.6-1.5c1.9,0.2,1.5,2.1,1.5,3.5c-0.2,8.3-0.5,16.5-0.8,24.8
		c-0.3,7.8-0.7,15.6-1,23.8c-0.5,0.2-1.4,0.5-2.4,0.9c1,1.9,2.8,3.7,2.8,5.5c0.2,4.5,1.4,9.1-1.2,13.4c-0.4,0.7-0.6,2.1-0.2,2.7
		c1.4,1.8,0.5,3.3-0.3,4.9c-0.6,1.3-1.3,2.3-0.4,3.9c0.6,1.1,0.2,2.8,0.3,4.2c0.1,5-0.4,10,0.3,15c0.5,3.7,0.5,7.6-1.7,11
		c-0.1,0.2,0,0.6,0,1c0.9,0.4,1.8,0.9,3.3,1.7c-1.6,1-2.8,1.8-3.9,2.5c0.5,0.3,1.2,0.6,1.2,0.9c0.1,3.3,0.1,6.5,0,9.8
		c-0.3,7.5-2.8,14.8-0.9,22.5c0.8,3.1,0.3,6.6,0.4,9.9c0.1,3.8-0.6,7.8,0.5,11.3c1.7,5.3,0.6,10.6,0.4,15.6
		c-0.1,4.8-0.6,9.5,0.2,14.3c0.2,1-0.1,2.1-0.3,3.2c-0.1,0.9-0.5,1.8-0.4,2.7c0.2,2.7,0.8,5.3,0.6,8c-0.3,5.2,0.1,10.5-3,15.2
		c0.9,0.1,1.7,0.1,2.6,0.2c0.1,0.7,0.2,1.3,0.1,1.9c-0.1,6-0.6,12-0.1,17.9c0.7,8.7,0.8,17.4,0.1,26.1c-0.2,2.2,0.7,3.5,2.4,4.1
		c1.6,0.6,3.3,0.8,4.9,1.1c1.2-2.8,1-4.9,0.5-7.4c-0.6-2.9-0.2-5.9-0.2-8.9c0-0.8,0.4-1.6,0.3-2.4c-1.5-9.5-0.2-19-0.1-28.5
		c0.1-6.2,0.9-12.4,0.2-18.5c-1.4-12.3,0.7-24.4,0.3-36.6c-0.2-6.6,0.3-13.3,0.2-20c-0.1-6.4-0.8-12.7-0.7-19.1
		c0.1-8.2,0.8-16.5,1.1-24.7c0.3-8.4,0.3-16.9,0.5-25.3c0-2.5,0.1-5.1,0-7.6c-0.2-6.8-0.5-13.7-0.6-20.5c-0.1-5.6,0-11.1-0.1-16.7
		c0-4.6,0-9.3-0.1-13.9c0-7.5-0.1-15-0.1-22.5c0-6.4,0.1-12.7,0.1-19.1c0-0.6-0.5-1.1-0.7-1.8c-1.1-0.1-2-0.3-3-0.2
		c-4.9,0.1-9.9,0.3-14.8,0.3c-10.2-0.1-20.3-0.3-30.5-0.4c-8.6-0.1-17.2,0.1-25.8-0.1c-14.5-0.4-28.9-1.1-43.4-1.6
		c-10.3-0.4-20.7-0.8-31-1c-5-0.1-9.9,0.1-14.9,0.2c-6.4,0.1-12.7,0.5-19.1,0.5c-6.3-0.1-12.7-0.8-19-0.8c-12.9,0-25.9,0.2-38.8,0.4
		c-15,0.2-29.9-1.4-44.9-0.3c-7.3,0.5-14.7,0.2-22,0.3c-3.5,0-7,0.1-10.5,0c-6.5-0.1-13-1.2-19.5,0.6c-0.7,0.2-1.6-0.1-2.4-0.2
		c-5.4-0.3-10.8-0.8-16.2-0.9c-9.2-0.2-18.5-0.2-27.7-0.3c-3.6,0-7.3,0-10.9,0.2c-3.2,0.1-6.3,0.6-9.5,0.7
		c-12.6,0.7-25.1-1.6-37.7-0.6c-8.2,0.7-16.5,0.3-24.8,0.4c-4.3,0-8.6,0.1-12.9,0c-10.7-0.3-21.4-0.8-32.1-1
		c-9.2-0.2-18.5-0.1-27.8-0.3c-8.8-0.2-17.5-0.8-26.3-0.8c-8.4,0-16.9,0.6-25.3,0.8c-12.3,0.3-24.6,0.4-36.9,0.5
		c-5.6,0.1-11.1,0-16.7-0.1c-6.7-0.2-13.3-0.7-20-0.9c-6.4-0.2-12.7-0.2-19.1-0.4c-8.8-0.2-17.6-0.4-26.3-0.8
		c-7.3-0.4-14.7,0.7-21.9-0.9c-0.6-0.1-1.3,0-1.9,0c-6,0.2-12.1,0.7-18.1,0.4c-12.1-0.4-24.2-1.3-36.3-1.9c-1.9-0.1-3.8-0.5-5.7-0.5
		c-8.1-0.1-16.2-0.1-24.3,0c-2.7,0-5.5,0.8-8,0.2c-7.1-1.7-14.2-1.5-21.4-1c-2.7,0.2-5.3,0.6-7.8-1c-1.2-0.8-3-0.9-4.6-0.9
		c-6.5-0.3-12.8,0.7-19.3,1.4c-6.7,0.8-13.5,0-20.2,0.3c-7.6,0.3-15.2-1.3-22.8-0.9c-10.1,0.6-20.3-0.4-30.4,1.2
		c-0.6,0.1-1.3,0-1.9,0c-5.5,0.3-11,0.5-16.6,0.8c-0.3,0-0.8,0.1-0.9,0.3c-0.9,2.9-3.3,1.7-5.2,2.1c-4.2,0.8-8.4,1.7-12.6,2.7
		c-0.6,0.1-1.2,0.4-1.7,0.8c-4.1,3-8.8,4.9-13.6,6.5c-2.5,0.8-5,1.6-6.6,4.3c-0.8,1.3-2.9,1.8-4.4,2.7c-3.4,2-6.9,3.8-10.1,5.9
		c-2.9,1.9-5.7,4-8.3,6.2c-3,2.4-5.9,5-8.7,7.6c-0.3,0.3-0.4,0.9-0.4,1.3c-0.5,3.6-2.8,6-5.3,8.3c-3.6,3.3-7.7,6.1-8.2,11.6
		c-0.1,0.7-0.8,1.3-1.4,1.9c-3.3,3.9-6.2,8.2-7.3,13.1c-2,9.2-6.2,17.8-6.4,27.4c0,0.5-0.1,1-0.4,1.3c-1.7,1.8-1.2,4.1-1.5,6.3
		c-0.7,4.8,0.5,9.5,0.5,14.3c0,4.7,0.9,9.1,2.3,13.5c1.7,5.3,3.2,10.6,4.6,16c0.7,2.8,0.5,6,1.6,8.6c1.6,4,4.1,7.6,4.7,12.1
		c0,0,0.3,0.1,0.4,0.1c0.1-0.7,0.2-1.5,0.3-2.2c0.2,0,0.5,0,0.7,0c0.5,2.7,1,5.5,1.5,8.1c0.9,1.1,1.8,2.3,2.7,3.4
		c3.2,4.1,6.4,8.3,9.7,12.4c0.5,0.6,1.2,1.1,1.7,1.6c1.9,1.7,3.7,3.5,5.6,5.2c0.9,0.9,1.8,1.9,2.9,2.5c7,4,13.3,8.8,18.9,14.5
		c0.4,0.4,1,1.2,1.4,1.1c3.6-0.3,5.6,3,8.6,4c2.7,0.8,5.4,1.8,8.1,2.9c3.2,1.3,6.4,3,9.7,4c3.9,1.1,7.9,1.7,11.9,2.5
		c-3.9,6.2-8.1,12.6-12,19.1c-2.7,4.6-5.1,9.4-7.6,14.1c-4.1,7.9-6.6,16.6-12.1,23.7c-0.6,0.8-0.8,2.1-0.7,3.2
		c0.5,4.4-2,7.5-4.3,10.7c-0.6,0.8-1.2,1.7-1.5,2.7c-0.8,2.2-1.3,4.5-2,6.7c-1,2.8-2.5,5.3-2,8.5c0.1,0.7-0.6,1.5-0.8,2.2
		c-1.9,5.9-6,11-6,17.6c0,0.6-0.2,1.3-0.4,1.9c-2.4,8.2-4,16.6-5.7,25c-1.1,5.2-3.3,10.1-3,15.6c0.1,2.5-0.7,5-1.1,7.5
		c-1,5.5-2,10.9-3,16.4c-0.3,1.7-0.9,3.3-1.1,5c-0.2,1.5,0.1,3.1-0.1,4.6c-0.7,4.2-1,8.5-2.6,12.4c-1.2,3-0.1,5.7-0.7,8.4
		c-0.7,3.5-1.3,7-1.4,10.5c-0.4,7.6-0.2,15.1-0.7,22.7c-0.3,5-0.6,10.1-1.3,15.1c-0.8,5.5,0.2,11.3,0.6,16.9
		c0.4,5.7,1,11.4,1.6,17.1c0.5,5.1,0.8,10.2,1.5,15.2c1,6.9,2.4,13.8,3.7,20.7c1.6,8.6,3.2,17.2,5.1,25.8c1.1,5,3.2,9.8,3.8,14.8
		c0.7,6,3.3,11.3,5.3,16.7c1.7,4.6,2.8,9.7,6.1,13.7c0.2,0.2,0.2,0.6,0.3,0.9c2,8.1,7.8,14.6,9.5,22.8c0.1,0.7,0.9,1.3,1.3,2
		c2.4,4.1,5,8.1,7,12.5c3.4,7.2,6.9,14.3,12.4,20.3c1.8,2,3.3,4.2,5.4,7c-2.1,0.4-3.5,0.7-5,0.8c-1.4,0.1-2.9-0.3-4.3,0.1
		c-7,2.1-14.1,4.1-20.8,6.8c-5.9,2.3-11.4,5.6-17.1,8.3c-9.1,4.3-17.9,9-23.8,17.6c-0.5,0.8-1.3,1.4-1.8,2.2
		c-3.6,5.6-8.8,10-10.8,16.7c-0.9,3-2.1,5.9-3.6,8.7c-1.8,3.4-4.1,6.7-6.1,10c-0.4,0.6-0.3,1.5-0.2,2.3c0.1,2.3-0.9,3.8-2.9,4.3
		c-0.1,2.2-0.1,4.2-0.4,6c-0.8,5.2-2.1,10.3-2.6,15.5c-0.9,9.3-1.3,18.7-1.8,28.1c-0.1,1.7,0.6,3.4,0.5,5.1c0,1.4-1,2.8-0.8,4.2
		c0.1,1.3,1.2,2.5,1.8,3.8c1.4,3.3,1.8,6.9,3.1,10.3c3,7.6,2.5,16.6,9,22.9c0.4,0.4,0.3,1.2,0.5,1.8c0.5,1.3,1,2.7,1.8,3.8
		c2.7,3.7,5.4,7.3,8.3,10.9c1.9,2.4,3.9,5,6.2,6.9c6.4,5.4,13,10.6,19.6,15.9c5,4,10.8,6.6,17,8.3c3.9,1.1,7.1,4.2,11.5,3.5
		c0.1,0,0.2,0.2,0.4,0.3c1.6,0.6,3.2,1.4,4.8,1.7c5.1,1,10.2,1.9,15.4,2.8c1.4,0.2,2.9,0.2,4.3,0.2c3.8,0,7.7-0.5,11.4,0
		c6.4,0.8,12.9,0.3,19.4,0.8c6.2,0.4,12.5-0.3,18.6,0.5c8.2,1,16.4,1,24.6,0.7c5.9-0.2,11.8,0.5,17.7,0.3c5.9-0.2,11.7,1.5,17.7,0.2
		c4.7-1,9.8-0.5,14.8-0.5c12.1,0,24.2,0,36.4,0.1c2.9,0,5.7-0.1,8.6,0c12.8,0.1,25.5,0.3,38.3,0.3c7,0,14-0.5,21-0.4
		c15.3,0.1,30.6,0.5,45.9,0.7c4.3,0.1,8.6,0,12.9,0c7.2,0,14.3,0,21.5,0.1c6.5,0.1,13,0.5,19.4,0.8c3.6,0.2,7.3,0.4,10.9,0.6
		c1.6,0.1,3.2,0.4,4.8,0.4c8-0.1,16.1-1.9,24.1-0.2c0.4,0.1,1-0.1,1.4-0.1c11,0,21.9,0.1,32.9,0.1c14,0,28-0.2,42-0.2
		c3.4,0,6.9,0,10.3,0.1c2.4,0.1,4.8,0.4,7.1,0.4c9.9,0.1,19.8,0.1,29.7,0.3c4,0.1,8,0.7,11.9,0.8c6.5,0.1,13,0,19.5,0.1
		c2.8,0,5.8,1,8.5,0.5c6-1.3,12.1,0.4,18-0.5c4.9-0.8,9.8,1.5,14.7-0.9c1.3-0.6,3.4,0.4,5.1,0.4c5.5,0,11.1,0.2,16.5-0.3
		c4.1-0.4,7.7,2.5,11.8,1.1c1.3-0.4,2.8-0.6,4.1-0.5c4.9,0.3,9.8,1.2,14.7,1c4.5-0.2,8.7-0.5,13.2,1.5c3.9,1.7,8.9,2.5,13.3-0.2
		c0.5-0.3,1.2-0.2,1.9-0.2c4.4,0.1,8.8,0.3,13.3,0.3c4.6,0.1,9.1,0.1,13.7,0c4.6-0.1,9.2-0.3,13.8-0.3c8.9,0,17.8,0,26.8,0.2
		c15.5,0.3,30.9,0.5,46.4,1c11,0.3,22,1.1,32.9,1.5c7.6,0.3,15.3,0.2,22.9,0.5c4.1,0.1,8.3,0.9,12.4,1c5.1,0.1,10.1-0.6,15.2-0.5
		c12.6,0,25.2,0.2,37.8,0.4c4.8,0.1,9.6,0.2,14.3,0.2c8.8,0,17.5-0.3,26.3-0.1c8.2,0.1,16.5,0.6,24.7,1c7.5,0.3,14.9,0.7,22.4,1.1
		c2.3,0.1,4.4-1.5,4.5-3.9c0.1-5.2,0-10.4,0-15.7c0-2.5-0.2-5-0.1-7.5c0.2-5.6,0.7-11.1,0.9-16.6c0.2-4.7,0.1-9.5,0.3-14.3
		c0.2-4.6,0.7-9.2,0.9-13.9c0.4-6.8,0.8-13.6,1-20.4c0.1-5.4-0.2-10.8-0.1-16.2c0.2-7.5,1-14.9,1-22.3c0.2-13.7,0.1-27.4,0-41.1
		c-0.1-8.7-0.7-17.5-0.8-26.2c0-10.9,0.4-21.9,0.5-32.8c0.1-8.7-0.1-17.4-0.1-26.1c0-10.7,0.1-21.4,0.1-32c0-12.1,0.1-24.3,0-36.4
		c0-5.2-0.2-10.5-0.2-15.7c0-8.3,1.3-16.5,0.2-24.8c-0.4-3.6,0-7.3,0.1-11c0.2-5.5,0.6-11,0.8-16.5c0.1-6.4-0.1-12.7,0.1-19.1
		c0.1-4.6,0.9-9.2,1-13.8c0.2-4.9,0.1-9.9,0.1-14.8c0-6.9,0.4-13.8,0.1-20.8c-0.2-3.5,0.4-7,0.5-10.5c0.2-7.5-0.9-14.9-0.2-22.5
		c0.7-7.4,0.4-14.9,0.4-22.3c-0.1-7.1-0.6-14.3-0.5-21.4c0-9.9,0.4-19.7,0.7-29.6c0-1.9,0-3.8,0.2-5.7c0.3-2.5,0.2-5.3,1.4-7.3
		c1.3-2,1.3-3.7,0.7-5.3c-2.7-7.4-1.4-15-1.6-22.6c-0.1-3.2,1.4-6.6-0.7-10.2C1126.9,458,1125,458.6,1122.9,459.2z"/>
	<path d="M1122.9,459.2c2.1-0.6,4-1.2,6-1.8c2.2,3.6,0.6,7,0.7,10.2c0.2,7.6-1.1,15.2,1.6,22.6c0.6,1.6,0.6,3.4-0.7,5.3
		c-1.2,1.9-1.1,4.8-1.4,7.3c-0.2,1.9-0.2,3.8-0.2,5.7c-0.2,9.9-0.6,19.7-0.7,29.6c0,7.1,0.5,14.3,0.5,21.4
		c0.1,7.4,0.4,14.9-0.4,22.3c-0.8,7.5,0.4,15,0.2,22.5c-0.1,3.5-0.7,7-0.5,10.5c0.4,6.9-0.1,13.9-0.1,20.8c0,4.9,0.1,9.9-0.1,14.8
		c-0.2,4.6-0.9,9.2-1,13.8c-0.2,6.4,0.1,12.7-0.1,19.1c-0.1,5.5-0.6,11-0.8,16.5c-0.1,3.7-0.5,7.4-0.1,11c1,8.3-0.3,16.5-0.2,24.8
		c0,5.2,0.2,10.5,0.2,15.7c0,12.1,0,24.3,0,36.4c0,10.7-0.1,21.4-0.1,32c0,8.7,0.2,17.4,0.1,26.1c-0.1,10.9-0.5,21.9-0.5,32.8
		c0,8.7,0.7,17.5,0.8,26.2c0.1,13.7,0.2,27.4,0,41.1c-0.1,7.5-0.8,14.9-1,22.3c-0.2,5.4,0.2,10.8,0.1,16.2c-0.2,6.8-0.6,13.6-1,20.4
		c-0.3,4.6-0.7,9.2-0.9,13.9c-0.2,4.7-0.1,9.5-0.3,14.3c-0.2,5.6-0.7,11.1-0.9,16.6c-0.1,2.5,0.1,5,0.1,7.5c0,5.2,0.1,10.5,0,15.7
		c0,2.3-2.2,4-4.5,3.9c-7.5-0.4-14.9-0.7-22.4-1.1c-8.2-0.4-16.5-0.8-24.7-1c-8.8-0.1-17.5,0.1-26.3,0.1c-4.8,0-9.6-0.1-14.3-0.2
		c-12.6-0.2-25.2-0.4-37.8-0.4c-5.1,0-10.1,0.6-15.2,0.5c-4.1,0-8.2-0.8-12.4-1c-7.6-0.3-15.3-0.2-22.9-0.5c-11-0.4-22-1.2-32.9-1.5
		c-15.5-0.5-30.9-0.7-46.4-1c-8.9-0.2-17.8-0.2-26.8-0.2c-4.6,0-9.2,0.3-13.8,0.3c-4.6,0.1-9.1,0.1-13.7,0
		c-4.4-0.1-8.8-0.2-13.3-0.3c-0.6,0-1.4-0.1-1.9,0.2c-4.4,2.7-9.4,1.9-13.3,0.2c-4.6-2-8.7-1.6-13.2-1.5c-4.9,0.2-9.8-0.7-14.7-1
		c-1.4-0.1-2.8,0.1-4.1,0.5c-4.1,1.4-7.7-1.5-11.8-1.1c-5.5,0.6-11,0.3-16.5,0.3c-1.7,0-3.8-1.1-5.1-0.4c-4.8,2.4-9.8,0.1-14.7,0.9
		c-5.9,0.9-12-0.7-18,0.5c-2.7,0.6-5.7-0.4-8.5-0.5c-6.5-0.1-13,0-19.5-0.1c-4-0.1-8-0.7-11.9-0.8c-9.9-0.2-19.8-0.2-29.7-0.3
		c-2.4,0-4.8-0.3-7.1-0.4c-3.4-0.1-6.9-0.1-10.3-0.1c-14,0.1-28,0.2-42,0.2c-11,0-21.9-0.1-32.9-0.1c-0.5,0-1,0.2-1.4,0.1
		c-8.1-1.8-16.1,0-24.1,0.2c-1.6,0-3.2-0.3-4.8-0.4c-3.6-0.2-7.3-0.5-10.9-0.6c-6.5-0.3-13-0.6-19.4-0.8c-7.2-0.1-14.3-0.1-21.5-0.1
		c-4.3,0-8.6,0.1-12.9,0c-15.3-0.2-30.6-0.6-45.9-0.7c-7-0.1-14,0.4-21,0.4c-12.8,0-25.5-0.2-38.3-0.3c-2.9,0-5.7,0.1-8.6,0
		c-12.1,0-24.2-0.1-36.4-0.1c-4.9,0-10-0.5-14.8,0.5c-6,1.3-11.8-0.4-17.7-0.2c-5.9,0.2-11.8-0.5-17.7-0.3
		c-8.2,0.3-16.4,0.3-24.6-0.7c-6.1-0.7-12.4,0-18.6-0.5c-6.4-0.5-12.9,0-19.4-0.8c-3.7-0.5-7.6,0-11.4,0c-1.4,0-2.9,0.1-4.3-0.2
		c-5.1-0.9-10.3-1.7-15.4-2.8c-1.7-0.3-3.2-1.1-4.8-1.7c-0.1-0.1-0.3-0.3-0.4-0.3c-4.4,0.7-7.6-2.5-11.5-3.5c-6.2-1.7-12-4.3-17-8.3
		c-6.6-5.3-13.2-10.4-19.6-15.9c-2.4-2-4.3-4.5-6.2-6.9c-2.9-3.6-5.6-7.2-8.3-10.9c-0.8-1.1-1.3-2.5-1.8-3.8
		c-0.2-0.6-0.1-1.4-0.5-1.8c-6.4-6.3-6-15.2-9-22.9c-1.3-3.3-1.8-7-3.1-10.3c-0.5-1.3-1.6-2.5-1.8-3.8c-0.1-1.3,0.8-2.8,0.8-4.2
		c0-1.7-0.6-3.4-0.5-5.1c0.5-9.4,0.9-18.8,1.8-28.1c0.5-5.2,1.8-10.3,2.6-15.5c0.3-1.9,0.2-3.8,0.4-6c2.1-0.5,3-2,2.9-4.3
		c0-0.8-0.1-1.7,0.2-2.3c2-3.4,4.3-6.6,6.1-10c1.5-2.8,2.7-5.7,3.6-8.7c1.9-6.7,7.2-11.1,10.8-16.7c0.5-0.8,1.3-1.4,1.8-2.2
		c6-8.6,14.7-13.3,23.8-17.6c5.7-2.7,11.3-6,17.1-8.3c6.8-2.7,13.8-4.6,20.8-6.8c1.3-0.4,2.8,0,4.3-0.1c1.5-0.1,2.9-0.5,5-0.8
		c-2.1-2.8-3.6-5-5.4-7c-5.5-6-9-13.1-12.4-20.3c-2-4.3-4.7-8.3-7-12.5c-0.4-0.7-1.2-1.2-1.3-2c-1.7-8.2-7.5-14.7-9.5-22.8
		c-0.1-0.3-0.1-0.7-0.3-0.9c-3.2-4-4.4-9.1-6.1-13.7c-2-5.4-4.5-10.7-5.3-16.7c-0.6-5-2.8-9.8-3.8-14.8c-1.9-8.6-3.5-17.2-5.1-25.8
		c-1.3-6.9-2.6-13.8-3.7-20.7c-0.8-5-1-10.1-1.5-15.2c-0.5-5.7-1.2-11.4-1.6-17.1c-0.4-5.6-1.4-11.4-0.6-16.9c0.7-5,1-10.1,1.3-15.1
		c0.5-7.5,0.3-15.1,0.7-22.7c0.2-3.5,0.7-7,1.4-10.5c0.6-2.8-0.5-5.5,0.7-8.4c1.5-3.9,1.9-8.2,2.6-12.4c0.2-1.5-0.1-3.1,0.1-4.6
		c0.2-1.7,0.8-3.3,1.1-5c1-5.5,2-10.9,3-16.4c0.4-2.5,1.2-5,1.1-7.5c-0.2-5.5,2-10.4,3-15.6c1.7-8.4,3.3-16.8,5.7-25
		c0.2-0.6,0.4-1.2,0.4-1.9c0-6.5,4.1-11.7,6-17.6c0.2-0.8,0.9-1.5,0.8-2.2c-0.5-3.1,1.1-5.7,2-8.5c0.8-2.2,1.3-4.5,2-6.7
		c0.3-0.9,0.9-1.8,1.5-2.7c2.3-3.2,4.7-6.3,4.3-10.7c-0.1-1,0.1-2.4,0.7-3.2c5.5-7.2,8-15.9,12.1-23.7c2.5-4.7,4.8-9.5,7.6-14.1
		c3.9-6.5,8.1-12.9,12-19.1c-4-0.8-8-1.3-11.9-2.5c-3.3-1-6.4-2.7-9.7-4c-2.7-1-5.3-2.1-8.1-2.9c-3.1-0.9-5-4.2-8.6-4
		c-0.5,0-1-0.7-1.4-1.1c-5.6-5.7-12-10.5-18.9-14.5c-1.1-0.6-1.9-1.6-2.9-2.5c-1.9-1.7-3.7-3.5-5.6-5.2c-0.6-0.5-1.3-1-1.7-1.6
		c-3.3-4.1-6.5-8.3-9.7-12.4c-0.9-1.1-1.8-2.3-2.7-3.4c-0.5-2.6-1-5.4-1.5-8.1c-0.2,0-0.5,0-0.7,0c-0.1,0.7-0.2,1.5-0.3,2.2
		c-0.2,0-0.4,0-0.4-0.1c-0.6-4.4-3.1-8.1-4.7-12.1c-1.1-2.6-0.9-5.8-1.6-8.6c-1.4-5.4-2.9-10.7-4.6-16c-1.4-4.4-2.3-8.8-2.3-13.5
		c0-4.7-1.2-9.4-0.5-14.3c0.3-2.2-0.2-4.4,1.5-6.3c0.3-0.3,0.4-0.9,0.4-1.3c0.2-9.6,4.4-18.2,6.4-27.4c1.1-4.9,4-9.2,7.3-13.1
		c0.5-0.6,1.3-1.2,1.4-1.9c0.5-5.5,4.7-8.3,8.2-11.6c2.5-2.3,4.7-4.8,5.3-8.3c0.1-0.5,0.1-1.1,0.4-1.3c2.9-2.6,5.7-5.2,8.7-7.6
		c2.7-2.2,5.4-4.3,8.3-6.2c3.3-2.1,6.8-4,10.1-5.9c1.5-0.9,3.6-1.4,4.4-2.7c1.6-2.7,4.1-3.4,6.6-4.3c4.8-1.6,9.5-3.5,13.6-6.5
		c0.5-0.4,1.1-0.6,1.7-0.8c4.2-0.9,8.4-1.9,12.6-2.7c1.9-0.4,4.3,0.8,5.2-2.1c0-0.2,0.6-0.2,0.9-0.3c5.5-0.3,11-0.6,16.6-0.8
		c0.6,0,1.3,0.1,1.9,0c10.1-1.6,20.3-0.7,30.4-1.2c7.6-0.4,15.2,1.2,22.8,0.9c6.8-0.3,13.6,0.5,20.2-0.3c6.4-0.7,12.8-1.7,19.3-1.4
		c1.6,0.1,3.4,0.1,4.6,0.9c2.6,1.6,5.2,1.2,7.8,1c7.2-0.5,14.3-0.7,21.4,1c2.5,0.6,5.4-0.2,8-0.2c8.1,0,16.2,0,24.3,0
		c1.9,0,3.8,0.4,5.7,0.5c12.1,0.7,24.2,1.5,36.3,1.9c6,0.2,12.1-0.3,18.1-0.4c0.6,0,1.3-0.2,1.9,0c7.2,1.6,14.6,0.5,21.9,0.9
		c8.8,0.5,17.6,0.6,26.3,0.8c6.4,0.2,12.7,0.2,19.1,0.4c6.7,0.2,13.3,0.7,20,0.9c5.6,0.2,11.1,0.2,16.7,0.1
		c12.3-0.1,24.6-0.3,36.9-0.5c8.4-0.2,16.9-0.8,25.3-0.8c8.8,0,17.5,0.6,26.3,0.8c9.2,0.2,18.5,0.1,27.8,0.3
		c10.7,0.2,21.4,0.7,32.1,1c4.3,0.1,8.6,0,12.9,0c8.3-0.1,16.6,0.3,24.8-0.4c12.6-1,25.2,1.3,37.7,0.6c3.2-0.2,6.3-0.6,9.5-0.7
		c3.6-0.2,7.3-0.2,10.9-0.2c9.2,0,18.5,0.1,27.7,0.3c5.4,0.1,10.8,0.6,16.2,0.9c0.8,0,1.7,0.4,2.4,0.2c6.5-1.8,13-0.7,19.5-0.6
		c3.5,0.1,7,0,10.5,0c7.3-0.1,14.7,0.2,22-0.3c15-1,30,0.6,44.9,0.3c12.9-0.2,25.9-0.4,38.8-0.4c6.3,0,12.7,0.7,19,0.8
		c6.4,0.1,12.7-0.3,19.1-0.5c5-0.1,9.9-0.3,14.9-0.2c10.3,0.2,20.7,0.6,31,1c14.5,0.5,28.9,1.2,43.4,1.6c8.6,0.2,17.2,0.1,25.8,0.1
		c10.2,0.1,20.3,0.3,30.5,0.4c4.9,0,9.9-0.2,14.8-0.3c0.9,0,1.9,0.2,3,0.2c0.3,0.6,0.7,1.2,0.7,1.8c0,6.4-0.1,12.7-0.1,19.1
		c0,7.5,0.1,15,0.1,22.5c0,4.6,0,9.3,0.1,13.9c0,5.6-0.1,11.1,0.1,16.7c0.1,6.8,0.4,13.7,0.6,20.5c0.1,2.5,0,5.1,0,7.6
		c-0.1,8.4-0.2,16.9-0.5,25.3c-0.3,8.2-1,16.5-1.1,24.7c-0.1,6.4,0.6,12.7,0.7,19.1c0.1,6.7-0.5,13.3-0.2,20
		c0.4,12.2-1.7,24.4-0.3,36.6c0.7,6.1-0.1,12.3-0.2,18.5c-0.2,9.5-1.4,19,0.1,28.5c0.1,0.8-0.3,1.6-0.3,2.4c0,3-0.4,6.1,0.2,8.9
		c0.6,2.5,0.7,4.6-0.5,7.4c-1.6-0.3-3.3-0.5-4.9-1.1c-1.7-0.7-2.6-2-2.4-4.1c0.7-8.7,0.7-17.4-0.1-26.1c-0.5-5.9,0.1-11.9,0.1-17.9
		c0-0.6-0.1-1.2-0.1-1.9c-0.9-0.1-1.6-0.1-2.6-0.2c3.1-4.8,2.7-10.1,3-15.2c0.1-2.6-0.5-5.3-0.6-8c-0.1-0.9,0.3-1.8,0.4-2.7
		c0.1-1.1,0.5-2.2,0.3-3.2c-0.9-4.8-0.4-9.5-0.2-14.3c0.2-5.1,1.3-10.3-0.4-15.6c-1.1-3.5-0.4-7.5-0.5-11.3
		c-0.1-3.3,0.4-6.7-0.4-9.9c-1.9-7.7,0.6-15,0.9-22.5c0.1-3.3,0.1-6.5,0-9.8c0-0.3-0.7-0.5-1.2-0.9c1.1-0.7,2.3-1.4,3.9-2.5
		c-1.5-0.8-2.5-1.2-3.3-1.7c0-0.4-0.1-0.8,0-1c2.2-3.4,2.3-7.3,1.7-11c-0.7-5-0.2-10-0.3-15c0-1.4,0.4-3.1-0.3-4.2
		c-1-1.6-0.3-2.7,0.4-3.9c0.8-1.6,1.6-3.1,0.3-4.9c-0.4-0.5-0.2-2,0.2-2.7c2.6-4.3,1.3-8.9,1.2-13.4c-0.1-1.8-1.8-3.6-2.8-5.5
		c1-0.4,1.9-0.7,2.4-0.9c0.3-8.2,0.7-16,1-23.8c0.3-8.3,0.6-16.5,0.8-24.8c0-1.4,0.4-3.3-1.5-3.5c-1.1-0.1-2.7,0.7-3.6,1.5
		c-5.8,5.7-11.3,11.6-17.2,17.2c-4.5,4.3-9.4,8.1-13.9,12.2c-3.7,3.4-7.3,7-10.8,10.6c-4.1,4.2-8,8.6-12.2,12.7
		c-3,3-6.4,5.7-9.5,8.6c-2.3,2.1-4.6,4.3-7,6.5c-7.5,6.9-15,13.9-22.5,20.8c-4.9,4.5-9.8,9-14.7,13.5c-0.7,0.6-1.6,1-2.3,1.5
		c0.2,3.1,1.8,5.4,3.8,7.6c3,3.3,6,6.6,8.9,9.9c3,3.5,6.2,6.9,8.9,10.6c3.3,4.6,6.2,9.5,9.3,14.3c3.2,4.9,6,10.3,9.9,14.6
		c7.2,8.1,11.5,17.8,16.6,27.1c4.1,7.4,8.3,14.6,12.6,21.8c0.4,0.7,1.1,1.4,1.9,1.8c3,1.7,5.1,3.7,4.2,7.6c-0.3,1-0.1,2.3,0.2,3.3
		c1.9,6.1,3.9,12.1,6,18.1c1.1,3.1,2.4,6.2,3.4,9.3c0.3,0.9,0.1,2.6-0.5,3c-3.6,2.6-3.3,7.3-7,10.5c4.5,0.3,3.2-2.8,4.2-4.1
		c1.2-1.5,2-3.2,3.3-5.3c0.9,0.8,2,1.3,2.3,2.1c1.7,4.1,2.7,8.5,4.8,12.4c3.6,6.6,4.7,13.9,6.5,21.4c1.3-0.5,2.4-0.9,3.8-1.4
		c0.5,0.8,1.2,1.9,2.2,3.5c-2-0.2-4.2-1.7-4.8,0.7c-0.4,1.3,0.1,3.1,0.7,4.4c1.6,3.2,3.8,6.2,1.8,10.1c-0.3,0.6,0.1,1.5,0.3,2.3
		c2.6,10.2,4.4,20.6,5.5,31c0.5,4.9,1.9,9.8,3.5,14.6C1124.9,495.7,1123.8,477.8,1122.9,459.2z M1063.2,403.5
		c-2.5,0.9-4.9,1.7-7.9,2.7c1.8,1,3,1.7,4,2.2c1.1-0.7,2-1.6,3.1-2c0.9-0.4,2.3,1.8,3.1-0.7c-0.8-0.7-1.7-1.5-2.6-2.3
		c0.9-0.5,1.7-1,3.4-2c-2.2-0.8-3.5-1.2-4.8-1.6c-0.2,0.3-0.4,0.5-0.5,0.8C1061.8,401.5,1062.5,402.5,1063.2,403.5z M1087.1,430.5
		c-2.7,0.3-2.5,2.9-2.8,4.4c-0.7,3.3-2.1,6.1-3.9,9c-1.2,2-1.1,4.9-1.8,8.4c1.5-1.1,2.2-1.4,2.4-1.9c1.4-3.3,2.9-6.6,3.9-10
		c1-3.3,1.4-6.7,2-10.1c0.7-1.1,2.7-2.1,0.5-3.9C1085.5,427.7,1086.7,429.1,1087.1,430.5z M261.7,606.3c-2.8-0.3-5.8-1.1-8.4-0.5
		c-1.4,0.3-2.7,0.4-4.1,0.5c-4.7,0.2-9.4,1-13.9-1.3c-1.2-0.6-3.1-1.3-3.8,1.2c-0.1,0.3-2.8,0.4-3.4-0.2c-3.4-3.8-8.3-3.1-11.6-1.9
		c-3.6,1.3-6.5,0.8-9.8,0.2c-1.9-0.3-3.9,0.1-5.9-0.1c-2.5-0.2-4.8-0.8-7.5-0.3c-2.4,0.4-5.1-1.2-7.8-1.6c-2.5-0.4-5-0.4-7.5-0.5
		c-0.9,0-1.8,0.3-2.7,0.5c0,2.5-0.3,4.7,0.1,6.8c1.2,6.5,0.2,13,0.4,19.5c0.3,9.2-0.1,18.4,0.1,27.7c0.2,12.1-1,24.2,1.1,36.3
		c1.5,8.8,2.4,17.7,3.7,26.5c0.3,2.4,1.1,4.7,1.6,7c1.7,7,3.3,13.9,5.1,20.8c0.7,2.6,2.1,3.3,4.6,2.8c0.9-0.2,1.8-0.6,2.7-0.9
		c6.8-2.5,13.5-5.5,20.7-6.8c1.1-0.2,2.8-1.2,2.9-2c0.4-2.8,1-3.9,3.5-1.5c0.4,0.4,1.5,0.2,2.2,0c2.3-0.6,4.6-1.2,6.8-2
		c2.8-0.9,5.6-2.5,8.5-2.9c4.1-0.6,7.4-2.6,10.6-5.1c2.3,2.1,4.6,1.4,7,0.1c1.2-0.7,2.6-1.9,3.8-1.7c3.8,0.5,6.1-1.8,8.6-3.9
		c4,1.1,4,1.1,9.2-1.1c-0.2-0.8-0.3-1.5-0.5-2.5c1.7,0.5,3.1,1.5,4.3,1.3c3.1-0.6,6.1-1.7,9.2-2.7c0-4.5-0.7-9.1,0.2-13.3
		c0.8-3.6,0.2-6.5-0.9-9.6c-0.7-1.9-0.6-3.2,1-4.7c0.7-0.7,1.4-2.6,1-3.2c-1.7-2.4-0.5-4.8,0.2-6.8c1.1-3.3,0.9-6.2-0.4-8.3
		c0.5-2.1,1.3-3.6,1-4.9c-0.5-2.6,0.7-5-0.4-7.8c-1.2-3.3-0.3-7.4-0.2-11.2c0-0.8,0-1.7,0.4-2.3c1.4-2.5,1.6-5.1,1.2-7.8
		c-0.3-2.1-0.1-4.4,0.1-6.5c0.4-5.7,1.1-11.4,1.4-17.1c0.1-2.8-0.3-5.6-0.4-8.4c-2-0.4-3.3-1-4.7-1c-1.3,0-2.7,0.9-4,0.9
		c-4.4,0.1-8.9-0.2-13.3-0.1c-3.8,0-7.6,1-11.3-0.5c0,0-0.4,0.7-0.5,1.1C261.6,606.4,261.7,606.3,261.7,606.3z M677.6,570.9
		c3.3-3.8,6.4-7.2,9.3-10.7c2.3-2.7,4.1-5.7,6.6-8.1c6.2-5.9,12.9-11.3,19.2-17.1c9.5-8.9,19.8-17,28.1-27.3c1-1.2,2.4-2,3.7-2.9
		c0.9-0.6,2.2-0.9,2.9-1.7c3.2-3.6,6.7-6.6,10.6-9.3c2-1.4,4-3.3,5.2-5.4c1.8-3.2,4.4-5.3,7.1-7.6c2.4-2,4.9-4.1,7.1-6.4
		c3.2-3.3,6.1-6.8,9.9-9.5c3-2.2,5.6-5,8.2-7.8c1.8-2,2.9-4.7,5-6.3c4.2-3.1,8.5-6,10.6-11c6.7-4,12.3-9.3,16.9-15.7
		c0.3-0.4,0.8-0.6,1.1-0.8c3.3-2.5,6.5-4.9,9.6-7.2c-1.3-4.2-0.4-7.2,2.5-7.9c2.8-0.7,4.8-2.2,6.7-4.2c1.6-1.7,3.2-3.7,5.2-4.8
		c6.4-3.7,10.6-10.4,17.9-12.9c0.4-0.1,0.8-0.6,1.1-0.9c4.2-3.7,8.4-7.2,12.5-11c7.7-7.2,15.2-14.5,22.8-21.7
		c5.8-5.5,11.6-10.9,17.4-16.2c3.8-3.5,3.6-4.8,0.2-8.5c-5.3-5.7-10.6-11.5-15.2-17.8c-3.6-4.9-7.9-9-12.3-13.1
		c-2.3-2.1-4.4-4.6-6.6-6.8c-2.6-2.5-5.3-5-8.2-7.3c-1.7-1.3-4-1.9-5.5-3.5c-3.8-3.8-7.1-8-10.8-11.9c-1.3-1.3-2.9-2.5-4.6-3.2
		c-3.8-1.5-8.5-4.4-11.4-7.4c-0.4-0.5-0.9-0.9-1.5-1.2c-5.6-3.8-11.2-7.7-16.8-11.5c-5.5-3.8-11-7.5-16.5-11.3
		c-0.5-0.4-1.1-0.6-1.7-0.9c-4.3-2.1-8.6-3.9-12.8-6.2c-2.8-1.6-5.4-3.7-8.4-5.8c-1.9,1.2-3.8,0.3-5.9-1.8c-2.1-2.1-4-5.2-8-3.7
		c-0.4,0.1-1.1-0.6-1.6-0.8c-2.2-0.9-4.4-1.9-6.7-2.6c-4.5-1.4-9.2-2.2-13.5-4.1c-9.3-4.1-19-7.1-28.7-10.1
		c-4.6-1.5-9.4-2.8-13.9-4.5c-7.5-2.9-15.2-4.8-23-6.2c-11.9-2.1-24-3.3-36-4.7c-5.2-0.6-10.4-0.9-15.6-1c-6-0.2-12.1,0-18.1-0.1
		c-4.8-0.1-9.7,0.4-14.3-0.5c-9.5-1.7-19-1.1-28.5-1.5c-5.4-0.2-10.7-0.5-16.1-0.8c-4.6-0.3-9.2-1.1-13.7-0.9
		c-4.9,0.2-9.7,1.4-14.5,2.1c-1.4,0.2-2.9-0.1-4.3-0.2c-3.5-0.3-6.9-0.8-10.4-1c-8.6-0.4-17.2-0.6-25.8-0.9
		c-8.2-0.2-16.4-0.5-24.7-0.7c-4.1-0.1-8.3,0.2-12.4,0.2c-2.4,0-4.7-0.2-7.1-0.2c-9.4-0.1-18.8-0.2-28.2-0.3c-1.8,0-3.6,0-5.7,0.1
		c0.5,2.5,1.1,4.4,1.2,6.2c0.2,8,1,16.1,0,23.9c-1.8,15.5,1,31-1.1,46.4c-0.5,3.5,0.5,7.2,0.5,10.8c0,6.7-0.2,13.3-0.4,20
		c-0.1,3.7-0.8,7.3,0.7,10.9c0.5,1.1,0.8,2.7,0.4,3.7c-1.7,4.6-0.9,9.5-1.3,14.2c-0.5,5.2-0.4,10.5-0.5,15.7
		c-0.1,4.6-0.3,9.2-0.2,13.8c0.3,9.8-0.9,19.7,1,29.4c0.1,0.5,0.3,1.1,0.1,1.4c-3.1,4.1-0.5,6.1,2.8,8c0.7,0.4,1.1,1.1,1.7,1.6
		c2.8,2.1,5.6,4.1,8.4,6.2c2.8,2.1,5.6,4.2,8.1,6.5c2.7,2.5,4.9,5.4,7.6,7.9c8.7,7.9,17.7,15.6,26.2,23.6
		c5.5,5.2,10.2,11.4,15.9,16.4c9.9,8.9,18.6,19,29,27.4c1.6,1.3,2.8,2.9,4.2,4.4c2.3,2.6,4.6,5.3,7,7.7c2.4,2.5,5.2,4.6,7.5,7.2
		c5.3,5.8,10.3,11.9,15.7,17.6c4.5,4.8,9.7,8.7,13.9,13.9c3.6,4.5,6.7,9.9,12.8,12c0.4,0.1,0.7,0.7,1,1c3.4,3.2,6.8,6.4,10.2,9.7
		c1.2,1.2,2.6,2.4,3.4,3.9c3.3,6,8.4,10.5,13.1,15.3c3,3,5.9,6.2,9,9.1c3,2.9,7.2,4.6,8.5,9.2c0.1,0.4,0.6,0.7,1,0.9
		c3,1.6,5.2,4,7.3,6.7c1.8,2.3,4.5,3.9,6.5,6.1c2.2,2.3,4.6,4.7,5.6,8.8c-2.1-0.2-3.7,0-5-0.6c-2.4-1.1-4.8-2.4-6.8-4
		c-4.2-3.4-8.2-7-12.1-10.7c-2.3-2.2-4.5-4.5-7.5-5.7c-0.8-0.3-2-1-2-1.7c-0.3-2.6-2.1-3.8-4.1-4.8c-3.5-1.8-6-4.6-8.2-7.7
		c-0.9-1.3-1.8-2.8-3.1-3.6c-1.4-0.8-2.1-2-3.1-3.2c-2.1-2.5-4.6-4.9-7.4-6.4c-1.6-0.9-2.4-1.7-2.9-3.3c-0.9-3.3-3.2-5.5-6-6.8
		c-3.8-1.8-7-3.8-9.1-7.8c-1.6-3-2.8-6.7-6.3-8.5c-0.6-0.3-1-1.2-1.5-1.8c-3.1-3.6-5.8-7.7-9.4-10.8c-9-7.8-17.2-16.4-25.1-25.3
		c-3.7-4.2-7.4-8.3-11.1-12.4c-2.9-3.1-5.6-6.4-8.7-9.3c-3.8-3.6-8-6.7-12-10.2c-1-0.8-1.8-1.8-2.5-2.9c-1.2-1.8-2.1-3.9-3.6-5.4
		c-3-3.1-6.2-5.9-9.4-8.7c-1.6-1.5-4.4-2.8-4.8-4.5c-0.6-3.2-3.2-3-4.9-4.3c-0.6-0.5-0.7-1.7-1.2-2.5c-0.4-0.8-1.2-2.1-1.6-2
		c-4.6,1-5.8-2.8-7-5.5c-1-2.2-2.3-3.6-3.9-5.2c-3.4-3.5-8.1-5.5-11-9.9c-2.8-4.3-7.5-7.2-11.2-11c-4.5-4.5-10-8-13.3-13.6
		c-0.3-0.4-1-0.6-2-1.2c-0.4,2.3-1,4.1-1,6c-0.2,5.1-0.1,10.2-0.3,15.3c-0.5,11.6-1,23.2-1.6,34.7c-0.3,5.6-1.3,11.1-1.4,16.6
		c-0.2,8.9,0.1,17.8,0,26.7c0,11.5-0.2,23-0.3,34.5c0,4,0.2,7.9,0.1,11.9c-0.3,6.4-1.4,12.7-1.1,19.1c0.6,12.8-1.3,25.5-1.9,38.2
		c-0.1,2.9-0.2,5.7,0,8.6c0.2,3.2,1.7,4.9,4.8,5.5c1.4,0.3,2.8,0.6,4.3,0.6c10,0.1,20.1,0.1,30.1,0.2c3.3,0,6.7,0.1,10,0.1
		c3.5,0,7,0.1,10.5,0.2c4.6,0.1,9.2,0.4,13.9,0.5c1.4,0,2.9-0.7,4.2-0.5c4.7,0.8,9.5,1,14.2,0.9c10.2-0.1,20.4,0,30.5,0.1
		c6.1,0.1,12.3,0,18.4,0.4c2.2,0.1,3.4-0.1,4.7-2c3-4.3,8.1-4.7,12-1.4c1,0.8,1.8,1.9,2.5,2.9c1.2,1.6,2.6,2.1,4.6,1.9
		c5.4-0.5,10.7-0.9,16.2-0.5c7.4,0.5,15,0.1,22.4,0.2c8.6,0.1,17.1,0.7,25.6,2.4c2.2,0.4,4.5,1,6.3-0.9c5.3-5.6,11.3-10.6,15.1-17.5
		c0.2-0.4,1-0.5,1.4-0.8c3.8-2.3,7.9-4.2,8.7-9.4C669.1,571.5,672,569.8,677.6,570.9z M514.5,1031.9c0,0.4,0.1,0.8,0.1,1.2
		c3,0,6,0.1,8.9,0c5.1-0.1,10.2-0.3,15.3-0.4c4.1-0.1,8.3-0.1,12.4-0.2c4.3-0.1,8.7-1,12.8-0.3c9.5,1.6,19,0.4,28.4-0.2
		c4.7-0.3,9.4-1.2,14.1-0.9c1.3,0.1,2.5-0.1,3.8-0.3c3.6-0.5,7.2-1.5,10.7-1.5c9.5-0.2,19-0.6,28.3-2.7c0.9-0.2,1.9-0.4,2.8-0.5
		c6.3-0.3,12.6-0.8,18.7-2.8c0.6-0.2,1.3-0.6,1.8-0.4c2.7,1,5-0.5,7.3-1.4c1.1-0.4,2.1-1,3.2-1.1c6.2-0.5,12.2-1.1,18.2-2.9
		c7-2.1,14.1-3.4,21.2-5.2c0.6-0.1,1.1-0.7,1.7-0.9c2.4-0.9,4.7-1.8,7.1-2.5c4.7-1.5,9.5-2.6,14.1-4.5c6.5-2.7,12.5-6.8,19.6-8.1
		c0.6-0.1,1.2-0.5,1.7-0.8c5.1-2.8,10-6,15.9-7.3c1.9-0.4,3.6-1.9,5.3-3c1.9-1.2,3.5-2.7,5.4-3.8c6.6-4,13.3-7.9,19.9-12
		c3.5-2.2,6.8-5,10.2-7.4c1.9-1.3,4.2-2,6.1-3.3c3-2,5.8-4.3,8.7-6.3c1.7-1.2,3.6-2,5.2-3.2c8-6.1,15.8-12.3,23.8-18.4
		c9.3-7,17.8-15,26.1-23.2c8.2-8.2,14.8-17.9,24-25.2c0.1-0.1,0.1-0.3,0.3-0.8c-0.5-0.6-1-1.8-1.8-2.3c-7.2-4.1-12.8-10.2-19.3-15.1
		c-1.3-1-2.2-2.9-3.7-3.5c-3.7-1.7-5.9-4.9-7.9-8c-1.4-2.1-2.3-4-5.2-4.2c-0.8-0.1-1.5-1-2.1-1.7c-2.5-3-5-6-7.5-9
		c-7.5-9-15.8-17.3-25.1-24.5c-2.6-2-5.3-3.9-7.8-6.1c-1.2-1.1-1.7-3.3-3.1-4c-3.9-2.3-5.3-7.5-10.3-8.3c-0.2,0-0.5-0.4-0.6-0.7
		c-0.9-3.6-4.2-4.9-6.6-7.1c-2.3-2.2-5.3-4.3-4.1-8.4c-4.8-1.4-7.8-5.2-12.2-6.9c-1.1-0.4-1.7-1.8-2.7-2.5c-2.6-1.6-2.2-4.9-3.9-6.9
		c-3-3.5-6.1-7.1-9.5-10.3c-4.6-4.4-9.4-8.5-14.2-12.6c-3.8-3.3-7.7-6.6-11.6-9.9c-3-2.5-6-4.9-9-7.4c-0.4-0.4-0.8-1.1-0.8-1.7
		c-0.3-4.6-4-6.6-6.8-9.4c-1.4-1.3-3-2.4-4.2-3.9c-3.1-3.7-5.9-7.5-9.7-10.8c-4.4-3.8-7.2-9.3-12.4-12.4c-0.2-0.1-0.4-0.5-0.5-0.8
		c-1-4.1-4.8-5.8-7.3-8.5c-4.6-5-9.9-9.3-14.9-13.9c-3.3-3-6.4-6.2-10-8.9c-2.9-2.1-5.3-4.5-7.3-7.4c-1.2-1.8-2.3-4.1-4.1-5.1
		c-5.4-2.9-9.3-7.1-12.8-11.9c-2.1-2.9-4.1-6-6.3-8.8c-1.9-2.3-4.1-4.2-6.2-6.3c-3,2.6-5.5,4.8-8,7c-4.1,3.8-8.1,7.7-12.2,11.4
		c-6,5.3-11.7,10.7-16,17.5c-0.6,0.9-1.4,1.9-2.3,2.3c-4.4,2.2-6.6,6.8-10.1,9.9c-2.7,2.4-4.8,5.6-7.8,7.6
		c-5.8,3.9-10.8,8.7-15.6,13.4c-5.9,5.8-13,10.6-17.1,18.2c-0.3,0.6-1.3,0.9-1.9,1.4c-5.1,3.8-10.2,7.4-14.1,12.6
		c-1.4,1.9-3.4,3.2-5.2,4.9c-2.2,2.1-4.3,4.2-6.5,6.3c-1.1,1.1-2.3,2.1-3.5,3.1c-2.3,1.7-4.8,3-5.8,6.1c-0.3,0.9-1.5,1.5-2.4,2.1
		c-1.3,0.9-2.6,1.7-3.9,2.6c-5.8,4.4-10.8,9.7-16,14.8c-3.6,3.6-7.8,6.5-11.6,9.9c-4.9,4.5-9.6,9.2-14.5,13.6
		c-6.3,5.6-12.9,10.7-19,16.5c-6.8,6.4-13.2,13.3-19.7,19.9c-2,2-3.9,4.2-5.9,6.2c-7.3,7-15,13.7-21.2,21.9c-2.3,3-3.6,5.8-3.4,9.4
		c0.2,4.3,0.4,8.6,0.1,12.9c-0.3,6.4-1.2,12.7-1.5,19.1c-0.5,9.9-0.9,19.8-1.3,29.7c0,0.5,0.2,1.1,0.6,2.3c1-1.3,1.9-1.9,2.1-2.7
		c2.9-10.4,8.8-19.1,15.3-27.4c4.2-5.4,8.8-10.4,15.1-13.8c3.6-1.9,7.2-4.3,10.1-7.1c5.7-5.4,12.7-7.6,20-9.2
		c8.4-1.8,16.9-3.3,25.3-4.9c0.6-0.1,1.4-0.3,1.8-0.1c2.8,1.6,5.6,0.5,8.4,0.3c2.2-0.1,4.2-0.4,6.5,0.4c3.6,1.3,7.6,2.1,11.5,2.2
		c9.1,0.4,16.9,4.8,24.5,8.8c6.1,3.2,12,7.1,17,12.2c4.3,4.4,9.5,7.9,12.1,13.8c0.7,1.5,2.2,2.7,3.3,4.1c0.8,1,2,1.9,2.3,3
		c1,4.1,3.5,7,7,9.1c0.2,0.1,0.3,0.6,0.5,1c-2.4,3.1-0.7,6.1,0.4,9.3c1.3,3.9,2.5,7.8,3.1,11.9c0.7,5.5,0.8,11.1,1,16.6
		c0.1,1.1,0.1,2.4-0.3,3.3c-2.7,5.1-1.2,11.4-4.7,16.3c-0.2,0.3-0.1,0.9-0.2,1.4c-0.4,2.3-0.4,4.9-1.3,7
		c-3.5,7.6-5.5,15.9-10.8,22.7c-4.5,5.9-8.4,12.4-15.2,16.2c-0.7,0.4-1.2,1-1.8,1.5c-7.2,6.7-15,12.3-24.7,15
		c-4.6,1.3-9.1,3.1-13.6,4.7C515.1,1031.2,514.9,1031.6,514.5,1031.9z M954.4,618.5c-2.6,2.4-6.1,3-9.8,0.5
		c-0.3-0.2-0.6-0.3-0.9-0.4c-5.2-0.4-10.3-1-15.5-1.2c-4.9-0.2-9.8-0.3-14.8-0.2c-3.9,0.1-7.8,0.6-11.8,0.8c-2,0.1-4.6,0.4-6-0.7
		c-3.1-2.3-6.5-1.1-9.7-1.9c-1.3-0.3-3.1-0.2-4.2,0.5c-2.7,1.7-5.5,1.1-8.3,0.8c-6.8-0.8-13.6-1.5-20.4-2.1
		c-2.2-0.2-4.9-0.8-6.5,0.2c-5.7,3.2-11.5-1.9-17,0.9c-0.3,0.1-0.8-0.4-1.3-0.5c-0.7-0.2-1.5-0.5-2.2-0.5c-6,0.2-12,1-17.9,0.6
		c-6.4-0.4-12.9,2.3-19.1-0.9c-0.2-0.1-0.6-0.1-0.9,0c-5,1.2-10-0.8-15-0.4c-2,0.2-4-0.2-6-0.3c-5.1-0.3-10.1-0.9-15.2-1
		c-7.9-0.2-15.8,0.2-23.7-0.5c-9-0.8-17.9-1.8-26.9-0.2c-1.8,0.3-3.7-0.4-5.6-0.4c-2.7-0.1-5.4,0.3-8,0.1c-4.9-0.4-9.7-1.2-14.6-1.6
		c-6.3-0.4-12.7-0.6-19-0.8c-0.9,0-1.9,0.5-3.3,1c1.2,1.3,1.9,2.2,2.6,2.9c0.8,0.8,1.5,1.7,2.5,2.2c10.1,5.6,16.8,15.1,25.8,22
		c4.6,3.6,8.5,8.1,12.8,12.2c4,3.8,8.2,7.5,12.2,11.4c5.2,5,10.3,10,15.3,15c9.9,9.9,19.8,19.9,29.7,29.8c1.9,1.9,3.7,4,5.5,5.9
		c5.5,5.7,10.9,11.6,16.6,17.1c5.5,5.3,11.5,10,17,15.3c5.5,5.3,10.6,11.1,16,16.5c11,10.9,22.1,21.7,33.1,32.6c3,3,6,6.1,9.1,9.1
		c3.6,3.6,7.4,7,11,10.7c7.4,7.7,14.6,15.6,22,23.3c6.1,6.3,12.4,12.4,18.6,18.6c2,2,4.1,4,6.1,6c5.1,5,10.1,10.1,15.2,15.1
		c0.2,0.2,0.6,0.1,1.6,0.1c2.4-3.6,5.1-7.5,7.7-11.4c2-3,3.8-6,6-8.8c2.2-2.7,4.8-5.1,7.1-7.7c2.8-3.1,5.5-6.2,6.3-10.5
		c0.2-1.1,1.2-2.1,2-3c0.7-0.8,1.7-1.4,2.3-2.4c2.6-4,5.1-8,7.5-12.1c0.9-1.5,1.1-3.3,1.7-4.9c0.4-1.1,0.7-2.3,1.3-3.4
		c4.4-7.4,8.4-15.1,11.5-23.2c2.3-5.9,4.5-11.9,8-17.3c0.5-0.8,0.8-1.7,0.8-2.6c0.1-3.3,1.3-6.3,2.5-9.4c1.7-4.2,5.9-7.7,4.3-13
		c-0.1-0.4,0.1-1.1,0.4-1.3c3.3-2.4,2-6.3,2.9-9.4c0.7-2.1,1-4.4,1.7-6.5c1.7-5.1,3.6-10.2,5.3-15.3c1.1-3.2,2.1-6.3,3.1-9.5
		c1.8-5.6,4-11.1,5.1-16.8c2.1-10.8,3.7-21.6,5.4-32.5c0.7-4.3,1.4-8.5,1.7-12.8c0.4-6.7,0.5-13.4,0.7-20.1c0-0.9-0.2-1.9-0.4-2.8
		c-0.5-1.7-1.7-2.4-3.3-1.4c-3.4,2-7.1,1.6-10.4,0.7c-2.4-0.6-4.3-0.3-6.4,0c-3.7,0.6-7.7,1.8-11.1,1c-3.6-0.9-7-0.4-10.2,0.3
		c-3.7,0.8-7.4,0.2-11.1,0.5c-2,0.1-4.2-0.5-6.4-0.3C958.2,619.8,956.8,619.1,954.4,618.5z M737.4,570c1.9-0.8,3.4-2.1,4.8-2.1
		c6.7-0.1,12.6-2.7,18.7-4.8c4-1.4,7.6-3.9,12.1-4.1c1.7-0.1,4-1.1,4.9-2.4c1.8-2.6,3.1-4.2,6.5-2.2c1.1,0.7,3.2-0.3,5-0.5
		c-0.4-1-0.6-1.6-1-2.6c2.1-0.2,4.3-1,5.6-0.3c1.8,0.9,3.1,0.6,4.5,0c4.5-1.8,9-3.8,13.4-5.7c1.9,0,3.9,0.3,5.8-0.1
		c2.1-0.4,4.1-1.5,6.2-2.3c1.9-0.7,4.3-1,5.7-2.3c1.9-1.9,4.1-0.4,5.9-1.3c3.1-1.5,6.1-2.8,9.6-3.5c3.6-0.8,7-2.6,10.9-2.3
		c0.4,0,0.8-0.5,1.2-0.8c-0.1-1-0.2-2.1-0.4-3.3c4.6-0.3,8.9,0.2,13.2-1c3-0.9,6.2-0.8,8.7-3.3c0.9-0.9,2.6-0.9,4-1.2
		c0.9-0.2,2.2,0.3,2.8-0.2c4-3.3,10.2-1.6,13.8-5.8c0.3-0.4,1.3-0.4,1.8-0.2c2.9,1.2,5.5-0.3,7.6-1.6c3.5-2.2,8.3-1.4,11.2-4.9
		c0.3-0.3,1.2-0.1,1.9-0.2c2.6-0.3,5.3-0.3,7.7-1.1c3.2-1.1,6.9-1.3,9.5-4c0.4-0.4,1.2-0.6,1.8-0.4c3.6,1.2,5.2-1,6.2-3.7
		c0.4-0.1,0.6-0.2,0.7-0.2c3.9,0.3,8.1,2,11.4-1.8c0.4-0.4,1.5-0.1,2.3-0.2c1.1-0.2,2.2-0.3,3.2-0.7c2.3-1,4.3-2.7,7.1-1.2
		c0.6,0.3,2.1-0.6,3-1.1c3.1-2,6.5-3.1,10.1-3.9c3.8-0.8,7.5-2.2,11.3-3.3c0.8-0.2,1.6-0.2,2.3-0.4c2.5-0.6,5.1-1.3,8.2-2
		c-1.5-5.4-2.8-10.1-4.3-14.8c-1.5-4.7-3.3-9.3-4.8-13.9c-1.2-3.8-2-7.8-3.4-11.4c-2.3-5.9-5-11.7-7.6-17.5
		c-1.3-2.9-2.8-5.7-4.2-8.6c-1-2-2.2-3.8-3.2-5.8c-1.4-2.8-2.6-5.8-4-8.6c-1.5-2.8-3.6-5.3-4.8-8.2c-3.1-7.9-7.8-14.9-12.1-22.1
		c-2-3.3-4.3-6.3-6.3-9.6c-3-5-5.7-10.2-8.8-15.3c-2.3-3.8-4.9-7.4-7.2-11.2c-1.1-1.8-2.3-3.3-4.7-3.8c-0.7,1.4-1.1,2.9-1.9,4
		c-5.4,6.9-10.9,13.7-17.3,19.7c-6,5.7-12.4,11.1-18,17.1c-6,6.4-12.6,12.1-19.2,17.8c-5.8,5-11,10.6-16.6,15.8
		c-1.5,1.4-3.5,2.3-4.5,3.9c-2.2,3.2-4.9,5.6-7.9,8c-3.9,3.1-7.2,7-10.8,10.5c-3.7,3.5-7.5,6.9-11,10.5c-4.2,4.3-10.6,6.4-12.8,12.8
		c-0.1,0.2-0.5,0.4-0.8,0.5c-5.9,2.9-9.4,8.6-14.6,12.4c-5.8,4.3-10.3,10.4-15.5,15.5c-3.4,3.3-7.1,6.3-10.6,9.4
		c-3.7-0.5-4.6,2.8-6.5,4.7c-5,4.9-9.9,9.9-14.9,14.8c-0.7,0.7-1.5,1.2-2.2,1.8c-4.8,4.2-9.7,8.3-14.4,12.6
		c-7.6,6.9-15,14.1-22.6,21c-8.9,8.1-17.9,16.2-26.9,24.3c-1.5,1.4-1.9,2.6-0.9,4.6c1.5,3,0.9,4.7-1.9,6.3c-1.3,0.7-3,1.5-4.4,1.2
		c-4.2-0.6-7,1.3-9.7,4c-2.9,2.8-5.9,5.3-8.9,8c-0.6,0.5-1.1,1.1-1.9,2c4.9-1.5,9.4-2.7,13.7-4.3c4.3-1.6,8.4-3.9,12.8-5.4
		c13.7-4.8,27.4-9.3,41.1-14c2.1-0.7,4-2,5.9-3.1c0.7-0.4,1.2-1.1,1.9-1.4c1.9-0.8,3.8-1.6,6.3-2.5
		C736.3,568.6,736.9,569.3,737.4,570z M167.8,832.6c0.1-5.7,0.2-10.6,0.3-15.5c0.3-10,0.8-20.1,1.1-30.1c0.1-2.2-0.7-4.5-0.2-6.6
		c0.9-3.4,0.5-6.5-0.4-9.8c-0.3-1.1,0.1-2.4,0.2-3.6c0.1-1.4,0.4-2.8,0.4-4.1c0-2.2-0.1-4.5-0.2-6.7c-0.3-6.9-0.7-13.8-0.8-20.8
		c0-3.7,0.3-7.3-1.3-10.7c-0.2-0.3,0-1,0.3-1.3c2-2.9,0.7-5.9,0.4-8.8c-0.2-2.3-0.9-4.5-1.6-7.5c0.1-0.1,1.2-1.3,0.9-1.9
		c-2.2-5.4,0.7-10.7-0.3-16.2c-0.9-5.1,0.1-10.4,0.2-15.7c0-2.2,0.2-4.4-0.2-6.6c-0.5-2.7-1.1-5.2,0.1-7.9c0.4-0.8,0.2-2.3-0.4-3.1
		c-1.4-2.2-0.6-4.2-0.2-6.4c0.8-4.7,4.2-9.5,0-14.3c-0.2-0.2-0.2-0.7,0-0.9c1.9-3.4-3.4-7.3,0.8-10.5c-1.5-2.6,0.2-5.6-0.8-8
		c-1.7-4.2,0.4-8.2-0.3-12.3c-0.1-0.8,1.1-1.8,1.7-2.5c-0.5-1.3-1-2.4-1.6-3.9c3.1-1,2.9-3.4,2.7-5.8c-0.1-1.7-0.7-3.6-0.3-5.2
		c1.2-4.3-0.2-8.1-1.4-11c0.6-2.5,1.2-4,1.3-5.7c0.5-5.9-1.2-12,0.8-17.9c0.1-0.3-0.1-0.6-0.1-0.9c-0.1-6.3-0.2-12.6-0.3-18.9
		c-0.1-5.4-0.1-10.8-0.1-16.2c0-7.5,0.1-14.9,0.1-22.4c0-5.4-0.5-10.8-0.5-16.2c0-5.5,0.5-10.9,0.6-16.4c0.2-9.2,0.2-18.4,0.5-27.6
		c0.1-4,1.2-8,0.9-11.9c-0.6-8.2-0.2-16.2,0.6-24.3c0.6-6.5,0.7-13,1-19.6c-4-0.6-7.7-1.1-11.5-1.6c-1.8-0.2-3.7-0.1-4.6,1.8
		c-1.9,3.9-3.5,7.8-5.3,11.7c-2.3,5.1-4.2,10.4-7.1,15.1c-2.7,4.4-4.6,9.1-6.4,13.8c-0.9,2.4-1.9,4.7-2.9,7
		c-2.8,6.6-5.9,13.1-8.5,19.7c-1.8,4.4-2.3,9.5-4.8,13.4c-3.6,5.6-3,12.3-5.9,18.1c-2.1,4.3-2.2,9.5-3.5,14.2
		c-3.3,11.3-6.1,22.7-7.4,34.5c-0.6,5.8-2.8,11.5-3,17.2c-0.4,9.2-3.4,18-3.2,27.4c0.1,7.1-1.6,14.2-2.4,21.3
		c-0.9,8.2-1.6,16.4-2.4,24.7c-0.3,3.6-0.8,7.3-0.7,10.9c0.4,8.3,1.9,16.5,1.7,24.7c-0.4,15.3,3.1,30.1,5,45.1
		c1,8.1,3.4,16.1,5.4,24.1c3.2,13.3,6.9,26.4,12.7,38.9c1.6,3.4,2.4,7.2,3.9,10.7c3.4,7.9,6.8,15.8,10.5,23.5
		c3.5,7.3,7.2,14.5,11.1,21.5c2.6,4.7,5.8,9.1,8.6,13.7c1,1.6,2.2,1.9,4,2c2.5,0.1,5,0.5,7.5,1C164,831.5,165.3,832,167.8,832.6z
		 M298.6,315c-0.4-0.2-0.7-0.3-1.1-0.5c-7,6.7-14,13.4-20.9,20.1c-3.4,3.3-7.2,6.3-9.1,10.9c-0.2,0.4-0.7,0.6-1.1,0.9
		c-8.1,7.1-13.8,16.3-20.1,24.9c-3.8,5.1-6.7,10.8-9.8,16.3c-3,5.3-5.8,10.6-8.6,16c-1.4,2.5-2.3,5.3-4.1,7.6
		c-5.3,6.7-8,14.8-11.6,22.3c-2.6,5.3-4.4,10.9-6.5,16.4c-1.2,3.1-2.7,6.1-3.8,9.2c-2.3,6.8-3.8,13.8-6.8,20.3
		c-3.1,6.9-4.6,14.2-6.2,21.5c-1.4,6.1-3,12.1-4.4,18.1c-1.3,5.4-2.8,10.8-3.7,16.2c-1.3,7.9-2,15.8-3,23.7
		c-0.2,1.9-0.7,3.8-0.9,5.7c-0.6,6.2-1.2,12.4-1.6,18.6c-0.3,4.5-1.1,9.1-0.2,13.9c5,0.2,9.5,0.5,14.1,0.5c4.4,0,8.9-0.4,13.3-0.5
		c4.5-0.1,9.3,0.9,13.3-0.4c5.6-1.9,10.8-0.2,15.8,0.5c8,1,15.9,0.8,23.8,1.2c4.6,0.2,9.3-0.1,13.9,0.1c7.1,0.4,14.3,1.2,21.4,1.7
		c1.8,0.1,3.7-0.2,6-0.3c-0.9-15.5,2.2-30.7-1.5-45.9c1.4-2.4,0.8-2.4,1-6.4c0.2-5,0.2-9.9-0.2-15c-0.3-3.5-2.4-7.8,1.3-11.2
		c0.3-0.3-0.1-1.2-0.1-1.9c0-1.7,0.1-3.5,0-5.2c-0.3-3.1,0.7-6.6-0.1-9.3c-1.3-4.4-0.2-8.6-1-12.9c-0.1-0.7-0.1-1.6,0.1-2.3
		c1.4-5.1,0.4-10.3,1-15.4c0.1-0.5,0.1-1.3,0-1.4c-2.8-0.9-1.5-3.2-1.2-4.6c1.3-5.9,1.3-11.9,0.8-17.9c-0.2-2,0.2-4.1,0.8-6.1
		c1-3.4,1.8-6.8,0.3-10.2c-0.3-0.7-0.3-1.6-0.1-2.3c1.1-3.2,0.2-6.2-0.1-9.4c-0.3-2.6-0.6-5.4,0.2-7.7c1.1-3,1.2-5.7,1-8.8
		c-0.4-4.7-0.6-9.5-0.5-14.3c0.2-4.9,1-9.7,1.5-14.4c-1.3-1.3-2.4-2.6-3.4-3.7c1-2.1,2.2-3.6,2.3-5.2c0.2-5.1,0.6-10.3-0.1-15.3
		c-0.7-5.3-0.5-10.5,0.2-15.6C299.9,330.1,298.4,322.6,298.6,315z M529.5,868.3c0.4-2.7-1-3.3-3.3-3.5c-2.1-0.2-4.2-1.1-6.3-1.7
		c-1-0.3-2.1-0.6-3.2-0.5c-2.8,0.1-6.3,2.5-7.8-2.1c0-0.1-0.3-0.1-0.5-0.1c-4-0.5-7.9-1.7-11.8-2.4c-5.4-0.9-11.1,0-16.7,0.4
		c-6.7,0.4-13.3,2.2-19.4,4.9c-7.2,3.2-15.1,5.1-21.2,10.6c-5.4,4.9-11.1,9.5-16.5,14.4c-1.6,1.5-2.2,4-3.8,5.5
		c-4.8,4.5-7.5,10.2-10.1,16c-1.7,3.7-3.5,7.8-3.7,11.8c-0.4,8.7-3.2,17.1-2.3,26c0.6,5.5-0.1,11,1.6,16.5
		c3.1,10.2,6,20.4,12.1,29.4c0.9,1.3,1.7,2.6,2.6,3.9c2.7,3.6,5.3,7.2,8.8,10.4c2.3,2.1,4.2,4.8,6.7,6.9c6.6,5.5,14.4,8.6,22.4,11.4
		c1,0.4,2.2,0.4,3.3,0.5c7.1,0.7,14.3,1.3,21.4,2.1c5.8,0.7,11.6,1.6,17.3-1c0.8-0.3,1.9,0,2.8,0c1.4,0,2.8,0,4.2-0.1
		c2.5-0.2,5-0.5,7.5-0.8c5.9-0.6,11.4-2.4,16-6.4c1.3-1.1,2.9-2.2,4.4-2.4c2.5-0.4,4.6-1.3,6.3-3c2.3-2.2,4.3-4.8,7.7-5.7
		c1.1-0.3,1.9-2,2.9-3c0.5-0.6,0.9-1.2,1.5-1.7c1.7-1.8,3.8-3.4,5.1-5.5c3.8-6,7.3-12.2,10.9-18.4c0.4-0.7,0.4-1.5,0.7-2.3
		c1-2.3,2.1-4.6,3.1-7c1.3-2.9,3.5-5.9,3.5-8.8c-0.1-4,1.6-8.2-0.6-12.2c-0.4-0.6-0.1-2,0.5-2.7c2.6-3.2,1.8-7.3,1.5-10.5
		c-1.1-10-3.6-19.9-8.4-29c-0.9-1.8-1-3.9-1.7-5.8c-0.7-2-1.5-4-2.7-5.8c-1.7-2.7-3.7-5.3-5.7-7.9c-2.4-3-4.1-6.5-7.5-8.7
		c-1.2-0.8-2.1-1.9-3.1-2.9C543.1,872.4,537.8,868.1,529.5,868.3z M899.2,605.8c2.2,2.6,4.5,2.1,6.9,1.6c1.5-0.3,3.1-0.1,4.6-0.1
		c1.3,0.1,2.7,0.3,4,0.4c6.4,0.3,12.9,0.5,19.3,0.7c4.4,0.1,8.9,0,13.3-0.1c4.2,0,8.3,0.7,12.6,0.2c2.9-0.3,6.2,0.3,9.4,0.5
		c7.4,0.3,14.9,1.3,22.3,1.9c2.3,0.2,4.7,0.3,7,0.3c2.5,0.1,5.1,0,7.6,0.1c2,0.1,4.1,0,6,0.5c3.4,0.8,5.2-0.1,5.9-3.5
		c0.3-1.2,0.1-2.6,0.6-3.7c1-2.5,2.7-5.1,1-7.6c-2.2-3.2,2.1-5.2,1-8c-0.3-0.9-0.6-1.8-0.8-2.8c-0.2-1.1-0.8-2.3-0.5-3.3
		c1.5-4.9-1.4-9.9,0.8-14.7c0.2-0.4-0.2-0.9-0.2-1.4c-0.1-3-0.2-6-0.4-9c-0.1-2.7-0.1-5.4-0.6-8.1c-2.3-12.2-4.7-24.4-7.1-36.6
		c-1-5.2-1.9-10.4-3.1-15.5c-1.1-4.6-2.7-5.6-6.7-4.1c-8.5,3.2-16.9,6.7-25.4,9.7c-7.8,2.7-15.3,6.7-23.5,7.8
		c-4.8,0.7-9.2,2.2-13.7,3.9c-5.4,2-11,3.5-16.1,6c-3.4,1.7-6.8,2.3-10.4,3c-1.1,0.2-2,0.9-3.1,1.2c-1.5,0.4-3.1,0.6-4.5,1
		c-4.5,1.4-9.2,2.6-13.5,4.6c-1.7,0.8-3.3,1.7-5.2,2c-2.5,0.4-5,1-7.4,1.7c-3.5,1-6.9,2.3-10.4,3.4c-6.5,2-13.1,3.8-19.6,5.7
		c-2.9,0.9-5.6,2.1-8.5,2.9c-3.6,1.1-7.4,1.8-11,2.9c-10.2,3.1-20.7,5.1-30.4,9.7c-0.3,0.1-0.6,0.1-0.9,0.1
		c-5.5,1.5-11,2.8-16.4,4.9c-9,3.5-18.3,6.3-27.7,8.9c-10.9,3-21.7,6.1-32.4,9.9c-2.7,0.9-5.3,2.2-8,2.9c-6.8,1.9-13.6,3.5-20.4,5.3
		c-2.6,0.7-5.2,1.6-7.8,2.4c-10.8,3.4-21.6,6.8-32.4,10.3c-1.4,0.4-2.6,1.4-3.8,2.1c1,0.9,1.6,0.9,2.2,0.8c10.5-0.5,21-1.1,31.5-1.4
		c7.6-0.2,15.2,0.3,22.9,0.3c5.9,0,11.8-0.2,17.7-0.2c6.2,0,12.4,0.4,18.6,0.3c8.9-0.2,17.8-0.9,26.7,0.6c2.9,0.5,6,0.5,9,0.2
		c6.1-0.6,12.2-2,18.3,0c0.6,0.2,1.3,0,1.9,0c9.2,0,18.4,0,27.7,0c2,0,4.2-0.5,6.1,0c5.1,1.3,10,0.1,15.1,0.1c1.5,0,3.2-0.4,4.6,0.1
		c3,1,5.9,1,8.9,0.7c1.1-0.1,2.2-0.2,3.3-0.2c4.5,0.3,9.1,0.7,13.6,0.9c4.1,0.2,8.1-0.4,12.2,0.3C893,608.7,896.5,608.9,899.2,605.8
		z M1116.3,1066.3c0.8-4.9-0.5-9.2-2.1-13.3c-0.9-2.3-1.3-4.6-0.8-7c0.6-2.7-0.1-5.8,2.1-8.1c0.3-0.4,0.4-1.3,0.2-1.8
		c-1.9-4.6-0.3-9.2-0.2-13.7c0-0.8,0.1-1.7-0.3-2.2c-2.8-4.3-1.5-9-0.8-13.3c0.5-3.1,1.1-5.9,0-8.9c-0.9-2.3-0.4-4.5,0.7-6.4
		c0.8-1.5,1.2-2.6,0.9-4.3c-0.5-3.3-0.6-6.8-0.6-10.1c0.1-6.9,0.3-13.8,0.5-20.6c0-0.3-0.1-0.7-0.3-0.9c-3.1-2.7-0.8-6-0.2-8.5
		c0.5-2.2,0.8-4,0.5-6.3c-0.3-2.7-2.1-5.7,1.1-8.3c1.1-0.9,0.6-2.9-0.9-4.1c-0.6-0.5-1-1.7-0.8-2.4c2-6.4,0.5-12.8,0.3-19.3
		c-0.3-9.5-1-19,0.6-28.5c0.1-0.8,0-1.6,0-2.4c-0.1-5.7-0.2-11.4-0.2-17c0-3.9,0.5-7.8,0.4-11.8c-0.1-6-0.9-12-0.7-17.9
		c0.3-7.3,0.6-14.5,0.7-21.8c0.2-10,0-20.1,2-30.1c0.8-4,1.9-8.4,1.1-12.2c-1.3-6.4,1-12.5,0.1-18.8c-0.6-4.5,0.3-9.2,0.6-13.8
		c0.3-5.6,0.6-11.1,0.8-16.7c0.3-6.3,0.7-12.7,0.9-19c0.1-4.7-0.6-9.6,0.1-14.2c1.1-7.4-0.1-14.6,0.1-21.9c0-0.7-0.5-1.5-0.7-2.3
		c-2.9,7.1-4.1,14.2-4.8,21.5c-0.7,7.3-1.3,14.6-2.5,21.8c-1.7,10.2-3.9,20.4-6.1,30.5c-1.3,6.2-2.9,12.3-4.8,18.4
		c-1.6,5.3-3.7,10.5-5.8,15.7c-4.1,10.3-7.8,20.8-12.5,30.9c-5,10.6-9.9,21.3-16.5,31.1c-7,10.4-13.7,21.1-20.5,31.7
		c-0.9,1.3-1.5,2.8-2.5,4.1c-7.9,10.6-15.8,21.2-23.8,31.6c-3.6,4.7-7.4,9.1-11.2,13.6c-1.4,1.7-3,3.1-4.5,4.7
		c-3,3.4-5.9,7-9.1,10.3c-3.4,3.5-7.1,6.8-10.7,10.3c0.5,1.1,0.9,2,1.2,2.8c-1.4,0.9-2.5,1.6-3.9,2.5c1.5,1.4,2.6,2.5,3.8,3.6
		c3.8,3.3,8,6.1,11.2,10.2c3,3.8,6.7,7.2,10.2,10.7c9.4,9.5,18.9,18.9,28.3,28.4c6.6,6.7,13,13.5,19.5,20.3c3,3.1,5.7,6.4,8.8,9.4
		c5.7,5.6,11.7,10.8,16.9,16.8c3.7,4.3,8.1,8,12.3,11.8c5,4.5,10.1,8.8,15.2,13.1C1111.5,1065.4,1113.4,1066.7,1116.3,1066.3z
		 M170,885.2c0.8-4.1,0-8.9-1.5-13.7c-0.1-0.4,0-1-0.1-1.4c-0.8-4-1.3-8.1-4.4-11.2c-0.5-0.5-0.9-1.3-1.3-2
		c-3.4-5.7-6.8-11.4-10.3-17.2c-1.3-2.2-3.3-2.9-5.8-2.4c-4.8,0.9-9.6,1.8-14.4,2.9c-2,0.4-4,1.1-5.9,2c-7.3,3.5-14.6,7.1-21.8,10.9
		c-2.5,1.3-4.8,3.1-6.9,5c-3.7,3.2-6.9,7.2-11,9.9c-3.6,2.3-5.9,5.3-8,8.6c-3.2,5.1-6.5,10.2-9.4,15.4c-2.4,4.4-4.8,9-6.4,13.8
		c-3.3,9.8-5.2,20-6.7,30.3c-1.4,9.3-1.2,18.4-0.6,27.6c0.1,1.6,0.8,3.2,0.6,4.7c-0.9,7.6,1.9,14.5,4.7,21.2
		c2.8,6.5,4.6,13.5,9.8,18.7c0.1,0.1,0.1,0.3,0.1,0.5c1.9,4.6,4.8,8.6,8.3,12.1c3.3,3.4,6.5,7,10,10.2c3,2.8,6.1,5.7,9.5,7.9
		c14.4,9.4,30.9,13.3,47.2,17.6c0.6,0.2,1.3,0.1,1.9,0.2c4.9,0.5,9.8,0.9,14.8,1.4c3,0.3,3.8-0.3,3.7-3.3c-0.3-8-0.7-15.9-1-23.8
		c-0.1-1.9,0.2-3.8,0.3-5.7c0.1-1.4,0.3-2.8,0.3-4.3c-0.2-4-2-7.9-0.1-11.9c0.1-0.3,0.1-0.6,0.1-0.9c-1.1-11.9,1.5-23.7,0.4-35.6
		c-0.7-7.5,1.7-15.3-1-22.7c-0.1-0.1-0.1-0.4,0-0.5c2.2-2.6,0.9-5.8,1.4-8.7c0.5-3.4,0.4-6.8,0.6-10.2c0.2-3.7-2.1-7.5,0.6-11.1
		c0.2-0.2-0.1-0.6,0-0.9c1.4-4.9-0.2-9.8,1.1-14.9C170.4,898.1,169.7,892,170,885.2z M1024,1062.9c0.8,0,1.3-0.1,1.4,0
		c0.8,1.2,1.4,3.1,2.5,3.6c1.4,0.6,3.3,0.2,5,0.2c0.3,0,0.7,0,0.9,0.2c3.9,1.5,7.5,0.7,9.8-0.8c2.4,0.4,3.9,1.1,5.2,0.8
		c1.7-0.4,2.9-0.5,4.5,0.5c1.2,0.7,2.8,0.9,4.2,1c5.9,0.1,11.7,0,17.6-0.1c0.6,0,1.3-0.1,1.9,0c6.7,0.5,13.3,1.1,20,1.5
		c2.7,0.2,5.4,0.2,8.1,0.2c1,0,2.1-0.4,4-0.8c-4-4.2-7.5-7.7-11.9-10.3c-4.9-2.8-8.7-6.9-12.6-10.8c-5.8-5.6-11.4-11.4-18.3-15.7
		c-1.3-0.8-2.5-2-3.5-3.2c-2.8-3.6-5.3-7.3-9.3-9.7c-0.9-0.6-1.7-1.4-2.5-2.2c-1.3-1.2-2.5-2.3-3.7-3.5c-1.1-1.1-2.2-2.3-3.3-3.4
		c-4.6-5-9.2-9.9-13.9-14.9c-3.6-3.8-7.5-7.3-10.9-11.2c-3.8-4.3-8-8-12.3-11.8c-4.6-4.1-8.8-8.7-12.9-13.3
		c-4.6-5.2-9-10.6-13.6-16.1c-2.3,1.3-4.7,2.3-6.6,3.8c-5.7,4.7-11,9.9-16.9,14.5c-6.8,5.4-14,10.4-21,15.5c-1.7,1.2-3.5,2.3-5,3.7
		c-3,2.8-5.5,6.1-9.9,6.9c-0.4,0.1-0.8,0.5-1.2,0.8c-5.5,3.4-11,7-16.6,10.2c-12.4,7.2-24.5,14.8-37.4,21.2
		c-10.3,5.2-20.6,10.3-31.7,13.8c-8.3,2.7-16.5,6-24.7,9c-4.9,1.8-9.8,3.7-14.8,5.3c-5.6,1.8-11.4,3-17.1,4.7
		c-10.1,3-20.4,5.1-30.8,6.8c-6.1,1-12.1,2.3-18.1,3.5c0,0.3,0.1,0.7,0.1,1c3.7,0,7.3,0,11,0c3.3-0.1,6.6-0.4,9.9-0.3
		c6.4,0,12.7,0.5,19.1,0.3c9.7-0.3,19.4,0.8,29.1,0c8.2-0.6,16.5,0.1,24.7,0.1c5.2,0,10.5-0.5,15.7-0.5c3.3,0,6.6,0.3,9.9,0.6
		c1.8,0.1,3.7,0.8,5.5,0.6c4.2-0.3,8.4-0.9,12.6-1.3c1.1-0.1,2.2,0.4,3.3,0.5c4.4,0.3,8.8,0.7,13.2,0.8c1.5,0.1,3.1-0.6,4.6-0.5
		c5.1,0.4,10.1,1.2,15.1,1.3c6.7,0.1,13.4-0.4,20.1-0.7c1.1-0.1,2.2-0.6,3.3-1c1.1,2.1,2.9,2.4,5.2,2.2c4.5-0.5,8.9-1.3,13.4-0.9
		c1.7,0.1,3.5,0.9,5,0.5c5.3-1.3,10.6,1.2,15.9-0.1c1.7-0.4,3.8,1.6,5.8,1.8c2,0.2,3.9-1.8,6.3-0.7c1.4,0.6,3.3,0.8,4.7,0.3
		c4.4-1.3,8.8,0,13.1,0.1c3,0.1,5.5,0.2,7.5-2c4.8,2.6,18.9,3.8,20.6,1.7C1023.7,1065.5,1023.8,1064.3,1024,1062.9z M170.1,148.4
		c-5-2.7-10-2.6-15-1.5c-3.3,0.7-6.5,1.6-9.7,2.7c-5.3,1.8-10.4,4.1-15.7,5.6c-4.7,1.3-7.7,4.9-11.6,7.3
		c-7.2,4.5-13.7,9.8-19.8,15.7c-4.9,4.8-9,10.3-13.1,15.6c-1.6,2-3.4,3.9-4.6,6.1c-3.4,6.2-6.8,12.5-9.6,19
		c-2.2,5.3-3.8,10.8-5.1,16.4c-1.3,5.6-2.1,11.4-2.5,17.2c-0.7,8.8,0.8,17.6,2.9,26c2.4,9.8,6.4,19.3,10,28.9
		c1.3,3.4,3.4,6.5,5.5,9.4c3.1,4.4,6.4,8.7,9.8,12.9c2.1,2.6,4.3,5.1,6.8,7.3c2.9,2.7,6.2,5,9.4,7.5c3.7,2.8,7.4,5.6,11.2,8.1
		c3,2,6.4,3.6,9.5,5.5c7.6,4.7,15.7,8.2,24.5,10.3c2.4,0.6,3.9-0.2,4.9-2.5c1.5-3.3,3.7-6.3,5-9.7c2-5,6.8-8.5,6.6-14.6
		c-0.2-5.7,2.6-11.6-0.7-17.2c-0.1-0.2-0.1-0.6,0.1-0.8c2.5-3.5,0.7-7.4,0.8-11.1c0-1.1-0.7-2.4-0.2-3.3c2.1-4.3,1.3-8.9,0.9-13
		c-0.9-8.5,0.3-16.8-0.1-25.2c-0.3-6.3,0.6-12.8-0.4-19c-0.7-4.4,0.2-8.6,0.1-12.8c-0.1-4.7-0.2-9.5-0.2-14.2c0.1-6,0.3-12,0.4-18.1
		c0.2-7.6,0.4-15.2,0.4-22.9c0-4.4-0.7-8.9-0.2-13.3C171.3,163.4,170.7,156,170.1,148.4z M638.9,610.3c-2.1,0.5-3.5,0.8-4.8,1.2
		c-5.3,1.7-10.6,3.4-15.9,5.1c-3.5,1.1-7,2.1-10.4,3.4c-7.4,2.8-14.8,5.7-22.2,8.7c-7.9,3.2-16.4,4.6-24.4,7.6
		c-6.8,2.6-14.1,3.8-21.1,5.9c-6.4,1.9-12.9,3.7-18.2,7.5c-4.6-0.9-9.1-0.4-12.9,1.9c-4.9,3-10.3,4.1-15.6,5.8
		c-9.3,2.9-18.7,5.4-28,8.2c-7.3,2.2-14.6,4.5-21.9,6.9c-6,1.9-12,4.2-18.1,6c-5.5,1.6-11.1,2.9-16.6,4.4c-1.5,0.4-2.9,1.1-3.9,1.5
		c0.3,6.4,0.8,12.3,0.9,18.1c0.1,2.7-0.4,5.4-0.5,8.1c-0.2,5.1-0.3,10.1-0.5,15.2c0,1.6-0.3,3.3,0,4.8c1.7,7.8,0.5,15.8,0.5,23.6
		c0,9.7-1.6,19.4-1.8,29c-0.4,16.3-0.4,32.6-0.5,48.9c0,1,0.2,2,0.3,3.4c1.4-0.9,2.5-1.3,3.2-2.1c3.2-3.5,6.2-7.2,9.3-10.8
		c2.3-2.6,4.4-5.5,7-7.7c2.6-2.2,5-4.3,6.6-7.4c0.7-1.3,2.2-2.3,3.3-3.4c1.7-1.6,3.3-3.3,5.2-4.8c2.9-2.3,5.4-4.8,7.1-8.2
		c0.3-0.6,1.3-0.8,1.8-1.3c2.5-2.7,5.4-5.1,7.1-8.2c1-1.9,2.1-3.6,3.7-4.5c5-3,8.6-7.3,12.2-12.2c1.6,0.4,4.1,0.8,4.5-1.5
		c0.7-3.9,3.6-4.9,6.5-6.1c2-0.9,3.6-2.1,4-4.4c0.5-2.9,2.3-4.4,5.1-5c0.9-0.2,2.2-0.8,2.3-1.4c0.7-2.6,3.2-3.4,4.5-5.1
		c2.1-2.9,3.6-6,7.5-6.8c0.5-2.8,3.1-3.5,5-4.8c3.3-2.2,4.7-6.3,8.7-7.7c0.6-0.2,0.7-1.4,1.2-2c0.6-0.9,1.3-1.8,2.1-2.5
		c4.9-4,9.9-7.7,14.6-11.8c1.4-1.2,2-3.4,2.9-5.2c2.6,1.2,2.5,1.1,4.7-1.2c2.5-2.6,5-5.2,7.7-7.6c3.2-2.9,6.6-5.6,9.9-8.5
		c0.2-0.2,0.5-0.5,0.5-0.8c0.1-2.4,2.1-3,3.6-4.3c3.7-3.2,7.1-6.8,10.4-10.3c2.1-2.3,4.2-4.5,6.6-6.4c0.5-0.4,1.1-0.7,1.3-1.3
		c1.4-3,4.5-4.4,6.5-6.9c2.4-3,6.6-4.4,9.4-7.6c3.8-4.3,8.6-7.8,13-11.6c0.9-0.8,1.8-1.7,2.8-2.4c4.1-3.3,8.1-6.7,12.2-9.9
		c1.5-1.2,3.1-2.4,4.8-3.2C635.3,616.7,637.4,614.4,638.9,610.3z M1005.4,259.8c5.7-6.1,10.7-11.9,16.1-17.2
		c5-4.9,10.6-9.1,15.7-13.9c3.6-3.3,7.2-6.7,10.1-10.6c2.1-2.8,4.6-4.9,7.3-6.9c3.3-2.5,6.5-5.2,9.8-7.8c5.2-4.1,10.1-8.6,15.2-12.9
		c5-4.2,10.3-8.1,14.9-12.7c5.2-5.1,10.8-9.7,16.2-14.6c3.5-3.2,7-6.5,10.4-9.9c0.5-0.5,0.6-1.5,0.9-2.4c-5.2,0.4-10.1,0.8-15,1
		c-3.7,0.2-7.3,0.2-11,0.3c-2.6,0.1-5.3,0-7.9,0.2c-2.8,0.3-5.6,0.8-8.3,1.2c-0.8,0.1-1.7,0.6-2.3,0.3c-3.9-2.2-8.3-1.3-12.4-1.7
		c-6.6-0.7-13.3,0-19.9,0.1c-7.8,0.1-15.6,1.5-23.4-0.5c-0.3-0.1-0.6-0.1-1-0.1c-5.5,0.5-10.9-1.9-16.5-0.2
		c-0.8,0.2-1.8-0.4-1.9-0.4c-2.1,1.3-3.5,2.3-5.3,3.4c-0.2-1.4-0.3-2-0.4-2.6c-0.9,0-1.9,0.3-2.7,0c-3.3-1.4-6.4-1.6-9.5,0.4
		c-0.4,0.3-1.2,0.2-1.8,0.1c-2.8-0.6-5.5-1.3-8.4-1.7c-1.3-0.2-2.7,0.5-4,0.7c-1.7,0.3-3.5,1.1-5.2,0.9c-4.5-0.7-8.9-1.8-13.4-2.6
		c-1.2-0.2-2.9-0.3-3.7,0.4c-2.6,2.3-5.3,0.6-8,0.5c-2-0.1-4-0.9-6-0.9c-8.9,0-17.9-0.4-26.8-1c-4-0.2-7.9-0.4-11.9-0.6
		c-2.9-0.1-5.7,0-8.6-0.1c-3.7-0.2-7.3-0.6-11-0.7c-11.9-0.1-23.9-0.1-35.8,0c-10.7,0-21.3,0.1-32,0.2c-3,0-5.9,0-8.9,0
		c-0.1,0.4-0.2,0.7-0.3,1.1c1.5,0.6,3,1.5,4.6,1.9c5.9,1.6,11.8,3,17.6,4.5c3.1,0.8,6.1,1.7,9.2,2.6c3.5,1.1,6.9,2.4,10.4,3.5
		c4.9,1.6,9.8,3,14.6,4.7c6.9,2.4,13.8,4.9,20.6,7.6c6.5,2.6,12.9,5.4,19.4,8.1c2.3,1,4.6,2.2,7,3.1c5.4,2.1,10.7,4.1,15.2,7.9
		c0.8,0.7,1.9,1.2,2.9,1.7c6.1,3.4,12.3,6.6,18.3,10.2c4.2,2.5,8.3,5.4,12.3,8.2c3.5,2.5,7,4.9,10.3,7.7c5,4.2,9.5,9,14.8,12.8
		c7.8,5.6,14.8,12.1,21.5,18.9C1000.1,254.9,1002.8,257.3,1005.4,259.8z M190.5,758c4.3,10.8,8.4,21.4,12.8,31.8
		c2.6,6.3,5.5,12.5,8.8,18.5c3.6,6.7,7.7,13.1,11.7,19.6c1.6,2.6,3.3,5.1,5.1,7.5c3.9,5.4,7.7,10.9,11.7,16.2
		c2.8,3.7,5.9,7.1,8.8,10.6c1.2,1.5,2.3,3,3.5,4.4c0.8,1,1.5,2,2.4,2.9c1,1.1,2.1,1.9,3,3c3.6,4.5,7,9.1,10.5,13.6
		c3.8,4.9,7.7,9.7,11.6,14.5c2.1,2.6,4.3,5.2,7,8.5c0.4-2.5,0.7-4,0.8-5.6c0.3-5.2,0.6-10.5,0.9-15.7c0.6-10.9,1.4-21.8,1.9-32.8
		c0.5-11,0.9-21.9,1-32.9c0.1-9.2-0.1-18.4-0.3-27.7c0-2.4-1.1-5.1-0.2-7c2-4.4,0.9-9,1.2-13.4c0.5-5.2-0.4-10.4-0.3-15.7
		c0.2-10,0.7-20.1,1-30.1c0-1.7-0.5-3.5-0.9-5.4c-2.5,1.3-4.3,2.3-6.2,3.1c-5.6,2.3-10.9,5.2-17.1,6.3c-5.2,0.9-9.8,4.5-15.4,4.5
		c-0.3,0-0.7,0-0.9,0.2c-4.1,3.1-9.3,2.9-13.9,4.3c-9.1,2.6-18.1,5.1-26.8,8.8c-4.1,1.7-8.4,3.4-12.7,4.1
		C196.1,754.7,193.4,755.9,190.5,758z M177.1,342.1c4.7-6.6,9-12.7,13.3-18.7c1.4-1.9,3.3-3.6,4.4-5.7c2.2-4,5-7.3,8.6-10
		c1.2-0.9,2.5-2.3,2.7-3.7c0.2-1.4,0.9-1.8,1.8-2.4c1.2-0.8,2.4-1.6,3.4-2.6c3.1-3.1,6.1-6.3,9.2-9.4c4.4-4.3,9.6-7.9,12.8-13.4
		c0.3-0.5,0.8-1.1,1.4-1.3c3.1-0.7,4.4-3.5,6.5-5.5c0.9-0.9,1.5-2.1,2.4-3c4.4-4.1,8.7-8.2,13.2-12.1c3.9-3.4,7.1-7.7,11.9-10.1
		c0.7-0.4,1.1-1.3,1.6-2c-4.2-2.8-8-5.1-11-9.1c-3.4-4.7-8.3-8.3-12.6-12.3c-1.7-1.6-4.1-2.7-5.2-4.7c-3.8-6.2-9.1-10.4-15.3-13.7
		c-0.5-0.3-0.9-1-1.2-1.6c-0.4-0.8-0.5-1.8-1-2.4c-1.7-2-3.5-3.9-5.4-5.7c-2.4-2.3-4.7-5.2-7.6-6.4c-3.6-1.6-3.6-5.5-6.3-7.3
		c-0.5-0.4-0.8-1-1.3-1.4c-3.8-3.5-7.8-6.9-11.5-10.6c-4.4-4.4-8.6-9-13-13.4c-1.3-1.3-2.5-2.9-4.8-2.3c0.3,5.2,0.7,10.3,1,15.3
		c0.3,5.1,0.5,10.2,0.7,15.2c0.3,5.1,0.6,10.1,0.8,15.2c0.2,4.9,0.3,9.8,0.3,14.7c0,5,0,10.1-0.1,15.1c-0.2,5.1-0.3,10.2-0.9,15.3
		c-0.5,5,1,9.9,0,14.9c0.7,0.6,1.4,1.2,1.6,1.4c-0.3,2.6-0.9,4.7-0.8,6.8c0.1,5,0.6,10,0.6,15.1c0,4.8-0.4,9.5-0.9,14.3
		c-0.7,6.3,1.2,12.7-0.8,18.9c-0.2,0.6-0.1,1.3,0.1,1.9c2.1,6.3,1.1,12.6,0.3,19C175.7,336.7,175,339.3,177.1,342.1z M170.5,1055.6
		c1.7-0.6,3-0.8,3.9-1.5c3.2-2.7,6.2-5.5,9.2-8.3c6.5-6.2,12.9-12.4,19.3-18.6c0.7-0.6,1.7-1.4,1.7-2.1c0.1-1.7,1.4-2.2,2.5-2.4
		c3.8-0.8,6.4-3.7,7.7-6.6c2-4.4,6.1-6.2,9-9.4c3-3.3,7.2-5.6,10.7-8.5c6.3-5.3,10.4-12.8,17-18c2.3-1.8,3.5-4.9,5.7-7
		c2.5-2.4,5-4.7,6-8.3c-0.9-0.7-1.7-1.4-2.6-2c-5.1-3.5-10.4-6.6-15.2-10.6c-4.4-3.6-8-8.1-12-12.2c-1.7-1.7-3.2-3.5-5-5.2
		c-4.9-4.7-10.3-9.1-14.8-14.2c-6.9-7.7-13.4-15.7-19.8-23.8c-5.9-7.5-11.3-15.4-16.9-23.1c-0.5-0.6-1.3-1-2.2-1.7
		c-0.2,1-0.3,1.4-0.3,1.9c0.3,7.3,0.6,14.7,1,22c0.4,7.2-0.5,14.5,1.1,21.7c0.2,0.7-0.4,1.5-0.6,2.3c-0.3,1.2-0.8,2.4-0.9,3.7
		c-0.3,4.1-0.7,8.2-0.6,12.4c0.1,2.4-0.9,5.2,1.3,7.3c0.3,0.3-0.1,1.5-0.3,2.2c-1.4,4.3-1.5,8.7-1,13.2c0.2,2,0.2,4.1,0.1,6.2
		c-0.1,2.4-0.3,4.7-0.3,7.1c-0.1,3.9-0.1,7.9-0.3,11.8c-0.4,7.6-1,15.2-1.4,22.8c-0.5,9.8-0.8,19.7-1.2,29.5
		C171.2,1042.4,170.8,1048.6,170.5,1055.6z M562.7,615.1c-3-0.6-5.7-1-8.3-1.7c-1-0.3-2.3-1.1-2.5-1.9c-1-3.4-3-3.6-5.9-2.8
		c-1.2,0.3-2.5,0.2-3.8,0.2c-4.8-0.1-9.6-0.4-14.3-0.4c-7.1,0-14.2,0.3-21.4,0.3c-5.1,0-10.2-0.2-15.3-0.3c-6-0.1-12-0.1-18.1-0.2
		c-2.3,0-4.6-0.3-6.9-0.5c-1.4-0.1-3.1-0.7-4.2-0.2c-1,0.5-1.5,2.1-2.3,3.3c-1.9-2.9-3-3.2-6.8-2.4c-1.4,0.3-3.3,1.1-4,0.5
		c-4.3-3.5-9.6-2-14.3-2.8c-8.7-1.5-17.6-1.8-27-2.6c-0.8,11.7-1.8,23.5-2.4,35.4c-0.5,11-0.7,22-0.9,33c-0.2,6.9,1.2,7.8,7.7,5.1
		c0.4-0.2,0.9-0.4,1.3-0.7c6.1-3.2,12.3-6,19.1-7.6c2.8-0.7,5.5-1.9,6.2-5.3c0.1-0.6,0.7-1,1.2-1.7c3.4,2.8,6.9,0.7,10.3,0.5
		c2-0.1,3.7-2,5.7-2.9c1.6-0.7,3.7-0.3,4.8-2.3c0.3-0.5,1.5-0.5,2.3-0.6c2.6-0.2,5.5,0.7,7-2.6c0.2-0.4,1.2-0.5,1.8-0.4
		c2.8,0.4,5.1-0.3,7.7-1.5c2.6-1.2,5.8-2,8.5-2.5c4.4-0.7,8.6-2.1,13-2.9c2.7-0.5,4.7-1.5,5.6-4c2,0.2,3.8,0.7,5.4,0.4
		c3.6-0.5,7.2-1.4,10.7-2.2c2.5-0.6,4.9-1.5,7.3-2.2c2.3-0.7,5.1-0.7,6.8-2.1c2.2-1.9,4.5-1.3,6.8-1.5c0.2,0,0.3-0.1,0.4-0.2
		c10.5-2.6,20.4-7.1,30.9-10c8.5-2.4,17.2-4.7,25.7-7.4c8.2-2.6,16.6-4.6,24.9-7c1.7-0.5,3.4-1.4,5.1-2.1
		c-8.8-0.7-17.4-1.3-25.9-0.5c-5.7,0.5-11.3-0.3-17.1,0.8c-5.4,1.1-11.3-0.5-17-0.9c-4.5-0.3-5,0-6.7,4.3
		C563.5,613,563.2,613.7,562.7,615.1z M274.9,248.4c-4.7,1.7-8.2,4.3-11.2,7.7c-1.9,2.1-3.9,4.1-6,6.1c-7.4,7-14.8,13.9-22.1,21.1
		c-7.1,7-14,14.3-20.9,21.5c-3.2,3.3-6.4,6.7-9.4,10.2c-5.9,6.8-11.6,13.9-17.6,20.6c-6.5,7.3-11.7,15.1-10.3,25.6
		c0.2,1.5-0.2,3.2-0.3,4.8c-0.1,1.7,0,3.4,0,5.8c6.5-0.3,12.8-0.1,18.8-1.1c5.8-1,11.3-3.3,16.9-4.8c2-0.5,3.7-0.7,3.7-4.6
		c1.8,3.8,3.6,3.9,5.6,2.4c1-0.7,2.1-1.5,3.2-2.1c1-0.6,2.3-1.5,3.3-1.4c2.3,0.4,3.6-0.6,4.8-2.3c0.5-0.7,1.3-1.5,2-1.6
		c4.7-0.3,6.7-3.5,8-6.8c2.3-2.4,4.4-1.4,6-0.7c2.6-3.6,5-6.8,7.3-9.9c1.3,0.5,2.3,0.9,2.7,1.1c1.6-1.4,2.8-2.4,3.7-3.1
		c0.2-2.2-0.2-4.3,0.6-5.7c1-1.8,2.9-3.1,4.6-4.4c2.2-1.8,4.6-3.3,4.3-6.8c-0.1-1.1,0.6-2.7,1.4-3.2c2-1.4,4.1-2.4,4-5.3
		c3.2-1.8,5.8-4,5.1-8.2c0-0.2,0.8-0.3,1.1-0.7c0.8-0.9,1.6-1.9,2.3-2.8c-0.5-1.5-1.6-3.1-1.2-4.1c0.4-1,2.3-1.4,3.9-2.3
		c0.3-2.2,0.1-5.1,1.2-7.3c3.2-6.5,3.5-13.3,3.8-19.9c-1.3-0.8-3.1-1.4-3.1-2c-0.1-2.1-1.6-2.6-2.8-3.6c-1.2-1-2.5-1.9-3.7-3
		C281.4,254.5,278.1,251.4,274.9,248.4z M173.1,836.3c-0.4,5.2-0.6,9.9-1.1,14.7c-0.5,4.3,1,8.3,3,11.7c2.7,4.6,4.9,9.5,8.9,13.3
		c4.2,4,8.6,8.1,10.8,13.8c0.2,0.4,0.5,0.8,0.9,1.2c6.5,7.1,12.8,14.4,19.5,21.4c6.1,6.4,12.6,12.6,18.9,18.9c2,2,3.8,4.3,5.8,6.3
		c3.3,3.4,6.6,6.8,10,10.1c5.6,5.3,11.3,10.6,17.1,15.9c1.1-0.9,1.9-1.4,2.5-2.1c2.4-2.9,4.6-6.1,7.2-8.9c2.5-2.7,3.7-5.4,2.4-9.1
		c-0.4-1.1-0.3-2.6-0.1-3.8c1.7-9.7-1.8-18.2-5.7-26.6c-2.3-4.9-4.3-9.9-6.7-14.7c-3.2-6.2-6.4-12.5-11.1-17.7
		c-0.9-1-1.8-2.2-2.7-3.3c-2.8-3.4-5.4-7.2-8.6-10.2c-3.2-3-7.5-4.9-10.7-7.9c-5.3-4.9-11.6-7.8-18.2-10.2
		c-3.9-1.4-8.4-1.7-11.7-3.8c-3.5-2.3-7.2-3-11-4C186.2,839.6,180,838.1,173.1,836.3z M178.6,401.6c-2.8,3.7-2.4,8-2.6,12
		c-0.4,6.5-0.2,13-0.2,19.6c0,2.9,0.6,5.8-0.1,8.6c-1.2,5.4-0.9,10.8-0.8,16.2c0.1,7,0.2,14,0.1,21c-0.2,8.9-0.9,17.8-0.9,26.7
		c-0.1,10.8,0.2,21.7,0.4,32.5c0,0.6,0.4,1.2,1,2.7c0.6-2.4,1.1-3.8,1.3-5.2c1.5-7.8,2.8-15.7,4.4-23.5c1.7-7.9,3.7-15.8,5.6-23.7
		c1.2-5.1,2.3-10.2,3.8-15.2c2.7-9,5.8-17.8,8.6-26.8c0.2-0.7,0.1-1.6-0.2-2.3c-1.1-3,0.6-4.7,2.5-6.6c1.4-1.4,2.7-2.9,3.8-4.6
		c0.9-1.4,1.2-3.3,2.2-4.7c4.3-6.3,5.9-13.9,10.6-20c0.6-0.7,0.9-1.7,1.1-2.6c0.6-4.5,2.8-8.2,5.6-11.6c3.4-4.2,6-8.8,8.6-13.6
		c2.6-4.8,5.9-9.2,9.1-13.6c2.8-3.7,6-7.1,8.9-10.6c0.7-0.9,1.2-2,1.7-3c-1.3-0.1-2.1,0.3-2.9,0.8c-3,2.1-5.9,4.4-9,6.1
		c-4.5,2.5-9.1,4.7-13.8,6.6c-5.2,2.1-10.5,3.8-15.8,5.4c-3.2,1-6.6,1.2-9.8,2.2c-5.9,1.9-11.8,1.9-17.9,1.8c-2.2,0-4.4,0-6.9,0
		c-0.3,5.3-0.4,10.3-0.8,15.4C176,395.2,176,398.6,178.6,401.6z M275.1,240.3c4.2-3.6,7.9-6.8,11.6-10.1c2.9-2.7,3.3-5.9,1.6-9.7
		c-0.9-2.1-1.8-4.2-2.4-6.4c-1.3-5.4-3.9-10.4-6.7-14.9c-5.9-9.3-11-19.4-20.1-26.4c-0.1-0.1-0.2-0.2-0.3-0.4
		c-2.3-4-6.1-5.9-10.1-7.7c-3.2-1.4-6.9-2.6-9.1-5c-5.2-5.8-13.5-5.3-19.1-10c-0.3-0.3-0.9-0.1-1.4-0.2c-5.3-1.1-10.6-2.3-15.9-3.2
		c-8-1.3-16.1-2.4-24.1-3.5c-2-0.3-4-0.2-5.7,1.7c2.9,2.2,5.7,4,8.2,6.2c8.2,7.5,16.3,15.1,24.4,22.6c5,4.7,10,9.3,15,14
		c5.1,4.8,10,9.8,15.1,14.6c2.3,2.2,5.1,3.8,7.3,6c2.3,2.2,4.1,4.8,6.3,7.1c5.7,6,11.5,11.9,17.3,17.8
		C269.6,235.4,272.2,237.7,275.1,240.3z M266.9,970.9c-0.9,1.3-1.7,2.7-2.7,3.9c-5,5.5-9.3,11.6-15.1,16.4c-0.5,0.4-0.9,0.9-1.4,1.3
		c-2.7,2.7-5.4,5.4-8,8.2c-2.7,2.8-4.6,6.3-8.7,7.6c-1.2,0.4-2.3,1.8-3,3c-2.6,4.5-7,7.3-10.8,10.6c-5.7,4.8-10.9,10-16.9,14.5
		c-7.4,5.4-13.7,12.3-21.4,17.6c-1.5,1-3,2.1-4.5,3.2c2.9,1.1,5.7,1.7,8.4,1.5c10.7-0.6,21.2-2.8,31.1-7.1
		c6.5-2.9,12.6-6.7,18.7-10.4c8.5-5.1,14.2-13.1,20.8-20.3c4.7-5.1,7.5-11.4,11.3-17.1c4.6-6.9,7.5-14.4,10.7-21.9
		c0.9-2.1,1-4.6,1.4-6.9c-3.2-1.4-5.8-2.6-8.4-3.7C267.9,971,267.4,971,266.9,970.9z M172.6,832.2c21.6,4.6,43.2,9.2,62.4,21.2
		c-1.5-2.8-3.1-5.4-4.9-7.8c-8.8-11.7-17.7-23.3-26.5-34.9c-0.3-0.4-0.2-1.2-0.5-1.8c-2.9-7.7-5.9-15.4-8.6-23.1
		c-2.4-6.9-4.6-13.9-6.7-20.9c-0.8-2.8-1.5-5.5-3.5-7.4c-3.3,0.8-6.2,1.6-9.5,2.4c-0.2,11.9-0.3,23.9-0.7,35.9
		C173.8,807.8,173.1,819.8,172.6,832.2z M275.2,330.3c0.2,0.2,0.3,0.4,0.5,0.6c0.8-0.5,1.6-0.9,2.3-1.5c6.2-5.5,12.3-11.1,18.7-16.4
		c2.8-2.3,3.6-5,3.3-8.4c-0.6-6-1.2-12-1.6-18.1c-0.2-2.7,0-5.5,0-8.2c-2.1,6-2.9,12.3-4.8,18.2c-2,6.2-4.9,12.1-8,17.8
		C282.4,319.9,278.6,325.1,275.2,330.3z M174.4,757c3-1.4,5.5-2.6,8.2-3.9c0.4-9-3-17.1-4.6-25.5c-1.6-8.2-2.7-16.5-5.6-24.4
		C173,720.9,173.7,738.6,174.4,757z M291,232.2c-4.4,3.7-8.8,7.4-13.5,11.3c5.7,4.8,10.1,10.6,16.1,14.9
		C296.4,253.3,294.7,238.3,291,232.2z M273.9,897.5c-0.4,0.3-0.8,0.5-1.1,0.8c1.7,3.7,3.6,7.4,5.1,11.2c1.6,4,2.6,8.2,4.2,12.2
		c1.5,3.7-0.3,8.1,2.8,11.5c1-5.8,1.7-11.7,2.2-17.5c0.1-1-0.3-2.3-0.9-3.1C282.2,907.5,278,902.5,273.9,897.5z M159.6,371
		c3.5,0.6,5.9,1.2,8.4,1.5c2.4,0.3,3.8-0.7,4.3-3.3c1-5.4,1.1-10.7,0.4-16.1c0-0.2-0.5-0.3-1.2-0.8C167.7,358.2,164,364.1,159.6,371
		z M155.1,835.7c4.3,6.2,8.4,12.1,12.4,17.9c0.3-0.1,0.6-0.2,1-0.3c0-5.9,0-11.8,0-18C164.2,834.5,159.9,834.8,155.1,835.7z
		 M280.6,955.1c-4,3.3-6.7,7.2-9.7,10.8c5.6,5.8,5.6,5.8,8.9,6.1C281.7,963.6,281.9,960.7,280.6,955.1z M1102.6,461.5
		c-0.3,0.1-0.6,0.1-0.9,0.2c0,1.2-0.3,2.4,0.1,3.4c0.2,0.6,1.4,0.8,2.2,1.2c0.3-0.8,1-1.8,0.8-2.4
		C1104.4,463,1103.4,462.3,1102.6,461.5z M963.5,336.2c-0.1,0.4-0.2,0.7-0.3,1.1c1.2,0.9,2.5,1.9,5.2,0.2
		C966.2,336.9,964.9,336.5,963.5,336.2z M753.1,1043.8c-0.2,0.5-0.4,0.9-0.6,1.4c0.8,0.2,1.5,0.4,2.3,0.6c0.1-0.3,0.3-0.6,0.4-0.9
		C754.5,1044.5,753.8,1044.2,753.1,1043.8z M1031.3,429.9c1.6-1.7,2-2.6,0.3-3.6C1031.4,427.4,1031.4,428.3,1031.3,429.9z
		 M371.5,469.9c-0.2-0.3-0.4-0.5-0.7-0.8c-0.6,0.6-1.1,1.2-1.7,1.9c0.2,0.2,0.4,0.3,0.5,0.5C370.3,471,370.9,470.4,371.5,469.9z"/>
	<path style="fill:#FFFFFF;" d="M677.6,570.9c-5.6-1.1-8.5,0.6-9.4,5.8c-0.8,5.2-4.9,7.1-8.7,9.4c-0.5,0.3-1.2,0.4-1.4,0.8
		c-3.8,6.9-9.8,11.9-15.1,17.5c-1.8,1.9-4.2,1.4-6.3,0.9c-8.4-1.8-17-2.3-25.6-2.4c-7.5-0.1-15,0.4-22.4-0.2
		c-5.5-0.4-10.8-0.1-16.2,0.5c-2,0.2-3.4-0.3-4.6-1.9c-0.8-1-1.5-2.1-2.5-2.9c-4-3.3-9-2.9-12,1.4c-1.3,1.9-2.5,2.1-4.7,2
		c-6.1-0.4-12.3-0.3-18.4-0.4c-10.2-0.1-20.4-0.2-30.5-0.1c-4.8,0-9.5-0.1-14.2-0.9c-1.3-0.2-2.8,0.5-4.2,0.5
		c-4.6-0.1-9.2-0.4-13.9-0.5c-3.5-0.1-7-0.1-10.5-0.2c-3.3,0-6.7-0.1-10-0.1c-10-0.1-20.1-0.1-30.1-0.2c-1.4,0-2.9-0.3-4.3-0.6
		c-3.1-0.6-4.6-2.3-4.8-5.5c-0.2-2.8-0.1-5.7,0-8.6c0.6-12.7,2.5-25.4,1.9-38.2c-0.3-6.3,0.8-12.7,1.1-19.1c0.2-4-0.1-7.9-0.1-11.9
		c0.1-11.5,0.2-23,0.3-34.5c0-8.9-0.3-17.8,0-26.7c0.1-5.6,1.1-11.1,1.4-16.6c0.6-11.6,1.1-23.1,1.6-34.7c0.2-5.1,0.1-10.2,0.3-15.3
		c0.1-1.8,0.6-3.7,1-6c1,0.6,1.7,0.8,2,1.2c3.4,5.6,8.9,9.1,13.3,13.6c3.7,3.7,8.4,6.7,11.2,11c2.9,4.4,7.6,6.4,11,9.9
		c1.5,1.6,2.9,3,3.9,5.2c1.2,2.7,2.4,6.5,7,5.5c0.4-0.1,1.2,1.3,1.6,2c0.5,0.8,0.5,2,1.2,2.5c1.7,1.3,4.3,1.1,4.9,4.3
		c0.3,1.7,3.1,3,4.8,4.5c3.1,2.9,6.4,5.7,9.4,8.7c1.5,1.5,2.3,3.6,3.6,5.4c0.7,1,1.5,2.1,2.5,2.9c4,3.4,8.2,6.6,12,10.2
		c3.1,2.9,5.9,6.1,8.7,9.3c3.7,4.1,7.5,8.2,11.1,12.4c7.9,8.9,16.1,17.5,25.1,25.3c3.6,3.1,6.3,7.2,9.4,10.8
		c0.5,0.6,0.9,1.5,1.5,1.8c3.6,1.8,4.7,5.4,6.3,8.5c2.1,4,5.3,6,9.1,7.8c2.8,1.3,5.1,3.5,6,6.8c0.4,1.6,1.3,2.4,2.9,3.3
		c2.8,1.6,5.3,4,7.4,6.4c1,1.2,1.7,2.3,3.1,3.2c1.3,0.7,2.2,2.3,3.1,3.6c2.2,3.2,4.8,5.9,8.2,7.7c2,1,3.8,2.2,4.1,4.8
		c0.1,0.6,1.2,1.4,2,1.7c3.1,1.2,5.2,3.5,7.5,5.7c3.9,3.7,8,7.3,12.1,10.7c2,1.6,4.4,2.9,6.8,4c1.3,0.6,3,0.4,5,0.6
		c-1.1-4.1-3.4-6.5-5.6-8.8c-2.1-2.1-4.7-3.8-6.5-6.1c-2.1-2.6-4.2-5.1-7.3-6.7c-0.4-0.2-0.9-0.5-1-0.9c-1.3-4.6-5.5-6.3-8.5-9.2
		c-3-3-6-6.1-9-9.1c-4.7-4.8-9.8-9.3-13.1-15.3c-0.8-1.5-2.2-2.7-3.4-3.9c-3.4-3.3-6.8-6.5-10.2-9.7c-0.3-0.3-0.6-0.9-1-1
		c-6.1-2.1-9.2-7.5-12.8-12c-4.2-5.2-9.4-9.1-13.9-13.9c-5.4-5.7-10.4-11.8-15.7-17.6c-2.3-2.6-5.1-4.7-7.5-7.2
		c-2.4-2.5-4.7-5.2-7-7.7c-1.4-1.5-2.6-3.2-4.2-4.4c-10.4-8.4-19.1-18.5-29-27.4c-5.7-5.1-10.3-11.2-15.9-16.4
		c-8.6-8.1-17.5-15.7-26.2-23.6c-2.7-2.5-4.9-5.4-7.6-7.9c-2.6-2.4-5.4-4.4-8.1-6.5c-2.8-2.1-5.6-4.1-8.4-6.2
		c-0.6-0.5-1.1-1.3-1.7-1.6c-3.4-1.8-6-3.8-2.8-8c0.2-0.3,0-0.9-0.1-1.4c-1.9-9.8-0.7-19.6-1-29.4c-0.1-4.6,0.1-9.2,0.2-13.8
		c0.1-5.2,0-10.5,0.5-15.7c0.4-4.7-0.4-9.5,1.3-14.2c0.4-1.1,0.1-2.6-0.4-3.7c-1.5-3.6-0.8-7.2-0.7-10.9c0.2-6.6,0.4-13.3,0.4-20
		c0-3.6-1-7.3-0.5-10.8c2.1-15.4-0.7-31,1.1-46.4c0.9-7.9,0.1-15.9,0-23.9c0-1.8-0.7-3.7-1.2-6.2c2.1,0,3.9-0.1,5.7-0.1
		c9.4,0.1,18.8,0.2,28.2,0.3c2.4,0,4.7,0.2,7.1,0.2c4.1,0,8.3-0.3,12.4-0.2c8.2,0.1,16.4,0.4,24.7,0.7c8.6,0.3,17.2,0.5,25.8,0.9
		c3.5,0.2,7,0.7,10.4,1c1.4,0.1,2.9,0.4,4.3,0.2c4.9-0.6,9.7-1.8,14.5-2.1c4.6-0.2,9.2,0.6,13.7,0.9c5.4,0.3,10.7,0.6,16.1,0.8
		c9.5,0.4,19.1-0.3,28.5,1.5c4.6,0.8,9.5,0.4,14.3,0.5c6,0.1,12.1-0.1,18.1,0.1c5.2,0.1,10.4,0.4,15.6,1c12,1.4,24.1,2.6,36,4.7
		c7.8,1.4,15.5,3.3,23,6.2c4.4,1.7,9.2,3,13.9,4.5c9.7,3.1,19.4,6,28.7,10.1c4.3,1.9,9,2.7,13.5,4.1c2.3,0.7,4.5,1.7,6.7,2.6
		c0.6,0.2,1.3,1,1.6,0.8c4-1.5,5.9,1.7,8,3.7c2.1,2.1,4,3,5.9,1.8c3,2.1,5.6,4.3,8.4,5.8c4.1,2.3,8.5,4.1,12.8,6.2
		c0.6,0.3,1.1,0.6,1.7,0.9c5.5,3.8,11,7.5,16.5,11.3c5.6,3.8,11.2,7.7,16.8,11.5c0.5,0.4,1,0.8,1.5,1.2c2.9,3,7.6,5.9,11.4,7.4
		c1.7,0.7,3.3,1.8,4.6,3.2c3.7,3.9,7.1,8.1,10.8,11.9c1.5,1.5,3.8,2.1,5.5,3.5c2.8,2.3,5.5,4.7,8.2,7.3c2.3,2.2,4.3,4.6,6.6,6.8
		c4.4,4.1,8.7,8.2,12.3,13.1c4.7,6.2,9.9,12.1,15.2,17.8c3.4,3.7,3.6,5.1-0.2,8.5c-5.8,5.4-11.6,10.8-17.4,16.2
		c-7.6,7.2-15.1,14.5-22.8,21.7c-4.1,3.8-8.3,7.4-12.5,11c-0.4,0.3-0.7,0.8-1.1,0.9c-7.3,2.5-11.5,9.1-17.9,12.9
		c-2,1.2-3.6,3.1-5.2,4.8c-1.9,2-3.9,3.5-6.7,4.2c-2.9,0.7-3.8,3.7-2.5,7.9c-3.1,2.3-6.4,4.8-9.6,7.2c-0.4,0.3-0.9,0.5-1.1,0.8
		c-4.5,6.4-10.2,11.6-16.9,15.7c-2.1,5.1-6.4,7.9-10.6,11c-2.1,1.5-3.2,4.3-5,6.3c-2.6,2.7-5.1,5.6-8.2,7.8
		c-3.8,2.7-6.7,6.2-9.9,9.5c-2.2,2.3-4.7,4.4-7.1,6.4c-2.7,2.2-5.3,4.4-7.1,7.6c-1.2,2.1-3.2,4-5.2,5.4c-3.9,2.7-7.5,5.8-10.6,9.3
		c-0.7,0.8-1.9,1.1-2.9,1.7c-1.3,0.9-2.8,1.7-3.7,2.9c-8.2,10.3-18.5,18.4-28.1,27.3c-6.3,5.8-12.9,11.3-19.2,17.1
		c-2.5,2.4-4.4,5.4-6.6,8.1C684,563.8,680.9,567.2,677.6,570.9z"/>
	<path style="fill:#FFFFFF;" d="M514.5,1031.9c0.3-0.3,0.6-0.7,1-0.9c4.5-1.6,9-3.4,13.6-4.7c9.7-2.7,17.5-8.2,24.7-15
		c0.6-0.5,1.1-1.2,1.8-1.5c6.8-3.8,10.7-10.3,15.2-16.2c5.2-6.8,7.2-15.1,10.8-22.7c1-2.1,0.9-4.6,1.3-7c0.1-0.5-0.1-1.1,0.2-1.4
		c3.5-4.9,2-11.2,4.7-16.3c0.5-0.9,0.4-2.2,0.3-3.3c-0.3-5.5-0.3-11.1-1-16.6c-0.5-4-1.8-8-3.1-11.9c-1.1-3.2-2.8-6.2-0.4-9.3
		c-0.2-0.5-0.3-0.9-0.5-1c-3.5-2.1-6-5-7-9.1c-0.3-1.1-1.5-2-2.3-3c-1.1-1.4-2.6-2.5-3.3-4.1c-2.6-5.9-7.7-9.5-12.1-13.8
		c-5-5.1-10.9-9.1-17-12.2c-7.6-4-15.4-8.4-24.5-8.8c-3.9-0.2-7.9-0.9-11.5-2.2c-2.3-0.8-4.3-0.5-6.5-0.4c-2.8,0.2-5.6,1.3-8.4-0.3
		c-0.4-0.3-1.2,0-1.8,0.1c-8.5,1.6-16.9,3.1-25.3,4.9c-7.3,1.6-14.3,3.8-20,9.2c-3,2.8-6.5,5.1-10.1,7.1
		c-6.3,3.3-10.9,8.4-15.1,13.8c-6.5,8.3-12.4,17-15.3,27.4c-0.2,0.8-1,1.4-2.1,2.7c-0.3-1.3-0.6-1.8-0.6-2.3
		c0.4-9.9,0.7-19.8,1.3-29.7c0.4-6.4,1.2-12.7,1.5-19.1c0.2-4.3,0-8.6-0.1-12.9c-0.1-3.7,1.1-6.4,3.4-9.4
		c6.2-8.2,13.9-14.8,21.2-21.9c2.1-2,3.9-4.2,5.9-6.2c6.5-6.7,12.9-13.5,19.7-19.9c6.1-5.7,12.7-10.9,19-16.5
		c5-4.4,9.6-9.2,14.5-13.6c3.8-3.4,8-6.3,11.6-9.9c5.2-5.1,10.2-10.4,16-14.8c1.2-0.9,2.6-1.7,3.9-2.6c0.9-0.6,2.1-1.3,2.4-2.1
		c0.9-3.1,3.5-4.4,5.8-6.1c1.2-0.9,2.4-2,3.5-3.1c2.2-2.1,4.3-4.2,6.5-6.3c1.7-1.6,3.8-3,5.2-4.9c3.9-5.2,9-8.8,14.1-12.6
		c0.6-0.5,1.6-0.8,1.9-1.4c4.1-7.6,11.2-12.4,17.1-18.2c4.8-4.7,9.8-9.6,15.6-13.4c3-2,5.1-5.2,7.8-7.6c3.5-3.2,5.7-7.7,10.1-9.9
		c0.9-0.5,1.8-1.4,2.3-2.3c4.3-6.8,10.1-12.2,16-17.5c4.2-3.7,8.1-7.6,12.2-11.4c2.4-2.3,5-4.4,8-7c2.1,2.1,4.3,4,6.2,6.3
		c2.3,2.8,4.2,5.9,6.3,8.8c3.5,4.8,7.4,9,12.8,11.9c1.8,0.9,2.9,3.3,4.1,5.1c2,3,4.4,5.3,7.3,7.4c3.6,2.6,6.7,5.9,10,8.9
		c5,4.6,10.3,8.9,14.9,13.9c2.5,2.7,6.4,4.4,7.3,8.5c0.1,0.3,0.2,0.7,0.5,0.8c5.2,3.1,8,8.7,12.4,12.4c3.8,3.3,6.6,7.1,9.7,10.8
		c1.2,1.4,2.8,2.5,4.2,3.9c2.8,2.7,6.5,4.8,6.8,9.4c0,0.6,0.4,1.3,0.8,1.7c3,2.5,6,4.9,9,7.4c3.9,3.3,7.8,6.5,11.6,9.9
		c4.8,4.2,9.6,8.3,14.2,12.6c3.4,3.2,6.5,6.7,9.5,10.3c1.7,2,1.3,5.2,3.9,6.9c1,0.6,1.7,2.1,2.7,2.5c4.4,1.6,7.4,5.5,12.2,6.9
		c-1.2,4.2,1.8,6.2,4.1,8.4c2.4,2.2,5.7,3.5,6.6,7.1c0.1,0.3,0.4,0.6,0.6,0.7c5,0.8,6.4,6.1,10.3,8.3c1.3,0.8,1.8,2.9,3.1,4
		c2.5,2.2,5.2,4.1,7.8,6.1c9.3,7.2,17.5,15.5,25.1,24.5c2.5,3,4.9,6,7.5,9c0.6,0.7,1.4,1.7,2.1,1.7c2.8,0.2,3.8,2.1,5.2,4.2
		c2,3.2,4.2,6.3,7.9,8c1.5,0.7,2.3,2.5,3.7,3.5c6.5,5,12.2,11,19.3,15.1c0.8,0.5,1.3,1.6,1.8,2.3c-0.2,0.5-0.2,0.8-0.3,0.8
		c-9.2,7.3-15.8,17-24,25.2c-8.2,8.2-16.7,16.2-26.1,23.2c-8,6-15.8,12.3-23.8,18.4c-1.6,1.2-3.6,2-5.2,3.2
		c-2.9,2.1-5.7,4.3-8.7,6.3c-1.9,1.3-4.2,2-6.1,3.3c-3.5,2.4-6.7,5.1-10.2,7.4c-6.5,4.1-13.3,8-19.9,12c-1.9,1.2-3.6,2.6-5.4,3.8
		c-1.7,1.1-3.4,2.6-5.3,3c-5.9,1.3-10.8,4.4-15.9,7.3c-0.6,0.3-1.1,0.7-1.7,0.8c-7.1,1.3-13.1,5.4-19.6,8.1c-4.5,1.9-9.4,3-14.1,4.5
		c-2.4,0.8-4.8,1.7-7.1,2.5c-0.6,0.2-1.1,0.7-1.7,0.9c-7.1,1.7-14.3,3.1-21.2,5.2c-6,1.8-12.1,2.4-18.2,2.9
		c-1.1,0.1-2.1,0.7-3.2,1.1c-2.4,0.8-4.6,2.3-7.3,1.4c-0.5-0.2-1.2,0.2-1.8,0.4c-6.1,2-12.4,2.5-18.7,2.8c-0.9,0-1.9,0.2-2.8,0.5
		c-9.3,2.1-18.8,2.5-28.3,2.7c-3.6,0.1-7.2,1-10.7,1.5c-1.3,0.2-2.5,0.4-3.8,0.3c-4.8-0.4-9.4,0.6-14.1,0.9
		c-9.4,0.5-18.9,1.8-28.4,0.2c-4.1-0.7-8.6,0.2-12.8,0.3c-4.1,0.1-8.3,0.1-12.4,0.2c-5.1,0.1-10.2,0.3-15.3,0.4c-3,0.1-6,0-8.9,0
		C514.6,1032.8,514.6,1032.4,514.5,1031.9z"/>
	<path style="fill:#FFFFFF;" d="M954.4,618.5c2.4,0.6,3.8,1.3,5.1,1.2c2.2-0.1,4.5,0.5,6.4,0.3c3.7-0.2,7.3,0.4,11.1-0.5
		c3.2-0.7,6.6-1.1,10.2-0.3c3.4,0.8,7.4-0.4,11.1-1c2.2-0.3,4.1-0.6,6.4,0c3.3,0.8,7,1.3,10.4-0.7c1.6-1,2.8-0.3,3.3,1.4
		c0.3,0.9,0.4,1.9,0.4,2.8c-0.2,6.7-0.3,13.4-0.7,20.1c-0.3,4.3-1,8.6-1.7,12.8c-1.7,10.8-3.3,21.7-5.4,32.5
		c-1.1,5.7-3.4,11.2-5.1,16.8c-1,3.2-2,6.4-3.1,9.5c-1.7,5.1-3.6,10.2-5.3,15.3c-0.7,2.1-1.1,4.3-1.7,6.5c-1,3.1,0.4,7-2.9,9.4
		c-0.3,0.2-0.5,1-0.4,1.3c1.6,5.4-2.5,8.8-4.3,13c-1.2,3-2.4,6-2.5,9.4c0,0.9-0.4,1.9-0.8,2.6c-3.5,5.4-5.7,11.3-8,17.3
		c-3.1,8.1-7.1,15.7-11.5,23.2c-0.6,1-0.9,2.2-1.3,3.4c-0.6,1.6-0.9,3.4-1.7,4.9c-2.4,4.1-4.9,8.1-7.5,12.1
		c-0.6,0.9-1.6,1.5-2.3,2.4c-0.8,0.9-1.8,1.9-2,3c-0.8,4.3-3.6,7.4-6.3,10.5c-2.3,2.6-4.9,5-7.1,7.7c-2.2,2.8-4,5.9-6,8.8
		c-2.6,3.9-5.3,7.8-7.7,11.4c-1-0.1-1.5,0.1-1.6-0.1c-5.1-5-10.2-10.1-15.2-15.1c-2-2-4.1-4-6.1-6c-6.2-6.2-12.5-12.3-18.6-18.6
		c-7.4-7.7-14.6-15.6-22-23.3c-3.5-3.7-7.3-7.1-11-10.7c-3.1-3-6.1-6-9.1-9.1c-11-10.9-22.1-21.7-33.1-32.6
		c-5.4-5.4-10.5-11.2-16-16.5c-5.5-5.3-11.5-10-17-15.3c-5.7-5.5-11.1-11.4-16.6-17.1c-1.9-1.9-3.6-4-5.5-5.9
		c-9.9-10-19.8-19.9-29.7-29.8c-5.1-5.1-10.2-10.1-15.3-15c-4-3.9-8.1-7.6-12.2-11.4c-4.3-4.1-8.2-8.6-12.8-12.2
		c-9-6.9-15.7-16.4-25.8-22c-0.9-0.5-1.7-1.4-2.5-2.2c-0.8-0.8-1.5-1.6-2.6-2.9c1.4-0.4,2.3-1,3.3-1c6.4,0.2,12.7,0.4,19,0.8
		c4.9,0.3,9.7,1.2,14.6,1.6c2.7,0.2,5.4-0.1,8-0.1c1.9,0,3.8,0.8,5.6,0.4c9-1.7,17.9-0.6,26.9,0.2c7.9,0.7,15.8,0.2,23.7,0.5
		c5.1,0.2,10.1,0.7,15.2,1c2,0.1,4,0.5,6,0.3c5-0.4,10,1.6,15,0.4c0.3-0.1,0.7-0.1,0.9,0c6.2,3.2,12.7,0.5,19.1,0.9
		c5.9,0.4,11.9-0.4,17.9-0.6c0.7,0,1.5,0.3,2.2,0.5c0.5,0.1,1,0.7,1.3,0.5c5.5-2.8,11.4,2.3,17-0.9c1.7-0.9,4.3-0.4,6.5-0.2
		c6.8,0.6,13.6,1.4,20.4,2.1c2.8,0.3,5.6,0.9,8.3-0.8c1.1-0.7,2.9-0.8,4.2-0.5c3.2,0.8,6.6-0.4,9.7,1.9c1.4,1,4,0.7,6,0.7
		c3.9-0.1,7.8-0.7,11.8-0.8c4.9-0.1,9.8,0,14.8,0.2c5.2,0.3,10.3,0.8,15.5,1.2c0.3,0,0.6,0.2,0.9,0.4
		C948.4,621.5,951.8,620.9,954.4,618.5z"/>
	<path style="fill:#FFFFFF;" d="M737.4,570c-0.5-0.6-1.1-1.3-1.1-1.4c-2.5,1-4.4,1.7-6.3,2.5c-0.7,0.3-1.2,1-1.9,1.4
		c-1.9,1.1-3.8,2.4-5.9,3.1c-13.7,4.7-27.4,9.3-41.1,14c-4.4,1.5-8.4,3.8-12.8,5.4c-4.3,1.6-8.8,2.8-13.7,4.3c0.8-0.8,1.3-1.5,1.9-2
		c3-2.7,6-5.2,8.9-8c2.7-2.6,5.5-4.6,9.7-4c1.4,0.2,3.1-0.5,4.4-1.2c2.8-1.6,3.3-3.3,1.9-6.3c-0.9-2-0.6-3.2,0.9-4.6
		c9-8.1,18-16.1,26.9-24.3c7.6-6.9,15-14.1,22.6-21c4.7-4.3,9.6-8.4,14.4-12.6c0.7-0.6,1.5-1.1,2.2-1.8c5-4.9,9.9-9.8,14.9-14.8
		c1.9-1.9,2.8-5.2,6.5-4.7c3.6-3.1,7.3-6.1,10.6-9.4c5.2-5.1,9.6-11.3,15.5-15.5c5.2-3.8,8.7-9.6,14.6-12.4c0.3-0.1,0.7-0.3,0.8-0.5
		c2.1-6.4,8.6-8.5,12.8-12.8c3.6-3.6,7.4-7,11-10.5c3.6-3.5,6.9-7.4,10.8-10.5c3-2.4,5.8-4.8,7.9-8c1.1-1.6,3.1-2.5,4.5-3.9
		c5.5-5.3,10.8-10.8,16.6-15.8c6.6-5.7,13.2-11.4,19.2-17.8c5.6-6.1,12-11.5,18-17.1c6.4-6,11.9-12.8,17.3-19.7
		c0.8-1.1,1.2-2.5,1.9-4c2.4,0.5,3.6,2,4.7,3.8c2.3,3.8,4.9,7.4,7.2,11.2c3,5,5.7,10.2,8.8,15.3c2,3.3,4.3,6.3,6.3,9.6
		c4.3,7.2,9,14.2,12.1,22.1c1.1,2.9,3.3,5.4,4.8,8.2c1.5,2.8,2.6,5.7,4,8.6c1,2,2.2,3.9,3.2,5.8c1.5,2.8,2.9,5.7,4.2,8.6
		c2.6,5.8,5.3,11.6,7.6,17.5c1.4,3.7,2.2,7.7,3.4,11.4c1.5,4.7,3.3,9.2,4.8,13.9c1.5,4.7,2.7,9.4,4.3,14.8c-3.1,0.8-5.6,1.4-8.2,2
		c-0.8,0.2-1.6,0.2-2.3,0.4c-3.8,1.1-7.5,2.5-11.3,3.3c-3.6,0.7-7,1.9-10.1,3.9c-0.9,0.6-2.4,1.5-3,1.1c-2.8-1.5-4.8,0.2-7.1,1.2
		c-1,0.4-2.1,0.5-3.2,0.7c-0.8,0.1-1.9-0.2-2.3,0.2c-3.3,3.9-7.5,2.1-11.4,1.8c-0.2,0-0.3,0.1-0.7,0.2c-1,2.7-2.6,4.9-6.2,3.7
		c-0.5-0.2-1.4,0-1.8,0.4c-2.6,2.7-6.3,2.8-9.5,4c-2.4,0.9-5.1,0.8-7.7,1.1c-0.6,0.1-1.6-0.2-1.9,0.2c-2.9,3.5-7.7,2.7-11.2,4.9
		c-2.1,1.3-4.7,2.8-7.6,1.6c-0.5-0.2-1.5-0.1-1.8,0.2c-3.6,4.3-9.8,2.5-13.8,5.8c-0.6,0.5-1.9,0-2.8,0.2c-1.4,0.3-3.2,0.3-4,1.2
		c-2.5,2.5-5.7,2.4-8.7,3.3c-4.2,1.2-8.6,0.7-13.2,1c0.1,1.2,0.2,2.3,0.4,3.3c-0.5,0.3-0.9,0.8-1.2,0.8c-3.9-0.3-7.3,1.6-10.9,2.3
		c-3.5,0.7-6.5,2-9.6,3.5c-1.8,0.9-4-0.7-5.9,1.3c-1.3,1.3-3.7,1.6-5.7,2.3c-2,0.8-4,1.9-6.2,2.3c-1.9,0.4-3.9,0.1-5.8,0.1
		c-4.4,1.9-8.8,3.9-13.4,5.7c-1.4,0.6-2.7,0.9-4.5,0c-1.4-0.7-3.5,0.1-5.6,0.3c0.4,1,0.6,1.6,1,2.6c-1.7,0.2-3.8,1.2-5,0.5
		c-3.4-2-4.7-0.4-6.5,2.2c-0.9,1.3-3.2,2.4-4.9,2.4c-4.5,0.2-8.1,2.7-12.1,4.1c-6.1,2.1-12.1,4.7-18.7,4.8
		C740.8,567.9,739.3,569.1,737.4,570z"/>
	<path style="fill:#FFFFFF;" d="M167.8,832.6c-2.4-0.6-3.8-1.1-5.2-1.3c-2.5-0.4-5-0.8-7.5-1c-1.7-0.1-3-0.3-4-2
		c-2.8-4.6-6-9-8.6-13.7c-3.9-7.1-7.6-14.2-11.1-21.5c-3.7-7.8-7.1-15.6-10.5-23.5c-1.5-3.5-2.3-7.2-3.9-10.7
		c-5.8-12.5-9.5-25.6-12.7-38.9c-1.9-8-4.3-16-5.4-24.1c-1.9-15-5.4-29.8-5-45.1c0.2-8.2-1.3-16.5-1.7-24.7
		c-0.2-3.6,0.3-7.3,0.7-10.9c0.7-8.2,1.5-16.5,2.4-24.7c0.8-7.1,2.5-14.2,2.4-21.3c-0.2-9.3,2.8-18.2,3.2-27.4
		c0.2-5.8,2.4-11.5,3-17.2c1.3-11.8,4.1-23.2,7.4-34.5c1.4-4.7,1.4-10,3.5-14.2c2.9-5.8,2.4-12.4,5.9-18.1c2.5-3.9,3-9,4.8-13.4
		c2.7-6.6,5.7-13.2,8.5-19.7c1-2.3,2-4.7,2.9-7c1.8-4.8,3.7-9.4,6.4-13.8c2.9-4.7,4.8-10,7.1-15.1c1.8-3.9,3.4-7.9,5.3-11.7
		c0.9-1.9,2.8-2,4.6-1.8c3.8,0.4,7.5,1,11.5,1.6c-0.3,6.6-0.4,13.1-1,19.6c-0.7,8.1-1.2,16.2-0.6,24.3c0.3,3.9-0.8,7.9-0.9,11.9
		c-0.3,9.2-0.3,18.4-0.5,27.6c-0.1,5.5-0.6,10.9-0.6,16.4c0,5.4,0.4,10.8,0.5,16.2c0.1,7.5-0.1,14.9-0.1,22.4
		c0,5.4,0.1,10.8,0.1,16.2c0.1,6.3,0.2,12.6,0.3,18.9c0,0.3,0.2,0.7,0.1,0.9c-2,5.9-0.3,11.9-0.8,17.9c-0.1,1.6-0.7,3.2-1.3,5.7
		c1.2,2.9,2.6,6.7,1.4,11c-0.5,1.6,0.2,3.4,0.3,5.2c0.2,2.4,0.4,4.8-2.7,5.8c0.6,1.5,1.1,2.7,1.6,3.9c-0.6,0.8-1.8,1.8-1.7,2.5
		c0.7,4.1-1.5,8.1,0.3,12.3c1,2.4-0.7,5.4,0.8,8c-4.2,3.2,1.1,7.1-0.8,10.5c-0.1,0.2-0.1,0.7,0,0.9c4.3,4.7,0.8,9.5,0,14.3
		c-0.4,2.2-1.2,4.2,0.2,6.4c0.5,0.8,0.7,2.3,0.4,3.1c-1.2,2.7-0.6,5.3-0.1,7.9c0.4,2.1,0.2,4.4,0.2,6.6c-0.1,5.2-1.1,10.6-0.2,15.7
		c1,5.5-1.9,10.8,0.3,16.2c0.3,0.6-0.9,1.8-0.9,1.9c0.7,3,1.3,5.2,1.6,7.5c0.3,2.9,1.6,6-0.4,8.8c-0.2,0.3-0.4,1-0.3,1.3
		c1.7,3.4,1.3,7.1,1.3,10.7c0.1,6.9,0.5,13.8,0.8,20.8c0.1,2.2,0.2,4.5,0.2,6.7c0,1.4-0.3,2.8-0.4,4.1c-0.1,1.2-0.5,2.5-0.2,3.6
		c1,3.3,1.3,6.4,0.4,9.8c-0.5,2,0.2,4.4,0.2,6.6c-0.3,10-0.8,20.1-1.1,30.1C167.9,822,167.9,826.9,167.8,832.6z M165.8,579.8
		c-0.6-0.3-0.9-0.7-1.3-0.7c-0.3,0-0.6,0.5-0.8,0.8c0.3,0.3,0.7,0.7,1,0.7C165,580.7,165.3,580.2,165.8,579.8z"/>
	<path style="fill:#FFFFFF;" d="M298.6,315c-0.2,7.6,1.3,15.1,0.2,22.8c-0.7,5.1-1,10.3-0.2,15.6c0.7,5,0.4,10.2,0.1,15.3
		c-0.1,1.6-1.4,3.1-2.3,5.2c1,1.1,2.1,2.3,3.4,3.7c-0.5,4.7-1.3,9.5-1.5,14.4c-0.2,4.7,0,9.5,0.5,14.3c0.3,3.1,0.2,5.8-1,8.8
		c-0.9,2.3-0.5,5.2-0.2,7.7c0.3,3.1,1.2,6.2,0.1,9.4c-0.2,0.7-0.2,1.6,0.1,2.3c1.5,3.5,0.7,6.8-0.3,10.2c-0.5,2-1,4.1-0.8,6.1
		c0.5,6,0.5,11.9-0.8,17.9c-0.3,1.5-1.6,3.7,1.2,4.6c0.2,0,0.1,0.9,0,1.4c-0.7,5.1,0.4,10.4-1,15.4c-0.2,0.7-0.2,1.6-0.1,2.3
		c0.8,4.2-0.3,8.5,1,12.9c0.8,2.7-0.2,6.1,0.1,9.3c0.2,1.7,0,3.4,0,5.2c0,0.6,0.4,1.6,0.1,1.9c-3.7,3.3-1.6,7.7-1.3,11.2
		c0.5,5.1,0.4,10,0.2,15c-0.2,4,0.4,4-1,6.4c3.7,15.2,0.6,30.4,1.5,45.9c-2.3,0.1-4.2,0.4-6,0.3c-7.1-0.5-14.3-1.3-21.4-1.7
		c-4.6-0.3-9.2,0.1-13.9-0.1c-7.9-0.4-15.8-0.1-23.8-1.2c-5-0.7-10.2-2.4-15.8-0.5c-4,1.4-8.8,0.3-13.3,0.4
		c-4.4,0.1-8.9,0.5-13.3,0.5c-4.6,0-9.2-0.3-14.1-0.5c-0.8-4.8,0-9.4,0.2-13.9c0.4-6.2,1-12.4,1.6-18.6c0.2-1.9,0.7-3.8,0.9-5.7
		c1-7.9,1.8-15.9,3-23.7c0.9-5.5,2.4-10.8,3.7-16.2c1.4-6,3-12,4.4-18.1c1.6-7.3,3.1-14.5,6.2-21.5c2.9-6.5,4.4-13.6,6.8-20.3
		c1.1-3.1,2.6-6.2,3.8-9.2c2.2-5.5,4-11.1,6.5-16.4c3.6-7.5,6.4-15.6,11.6-22.3c1.7-2.2,2.7-5,4.1-7.6c2.9-5.3,5.6-10.7,8.6-16
		c3.1-5.5,6.1-11.2,9.8-16.3c6.4-8.6,12-17.7,20.1-24.9c0.4-0.3,0.9-0.5,1.1-0.9c1.9-4.6,5.7-7.6,9.1-10.9
		c6.9-6.7,13.9-13.4,20.9-20.1C297.9,314.7,298.2,314.8,298.6,315z"/>
	<path style="fill:#FFFFFF;" d="M529.5,868.3c8.3-0.2,13.6,4.2,18.7,8.9c1,1,1.9,2.1,3.1,2.9c3.4,2.2,5.1,5.7,7.5,8.7
		c2,2.6,4,5.1,5.7,7.9c1.1,1.8,1.9,3.8,2.7,5.8c0.7,1.9,0.8,4.1,1.7,5.8c4.8,9.1,7.3,18.9,8.4,29c0.4,3.2,1.1,7.2-1.5,10.5
		c-0.5,0.6-0.8,2-0.5,2.7c2.2,4,0.6,8.2,0.6,12.2c0,2.9-2.2,5.8-3.5,8.8c-1,2.3-2.1,4.6-3.1,7c-0.3,0.7-0.3,1.6-0.7,2.3
		c-3.6,6.2-7.1,12.4-10.9,18.4c-1.3,2.1-3.4,3.7-5.1,5.5c-0.5,0.5-1,1.1-1.5,1.7c-0.9,1-1.7,2.7-2.9,3c-3.4,0.9-5.4,3.5-7.7,5.7
		c-1.8,1.7-3.8,2.7-6.3,3c-1.6,0.2-3.2,1.4-4.4,2.4c-4.7,4-10.1,5.7-16,6.4c-2.5,0.3-5,0.6-7.5,0.8c-1.4,0.1-2.8,0.1-4.2,0.1
		c-0.9,0-2-0.4-2.8,0c-5.6,2.6-11.4,1.7-17.3,1c-7.1-0.8-14.3-1.4-21.4-2.1c-1.1-0.1-2.3-0.1-3.3-0.5c-7.9-2.9-15.8-5.9-22.4-11.4
		c-2.5-2.1-4.5-4.8-6.7-6.9c-3.4-3.2-6-6.8-8.8-10.4c-0.9-1.2-1.7-2.6-2.6-3.9c-6.1-8.9-9-19.1-12.1-29.4c-1.7-5.5-1-11-1.6-16.5
		c-0.9-8.9,1.8-17.3,2.3-26c0.2-4,2-8,3.7-11.8c2.6-5.8,5.4-11.5,10.1-16c1.6-1.5,2.2-4,3.8-5.5c5.4-4.9,11.1-9.5,16.5-14.4
		c6.1-5.5,14-7.4,21.2-10.6c6.1-2.7,12.7-4.4,19.4-4.9c5.6-0.4,11.3-1.3,16.7-0.4c3.9,0.7,7.8,1.8,11.8,2.4c0.2,0,0.4,0,0.5,0.1
		c1.6,4.6,5,2.2,7.8,2.1c1.1,0,2.1,0.3,3.2,0.5c2.1,0.5,4.2,1.4,6.3,1.7C528.4,865,529.9,865.6,529.5,868.3z"/>
	<path style="fill:#FFFFFF;" d="M899.2,605.8c-2.7,3-6.2,2.9-9.2,2.4c-4.1-0.7-8.2-0.1-12.2-0.3c-4.5-0.2-9.1-0.6-13.6-0.9
		c-1.1-0.1-2.2,0-3.3,0.2c-3,0.3-5.9,0.3-8.9-0.7c-1.4-0.5-3.1-0.1-4.6-0.1c-5,0-10,1.2-15.1-0.1c-1.9-0.5-4.1,0-6.1,0
		c-9.2,0-18.4,0-27.7,0c-0.6,0-1.3,0.2-1.9,0c-6.1-2-12.2-0.7-18.3,0c-3,0.3-6.1,0.3-9-0.2c-8.9-1.5-17.8-0.8-26.7-0.6
		c-6.2,0.1-12.4-0.3-18.6-0.3c-5.9,0-11.8,0.3-17.7,0.2c-7.6,0-15.2-0.5-22.9-0.3c-10.5,0.2-21,0.9-31.5,1.4c-0.6,0-1.2,0-2.2-0.8
		c1.3-0.7,2.5-1.6,3.8-2.1c10.8-3.5,21.6-6.9,32.4-10.3c2.6-0.8,5.1-1.7,7.8-2.4c6.8-1.8,13.6-3.4,20.4-5.3c2.7-0.7,5.3-2,8-2.9
		c10.6-3.8,21.5-6.9,32.4-9.9c9.3-2.6,18.6-5.4,27.7-8.9c5.4-2.1,10.9-3.4,16.4-4.9c0.3-0.1,0.7,0,0.9-0.1
		c9.7-4.6,20.2-6.6,30.4-9.7c3.6-1.1,7.4-1.8,11-2.9c2.9-0.8,5.6-2.1,8.5-2.9c6.5-2,13.1-3.8,19.6-5.7c3.5-1,6.9-2.4,10.4-3.4
		c2.4-0.7,4.9-1.2,7.4-1.7c1.9-0.3,3.5-1.2,5.2-2c4.3-2,8.9-3.2,13.5-4.6c1.5-0.5,3-0.6,4.5-1c1.1-0.3,2-1,3.1-1.2
		c3.5-0.7,7-1.3,10.4-3c5.1-2.5,10.7-4,16.1-6c4.5-1.6,8.9-3.2,13.7-3.9c8.3-1.2,15.7-5.1,23.5-7.8c8.6-3,16.9-6.5,25.4-9.7
		c4-1.5,5.6-0.5,6.7,4.1c1.2,5.1,2.1,10.3,3.1,15.5c2.4,12.2,4.8,24.4,7.1,36.6c0.5,2.6,0.5,5.4,0.6,8.1c0.2,3,0.2,6,0.4,9
		c0,0.5,0.3,1,0.2,1.4c-2.3,4.8,0.7,9.9-0.8,14.7c-0.3,0.9,0.3,2.2,0.5,3.3c0.2,0.9,0.4,1.9,0.8,2.8c1.1,2.8-3.2,4.8-1,8
		c1.7,2.5,0,5.1-1,7.6c-0.4,1.1-0.3,2.5-0.6,3.7c-0.7,3.4-2.5,4.3-5.9,3.5c-2-0.4-4-0.4-6-0.5c-2.5-0.1-5.1,0-7.6-0.1
		c-2.3-0.1-4.7-0.1-7-0.3c-7.4-0.6-14.8-1.6-22.3-1.9c-3.2-0.1-6.5-0.8-9.4-0.5c-4.3,0.5-8.4-0.3-12.6-0.2c-4.4,0-8.9,0.2-13.3,0.1
		c-6.4-0.1-12.9-0.4-19.3-0.7c-1.3-0.1-2.7-0.3-4-0.4c-1.5-0.1-3.1-0.3-4.6,0.1C903.7,607.9,901.4,608.5,899.2,605.8z"/>
	<path style="fill:#FFFFFF;" d="M1116.3,1066.3c-2.9,0.4-4.9-0.9-6.5-2.3c-5.1-4.3-10.2-8.6-15.2-13.1c-4.2-3.8-8.6-7.5-12.3-11.8
		c-5.3-6-11.3-11.2-16.9-16.8c-3.1-3-5.8-6.3-8.8-9.4c-6.5-6.8-12.9-13.6-19.5-20.3c-9.4-9.5-18.9-18.9-28.3-28.4
		c-3.5-3.5-7.1-6.8-10.2-10.7c-3.2-4.1-7.4-6.9-11.2-10.2c-1.2-1-2.3-2.2-3.8-3.6c1.4-0.9,2.5-1.6,3.9-2.5c-0.3-0.8-0.7-1.7-1.2-2.8
		c3.6-3.5,7.3-6.7,10.7-10.3c3.2-3.3,6-6.9,9.1-10.3c1.5-1.6,3.1-3.1,4.5-4.7c3.8-4.5,7.6-8.9,11.2-13.6c8-10.5,15.9-21.1,23.8-31.6
		c0.9-1.3,1.6-2.7,2.5-4.1c6.8-10.6,13.4-21.3,20.5-31.7c6.6-9.8,11.5-20.5,16.5-31.1c4.7-10.1,8.5-20.6,12.5-30.9
		c2-5.2,4.1-10.4,5.8-15.7c1.9-6.1,3.4-12.2,4.8-18.4c2.2-10.1,4.4-20.3,6.1-30.5c1.2-7.2,1.8-14.5,2.5-21.8
		c0.7-7.3,2-14.4,4.8-21.5c0.3,0.8,0.7,1.5,0.7,2.3c-0.1,7.3,1,14.6-0.1,21.9c-0.7,4.6,0,9.5-0.1,14.2c-0.2,6.3-0.6,12.7-0.9,19
		c-0.3,5.6-0.5,11.1-0.8,16.7c-0.2,4.6-1.2,9.3-0.6,13.8c0.9,6.3-1.5,12.4-0.1,18.8c0.8,3.8-0.3,8.2-1.1,12.2c-2,10-1.8,20.1-2,30.1
		c-0.1,7.3-0.4,14.5-0.7,21.8c-0.3,5.9,0.6,11.9,0.7,17.9c0.1,3.9-0.4,7.8-0.4,11.8c0,5.7,0.1,11.4,0.2,17c0,0.8,0.1,1.6,0,2.4
		c-1.6,9.5-1,19-0.6,28.5c0.2,6.4,1.7,12.9-0.3,19.3c-0.2,0.7,0.3,1.9,0.8,2.4c1.6,1.2,2,3.2,0.9,4.1c-3.1,2.6-1.4,5.6-1.1,8.3
		c0.3,2.2,0,4.1-0.5,6.3c-0.6,2.5-2.9,5.8,0.2,8.5c0.2,0.2,0.3,0.6,0.3,0.9c-0.2,6.9-0.4,13.8-0.5,20.6c0,3.4,0,6.8,0.6,10.1
		c0.3,1.8-0.1,2.9-0.9,4.3c-1.1,1.9-1.5,4.1-0.7,6.4c1.1,2.9,0.5,5.8,0,8.9c-0.7,4.3-2,9,0.8,13.3c0.4,0.6,0.3,1.5,0.3,2.2
		c-0.2,4.6-1.7,9.2,0.2,13.7c0.2,0.5,0.1,1.5-0.2,1.8c-2.2,2.3-1.5,5.4-2.1,8.1c-0.6,2.3-0.1,4.6,0.8,7
		C1115.8,1057.1,1117.1,1061.4,1116.3,1066.3z"/>
	<path style="fill:#FFFFFF;" d="M170,885.2c-0.3,6.8,0.4,12.9-1,18.4c-1.4,5.1,0.2,10.1-1.1,14.9c-0.1,0.3,0.1,0.7,0,0.9
		c-2.7,3.6-0.3,7.4-0.6,11.1c-0.2,3.4-0.1,6.9-0.6,10.2c-0.4,2.9,0.8,6-1.4,8.7c-0.1,0.1,0,0.3,0,0.5c2.6,7.5,0.2,15.2,1,22.7
		c1.1,11.9-1.5,23.7-0.4,35.6c0,0.3,0,0.7-0.1,0.9c-1.9,4-0.1,7.9,0.1,11.9c0.1,1.4-0.2,2.8-0.3,4.3c-0.1,1.9-0.4,3.8-0.3,5.7
		c0.3,8,0.7,15.9,1,23.8c0.1,3.1-0.6,3.6-3.7,3.3c-4.9-0.4-9.8-0.9-14.8-1.4c-0.6-0.1-1.3,0-1.9-0.2c-16.3-4.3-32.9-8.1-47.2-17.6
		c-3.4-2.2-6.5-5.1-9.5-7.9c-3.5-3.3-6.7-6.8-10-10.2c-3.5-3.6-6.3-7.5-8.3-12.1c-0.1-0.1,0-0.4-0.1-0.5c-5.2-5.2-7.1-12.3-9.8-18.7
		c-2.8-6.7-5.6-13.6-4.7-21.2c0.2-1.5-0.5-3.1-0.6-4.7c-0.6-9.2-0.8-18.4,0.6-27.6c1.5-10.3,3.4-20.5,6.7-30.3
		c1.6-4.8,4-9.4,6.4-13.8c2.9-5.3,6.2-10.3,9.4-15.4c2.1-3.4,4.4-6.3,8-8.6c4.1-2.6,7.3-6.7,11-9.9c2.1-1.9,4.4-3.6,6.9-5
		c7.2-3.8,14.5-7.3,21.8-10.9c1.9-0.9,3.9-1.5,5.9-2c4.8-1.1,9.6-1.9,14.4-2.9c2.4-0.5,4.4,0.2,5.8,2.4c3.4,5.7,6.8,11.4,10.3,17.2
		c0.4,0.7,0.7,1.4,1.3,2c3.1,3.1,3.6,7.2,4.4,11.2c0.1,0.5,0,1,0.1,1.4C169.9,876.3,170.8,881.1,170,885.2z"/>
	<path style="fill:#FFFFFF;" d="M1024,1062.9c-0.2,1.4-0.3,2.6-0.4,3.6c-1.8,2.1-15.8,0.9-20.6-1.7c-2,2.2-4.5,2.1-7.5,2
		c-4.3-0.1-8.7-1.4-13.1-0.1c-1.4,0.4-3.3,0.3-4.7-0.3c-2.4-1.1-4.3,0.9-6.3,0.7c-2-0.2-4.1-2.2-5.8-1.8c-5.4,1.3-10.6-1.1-15.9,0.1
		c-1.5,0.4-3.3-0.4-5-0.5c-4.5-0.4-9,0.5-13.4,0.9c-2.3,0.2-4.1-0.1-5.2-2.2c-1.1,0.3-2.2,0.9-3.3,1c-6.7,0.3-13.4,0.8-20.1,0.7
		c-5.1-0.1-10.1-1-15.1-1.3c-1.5-0.1-3.1,0.6-4.6,0.5c-4.4-0.2-8.8-0.5-13.2-0.8c-1.1-0.1-2.2-0.5-3.3-0.5c-4.2,0.4-8.4,1-12.6,1.3
		c-1.8,0.1-3.7-0.5-5.5-0.6c-3.3-0.3-6.6-0.6-9.9-0.6c-5.2,0-10.5,0.5-15.7,0.5c-8.3,0-16.6-0.7-24.7-0.1c-9.7,0.8-19.4-0.4-29.1,0
		c-6.4,0.2-12.7-0.2-19.1-0.3c-3.3,0-6.6,0.3-9.9,0.3c-3.7,0.1-7.3,0-11,0c0-0.3-0.1-0.7-0.1-1c6-1.2,12-2.5,18.1-3.5
		c10.4-1.7,20.7-3.8,30.8-6.8c5.7-1.7,11.4-3,17.1-4.7c5-1.6,9.9-3.5,14.8-5.3c8.2-3,16.3-6.4,24.7-9c11.1-3.5,21.3-8.7,31.7-13.8
		c12.8-6.4,25-14.1,37.4-21.2c5.6-3.3,11.1-6.8,16.6-10.2c0.4-0.3,0.8-0.7,1.2-0.8c4.4-0.8,6.9-4.1,9.9-6.9c1.5-1.4,3.3-2.4,5-3.7
		c7-5.1,14.2-10.1,21-15.5c5.8-4.6,11.1-9.8,16.9-14.5c1.9-1.5,4.2-2.5,6.6-3.8c4.6,5.5,9,10.9,13.6,16.1c4.1,4.6,8.3,9.2,12.9,13.3
		c4.3,3.8,8.5,7.5,12.3,11.8c3.4,3.9,7.3,7.4,10.9,11.2c4.7,4.9,9.3,9.9,13.9,14.9c1.1,1.2,2.2,2.3,3.3,3.4c1.2,1.2,2.5,2.4,3.7,3.5
		c0.8,0.8,1.5,1.6,2.5,2.2c4,2.4,6.6,6.1,9.3,9.7c1,1.2,2.1,2.4,3.5,3.2c6.9,4.3,12.6,10.1,18.3,15.7c4,3.9,7.7,8,12.6,10.8
		c4.4,2.5,7.9,6.1,11.9,10.3c-1.9,0.4-3,0.8-4,0.8c-2.7,0-5.4,0-8.1-0.2c-6.7-0.5-13.3-1-20-1.5c-0.6,0-1.2,0-1.9,0
		c-5.9,0-11.7,0.2-17.6,0.1c-1.4,0-3-0.3-4.2-1c-1.6-0.9-2.8-0.8-4.5-0.5c-1.3,0.3-2.8-0.4-5.2-0.8c-2.3,1.6-6,2.3-9.8,0.8
		c-0.3-0.1-0.6-0.2-0.9-0.2c-1.7,0-3.6,0.4-5-0.2c-1.1-0.5-1.6-2.4-2.5-3.6C1025.2,1062.8,1024.7,1062.9,1024,1062.9z"/>
	<path style="fill:#FFFFFF;" d="M170.1,148.4c0.6,7.6,1.2,14.9,0.3,22.4c-0.6,4.3,0.2,8.8,0.2,13.3c-0.1,7.6-0.2,15.2-0.4,22.9
		c-0.1,6-0.4,12-0.4,18.1c0,4.7,0.1,9.5,0.2,14.2c0.1,4.3-0.8,8.4-0.1,12.8c1,6.2,0,12.7,0.4,19c0.5,8.4-0.8,16.8,0.1,25.2
		c0.4,4.1,1.3,8.8-0.9,13c-0.4,0.8,0.3,2.2,0.2,3.3c-0.1,3.7,1.7,7.6-0.8,11.1c-0.1,0.2-0.2,0.6-0.1,0.8c3.3,5.6,0.6,11.5,0.7,17.2
		c0.2,6.1-4.6,9.6-6.6,14.6c-1.3,3.4-3.5,6.4-5,9.7c-1.1,2.3-2.5,3.1-4.9,2.5c-8.7-2.1-16.8-5.6-24.5-10.3c-3.1-1.9-6.5-3.4-9.5-5.5
		c-3.8-2.5-7.5-5.3-11.2-8.1c-3.2-2.4-6.4-4.8-9.4-7.5c-2.5-2.2-4.7-4.8-6.8-7.3c-3.4-4.2-6.7-8.5-9.8-12.9c-2.1-3-4.3-6.1-5.5-9.4
		c-3.6-9.5-7.6-19-10-28.9c-2.1-8.4-3.6-17.2-2.9-26c0.5-5.8,1.3-11.6,2.5-17.2c1.2-5.6,2.8-11.2,5.1-16.4c2.8-6.5,6.2-12.8,9.6-19
		c1.2-2.2,3.1-4.1,4.6-6.1c4.2-5.4,8.2-10.8,13.1-15.6c6.1-5.9,12.6-11.2,19.8-15.7c3.9-2.4,6.9-6,11.6-7.3
		c5.4-1.5,10.5-3.8,15.7-5.6c3.2-1.1,6.4-2,9.7-2.7C160.1,145.8,165,145.7,170.1,148.4z"/>
	<path style="fill:#FFFFFF;" d="M638.9,610.3c-1.5,4.1-3.5,6.4-6.6,7.9c-1.7,0.8-3.3,2-4.8,3.2c-4.1,3.3-8.1,6.6-12.2,9.9
		c-0.9,0.8-1.8,1.6-2.8,2.4c-4.4,3.8-9.1,7.3-13,11.6c-2.8,3.2-7,4.6-9.4,7.6c-2,2.5-5.1,3.9-6.5,6.9c-0.2,0.5-0.9,0.9-1.3,1.3
		c-2.4,1.9-4.5,4.2-6.6,6.4c-3.3,3.5-6.8,7.1-10.4,10.3c-1.5,1.3-3.5,1.8-3.6,4.3c0,0.3-0.3,0.6-0.5,0.8c-3.3,2.8-6.7,5.5-9.9,8.5
		c-2.7,2.4-5.2,5-7.7,7.6c-2.2,2.3-2.1,2.4-4.7,1.2c-1,1.8-1.5,4-2.9,5.2c-4.7,4.1-9.8,7.9-14.6,11.8c-0.8,0.7-1.5,1.6-2.1,2.5
		c-0.5,0.6-0.6,1.8-1.2,2c-3.9,1.5-5.4,5.6-8.7,7.7c-1.9,1.3-4.4,2-5,4.8c-3.9,0.8-5.4,3.9-7.5,6.8c-1.2,1.7-3.8,2.5-4.5,5.1
		c-0.2,0.6-1.5,1.2-2.3,1.4c-2.8,0.6-4.6,2.1-5.1,5c-0.4,2.3-2,3.6-4,4.4c-2.9,1.2-5.8,2.2-6.5,6.1c-0.4,2.3-2.9,1.9-4.5,1.5
		c-3.6,4.9-7.2,9.2-12.2,12.2c-1.6,1-2.7,2.6-3.7,4.5c-1.6,3.1-4.6,5.5-7.1,8.2c-0.5,0.5-1.5,0.7-1.8,1.3c-1.7,3.4-4.1,5.9-7.1,8.2
		c-1.8,1.4-3.5,3.1-5.2,4.8c-1.1,1.1-2.6,2-3.3,3.4c-1.6,3.1-4.1,5.2-6.6,7.4c-2.6,2.3-4.7,5.1-7,7.7c-3.1,3.6-6.2,7.3-9.3,10.8
		c-0.7,0.8-1.8,1.2-3.2,2.1c-0.1-1.4-0.3-2.4-0.3-3.4c0.1-16.3,0.1-32.6,0.5-48.9c0.3-9.7,1.8-19.4,1.8-29c0-7.8,1.2-15.8-0.5-23.6
		c-0.3-1.5-0.1-3.2,0-4.8c0.1-5.1,0.3-10.1,0.5-15.2c0.1-2.7,0.6-5.4,0.5-8.1c-0.2-5.9-0.6-11.7-0.9-18.1c1-0.4,2.5-1.1,3.9-1.5
		c5.5-1.5,11.1-2.7,16.6-4.4c6.1-1.8,12.1-4,18.1-6c7.3-2.3,14.6-4.7,21.9-6.9c9.3-2.8,18.7-5.2,28-8.2c5.3-1.7,10.7-2.7,15.6-5.8
		c3.7-2.3,8.2-2.8,12.9-1.9c5.3-3.8,11.8-5.6,18.2-7.5c7-2.1,14.3-3.3,21.1-5.9c8-3,16.4-4.4,24.4-7.6c7.4-2.9,14.8-5.9,22.2-8.7
		c3.4-1.3,6.9-2.3,10.4-3.4c5.3-1.7,10.6-3.4,15.9-5.1C635.4,611.1,636.7,610.8,638.9,610.3z"/>
	<path style="fill:#FFFFFF;" d="M261.6,606.4c0.2-0.4,0.5-1.1,0.5-1.1c3.7,1.5,7.5,0.5,11.3,0.5c4.4,0,8.9,0.2,13.3,0.1
		c1.3,0,2.7-0.9,4-0.9c1.4,0,2.8,0.6,4.7,1c0.2,2.8,0.6,5.6,0.4,8.4c-0.3,5.7-0.9,11.4-1.4,17.1c-0.2,2.2-0.3,4.4-0.1,6.5
		c0.4,2.8,0.1,5.4-1.2,7.8c-0.4,0.6-0.3,1.5-0.4,2.3c0,3.8-1,7.9,0.2,11.2c1.1,2.9-0.1,5.3,0.4,7.8c0.3,1.3-0.5,2.8-1,4.9
		c1.3,2.1,1.5,4.9,0.4,8.3c-0.7,1.9-1.9,4.3-0.2,6.8c0.4,0.6-0.3,2.5-1,3.2c-1.6,1.4-1.6,2.7-1,4.7c1.1,3.1,1.7,6,0.9,9.6
		c-1,4.2-0.2,8.7-0.2,13.3c-3.1,0.9-6.1,2.1-9.2,2.7c-1.2,0.2-2.6-0.7-4.3-1.3c0.2,0.9,0.3,1.7,0.5,2.5c-5.1,2.3-5.1,2.3-9.2,1.1
		c-2.4,2.1-4.8,4.4-8.6,3.9c-1.2-0.1-2.6,1-3.8,1.7c-2.4,1.3-4.7,2-7-0.1c-3.2,2.5-6.5,4.5-10.6,5.1c-2.9,0.4-5.6,2-8.5,2.9
		c-2.3,0.7-4.5,1.4-6.8,2c-0.7,0.2-1.8,0.4-2.2,0c-2.5-2.3-3.1-1.3-3.5,1.5c-0.1,0.8-1.8,1.7-2.9,2c-7.2,1.4-13.9,4.4-20.7,6.8
		c-0.9,0.3-1.8,0.7-2.7,0.9c-2.5,0.5-3.9-0.2-4.6-2.8c-1.8-6.9-3.4-13.9-5.1-20.8c-0.6-2.3-1.3-4.6-1.6-7
		c-1.3-8.8-2.1-17.7-3.7-26.5c-2.1-12.1-0.9-24.2-1.1-36.3c-0.2-9.2,0.2-18.4-0.1-27.7c-0.2-6.5,0.8-13-0.4-19.5
		c-0.4-2.1-0.1-4.4-0.1-6.8c1-0.2,1.9-0.5,2.7-0.5c2.5,0.1,5.1,0.1,7.5,0.5c2.6,0.4,5.4,2,7.8,1.6c2.7-0.5,5,0,7.5,0.3
		c1.9,0.2,4-0.2,5.9,0.1c3.3,0.6,6.2,1.1,9.8-0.2c3.3-1.2,8.2-1.8,11.6,1.9c0.6,0.6,3.3,0.5,3.4,0.2c0.7-2.5,2.6-1.9,3.8-1.2
		c4.5,2.4,9.2,1.5,13.9,1.3c1.3-0.1,2.7-0.2,4.1-0.5C255.9,605.2,258.9,606,261.6,606.4c-0.1,0.8-0.3,1.5-0.4,2.3
		c0.6-0.1,1.2-0.1,2.1-0.3C262.5,607.5,262.1,606.9,261.6,606.4z"/>
	<path style="fill:#FFFFFF;" d="M1005.4,259.8c-2.6-2.4-5.3-4.9-7.8-7.5c-6.7-6.8-13.6-13.3-21.5-18.9c-5.3-3.8-9.8-8.6-14.8-12.8
		c-3.3-2.7-6.8-5.2-10.3-7.7c-4-2.8-8.1-5.7-12.3-8.2c-6-3.6-12.2-6.8-18.3-10.2c-1-0.5-2-1-2.9-1.7c-4.5-3.8-9.8-5.8-15.2-7.9
		c-2.4-0.9-4.6-2.1-7-3.1c-6.5-2.7-12.9-5.5-19.4-8.1c-6.8-2.7-13.7-5.2-20.6-7.6c-4.8-1.7-9.7-3.1-14.6-4.7
		c-3.5-1.1-6.9-2.4-10.4-3.5c-3-1-6.1-1.8-9.2-2.6c-5.9-1.5-11.8-2.9-17.6-4.5c-1.6-0.4-3-1.3-4.6-1.9c0.1-0.4,0.2-0.7,0.3-1.1
		c3,0,5.9,0,8.9,0c10.7-0.1,21.3-0.2,32-0.2c11.9,0,23.9,0,35.8,0c3.7,0,7.3,0.5,11,0.7c2.9,0.1,5.7,0,8.6,0.1
		c4,0.1,7.9,0.3,11.9,0.6c8.9,0.5,17.9,0.9,26.8,1c2,0,4,0.8,6,0.9c2.6,0.1,5.3,1.8,8-0.5c0.8-0.7,2.5-0.6,3.7-0.4
		c4.5,0.8,8.9,2,13.4,2.6c1.7,0.2,3.5-0.5,5.2-0.9c1.3-0.3,2.7-0.9,4-0.7c2.8,0.4,5.6,1.1,8.4,1.7c0.6,0.1,1.3,0.2,1.8-0.1
		c3.1-2.1,6.2-1.8,9.5-0.4c0.8,0.3,1.8,0,2.7,0c0.1,0.6,0.2,1.2,0.4,2.6c1.8-1.1,3.2-2.1,5.3-3.4c0.1,0,1.1,0.6,1.9,0.4
		c5.5-1.7,11,0.7,16.5,0.2c0.3,0,0.6,0,1,0.1c7.8,2,15.6,0.6,23.4,0.5c6.7-0.1,13.4-0.8,19.9-0.1c4.1,0.4,8.5-0.5,12.4,1.7
		c0.5,0.3,1.5-0.2,2.3-0.3c2.8-0.4,5.5-1,8.3-1.2c2.6-0.2,5.3-0.2,7.9-0.2c3.7-0.1,7.3-0.1,11-0.3c4.9-0.3,9.7-0.7,15-1
		c-0.3,0.8-0.3,1.8-0.9,2.4c-3.4,3.4-6.9,6.6-10.4,9.9c-5.3,4.9-11,9.5-16.2,14.6c-4.6,4.6-9.9,8.5-14.9,12.7
		c-5.1,4.3-10,8.8-15.2,12.9c-3.3,2.6-6.5,5.3-9.8,7.8c-2.7,2-5.2,4.1-7.3,6.9c-2.9,3.9-6.5,7.3-10.1,10.6
		c-5.1,4.7-10.7,9-15.7,13.9C1016.1,247.8,1011.1,253.6,1005.4,259.8z"/>
	<path style="fill:#FFFFFF;" d="M190.5,758c2.9-2.1,5.5-3.3,8.9-3.8c4.3-0.6,8.6-2.4,12.7-4.1c8.7-3.7,17.7-6.2,26.8-8.8
		c4.6-1.3,9.8-1.2,13.9-4.3c0.2-0.2,0.6-0.2,0.9-0.2c5.6,0,10.2-3.6,15.4-4.5c6.2-1.1,11.5-4.1,17.1-6.3c1.9-0.8,3.7-1.8,6.2-3.1
		c0.3,1.9,0.9,3.7,0.9,5.4c-0.3,10-0.8,20-1,30.1c-0.1,5.2,0.7,10.5,0.3,15.7c-0.4,4.4,0.8,9-1.2,13.4c-0.9,1.9,0.2,4.7,0.2,7
		c0.1,9.2,0.4,18.4,0.3,27.7c-0.1,11-0.5,22-1,32.9c-0.5,10.9-1.2,21.9-1.9,32.8c-0.3,5.2-0.6,10.5-0.9,15.7
		c-0.1,1.5-0.4,3.1-0.8,5.6c-2.7-3.3-4.9-5.8-7-8.5c-3.9-4.8-7.8-9.6-11.6-14.5c-3.5-4.5-7-9.1-10.5-13.6c-0.9-1.1-2-2-3-3
		c-0.8-0.9-1.6-1.9-2.4-2.9c-1.2-1.5-2.3-3-3.5-4.4c-2.9-3.5-6-7-8.8-10.6c-4-5.3-7.9-10.8-11.7-16.2c-1.8-2.5-3.5-5-5.1-7.5
		c-4-6.5-8.1-12.9-11.7-19.6c-3.2-6-6.1-12.2-8.8-18.5C198.9,779.4,194.9,768.8,190.5,758z"/>
	<path style="fill:#FFFFFF;" d="M177.1,342.1c-2.1-2.8-1.4-5.5-1.1-7.9c0.8-6.4,1.7-12.7-0.3-19c-0.2-0.6-0.2-1.3-0.1-1.9
		c2-6.2,0.1-12.6,0.8-18.9c0.5-4.7,0.8-9.5,0.9-14.3c0-5-0.5-10-0.6-15.1c0-2.1,0.5-4.2,0.8-6.8c-0.2-0.2-0.9-0.8-1.6-1.4
		c1-5-0.5-9.9,0-14.9c0.5-5.1,0.7-10.2,0.9-15.3c0.2-5,0.2-10.1,0.1-15.1c0-4.9-0.2-9.8-0.3-14.7c-0.2-5.1-0.5-10.1-0.8-15.2
		c-0.3-5.1-0.5-10.2-0.7-15.2c-0.3-5-0.6-10.1-1-15.3c2.3-0.6,3.6,1,4.8,2.3c4.4,4.4,8.6,9,13,13.4c3.7,3.6,7.6,7,11.5,10.6
		c0.5,0.4,0.8,1,1.3,1.4c2.7,1.9,2.7,5.8,6.3,7.3c2.9,1.3,5.1,4.1,7.6,6.4c1.9,1.8,3.7,3.7,5.4,5.7c0.5,0.6,0.6,1.6,1,2.4
		c0.3,0.6,0.7,1.3,1.2,1.6c6.2,3.3,11.6,7.5,15.3,13.7c1.2,1.9,3.5,3.1,5.2,4.7c4.3,4,9.2,7.6,12.6,12.3c2.9,4,6.8,6.3,11,9.1
		c-0.6,0.7-0.9,1.7-1.6,2c-4.8,2.4-8,6.7-11.9,10.1c-4.5,3.9-8.9,8-13.2,12.1c-0.9,0.9-1.5,2.1-2.4,3c-2.1,1.9-3.3,4.8-6.5,5.5
		c-0.5,0.1-1.1,0.7-1.4,1.3c-3.2,5.5-8.4,9.1-12.8,13.4c-3.1,3.1-6.1,6.3-9.2,9.4c-1,1-2.2,1.9-3.4,2.6c-1,0.6-1.6,1-1.8,2.4
		c-0.2,1.3-1.5,2.8-2.7,3.7c-3.6,2.7-6.4,6-8.6,10c-1.1,2.1-3,3.7-4.4,5.7C186.1,329.5,181.8,335.6,177.1,342.1z"/>
	<path style="fill:#FFFFFF;" d="M170.5,1055.6c0.4-7.1,0.7-13.2,1-19.4c0.4-9.8,0.7-19.7,1.2-29.5c0.4-7.6,1-15.2,1.4-22.8
		c0.2-3.9,0.2-7.9,0.3-11.8c0.1-2.4,0.3-4.7,0.3-7.1c0-2.1,0.1-4.1-0.1-6.2c-0.5-4.5-0.4-8.9,1-13.2c0.2-0.7,0.6-1.9,0.3-2.2
		c-2.2-2.2-1.3-4.9-1.3-7.3c-0.1-4.1,0.3-8.2,0.6-12.4c0.1-1.2,0.6-2.5,0.9-3.7c0.2-0.8,0.7-1.6,0.6-2.3c-1.7-7.2-0.7-14.4-1.1-21.7
		c-0.4-7.3-0.7-14.7-1-22c0-0.5,0.1-0.9,0.3-1.9c0.9,0.7,1.7,1.1,2.2,1.7c5.6,7.7,11,15.6,16.9,23.1c6.3,8.1,12.9,16.2,19.8,23.8
		c4.5,5.1,9.9,9.4,14.8,14.2c1.7,1.6,3.3,3.5,5,5.2c4,4.1,7.6,8.5,12,12.2c4.7,3.9,10.1,7.1,15.2,10.6c0.9,0.6,1.8,1.3,2.6,2
		c-1,3.6-3.4,5.9-6,8.3c-2.2,2-3.4,5.2-5.7,7c-6.5,5.2-10.6,12.6-17,18c-3.5,2.9-7.7,5.2-10.7,8.5c-2.9,3.2-7,5-9,9.4
		c-1.3,2.9-3.9,5.8-7.7,6.6c-1.2,0.2-2.4,0.7-2.5,2.4c-0.1,0.8-1.1,1.5-1.7,2.1c-6.4,6.2-12.8,12.5-19.3,18.6c-3,2.9-6,5.6-9.2,8.3
		C173.5,1054.9,172.1,1055,170.5,1055.6z"/>
	<path style="fill:#FFFFFF;" d="M562.7,615.1c0.5-1.4,0.8-2.2,1.1-2.9c1.7-4.4,2.2-4.7,6.7-4.3c5.7,0.4,11.6,2,17,0.9
		c5.8-1.1,11.4-0.3,17.1-0.8c8.5-0.8,17.1-0.2,25.9,0.5c-1.7,0.7-3.3,1.6-5.1,2.1c-8.3,2.4-16.6,4.4-24.9,7
		c-8.5,2.7-17.1,5-25.7,7.4c-10.5,2.9-20.4,7.3-30.9,10c-0.2,0-0.3,0.2-0.4,0.2c-2.3,0.2-4.5-0.5-6.8,1.5c-1.6,1.4-4.5,1.4-6.8,2.1
		c-2.4,0.7-4.8,1.6-7.3,2.2c-3.5,0.9-7.1,1.7-10.7,2.2c-1.6,0.2-3.4-0.2-5.4-0.4c-0.8,2.5-2.9,3.6-5.6,4c-4.4,0.8-8.6,2.2-13,2.9
		c-2.7,0.4-5.9,1.2-8.5,2.5c-2.6,1.2-4.9,1.9-7.7,1.5c-0.6-0.1-1.6,0.1-1.8,0.4c-1.5,3.3-4.5,2.3-7,2.6c-0.8,0.1-2,0.1-2.3,0.6
		c-1.1,2.1-3.2,1.6-4.8,2.3c-2,0.9-3.8,2.7-5.7,2.9c-3.4,0.2-7,2.3-10.3-0.5c-0.5,0.7-1.1,1.2-1.2,1.7c-0.7,3.4-3.4,4.6-6.2,5.3
		c-6.7,1.6-13,4.4-19.1,7.6c-0.4,0.2-0.8,0.5-1.3,0.7c-6.5,2.7-7.9,1.9-7.7-5.1c0.3-11,0.4-22,0.9-33c0.6-11.9,1.6-23.7,2.4-35.4
		c9.4,0.9,18.3,1.2,27,2.6c4.7,0.8,10-0.7,14.3,2.8c0.7,0.6,2.7-0.2,4-0.5c3.8-0.9,4.9-0.5,6.8,2.4c0.8-1.2,1.2-2.8,2.3-3.3
		c1.1-0.5,2.8,0.1,4.2,0.2c2.3,0.2,4.6,0.4,6.9,0.5c6,0.1,12,0.1,18.1,0.2c5.1,0.1,10.2,0.3,15.3,0.3c7.1,0,14.2-0.3,21.4-0.3
		c4.8,0,9.6,0.3,14.3,0.4c1.3,0,2.6,0.1,3.8-0.2c2.9-0.8,5-0.5,5.9,2.8c0.2,0.8,1.6,1.6,2.5,1.9C557,614.1,559.7,614.5,562.7,615.1z
		"/>
	<path style="fill:#FFFFFF;" d="M274.9,248.4c3.2,3,6.5,6.2,9.8,9.3c1.2,1.1,2.4,2,3.7,3c1.2,1,2.7,1.6,2.8,3.6c0,0.6,1.8,1.2,3.1,2
		c-0.3,6.6-0.6,13.4-3.8,19.9c-1.1,2.3-0.9,5.2-1.2,7.3c-1.6,0.9-3.5,1.3-3.9,2.3c-0.4,1,0.7,2.6,1.2,4.1c-0.7,0.9-1.5,1.9-2.3,2.8
		c-0.3,0.3-1.2,0.5-1.1,0.7c0.6,4.2-1.9,6.4-5.1,8.2c0.1,2.9-2,4-4,5.3c-0.9,0.6-1.5,2.2-1.4,3.2c0.3,3.5-2.1,5-4.3,6.8
		c-1.7,1.3-3.6,2.7-4.6,4.4c-0.8,1.5-0.4,3.6-0.6,5.7c-0.9,0.8-2.1,1.8-3.7,3.1c-0.4-0.2-1.4-0.6-2.7-1.1c-2.3,3.1-4.7,6.3-7.3,9.9
		c-1.5-0.7-3.7-1.7-6,0.7c-1.2,3.3-3.3,6.4-8,6.8c-0.7,0.1-1.5,0.9-2,1.6c-1.2,1.7-2.5,2.7-4.8,2.3c-1-0.2-2.2,0.8-3.3,1.4
		c-1.1,0.6-2.1,1.4-3.2,2.1c-2.1,1.4-3.8,1.3-5.6-2.4c0,3.8-1.7,4.1-3.7,4.6c-5.7,1.4-11.2,3.8-16.9,4.8c-6,1-12.2,0.8-18.8,1.1
		c0-2.4,0-4.1,0-5.8c0.1-1.6,0.5-3.2,0.3-4.8c-1.4-10.5,3.8-18.2,10.3-25.6c6-6.8,11.7-13.8,17.6-20.6c3-3.5,6.2-6.9,9.4-10.2
		c6.9-7.2,13.8-14.5,20.9-21.5c7.2-7.2,14.7-14.1,22.1-21.1c2.1-2,4.1-4,6-6.1C266.8,252.7,270.3,250.1,274.9,248.4z"/>
	<path style="fill:#FFFFFF;" d="M173.1,836.3c6.9,1.8,13,3.3,19.2,4.9c3.8,1,7.5,1.7,11,4c3.3,2.2,7.9,2.4,11.7,3.8
		c6.6,2.4,12.9,5.3,18.2,10.2c3.2,3,7.4,4.9,10.7,7.9c3.2,3,5.8,6.7,8.6,10.2c0.9,1.1,1.7,2.2,2.7,3.3c4.8,5.2,8,11.5,11.1,17.7
		c2.4,4.8,4.4,9.8,6.7,14.7c3.9,8.4,7.5,16.9,5.7,26.6c-0.2,1.2-0.3,2.7,0.1,3.8c1.3,3.7,0.1,6.4-2.4,9.1c-2.6,2.8-4.8,5.9-7.2,8.9
		c-0.6,0.7-1.4,1.2-2.5,2.1c-5.8-5.4-11.5-10.6-17.1-15.9c-3.4-3.3-6.7-6.7-10-10.1c-2-2.1-3.8-4.3-5.8-6.3
		c-6.3-6.3-12.8-12.4-18.9-18.9c-6.6-7-13-14.2-19.5-21.4c-0.3-0.4-0.7-0.7-0.9-1.2c-2.2-5.7-6.6-9.8-10.8-13.8
		c-4-3.8-6.2-8.8-8.9-13.3c-2-3.4-3.4-7.4-3-11.7C172.5,846.2,172.8,841.5,173.1,836.3z"/>
	<path style="fill:#FFFFFF;" d="M178.6,401.6c-2.6-3-2.6-6.4-2.2-10c0.5-5.1,0.6-10.2,0.8-15.4c2.5,0,4.7,0,6.9,0
		c6,0.1,12,0.1,17.9-1.8c3.2-1,6.6-1.3,9.8-2.2c5.3-1.6,10.6-3.3,15.8-5.4c4.7-1.9,9.3-4.2,13.8-6.6c3.2-1.7,6-4.1,9-6.1
		c0.7-0.5,1.5-0.9,2.9-0.8c-0.6,1-1,2.1-1.7,3c-2.9,3.6-6.2,6.9-8.9,10.6c-3.3,4.4-6.5,8.8-9.1,13.6c-2.6,4.7-5.1,9.4-8.6,13.6
		c-2.8,3.4-5,7.1-5.6,11.6c-0.1,0.9-0.5,1.9-1.1,2.6c-4.7,6.1-6.3,13.7-10.6,20c-1,1.4-1.3,3.3-2.2,4.7c-1.1,1.7-2.4,3.2-3.8,4.6
		c-1.9,1.9-3.6,3.6-2.5,6.6c0.2,0.7,0.4,1.6,0.2,2.3c-2.9,8.9-5.9,17.8-8.6,26.8c-1.5,5-2.6,10.1-3.8,15.2
		c-1.9,7.9-3.9,15.8-5.6,23.7c-1.6,7.8-2.9,15.7-4.4,23.5c-0.3,1.4-0.7,2.8-1.3,5.2c-0.6-1.5-1-2.1-1-2.7
		c-0.2-10.8-0.5-21.7-0.4-32.5c0.1-8.9,0.7-17.8,0.9-26.7c0.2-7,0.1-14-0.1-21c-0.1-5.4-0.4-10.8,0.8-16.2c0.6-2.7,0-5.7,0.1-8.6
		c0-6.5-0.2-13.1,0.2-19.6C176.2,409.6,175.8,405.3,178.6,401.6z"/>
	<path style="fill:#FFFFFF;" d="M275.1,240.3c-2.9-2.6-5.6-4.9-8-7.4c-5.8-5.9-11.6-11.8-17.3-17.8c-2.2-2.3-4-4.9-6.3-7.1
		c-2.3-2.2-5-3.8-7.3-6c-5.1-4.8-10-9.7-15.1-14.6c-5-4.7-10-9.4-15-14c-8.1-7.6-16.2-15.2-24.4-22.6c-2.4-2.2-5.3-4-8.2-6.2
		c1.7-1.9,3.6-2,5.7-1.7c8,1.1,16.1,2.2,24.1,3.5c5.3,0.9,10.6,2.1,15.9,3.2c0.5,0.1,1.1,0,1.4,0.2c5.6,4.7,13.8,4.3,19.1,10
		c2.2,2.4,5.9,3.6,9.1,5c4,1.8,7.8,3.7,10.1,7.7c0.1,0.1,0.2,0.3,0.3,0.4c9,7,14.2,17.1,20.1,26.4c2.8,4.5,5.4,9.5,6.7,14.9
		c0.5,2.2,1.4,4.4,2.4,6.4c1.7,3.7,1.3,7-1.6,9.7C283.1,233.5,279.3,236.7,275.1,240.3z"/>
	<path style="fill:#FFFFFF;" d="M266.9,970.9c0.5,0.1,1,0.1,1.4,0.2c2.6,1.1,5.2,2.3,8.4,3.7c-0.4,2.3-0.5,4.8-1.4,6.9
		c-3.2,7.5-6.1,15-10.7,21.9c-3.8,5.7-6.7,12-11.3,17.1c-6.5,7.1-12.2,15.2-20.8,20.3c-6.1,3.6-12.2,7.5-18.7,10.4
		c-9.8,4.3-20.3,6.5-31.1,7.1c-2.7,0.2-5.5-0.4-8.4-1.5c1.5-1.1,3-2.2,4.5-3.2c7.6-5.3,14-12.1,21.4-17.6c6-4.5,11.3-9.7,16.9-14.5
		c3.8-3.2,8.2-6,10.8-10.6c0.7-1.2,1.8-2.6,3-3c4.1-1.3,6-4.8,8.7-7.6c2.7-2.7,5.4-5.4,8-8.2c0.4-0.5,0.9-0.9,1.4-1.3
		c5.8-4.7,10.1-10.9,15.1-16.4C265.2,973.7,266,972.3,266.9,970.9z"/>
	<path style="fill:#FFFFFF;" d="M172.6,832.2c0.6-12.4,1.2-24.4,1.6-36.4c0.4-12,0.4-24,0.7-35.9c3.3-0.9,6.2-1.6,9.5-2.4
		c2,1.9,2.7,4.7,3.5,7.4c2.1,7,4.3,14,6.7,20.9c2.7,7.8,5.7,15.4,8.6,23.1c0.2,0.6,0.1,1.3,0.5,1.8c8.8,11.7,17.7,23.3,26.5,34.9
		c1.8,2.4,3.4,4.9,4.9,7.8C215.8,841.4,194.1,836.8,172.6,832.2z"/>
	<path style="fill:#FFFFFF;" d="M275.2,330.3c3.4-5.3,7.2-10.4,10.3-15.9c3.1-5.7,6-11.7,8-17.8c1.9-5.9,2.7-12.2,4.8-18.2
		c0,2.7-0.2,5.5,0,8.2c0.4,6,1,12.1,1.6,18.1c0.3,3.4-0.5,6-3.3,8.4c-6.4,5.3-12.4,10.9-18.7,16.4c-0.7,0.6-1.5,1-2.3,1.5
		C275.5,330.7,275.3,330.5,275.2,330.3z"/>
	<path style="fill:#FFFFFF;" d="M174.4,757c-0.7-18.4-1.3-36.1-2-53.8c2.9,7.9,4,16.2,5.6,24.4c1.6,8.4,5,16.5,4.6,25.5
		C179.9,754.4,177.4,755.6,174.4,757z"/>
	<path style="fill:#FFFFFF;" d="M291,232.2c3.7,6.1,5.4,21.2,2.6,26.2c-6-4.2-10.4-10.1-16.1-14.9
		C282.2,239.5,286.6,235.8,291,232.2z"/>
	<path style="fill:#FFFFFF;" d="M273.9,897.5c4.1,5,8.3,10,12.3,15.1c0.6,0.8,1,2.1,0.9,3.1c-0.5,5.8-1.2,11.7-2.2,17.5
		c-3.2-3.4-1.3-7.8-2.8-11.5c-1.7-4-2.7-8.2-4.2-12.2c-1.5-3.8-3.4-7.5-5.1-11.2C273.2,898,273.5,897.8,273.9,897.5z"/>
	<path style="fill:#FFFFFF;" d="M159.6,371c4.4-7,8.1-12.8,11.8-18.7c0.7,0.5,1.2,0.6,1.2,0.8c0.8,5.4,0.7,10.7-0.4,16.1
		c-0.5,2.6-1.9,3.6-4.3,3.3C165.5,372.2,163.1,371.7,159.6,371z"/>
	<path style="fill:#FFFFFF;" d="M155.1,835.7c4.8-0.9,9-1.2,13.4-0.5c0,6.3,0,12.1,0,18c-0.3,0.1-0.6,0.2-1,0.3
		C163.5,847.8,159.4,841.9,155.1,835.7z"/>
	<path style="fill:#FFFFFF;" d="M280.6,955.1c1.3,5.6,1.1,8.5-0.8,17c-3.3-0.3-3.3-0.3-8.9-6.1C273.9,962.4,276.6,958.4,280.6,955.1
		z"/>
	<path style="fill:#FFFFFF;" d="M1087,430.4c-0.7,3.4-1.1,6.8-2,10c-1,3.4-2.5,6.7-3.9,10c-0.2,0.5-0.9,0.7-2.4,1.9
		c0.7-3.5,0.5-6.4,1.8-8.4c1.7-2.9,3.2-5.7,3.9-9c0.3-1.5,0.1-4.1,2.8-4.4L1087,430.4z"/>
	<path style="fill:#FFFFFF;" d="M1063,403.4c0.9,0.8,1.8,1.6,2.6,2.3c-0.9,2.5-2.2,0.4-3.1,0.7c-1.1,0.4-2,1.3-3.1,2
		c-1.1-0.6-2.3-1.3-4-2.2c2.9-1,5.4-1.9,7.9-2.7L1063,403.4z"/>
	<path style="fill:#FFFFFF;" d="M1102.6,461.5c0.8,0.8,1.8,1.5,2.2,2.5c0.2,0.6-0.5,1.6-0.8,2.4c-0.8-0.4-2-0.6-2.2-1.2
		c-0.4-1-0.1-2.3-0.1-3.4C1102,461.6,1102.3,461.5,1102.6,461.5z"/>
	<path style="fill:#FFFFFF;" d="M1063.2,403.5c-0.7-1-1.4-2-2.1-3c0.2-0.3,0.4-0.5,0.5-0.8c1.3,0.4,2.6,0.9,4.8,1.6
		c-1.7,1-2.5,1.5-3.4,2C1063,403.4,1063.2,403.5,1063.2,403.5z"/>
	<path style="fill:#FFFFFF;" d="M963.5,336.2c1.3,0.4,2.7,0.7,4.9,1.3c-2.7,1.7-3.9,0.8-5.2-0.2
		C963.3,336.9,963.4,336.5,963.5,336.2z"/>
	<path style="fill:#FFFFFF;" d="M1087.1,430.5c-0.4-1.3-1.6-2.8,0.4-4c2.1,1.8,0.2,2.7-0.5,3.9
		C1087,430.4,1087.1,430.5,1087.1,430.5z"/>
	<path style="fill:#FFFFFF;" d="M753.1,1043.8c0.7,0.4,1.4,0.7,2.1,1.1c-0.1,0.3-0.3,0.6-0.4,0.9c-0.8-0.2-1.5-0.4-2.3-0.6
		C752.7,1044.7,752.9,1044.3,753.1,1043.8z"/>
	<path style="fill:#FFFFFF;" d="M1031.3,429.9c0.1-1.6,0.2-2.4,0.3-3.6C1033.3,427.3,1032.9,428.2,1031.3,429.9z"/>
	<path style="fill:#FFFFFF;" d="M371.5,469.9c-0.6,0.5-1.2,1.1-1.8,1.6c-0.2-0.2-0.4-0.3-0.5-0.5c0.6-0.6,1.1-1.2,1.7-1.9
		C371.1,469.4,371.3,469.6,371.5,469.9z"/>
	<path d="M165.8,579.8c-0.5,0.4-0.8,0.9-1.1,0.8c-0.3,0-0.7-0.5-1-0.7c0.3-0.3,0.5-0.8,0.8-0.8C164.8,579.1,165.2,579.5,165.8,579.8
		z"/>
	<path d="M261.6,606.4c0.5,0.6,0.9,1.1,1.7,2.1c-0.9,0.1-1.5,0.2-2.1,0.3C261.3,607.9,261.5,607.1,261.6,606.4
		C261.7,606.3,261.6,606.4,261.6,606.4z"/>
</g>
</svg>
