<svg version="1.1" id="democraticDonkey" xmlns="http://www.w3.org/2000/svg"  x="0px" y="0px" viewBox="0 0 2400 2346" style="enable-background:new 0 0 2400 2346;">
<style type="text/css">
.red{fill:#1505BC;}
.blue{fill:#DD0201;}
.stars-white{fill:#FFFFFF;}
</style>
<path class="red" d="M394,0c12.1,22.1,24.5,44.1,36.3,66.5c16.8,31.9,31.3,64.7,40.6,99.7c8.6,32.5,10.8,64.9,1,97.6c-3.3,10.9-4.5,22.2-4.1,33.6c0.7,22.8,10.8,40.1,30.4,51.8c13.4,8,28.1,12.6,43.3,14.3c65.9,7.4,125.2,32.6,181.2,66.9c41,25.1,79.1,54.3,115.9,85.1c19.4,16.3,38.4,33,57.6,49.5c2.8,2.4,5.3,5,7.3,8.1c38.7,59.1,93.8,94.2,161.5,110.8c37.8,9.2,76.2,12,115,11.1c71.7-1.7,141.5-15.4,210.5-33.9c85-22.9,167.2-53.7,248.3-87.7c23.6-9.9,46.6-21.5,71.1-29.2c53.7-16.8,108.7-22.5,164.8-18.8c49.9,3.3,98.2,13.7,144.3,33.4c106.3,45.7,174.4,125.1,206.6,235.7c14.3,49,19.2,99.2,19,150.1c-0.4,75.1-13,148.4-31,221.1c-1.5,6.2-4.8,6.6-9.9,6.6c-60.3-0.4-120.7-0.4-181-0.9c-157.7-1.4-315.3-1.1-473-1.4c-158.7-0.3-317.3,0.8-476,2.4c-107.6,1.1-215.3,3.3-322.9,6.2c-26,0.7-52,1.7-78,1.6c-17-0.1-34-1.2-50.8-4c-6.5-1.1-11.2-3.7-15.1-9.6c-8.6-13-18.5-25.3-27.8-37.8c-23.4-31.6-47-63-69.3-95.4c-13-19-27.6-36.8-44.2-52.9c-8.7-8.4-17.8-16.1-28.6-21.6c-19-9.7-34.9-7.1-50,7.9c-7.9,7.8-13.9,17-19.6,26.4c-22.3,36.4-51.5,65.2-91.5,82c-30,12.6-61.6,16.6-93.9,15.9c-29.1-0.6-57.7-5-86.1-11.2c-2.3-0.5-4.6-1.1-6.6-2.2c-21.8-11.8-42.5-25-59.6-43.3c-13-13.9-22.5-29.6-26.3-48.5c-0.6-2.9-0.8-6-3.7-7.8c0-9.3,0-18.7,0-28c3.1-12.2,4-24.8,6.4-37.2c4.8-25,17.6-46.6,27.3-69.6C61.5,777.1,81,708.8,88.9,637.4c2.2-20.1,2-40.3,1.1-60.7c-2.3-49.7,11-94.9,46.4-131.9c10.6-11.1,10.8-14,1.5-26.4c-15-20-32.2-38.2-46.9-58.5c-25.2-34.8-43.3-72.5-48.4-115.7c-4.2-35.6,1.7-69.7,14.1-102.9c12.5-33.4,30.7-63.5,52-91.9c11.7-15.6,14.3-15.6,28.1-1.3c25.5,26.4,40.2,58.4,48.9,93.6c6.3,25.5,12.1,51.2,24.4,74.9c13.4,25.8,34.1,43.9,58.8,58.2c7.8,4.5,7.9-0.7,8.6-6.2c5.5-46,12.7-91.7,26.2-136.2c11.5-38.2,26.5-74.8,53.3-105.3C366.8,15.8,377.3,5.2,392,0C392.7,0,393.3,0,394,0z"/>
<path class="blue" d="M1952,2346c-7.9-2.6-16.2-3.2-24.4-4c-25.6-2.6-51-5.7-73.4-19.9c-7.6-4.8-15.2-9.6-21.3-16.3c-11.3-12.3-13.8-26.2-6.7-41.5c3.5-7.7,8.5-14.3,14.1-20.5c9.7-10.6,20.5-19.9,32.5-27.9c21.7-14.3,42.4-30,61-48.4c4-4,7.9-8.2,11.8-12.2c13.7-14.3,21.8-30.5,24.4-50.9c7.6-60.8,17.2-121.4,21.6-182.5c5.1-72.4,3.5-144.5-11.3-215.9c-10-48.1-25.3-94.6-47.8-138.3c-11.1-21.6-25.6-41.3-42.7-58.8c-3.7-3.8-7.9-10.3-13.8-7.1c-5.2,2.8-2.7,9.8-1.9,14.8c3.9,22.4,11.2,43.8,20,64.7c7.4,17.6,13.2,35.5,14.6,54.7c2.1,27.8-5.4,52.7-21.5,75.2c-13.9,19.5-31.7,35-51,49c-20.7,15.1-42.6,28.5-61.8,45.7c-11.7,10.5-22.6,21.6-30.9,35.1c-9.2,15-12,30.9-7.9,47.9c7.2,29.4,5.1,58.9,0.3,88.3c-2.2,13.4-8,25.3-17.2,35.5c-8,8.9-16,17.8-25,25.8c-39.9,35.8-69,79.1-89.6,128.4c-9.5,22.7-17.6,46.1-30,67.5c-0.8,1.4-1.7,2.9-2.5,4.3c-7,12.9-17.3,19.4-32.3,21.6c-32.3,4.7-64.4,4.3-96.7,1.1c-16.2-1.6-32.5-3.3-48.7-5.2c-13.6-1.6-26.7-5.4-38.8-12.1c-18.7-10.4-25.1-25.3-19.9-46.2c4.3-17.4,13-32.7,22.3-47.8c30.8-49.7,67.2-95.3,104.5-140c26.5-31.7,53.5-63,77.2-97c17-24.4,32-49.9,42.7-77.7c17.7-46.4,20.4-94.1,11.3-142.6c-11.2-59.2-34.5-113.9-63.7-166.2c-8.5-15.2-19-28.9-31.4-41.2c-25.1-24.9-55.1-33.3-89.7-28.3c-24.5,3.6-47.8,11.8-71.6,17.7c-43.7,10.9-87.8,18.9-133,20.1c-16.4,0.4-32.6-0.8-48.9-2c-34.2-2.5-67.9,0.1-100.1,13.1c-40.8,16.5-64.4,47.9-76.6,89.1c-6.7,22.7-9.4,46.3-13.9,69.5c-8.1,41.9-13.5,84.2-15.3,126.9c-2.1,50.6,1.1,100.6,17.5,149c19.1,56,54.7,97.6,108.6,122.9c7.2,3.4,7.2,3.5,4.9,10.9c-11.5,36.1-32.8,65.9-59.7,92.1c-15.8,15.4-33.1,29-50.1,42.9c-7.5,6.1-14.9,12.3-21.6,19.3c-4.6,4.9-8.2,10.3-10.3,16.8c-5.2,15.9-23.7,22.1-37.3,12.6c-3-2.1-5.6-4.7-8.2-7.2c-6.3-6-12.7-11.8-20.3-16.1c-15.3-8.8-25.1-4.7-29.8,12.5c-3.1,11.4-3.5,23.1-3.2,34.7c0.3,10.3-2.6,19.7-6.7,28.9c-1.8,4-4.3,7.6-7.6,10.4c-3.7,3.1-7.5,4.4-12.8,3.2c-20.8-4.7-41.8-8-63.2-9c-8.7-0.4-17.3,0-25.9,1c-42.1,4.8-83.8,0.9-125.2-6.9c-10.1-1.9-20.1-4.7-30.3-6.4c-5.6-0.9-8-4.1-8.9-9.1c-1.4-7-1-13.9,0.6-20.8c3.7-16.1,11.1-30.6,19.3-44.8c13.1-22.5,28.6-43.4,44.7-63.8c15.4-19.6,31.5-38.8,44.7-60.1c10.4-16.9,18.1-34.7,21.2-54.5c1.3-8.2-0.8-15.9-1.7-23.8c-4-34.3,1.4-66.7,20.4-95.7c8-12.2,11.9-25,14.2-38.8c6.5-39.7,7.3-79.6,5.2-119.6c-4.8-91.4-21.3-181.1-39.9-270.5c-18.3-87.7-40.1-174.5-61.8-261.4c-0.6-2.6-1.8-5-1-8.6c3.4-1.5,7.4-0.7,11.2-0.7c194.7,0.3,389.3,0.7,584,1.1c321.3,0.6,642.6,1.2,964,1.7c1,0,2,0,3,0c9,0.1,9.2,0,10.7,8.6c14.7,80.9,56,146.6,115,202.2c19.2,18.1,40.1,34.1,58.5,53c8.7,8.9,16.2,18.5,22.4,29.3c3.2,5.5,3.6,11.9,6.9,17.2c0,17.3,0,34.7,0,52c-0.3,27.7-10.3,52.5-23.2,76.4c-1.9,3.5-3.8,7-6,10.4c-6.1,9.5-8.4,9.9-15.3,1.3c-20.9-26.3-38.4-54.5-46.6-87.5c-2.3-9.3-6.1-16.7-14.8-21.3c-3.2-1.7-6-4.2-8.4-7c-7-7.8-7.6-13.9-1.3-22.2c3.8-4.9,6-10.3,7.5-16.2c3.7-14.8-0.5-24-14.7-29.4c-7.4-2.8-10.8-7.9-13.3-14.9c-14.2-38.9-41.3-66.9-75.6-88.9c-6.1-3.9-9-1.6-10.9,4.4c-6.1,18.8-10.2,38.1-10.6,57.8c-1.2,56.3,9.4,110.7,29.8,163c14.6,37.4,27.4,75.1,32.9,114.9c5.3,38.3,1.7,75.6-9.6,112.4c-2.1,6.8-5.6,12.7-10,18.3c-22.6,28.9-28.3,62.7-27,98c0.5,12.3,5.9,23.8,8.7,35.8c16.2,69.7,4,134.9-30.3,196.6c-8.8,15.7-15.1,32.6-23.8,48.4c-17.8,32.3-39.8,60.6-72.5,79.3c-21,11.9-43.3,18.5-67.5,19.1c-1.9,0.1-4-0.5-5.7,1C1978.7,2346,1965.3,2346,1952,2346z"/>
<path class="stars-white" d="M956.4,897.9c-20.4,32.3-45.8,55.3-80.2,67.5c-8.5,3-8.4,3-8.4,11.6c0,36.3,12.2,68.4,32.8,97.8c1.9,2.7,4.3,5,5.5,8.8c-2.6,1.4-5,0.3-7.3-0.5c-32.8-9.9-60.8-26.9-80.8-55.3c-3.5-5-6.7-3.9-11-2.5c-30.5,10.1-56,27.6-76.3,52.4c-4.8,5.9-9.5,11.9-14.2,17.8c-3.1-1.8-2-4.4-2.1-6.5c-0.8-34.5,6.7-66.8,27.6-95c2.9-3.9,2.7-6.5-0.1-10.3c-18.4-25-41.6-43.9-70.4-55.7c-6.8-2.8-13.7-5.2-20.5-7.8c-1.8-0.7-4.1-0.5-4.9-3.6c31.7-12.4,64-16.8,97.4-7.6c2.6,0.7,5.2,1.3,7.6,2.4c4.2,1.8,6.6,0.2,9.1-3.3c13.1-18.4,22.7-38.3,27.8-60.4c3.8-16.6,4.4-33.5,4.4-50.4c3.6-1.4,4.3,1.6,5.5,3.2c21.1,27.4,34.2,57.7,34,92.9c0,5.2,1.7,7.4,6.7,9c35.5,11.5,70.8,10.1,106-0.9C947.8,900.6,951,899.6,956.4,897.9z"/>
<path class="stars-white" d="M1041.3,917.6c36.5-14.1,71.2-18.2,106.7-6.2c5.4,1.8,7.7-0.4,10.5-4.2c19.3-27,29.6-57.1,31.2-90.2c0.3-6.6,0-13.2,0-20.7c3.9,1.3,5.1,3.6,6.6,5.6c20.8,27.2,33.2,57.5,33.2,92.2c0,5.7,2.5,7.2,7.2,8.7c30.6,9.7,61.5,10.5,92.5,2.4c7.6-2,15.2-4.2,24.4-6.8c-17.5,27.6-38.6,48.6-66.9,61.8c-4.8,2.2-9.7,4.5-14.8,5.8c-5.2,1.3-6.7,3.8-6.7,9.1c0.1,27.9,6.2,54.1,19.8,78.5c4.5,8.1,9.9,15.8,14.8,23.7c1.3,2.1,3.8,3.7,3.6,6.7c-2,1.1-4,0.3-5.9-0.3c-32.7-9.8-60.8-26.6-81.5-54.5c-4.5-6.1-4.6-6-12.3-3.4c-29.8,9.9-54.8,27-74.8,51.2c-5.1,6.1-9.9,12.5-14.9,18.7c-3.4-1.3-2-4.1-2.1-6c-1.2-35,6.6-67.4,27.8-95.8c3.4-4.6,1.3-7-1.1-10.3c-19.4-26.5-44.4-45.7-75.2-57.3C1056.9,923.4,1050.1,920.9,1041.3,917.6z"/>
<path class="stars-white" d="M1937.6,988.8c-12.3-17.9-26.6-32.7-43.8-44.6c-17-11.8-36.2-19-57.8-26.5c26.1-10.1,50.5-15.3,76.1-12.9c10.3,1,20.5,2.6,30.2,6.3c5,1.9,7.7,0.7,10.7-3.5c18.8-26.5,29.6-55.6,31.2-88.2c0.4-7.6,0.7-15.1,1.1-23c3.9,1.5,5.2,4.3,6.9,6.7c20.1,26.8,32.4,56.5,31.9,90.5c-0.1,5.6,2.3,7.3,7,8.8c31,9.8,62.1,10.6,93.5,2.5c6.9-1.8,13.7-4.6,20.8-5.3c1.2,3.4-1,4.9-2.2,6.7c-19.3,27.9-43.9,49-76.6,59.5c-5.7,1.8-6.8,4.7-6.7,10c0.4,32.1,9.1,61.7,26.4,88.7c4.1,6.4,8.5,12.7,12.7,18.9c-1.6,1.9-3.3,0.9-4.6,0.5c-33.6-9.5-62.3-26.5-83.4-54.9c-4.5-6.1-4.6-6-12.2-3.5c-34.8,11.3-62,32.9-83.6,62c-1.8,2.4-3.6,4.8-5.5,7.1c-0.2,0.2-0.6,0.2-0.9,0.3C1902.8,1075.9,1909.5,1023.9,1937.6,988.8z"/>
<path class="stars-white" d="M1438.9,917.6c35-13.7,68.6-17.8,103.1-7.5c9.9,2.9,9.8,2.8,15.8-5.7c20.6-29.4,29.2-62.4,29.8-97.8c0.1-3.2,0-6.4,0-9.5c3.1-0.1,3.7,1.6,4.7,2.8c21.4,27.2,34.4,57.6,34.6,92.7c0,6.2,2.1,8.5,7.8,10.3c35.2,11.1,70.2,9.6,105.1-1.3c3.1-1,6.1-1.9,10-3.2c-0.6,2-0.7,2.9-1.2,3.7c-19.2,29.7-44.5,52-78.4,63.6c-9.4,3.2-7.9,2.9-7.8,11c0.5,36.5,12.2,69.2,33.5,98.6c1.9,2.7,3.8,5.4,5.6,8c-2,2.5-4,1-5.6,0.5c-33.2-9.6-61.6-26.5-82.5-54.7c-4.5-6.1-4.6-6-12.3-3.4c-30.2,10-55.3,27.4-75.5,52c-4.8,5.9-9.5,11.9-14.2,17.9c-3.1-1.5-1.9-4.2-1.9-6.3c-1.3-34.7,6.5-66.8,27.2-95.1c2.9-4,2.7-6.5-0.1-10.3c-19.4-26.5-44.3-45.8-74.9-57.6C1454.8,923.5,1447.8,920.9,1438.9,917.6z"/>
</svg>