<svg version="1.1" id="democraticSeal" xmlns="http://www.w3.org/2000/svg" x="0px" y="0px" viewBox="0 0 500 432">
<style>
.letter {
stroke: white;
stroke-width: 64;

-webkit-animation: letterColor 2.5s;  
animation: letterColor 2.5s;
animation-delay: 1.8s;
-webkit-animation-delay: 1.8s; 
animation-fill-mode: forwards;
-webkit-animation-fill-mode: forwards; 
}

@-webkit-keyframes letterColor{
to {stroke-width: 64;}
}

@keyframes letterColor {
to {stroke-width: 0;}
}


.gold-detail {

-webkit-animation: detailColor 2.5s;  
animation: detailColor 2.5s;
animation-delay: 1.8s;
-webkit-animation-delay: 1.8s; 
animation-fill-mode: forwards;
-webkit-animation-fill-mode: forwards; 
}

@-webkit-keyframes detailColor{
to {fill: #c5a057}
}

@keyframes detailColor {
to {fill: #c5a057}
}
</style>
	<path class="letter" style="fill: #70a4ff;" d="M389,0c35.7,0,71.3,0,107,0c0.1,0.5,0.4,1,0.4,1.4c0.4,21,0.8,41.9,1.1,62.9c0.2,14,0.4,27.9,0.5,41.9
		c0.1,9.8,0,19.6,0,29.3c-0.4,0.2-0.8,0.4-1.1,0.6c-0.7-1.2-2.1-2.4-2.1-3.7c-0.6-17.5-1.2-35.1-1.5-52.6c-0.2-11.1-0.1-22.2,0-33.3
		c0.1-7,0.5-14.1,0.6-21.1c0.1-6.7,0-13.4,0-20.2c-0.4-0.3-0.9-0.5-1.3-0.8c-16.2,17.4-32.4,34.9-48.2,51.8
		c10.4,15.5,24.5,31.6,32.9,50.4c8.2,18.2,17,37.2,17.1,58.4c0.7-5.9,0.6-11.6,0.8-17.4c0-1.4,0.9-2.7,1.4-4.1
		c0.6,0.2,1.2,0.3,1.7,0.5c0,7.6,0,15.1,0,22.7c0.1,12.1,0.3,24.3,0.3,36.4c0.2,31.3,0.3,62.5,0.5,93.8c0.1,6.6,0.6,13.2,1,19.8
		c0,37.3,0,74.7,0,112c-1.7,0.4-3.5,1.1-5.2,1.1c-33.3-0.1-66.5-0.4-99.8-0.5c-19.9-0.1-39.8,0.2-59.6,0.3c-9.4,0-18.8,0.1-28.3,0.1
		c-24,0.2-47.9,0.4-71.9,0.5c-29.8,0.2-59.6,0.3-89.3,0.5c-8.6,0.1-17.2,0.6-25.8,1c-24.7,0-49.3,0-74,0
		c-10.1-2.6-19.9-5.5-28.1-12.9c-10.8-9.7-16.4-21.6-16.7-35.8C1,372.5,2.4,362,7.8,352.1c4.3-8,8.8-15.2,17.4-19
		c6.8-3,13.6-5.9,20.4-8.8c-9.3-14.3-18-29.6-22.3-46.9c-4.3-17.3-8.3-34.7-6.9-52.7c1.2-14.9,2.6-29.8,4.7-44.6
		c2.3-15.8,6.7-31.1,13.7-45.5c3.5-7.2,7-14.3,10-20.2c-8.2-4.6-16.9-8.6-24.5-14.1c-4.9-3.5-9.2-8.7-12.1-14
		C4.4,79.6,2.6,72.1,0,65c0-4,0-8,0-12c0.3-0.4,0.7-0.8,0.7-1.2c0.7-11.7,6.1-21.6,13.8-29.6C24.1,12.3,36,5,50.1,4
		c17.7-1.2,35.5-1.1,53.2-1.3c10.5-0.2,20.9,0.1,31.4,0.1c46.9,0,93.9,0.2,140.8-0.1c36.3-0.3,72.5-1.2,108.8-1.9
		C385.8,0.8,387.4,0.3,389,0z M101.1,384.2c-2.8-1.7-6.2-2.9-8.3-5.2c-9.7-10.1-19-20.4-28.5-30.7c-1.3-1.5-2.5-3.1-4.5-5.6
		c0,2.5,0,3.4,0,4.4c0.2,10.2,0.6,20.5,0.5,30.7c-0.2,15.6-0.8,31.3-1.1,46.9c0,1.1,1.2,2.2,1.8,3.2c3.3,0.2,6.8,1.2,9.9,0.6
		c18.8-4,29-17.4,36-34.1c1.7-3.9,0.6-5.9-2.8-5.3c-8.6,9-17.7,17.5-27,25.8c-4.8,4.2-10,8-15.1,12c7.3-7.4,14.7-14.8,22-22.2
		c5.1-5.2,10.2-10.4,15.1-15.8c1.1-1.2,1.2-3.2,1.8-4.8c3.9,0.2,7.6-4.1,7.9-8.5c0.7-9.1-3.8-16.4-7.9-23.7
		c-9.1-16.3-24.6-22-41.8-24.9c-2.2,6.4-0.8,11.7,3.1,16.2c6.3,7.3,12.8,14.4,19.4,21.4C88,371.2,94.6,377.6,101.1,384.2z
		 M109.3,357.5c-0.9-0.8-1.9-1.5-3.6-3c2,5.5,3.6,10,5.2,14.5c0.4,0,0.8-0.1,1.2-0.1c-0.4-3.4-0.8-6.7-1.2-10.1
		c0.6-1.9,1.8-3.8,1.8-5.7c0.3-24.9,0.5-49.9,0.7-74.8c0-1.5-0.2-3.1-0.4-4.6c-16,5.4-31.5,10.6-47,15.9c5.3,16.8,14.6,33,26.1,46.4
		C98.1,343,103.6,350.3,109.3,357.5z M108.2,87.9c-15.1,13.5-25,30.5-33.2,48.6c-10.3,22.9-16.1,47.1-17.5,72.3
		c-0.4,7.5-0.6,7.4,6.8,7.4c15.1,0,30.2,0.2,45.3,0.3c1.4,0,2.8-0.2,3.8-0.3c0-10,0-19.4,0-28.9c0-4.6,0.3-9.2,0.2-13.8
		c-0.1-6.5-0.6-12.9-0.6-19.4c-0.1-21.6,0-43.3-0.1-64.9c0-1.5-1.1-3-1.7-4.4c2.5-4,2.5-8.7,0.6-13.5c-2.8,6.3-5.9,13.3-9,20.2
		C104.5,90.3,106.3,89.1,108.2,87.9z M167.4,113.5c-0.5,2.4-0.8,3.2-0.9,3.9c-0.4,11.2-0.9,22.3-1,33.5c-0.3,18.3-0.2,36.6-0.5,54.9
		c-0.2,9.7-0.4,9.7,9.3,9.7c7.7,0,15.3,0,23-0.1c7.8-0.1,15.7-1,23.4,0c7.2,0.9,14.4-4.8,21.4,0.3c0.2,0.1,0.6-0.1,1-0.1
		c9,0.1,17.9,0.4,26.9,0.3c1.8,0,4-0.5,5.3-1.6c5.9-5.4,10.1-12.5,16.9-17.2c2.6-1.9,4.2-5.1,6.6-7.5c19.7-19.5,39.6-38.9,59.3-58.4
		c2.7-2.6,4.8-5.9,7.6-8.4c12.1-11.1,24.4-22.1,36.5-33.2c0.8-0.7,1-3.4,0.3-4.1c-9.4-9.6-18.2-20.1-28.8-28.1
		c-16-12-33-22.8-52.9-27.9c-9-2.3-17.7-6.3-26.8-7.5c-15.1-1.9-30.5-2.6-45.7-3c-19.1-0.5-38.2-0.2-57.4-0.3c-8.2,0-16.5,0-24,0
		c0,15.8,0,30.6,0,45.4c0.1,15,0.3,29.9,0.2,44.9c0,3,1.1,4.4,3.1,6.1c8.7,7.3,17.4,14.5,25.6,22.2c16.9,16,33.5,32.3,50.2,48.5
		c6.2,6,12,12.4,18.1,18.5c3.2,3.3,6.5,6.5,9.7,9.7c-0.4,0.5-0.9,1-1.3,1.5c-3.7-2.9-7.5-5.7-11-8.8c-7.6-6.8-15.3-13.6-22.6-20.6
		c-4.2-4-7.5-8.9-11.6-12.9c-13.2-13-26.7-25.8-39.9-38.8C180.8,128,174.6,121.1,167.4,113.5z M275.6,219.3c-1.4,1.3-2.8,2.4-4,3.7
		c-13.6,13.6-27.1,27.3-40.9,40.8c-19.7,19.3-39.6,38.5-59.4,57.7c-4.2,4.1-7.2,8.4-6.2,14.9c0.5,3.4-0.4,7-0.4,10.5
		c-0.1,4.4,0,8.9,0,13.3c10.1-22.6,28.1-30.2,46.8-29.5c17.2,0.6,31.6,9.5,36.6,24.9c9,27.4-1.7,48-29.3,59.6
		c23.8-1.3,47.4-2.9,70.7-5.9c15-1.9,29.7-5.8,43.2-13.1c10.2-5.5,20.2-11.4,29.9-17.7c15.6-10.2,29.6-22.3,40.7-36.8c-13.5-12.5-26.9-24.9-40.1-37.4c-9.5-9-18.9-18.2-28.4-27.3c-5.6-5.4-11.1-10.8-16.7-16.2C304,247.2,290.1,233.5,275.6,219.3z M279.1,218c42.1,40.2,84.3,80.6,126.7,121.2c27.6-35.5,39.3-76.2,43.1-119.4C391.2,219.2,334.8,218.6,279.1,218z M406.3,88.9c-3.7,4.3-6.7,8.2-10.1,11.5c-22.1,21.5-44.4,42.9-66.6,64.4c-10.8,10.4-21.6,20.7-32.3,31.2c-2.4,2.4-6.6,3.8-5.6,8.6c0.1,0.4-1.4,1.2-2.2,1.7c-3.2,1.8-6.4,3.5-9.7,5.3c0.1,0.2,0.3,0.3,0.4,0.5c53.5-18.1,107-36.2,160.9-54.4C434.9,132.4,420.6,110.8,406.3,88.9z M56.1,324.4c-0.9-69.8-1.7-139.9-2.6-210.3c-4.1-2-6.4-0.4-8.5,4.3c-9.9,21.9-18.9,44-21.4,68.1c-1.6,16.3-3.4,32.8-3.4,49.2c0.2,29.3,9.6,56.1,24,81.4C46.8,321.5,49.4,325.8,56.1,324.4z M202,413c11.8,0.7,21.1-1.2,27.9-6.5c18.6-14.5,21.4-37.3,9.4-56.7c-7.9-12.8-21.2-15.5-34.4-15.8c-19.2-0.4-40.3,16.5-39.1,41C166.8,397.2,180.1,411.7,202,413z M442.1,161.3c-55.1,18.2-109.5,36.2-164,54.2c21,0.4,41.8-0.2,62.5-0.4c18.1-0.2,36.2-0.1,54.3,0c16,0.1,31.9,0.3,47.9,1c4.6,0.2,5.9-2.2,5.8-5.3c-0.3-9.4-0.6-18.8-1.8-28.1C445.8,175.4,443.6,168.3,442.1,161.3z M495.9,426.2c0-63.5,0-125.8,0-188.2c-1.1,2.2-1.6,4.4-1.9,6.6c-1.5,9.7-2.2,19.6-4.6,29.1c-8.5,34.3-27.7,62.7-50.9,88.8c-1.5,1.7-2.7,3.8-4,5.8C455.9,387,473.7,408.8,495.9,426.2z M57.1,428.9c0.1-0.7,0.3-1,0.3-1.3c0.2-24.2-0.1-48.4,0.6-72.5c0.3-9.9-2.2-18.3-8.2-25.8c-0.9-1.1-3.1-1.8-4.6-1.6c-11.7,1.8-21.8,7.5-28.6,16.7c-12.8,17.5-16.1,37.2-7.2,57.5C17.9,420.9,36.1,429.7,57.1,428.9z M318.3,426.5c58.6,0,116.4,0,173.6,0c-19.7-18.6-39.6-37.5-60.2-56.9C399.8,398.6,362.4,418.6,318.3,426.5z M53.2,44.5c-0.3,0-0.7,0-1,0c0-10.2,0-20.3,0-30.5c0-6.3-1.5-7.6-7.8-6.1c-7.7,1.8-14.8,5-20.8,10.3c-14.7,13-23.3,28.8-19.4,49c4.3,22,18.6,35.4,39.2,42.7c1.3,0.5,4,0.3,4.4-0.5c2.1-3.9,5.1-8,5.2-12.1C53.5,79.7,53.2,62.1,53.2,44.5z M165.2,324.8c33.5-38.4,70.7-71.3,106.9-106c-1.3,0.1-2.3,0.1-3.1,0.4c-18.5,6.2-37.1,12.5-55.6,18.8c-14.5,4.9-28.9,9.9-43.5,14.5c-3.7,1.2-5.4,2.3-5.1,6.7c0.6,8.9,0.3,17.9,0.3,26.9C165.2,298.5,165.2,311,165.2,324.8z M58,218.1c0,3.6,0,6.4,0,9.2c0.2,18.5,0.1,37,5.5,54.9c1.1,3.7,2.1,4.8,6.1,3.4c13.3-4.8,26.8-9,40.1-13.7c1.2-0.4,2.5-2.1,2.6-3.4c0.3-3.2-0.1-6.6,0-9.8c0.4-12.1,0.9-24.1,1.5-36.2c0.1-2.7-0.8-3.7-3.7-3.7c-12.5,0.2-24.9,0.3-37.4,0.2C68,218.9,63.2,218.4,58,218.1z M438.3,52.9c18.2-17,35.9-33.5,53.6-50c-49.8,0-99.1,0-148.7,0c17.5,6.2,34.8,11.5,51.3,18.6C411.3,28.7,425.3,40.4,438.3,52.9z M98,50.8C84,37.5,69.3,23.6,54.2,9.3c0.7,30.1,1.4,59.1,2.1,87.9c6.8-8,13.2-16,20.1-23.6C83.4,65.8,90.8,58.4,98,50.8z M164.8,216.9c0,12.2,0,23.5,0,35.5c33-15.7,68.5-21.5,102.1-34.6c-9.5,0-18.2,0-27,0c-0.7,0-1.7,0.5-2,1.1c-1.5,3.1-3.5,1.5-5.4,0.7c-1.6-0.6-3.2-1.5-4.8-1.5c-16.4-0.2-32.8-0.1-49.1-0.3C174.3,217.9,170,217.3,164.8,216.9z M57.5,113c7.4-2.1,14.6-3.4,21.2-6.1c7.7-3.2,14.2-8.1,19-15.4c4.1-6.3,8.5-12.2,10.9-19.5c2.1-6.4,1.8-11.2-4.2-15.5C101,54,99,54,96.5,56.7C84.9,69.3,73.4,81.9,61.6,94.4C57,99.4,56,105,57.5,113z M91.1,103.1c-10.4,7-21.8,10.3-34.3,11.1c0,25,0,49.7,0,74.4c0.4,0.1,0.9,0.2,1.3,0.2C61.9,157.5,72,128.7,91.1,103.1z M53,5.7c16.8,15.5,32.5,29.9,48.1,44.4c7.6-6.1,7.9-6.2,4-14.6c-4.5-9.4-10.6-17.1-20.3-22.3C75,8,64.9,6.8,53,5.7z M58.8,324.3c9.3,2.8,18.5,5.6,28,8.4c-0.5-0.7-0.8-1.5-1.4-2.1c-10-10.9-16.8-23.4-20.6-37.7c-0.3-1.1-2.2-1.7-3.3-2.6c-0.9,1.3-2.6,2.6-2.6,3.9C58.7,304.3,58.8,314.2,58.8,324.3z M58.5,289.2c0.4,0.3,0.8,0.5,1.3,0.8c0.9-1.1,2.7-2.4,2.5-3.4c-1.1-6.5-2.6-13-4-19.5c-0.3,0.1-0.6,0.1-0.9,0.2C57.7,274.6,58.1,281.9,58.5,289.2z M101.9,51.6c2.8,2.5,5.1,4.5,7.5,6.6c0.4-0.2,0.9-0.4,1.3-0.7c-0.5-3.6-0.9-7.1-1.6-11.9C106.2,48.1,104.3,49.6,101.9,51.6z M55.7,334.2c0.3-0.1,0.6-0.3,0.9-0.4c0-2.5,0-5,0-7.8c-2,0.1-3.7,0.2-6.3,0.3C52.4,329.4,54,331.8,55.7,334.2z M54,102.7c-1.9,3.3-3.5,5.9-5.3,8.9C55.1,112.5,56.1,110.9,54,102.7z M109.4,389.7c0-3.7,0-6,0-9.5c-2.1,2.5-3.3,3.9-4.8,5.7C106.1,387,107.2,387.9,109.4,389.7z"/>
	
	<path class="gold-detail" style="fill:#8f7c57;" d="M495.9,426.2c-22.2-17.5-40-39.2-61.5-58c1.4-2,2.5-4,4-5.8c23.1-26.1,42.3-54.4,50.9-88.8c2.4-9.5,3.1-19.4,4.6-29.1c0.3-2.2,0.8-4.5,1.9-6.6C495.9,300.4,495.9,362.8,495.9,426.2z"/>
	<path class="gold-detail" style="fill:#8f7c57;" d="M318.3,426.5c44-7.9,81.4-28,113.4-56.9c20.6,19.5,40.6,38.3,60.2,56.9C434.8,426.5,376.9,426.5,318.3,426.5z"/>
	<path class="gold-detail" style="fill:#8f7c57;" d="M438.3,52.9c-13-12.5-27-24.2-43.8-31.4C378,14.4,360.7,9.2,343.2,3c49.6,0,98.9,0,148.7,0C474.2,19.4,456.5,36,438.3,52.9z"/>

	<path style="fill:#14284b;" d="M167.4,113.5c7.2,7.5,13.4,14.4,19.9,20.9c13.2,13,26.7,25.8,39.9,38.8c4.1,4.1,7.4,8.9,11.6,12.9c7.3,7.1,15,13.9,22.6,20.6c3.5,3.1,7.3,5.9,11,8.8c0.4-0.5,0.9-1,1.3-1.5c-3.2-3.2-6.5-6.5-9.7-9.7c-6-6.2-11.9-12.5-18.1-18.5c-16.6-16.3-33.3-32.5-50.2-48.5c-8.2-7.8-17-14.9-25.6-22.2c-2-1.7-3.2-3.1-3.1-6.1c0.2-14.9-0.1-29.9-0.2-44.9c-0.1-14.8,0-29.6,0-45.4c7.5,0,15.8,0,24,0c19.1,0,38.3-0.2,57.4,0.3c15.3,0.4,30.6,1.1,45.7,3c9.1,1.2,17.8,5.2,26.8,7.5c19.9,5,36.9,15.9,52.9,27.9c10.7,8,19.4,18.5,28.8,28.1c0.7,0.7,0.5,3.4-0.3,4.1c-12.1,11.2-24.4,22.1-36.5,33.2c-2.8,2.5-4.9,5.8-7.6,8.4c-19.7,19.5-39.6,38.9-59.3,58.4c-2.4,2.3-3.9,5.6-6.6,7.5c-6.7,4.8-10.9,11.8-16.9,17.2c-1.2,1.1-3.5,1.6-5.3,1.6c-9,0-17.9-0.2-26.9-0.3c-0.3,0-0.8,0.2-1,0.1c-7-5.1-14.2,0.6-21.4-0.3c-7.7-0.9-15.6,0-23.4,0c-7.7,0.1-15.3,0.1-23,0.1c-9.8,0-9.5,0-9.3-9.7c0.3-18.3,0.2-36.6,0.5-54.9c0.2-11.2,0.6-22.3,1-33.5C166.6,116.7,166.9,115.9,167.4,113.5z"/>
	<path style="fill:#14284b;" d="M275.6,219.3c14.5,14.2,28.5,27.9,42.4,41.6c5.5,5.4,11.1,10.8,16.7,16.2c9.4,9.1,18.8,18.3,28.4,27.3c13.3,12.5,26.6,24.9,40.1,37.4c-11,14.5-25.1,26.6-40.7,36.8c-9.7,6.3-19.7,12.2-29.9,17.7c-13.5,7.2-28.2,11.2-43.2,13.1c-23.3,3-46.9,4.6-70.7,5.9c27.6-11.5,38.3-32.2,29.3-59.6c-5-15.4-19.4-24.3-36.6-24.9c-18.7-0.7-36.8,6.9-46.8,29.5c0-4.4-0.1-8.9,0-13.3c0.1-3.5,1-7.1,0.4-10.5c-1-6.4,2-10.8,6.2-14.9c19.8-19.2,39.7-38.4,59.4-57.7c13.7-13.5,27.2-27.2,40.9-40.8C272.8,221.8,274.2,220.6,275.6,219.3z"/>
	<path style="fill:#14284b;" d="M279.1,218c55.7,0.6,112.1,1.2,169.8,1.8c-3.7,43.2-15.5,83.9-43.1,119.4C363.4,298.6,321.2,258.2,279.1,218z"/>
	<path style="fill:#14284b;" d="M406.3,88.9c14.3,21.9,28.6,43.5,34.8,68.7c-53.9,18.2-107.4,36.3-160.9,54.4c-0.1-0.2-0.3-0.3-0.4-0.5c3.2-1.8,6.5-3.5,9.7-5.3c0.8-0.5,2.3-1.3,2.2-1.7c-1.1-4.8,3.2-6.2,5.6-8.6c10.7-10.5,21.6-20.8,32.3-31.2c22.2-21.4,44.5-42.9,66.6-64.4C399.6,97,402.6,93.2,406.3,88.9z"/>
	<path style="fill:#14284b;" d="M56.1,324.4c-6.6,1.4-9.2-2.9-11.8-7.3c-14.4-25.3-23.9-52.1-24-81.4c-0.1-16.4,1.7-32.8,3.4-49.2c2.4-24.1,11.5-46.3,21.4-68.1c2.1-4.7,4.4-6.2,8.5-4.3C54.3,184.4,55.2,254.5,56.1,324.4z"/>
	<path style="fill:#14284b;" d="M111.2,84.8c0.6,1.5,1.7,3,1.7,4.4c0.1,21.6,0,43.3,0.1,64.9c0,6.5,0.5,12.9,0.6,19.4c0.1,4.6-0.2,9.2-0.2,13.8c0,9.4,0,18.9,0,28.9c-0.9,0.1-2.4,0.3-3.8,0.3c-15.1-0.1-30.2-0.3-45.3-0.3c-7.3,0-7.2,0.1-6.8-7.4c1.3-25.2,7.1-49.3,17.5-72.3c8.2-18.1,18.1-35.2,33.2-48.6C109.2,86.9,110.2,85.8,111.2,84.8z"/>
	<path style="fill:#14284b;" d="M442.1,161.3c1.6,7,3.7,14.1,4.7,21.4c1.2,9.3,1.6,18.7,1.8,28.1c0.1,3.2-1.2,5.5-5.8,5.3c-15.9-0.7-31.9-0.9-47.9-1c-18.1-0.2-36.2-0.2-54.3,0c-20.7,0.2-41.5,0.8-62.5,0.4C332.5,197.5,387,179.5,442.1,161.3z"/>
	<path style="fill:#14284b;" d="M165.2,324.8c0-13.8,0-26.3,0-38.7c0-9,0.2-18-0.3-26.9c-0.3-4.4,1.4-5.5,5.1-6.7c14.6-4.6,29-9.7,43.5-14.5c18.5-6.3,37-12.5,55.6-18.8c0.9-0.3,1.8-0.2,3.1-0.4C235.9,253.5,198.7,286.4,165.2,324.8z"/>
	<path style="fill:#14284b;" d="M58,218.1c5.2,0.3,10,0.8,14.7,0.9c12.5,0.1,24.9,0,37.4-0.2c3-0.1,3.9,0.9,3.7,3.7c-0.5,12.1-1.1,24.1-1.5,36.2c-0.1,3.3,0.3,6.6,0,9.8c-0.1,1.2-1.4,2.9-2.6,3.4c-13.3,4.7-26.8,8.9-40.1,13.7c-4,1.4-5,0.3-6.1-3.4c-5.4-18-5.3-36.5-5.5-54.9C58,224.5,58,221.7,58,218.1z"/>
	<path style="fill:#14284b;" d="M109.3,357.5c-5.7-7.1-11.2-14.4-17.1-21.4c-11.4-13.4-20.8-29.6-26.1-46.4c15.5-5.2,31-10.4,47-15.9c0.1,1.5,0.4,3,0.4,4.6c-0.2,24.9-0.4,49.9-0.7,74.8c0,1.9-1.2,3.8-1.8,5.7C110.4,358.4,109.8,357.9,109.3,357.5z"/>
	<path style="fill:#14284b;" d="M164.8,216.9c5.2,0.4,9.5,1,13.8,1c16.4,0.2,32.8,0.1,49.1,0.3c1.6,0,3.2,0.9,4.8,1.5c2,0.8,3.9,2.3,5.4-0.7c0.3-0.6,1.3-1.1,2-1.1c8.8-0.1,17.5,0,27,0c-33.6,13.1-69.1,18.9-102.1,34.6C164.8,240.4,164.8,229.1,164.8,216.9z"/>
	<path style="fill:#14284b;" d="M57.5,113c-1.6-8-0.6-13.6,4.1-18.6c11.7-12.5,23.3-25.2,34.9-37.7c2.5-2.7,4.5-2.7,7.9-0.2c6.1,4.4,6.4,9.2,4.2,15.5c-2.4,7.3-6.8,13.2-10.9,19.5c-4.8,7.4-11.3,12.3-19,15.4C72.2,109.6,65,110.9,57.5,113z"/>
	<path style="fill:#14284b;" d="M101.1,384.2c-6.5-6.6-13.1-13-19.4-19.8c-6.6-7-13.1-14.1-19.4-21.4c-3.9-4.5-5.3-9.9-3.1-16.2c17.1,2.9,32.7,8.6,41.8,24.9c4.1,7.3,8.6,14.6,7.9,23.7c-0.3,4.4-4,8.7-7.9,8.5C101,384,101.1,384.2,101.1,384.2z"/>
	<path style="fill:#14284b;" d="M91.1,103.1c-19.1,25.6-29.2,54.4-33,85.7c-0.4-0.1-0.9-0.2-1.3-0.2c0-24.7,0-49.4,0-74.4C69.3,113.4,80.7,110.1,91.1,103.1z"/>
	<path style="fill:#14284b;" d="M58.8,324.3c0-10-0.1-20,0.1-30c0-1.3,1.7-2.6,2.6-3.9c1.1,0.8,3,1.5,3.3,2.6c3.8,14.3,10.6,26.8,20.6,37.7c0.5,0.6,0.9,1.4,1.4,2.1C77.4,329.9,68.1,327.1,58.8,324.3z"/>
	<path style="fill:#14284b;" d="M111.2,84.8c-1,1-2,2.1-3,3.1c-1.8,1.2-3.7,2.4-5.4,3.6c3.1-6.9,6.2-13.9,9-20.2C113.7,76.1,113.6,80.8,111.2,84.8z"/>
	<path style="fill:#14284b;" d="M58.5,289.2c-0.4-7.3-0.8-14.6-1.2-21.9c0.3-0.1,0.6-0.1,0.9-0.2c1.4,6.5,2.9,12.9,4,19.5c0.2,1-1.6,2.3-2.5,3.4C59.3,289.7,58.9,289.4,58.5,289.2z"/>
	<path style="fill:#14284b;" d="M109.1,45.7c0.6,4.7,1.1,8.3,1.6,11.9c-0.4,0.2-0.9,0.4-1.3,0.7c-2.3-2.1-4.7-4.2-7.5-6.6"/>
	<path style="fill:#14284b;" d="M109.3,357.5c0.6,0.5,1.1,0.9,1.7,1.4c0.4,3.4,0.8,6.7,1.2,10.1c-0.4,0-0.8,0.1-1.2,0.1c-1.6-4.5-3.2-9-5.2-14.5C107.4,355.9,108.3,356.7,109.3,357.5z"/>
	<path style="fill:#14284b;" d="M55.7,334.2c-1.6-2.4-3.3-4.8-5.4-7.9c2.6-0.1,4.3-0.2,6.3-0.3c0,2.8,0,5.3,0,7.8C56.2,333.9,56,334.1,55.7,334.2z"/>
	<path style="fill:#14284b;" d="M54,102.7c2.1,8.2,1.2,9.8-5.3,8.9C50.4,108.6,52,105.9,54,102.7z"/>
	<path style="fill:#14284b;" d="M109.4,389.7c-2.3-1.8-3.4-2.7-4.8-3.8c1.5-1.8,2.7-3.2,4.8-5.7C109.4,383.7,109.4,385.9,109.4,389.7z"/>
</svg>