<?xml version="1.0" encoding="utf-8"?>
<!-- Generator: Adobe Illustrator 20.0.0, SVG Export Plug-In . SVG Version: 6.00 Build 0)  -->
<svg version="1.1" id="Layer_1" xmlns="http://www.w3.org/2000/svg" xmlns:xlink="http://www.w3.org/1999/xlink" x="0px" y="0px"
	 viewBox="0 0 1080 1008" style="enable-background:new 0 0 1080 1008;" xml:space="preserve">
<style type="text/css">
	.st0{fill:#FFFFFF;}
</style>
<g>
	<path class="st0" d="M1,1009C1,673.1,1,337.1,1,1.1c359.9,0,719.7,0,1079.8,0c0,335.9,0,671.9,0,1007.9C721,1009,361,1009,1,1009z
		 M121.2,106.6c-6.8-1.9-9.6-6.6-11.7-11.6c-2.4-5.5-4.3-11.1-6.7-16.6c-2.5-5.8-7-9.1-13.3-10.1c-6.1-0.9-10.4,2.3-10.1,8.5
		c0.2,4.4,1.3,8.8,2.5,13.1c2.4,8.4,5.7,16.7,7.7,25.2c1.2,5.2,1.1,10.8,0.9,16.2c-0.2,3.4-2.8,4.8-5.5,2c-2.4-2.6-4.4-5.8-6-9
		c-2.6-5.2-4.7-10.6-7.3-15.8c-1.3-2.7-3.7-4.4-7-3.2c-5.3,1.8-9.7,9.7-7.8,15c2.5,7,5.4,13.9,8.7,20.6c4.5,9.1,6.8,18.7,7.8,28.6
		c0.2,1.5-0.2,3-0.3,4.5c-0.4,0.1-0.9,0.3-1.3,0.4c-3.5-3.9-6.7-8.2-10.7-11.5c-4.5-3.8-5.9-7.6-4.5-13.4
		c2.1-8.9-3.1-17.6-10.2-19.2c-3.9-0.9-7.8-2.2-11.4-3.9c-4.4-2.1-7.4-1-8.7,3.7c-1.8,6.6,0.1,12.7,2.2,18.9
		c3.6,10.9,6.5,22.1,9.7,33.2c0.1,0.5,0,1,0.1,1.5c1.8,19.2,7.9,36.5,20.4,51.5c8.9,10.8,17.2,22.1,25.5,33.3
		c2.1,2.8,3.4,6.1,5.1,9.2c-0.4,0.4-0.7,0.8-1.1,1.2c-2.6-0.8-5.4-1.3-7.8-2.5c-9.7-4.7-19.3-9.6-29-14.4c-2.1-1-4.3-2-6.5-2.4
		c-5.3-1.1-12.2,3.2-14.3,8.7c-2.2,5.8-0.1,11.1,5.7,14.2c3.1,1.7,6.2,3.2,9.2,5c10.6,6.5,20.9,13.6,31.9,19.6
		c15.8,8.5,32.2,12.4,49.5,3.7c2.5-1.3,5.2-2.2,7.9-3.1c15.4-5.2,30.9-10.2,47.6-8.9c2.9,0.2,5.9-0.8,8.8-1.5
		c4.8-1.1,9.6-2.8,14.5-3.4c5.7-0.8,6.6,0.7,4.7,6.1c-1.9,5.1-5.6,10.1-5.8,15.3c-0.7,17.5-3.7,34.4-7.9,51.5
		c-2.6,10.4-4.9,20.4-10.4,29.7c-7,11.8-10.8,24.6-10,38.5c0.6,10.9-0.1,21.5-3.5,32c-2.6,8.2-0.2,13.6,6.5,16.1
		c6.5,2.4,10.3,6.6,12.4,13.1c2.1,6.5,3.7,6.5,10.4,6.6c5.5,0.1,11,1.4,16.4,2.7c3,0.7,5.7,2.7,8.6,3.9c5.6,2.3,10.9,1.9,16.3-1
		c9-4.9,18.1-9.7,27.2-14.3c6.5-3.3,9.7-8.5,9.2-15.7c-0.3-4.3-1.2-8.6-2.2-12.7c-2.1-8.1,0.2-14.6,7-19.2
		c5.1-3.5,10.5-6.4,15.9-9.3c8.7-4.8,15.1-11.3,17.9-21.1c0.6-2.2,1.9-4.2,3.4-7.3c3.7,6.7,2.9,12.1,0.8,17.4
		c-3.5,8.5-10,13.9-18.1,17.6c-5.5,2.5-6.2,4.4-4,9.8c4.1,10.3,8.6,20.5,12.4,31c1.8,5,4.4,6.6,9.7,6.6C535,491,747.6,491,960.3,491
		c9.2,0,9.2,0,11.7-9c0.3-1.1,0.6-2.2,1.1-3.3c3.9-10,3.9-20.2,1.2-30.4c-12.8-48.1-39.7-86.7-79.1-116.8
		c-22.6-17.3-48.8-22.2-76.3-19.2c-11.7,1.3-23,6.2-34.7,8.5c-19.7,3.8-39.5,7.2-59.3,10.1c-9.2,1.4-18.7,2.5-27.8,1.6
		c-30.6-3-60.1-11.5-88.3-23.2c-22.4-9.3-43.6-21.3-65.5-31.8c-15.8-7.6-32.1-14.1-49.8-14.7c-12.9-0.4-25.9,0.3-38.9,0.8
		c-6.9,0.2-13.7,1-20.6,1.5c-0.3-0.6-0.6-1.2-0.9-1.7c6.1-4.7,11.5-11,18.4-13.7c12.4-4.9,21.5-13.3,30.9-22.2
		c13.2-12.5,22.7-27.3,28.6-44.4c7.6-21.9,10.9-44.8,14.6-67.5c1.5-9,0.7-18.3-3.5-26.9c-2.9-5.9-7.6-6.4-10.7-0.6
		c-2,3.7-2.5,8.4-3.1,12.7c-0.4,2.6-0.2,5.1-3.5,5.6c-4.1,0.6-6.2,3.2-8,6.7c-1.6,3.1-4.3,6.3-8.3,4.6c-3.9-1.6-2.7-5.6-2.2-8.8
		c0.3-1.6,0.9-3.2,1.4-4.8c1.9-6.2,4.2-12.3,5.5-18.6c1-4.9,1.5-10.4,0.4-15.1c-0.7-3.1-4.3-6.3-7.4-7.6c-1.5-0.6-5.3,2.7-7.2,4.9
		c-2.2,2.5-3.3,5.9-4.9,8.9c-5.4-3.3-5.7-6.8-0.8-9.6c3.7-2.1,4.2-4.6,2.6-8.2c-2-4.7-5.6-6.4-10.4-5.8c-6.9,0.8-13.8,1.8-20.7,2.7
		c-5.7,0.7-9.7,3.3-10.5,9.4c-0.1,1-0.4,2-0.9,2.8c-0.7,1.2-1.7,2.2-2.6,3.3c-1-0.8-2-1.5-2.9-2.5c-2.1-2.4-3.8-5.2-6.2-7.1
		c-1.2-0.9-5-0.7-5.4,0.1c-3.3,6.5-6.8,13-8.7,19.9c-2.9,10.5-3.8,21.5-6.7,32c-3.8,13.5-4.1,26.4,1.1,39.5c2.3,5.8,3.8,12,5.3,18.1
		c1.1,4.6,1.4,9.5,2.5,14.2c2,8,0.9,15.6-2.9,22.6c-1.3,2.4-4.9,4.8-7.3,4.8c-2.4-0.1-5-3-7-5.2c-1.1-1.2-1.6-3.3-1.8-5.1
		c-0.7-5.6-1.1-11.2-1.7-16.8c-0.5-4.3-3.1-6.2-6.8-4.3c-2.4,1.3-4.7,4.1-5.7,6.7c-1,2.6-0.3,5.9-0.1,8.9
		c0.6,12.9,1.4,25.8,1.8,38.8c0.1,2.7-1.1,5.4-1.7,8c-4.1-1.6-7.7-2.9-11.8-4.5c6-8.4,7.6-17.7,5.3-27.5c-1.7-7.4-2.4-15.3-5.4-22.1
		c-2.9-6.3-4.4-11.9-2-18.5c1-2.8,1.6-6.3,0.9-9.2c-1.9-8.4-9.8-11.8-17.5-7.2c-11.8,7.1-21.2,16.5-26,29.8c-1.3,3.6-3,7-4.6,10.4
		c-4.2,9.3-10.5,17.6-11.9,28.1c-0.5,3.4-1.5,6.8-1.9,10.3c-0.4,3-1.5,4-4.6,3.2c-7.8-2-15.5-0.9-22.9,2.2c-2.9,1.2-6.1,1.6-9.1,2.5
		c-2.4,0.8-5,1.5-7.1,2.9c-2.7,1.9-5.2,2.1-6.9-0.6c-2.8-4.4-6-8.9-7.5-13.8c-4.6-15.5-12.9-28.7-22.5-41.3
		c-5.2-6.8-12.6-8.3-20.6-7c-6,1-8.1,4.8-7,10.8c0.5,3,0.5,6.2,0.2,9.2c-0.8,7.7-3.1,15.5-2.7,23.1c0.5,8.7-3.5,18.3,3.5,26.3
		c0.5,0.6-0.1,3.3-1,3.7c-0.9,0.5-3.3,0-3.8-0.9c-3-4.9-6.4-9.7-8.2-15c-2.4-7-3.6-14.4-4.9-21.7c-0.7-3.6-0.8-7.3-0.7-10.9
		c0.2-5.8,0.5-11.7,1.6-17.4c1.6-8.9,2.5-18.4,6.2-26.5c4.6-10.1,7.9-20.2,10.4-30.9c4.1-17.1,1.5-32.9-4.9-48.6
		c-0.9-2.1-2.1-4.2-3.6-5.9c-2.7-2.9-6.6-2.1-7.8,1.7c-0.7,2.2-0.7,4.6-1,6.9c-0.2,1.6-0.5,3.2-0.7,4.8c-0.4,0-0.9,0-1.3,0
		c-1.1-3.6-2.2-7.2-3.4-10.8c-1.7-4.6-4.8-7.6-9.9-6.1c-5.4,1.7-9.5,0.2-13.8-3c-3.7-2.8-5.6-2-6.8,2.5c-0.6,2.1-0.6,4.6-0.3,6.8
		c0.5,3.1,1.6,6.1,2.3,9.1c0.7,3.1,0.7,6.3-2.8,7.3c-0.6,0.2-2.8-3.6-3.6-5.8c-1.2-3.7-1.4-7.8-2.8-11.5c-1.3-3.3-4.7-4.8-7.9-3.4
		c-2.1,1-4.5,3.8-4.7,6c-0.5,5.7,0.1,11.6,0.3,17.4C120.8,101,121,103.4,121.2,106.6z M771.2,610.8c1.7,17.2,7.7,32.2,17.1,45.9
		c5.1,7.4,10.3,14.8,15.1,22.4c18.6,29.4,30.5,60.8,27.8,96.5c-1.8,23.1-3.3,46.2-4.1,69.3c-0.7,18.3-8,33.4-19.4,47
		c-9.4,11.2-19.1,22.2-28.6,33.4c-1.8,2.1-3.6,4.6-4.1,7.2c-0.5,2.2,0,5.7,1.5,7c1.4,1.2,4.9,0.8,7,0c2.6-1,4.6-1.5,5.7,1.5
		c2.2,6.3,7.1,7.5,12.8,7.1c4.3-0.3,8.7-0.6,12.8-1.8c20.9-5.7,29.4-17.1,28-35.4c-0.6-8,2.2-14.2,8.1-19.4
		c8.6-7.7,12.6-17.3,12.2-28.9c-0.2-4.5,0-9,0.6-13.5c1.9-14,4.3-27.9,6.2-41.9c4-28.1,10-55.6,21.5-81.6
		c5.4-12.1,4.1-22.1-4.4-32.2c-5.5-6.7-10.3-14.4-13.8-22.4c-9.2-21.2-11.4-43.9-11.8-66.8c-0.1-7.8,0-15.6,0.3-23.4
		c0.1-3.9,1.8-7.9,5.8-8.3c2.8-0.3,6.7,1.5,8.5,3.7c4.9,5.8,9.6,12,13.1,18.7c12.1,23,26.7,44.1,45.2,62.4c8.1,8,14.2,17.6,15.5,29
		c1.8,15.6,8.1,28.8,17.1,41.4c5.2,7.1,9.3,15.4,12,23.8c10.3,31.5,20,63.3,29.7,95c1.6,5.1,2.6,10.3,3.4,15.5
		c2.2,14.1-2.8,26.5-9.6,38.4c-6.8,12-11.1,24.8-12.9,38.5c-1.1,8.6,2.2,12.6,10.8,13c4.8,0.2,9.7,0,14.5,0.6
		c21.2,2.3,36.5-14.4,32.3-35.3c-2.5-12.5-3.3-24.7,5.9-35.5c4.1-4.8,4-10.8,2-16.6c-1.2-3.6-3.1-7-4.5-10.5
		c-4.3-10.6-9.8-20.9-12.6-31.9c-5.5-22-9.3-44.5-14.2-66.7c-3.3-14.7-5.5-29.4-3.6-44.5c1.1-8.7-0.3-17.1-5.1-24.4
		c-4.5-7-9.5-13.7-14.7-20.1c-7.2-9-13-18.6-14.2-30.3c-0.7-6.8-0.9-13.6-1.2-20.4c-0.3-8.5,0.4-17.1-0.7-25.5
		c-2.1-16.3-4.9-32.5-7.7-48.7c-2.1-11.9-4.6-23.7-7-35.7c-214.5,0-429,0-643.5,0c4.2,4.9,9.3,8.6,13.8,12.8
		c4.3,4.1,9.5,8.2,11.5,13.4c4.5,11.4,7.7,23.3,10.5,35.2c2.3,10.1,3.9,20.4,12,27.8c2.4,2.2,5.3,3.9,8.2,5.4
		c2.9,1.5,6.1,2.2,9.1,3.5c6.3,2.7,12.4,5.7,18.8,8.2c2.8,1.1,6.1,2.3,9,2c6.6-0.8,10.9,2.2,15.2,6.6c4.7,4.9,9.6,10,15.3,13.5
		c3.6,2.2,6.3,4.4,8.2,8.1c1.3,2.5,3.4,4.6,5.1,7c0.6,0.8,1.1,1.8,1.3,2.8c1.3,7,2.1,14.1,3.7,21.1c5.3,23.6,11.6,47.1,16.3,70.8
		c5.2,26.7,9.1,53.7,13.5,80.6c4.4,26.8,7.3,53.7,5.9,81c-0.6,12.2-5.4,20.6-17.2,24.6c-18.5,6.3-26.1,22.1-32.5,38.6
		c-2.3,5.9,1.6,9.6,7.7,7.6c3.9-1.2,5.9-0.6,7.1,3.3c1.3,4.3,4.5,5.4,8.6,5c6.3-0.6,12.6-1.2,18.9-1.9c4.3-0.5,8.6-0.8,12.8-1.8
		c10.9-2.5,18.1-9.4,22.2-19.7c2.9-7.1,8.1-10.2,15.6-9.9c2.2,0.1,4.3,0,6.5-0.1c15.5-0.8,20.1-6,18.9-21.2
		c-0.1-1.3-0.4-2.6-0.6-3.9c-1.5-9.4-2.6-18.9,2.4-27.7c3.6-6.2,3-11.9-0.7-17.8c-2.8-4.5-5.6-9.2-7.2-14.2
		c-13.6-42.7-26.9-85.4-40.2-128.2c-3.4-10.8-6.5-22-3.6-33.3c2.3-9.3,5.5-18.4,9.3-27.2c4.2-9.8,6.8-19.6,6.7-30.3
		c-0.1-14.6,5.4-19.6,20.1-19.6c1.2,0,2.3,0.1,3.5,0.2c16.5,1.5,32.3-0.3,48-6.1c15.1-5.7,30.8-9.9,47.1-9.5
		c13.5,0.3,26.9,2.1,40.3,2.3c16.3,0.2,32.6-0.2,48.9-1C754.2,613.8,762.3,612.1,771.2,610.8z"/>
	<path d="M121.2,106.6c-0.2-3.2-0.4-5.6-0.5-8c-0.2-5.8-0.8-11.7-0.3-17.4c0.2-2.2,2.6-5,4.7-6c3.1-1.5,6.6,0.1,7.9,3.4
		c1.4,3.6,1.6,7.7,2.8,11.5c0.7,2.2,2.9,6,3.6,5.8c3.6-1,3.6-4.3,2.8-7.3c-0.7-3.1-1.9-6-2.3-9.1c-0.3-2.2-0.3-4.6,0.3-6.8
		c1.2-4.5,3-5.2,6.8-2.5c4.3,3.2,8.4,4.7,13.8,3c5.1-1.6,8.2,1.5,9.9,6.1c1.3,3.5,2.3,7.2,3.4,10.8c0.4,0,0.9,0,1.3,0
		c0.2-1.6,0.5-3.2,0.7-4.8c0.3-2.3,0.3-4.7,1-6.9c1.3-3.8,5.1-4.6,7.8-1.7c1.5,1.7,2.7,3.8,3.6,5.9c6.4,15.7,9,31.6,4.9,48.6
		c-2.6,10.7-5.8,20.9-10.4,30.9c-3.7,8.1-4.6,17.5-6.2,26.5c-1,5.7-1.3,11.6-1.6,17.4c-0.2,3.6,0,7.3,0.7,10.9
		c1.4,7.3,2.6,14.7,4.9,21.7c1.8,5.3,5.2,10.2,8.2,15c0.5,0.8,3,1.4,3.8,0.9c0.8-0.5,1.5-3.1,1-3.7c-7-8-3-17.6-3.5-26.3
		c-0.4-7.6,1.8-15.4,2.7-23.1c0.3-3,0.4-6.2-0.2-9.2c-1.1-6.1,1-9.8,7-10.8c8-1.3,15.4,0.1,20.6,7c9.6,12.6,17.9,25.9,22.5,41.3
		c1.5,4.9,4.7,9.4,7.5,13.8c1.7,2.7,4.2,2.5,6.9,0.6c2.1-1.4,4.7-2.1,7.1-2.9c3-1,6.2-1.4,9.1-2.5c7.5-3.1,15.1-4.1,22.9-2.2
		c3.2,0.8,4.2-0.2,4.6-3.2c0.5-3.4,1.5-6.8,1.9-10.3c1.4-10.5,7.7-18.8,11.9-28.1c1.6-3.5,3.3-6.9,4.6-10.4
		c4.8-13.3,14.3-22.8,26-29.8c7.7-4.6,15.6-1.2,17.5,7.2c0.7,2.9,0.1,6.4-0.9,9.2c-2.4,6.7-0.9,12.2,2,18.5
		c3.1,6.8,3.7,14.7,5.4,22.1c2.3,9.9,0.8,19.1-5.3,27.5c4.1,1.6,7.7,2.9,11.8,4.5c0.6-2.6,1.8-5.3,1.7-8
		c-0.4-12.9-1.2-25.8-1.8-38.8c-0.1-3-0.8-6.3,0.1-8.9c0.9-2.6,3.2-5.4,5.7-6.7c3.7-2,6.3,0,6.8,4.3c0.6,5.6,1,11.2,1.7,16.8
		c0.2,1.8,0.7,3.9,1.8,5.1c2,2.2,4.6,5.1,7,5.2c2.5,0.1,6.1-2.4,7.3-4.8c3.8-7,4.9-14.6,2.9-22.6c-1.2-4.6-1.4-9.5-2.5-14.2
		c-1.5-6.1-2.9-12.3-5.3-18.1c-5.2-13.1-4.9-26.1-1.1-39.5c2.9-10.5,3.9-21.5,6.7-32c1.9-6.9,5.4-13.4,8.7-19.9
		c0.4-0.8,4.2-1,5.4-0.1c2.4,1.9,4.1,4.7,6.2,7.1c0.8,0.9,1.9,1.7,2.9,2.5c0.9-1.1,1.9-2.1,2.6-3.3c0.5-0.8,0.8-1.9,0.9-2.8
		c0.8-6.2,4.8-8.7,10.5-9.4c6.9-0.9,13.8-1.8,20.7-2.7c4.8-0.6,8.4,1.1,10.4,5.8c1.6,3.7,1.1,6.1-2.6,8.2c-5,2.8-4.7,6.3,0.8,9.6
		c1.6-3,2.8-6.4,4.9-8.9c1.9-2.2,5.7-5.5,7.2-4.9c3.1,1.3,6.7,4.5,7.4,7.6c1.1,4.8,0.5,10.2-0.4,15.1c-1.2,6.3-3.6,12.4-5.5,18.6
		c-0.5,1.6-1.1,3.1-1.4,4.8c-0.5,3.2-1.7,7.2,2.2,8.8c4,1.7,6.7-1.4,8.3-4.6c1.8-3.5,3.9-6.1,8-6.7c3.3-0.5,3.2-3,3.5-5.6
		c0.6-4.3,1.1-9,3.1-12.7c3.1-5.7,7.8-5.2,10.7,0.6c4.2,8.5,5,17.9,3.5,26.9c-3.8,22.7-7,45.6-14.6,67.5
		c-5.9,17.1-15.4,31.9-28.6,44.4c-9.3,8.8-18.5,17.3-30.9,22.2c-6.9,2.7-12.3,9-18.4,13.7c0.3,0.6,0.6,1.2,0.9,1.7
		c6.9-0.5,13.7-1.3,20.6-1.5c13-0.5,25.9-1.2,38.9-0.8c17.7,0.6,34,7.1,49.8,14.7c21.9,10.5,43.1,22.6,65.5,31.8
		c28.2,11.7,57.7,20.2,88.3,23.2c9.1,0.9,18.7-0.2,27.8-1.6c19.8-2.9,39.6-6.3,59.3-10.1c11.7-2.3,23-7.2,34.7-8.5
		c27.6-3,53.7,1.9,76.3,19.2c39.4,30.1,66.3,68.7,79.1,116.8c2.7,10.1,2.7,20.4-1.2,30.4c-0.4,1.1-0.8,2.2-1.1,3.3
		c-2.5,9-2.5,9-11.7,9c-212.6,0-425.3,0-637.9,0.1c-5.3,0-7.9-1.5-9.7-6.6c-3.7-10.5-8.2-20.7-12.4-31c-2.2-5.4-1.5-7.2,4-9.8
		c8.2-3.8,14.7-9.1,18.1-17.6c2.2-5.3,3-10.8-0.8-17.4c-1.5,3.1-2.8,5.1-3.4,7.3c-2.8,9.8-9.2,16.3-17.9,21.1
		c-5.4,3-10.8,5.9-15.9,9.3c-6.8,4.6-9.1,11.1-7,19.2c1.1,4.2,1.9,8.5,2.2,12.7c0.6,7.2-2.6,12.4-9.2,15.7
		c-9.1,4.6-18.2,9.4-27.2,14.3c-5.4,2.9-10.7,3.3-16.3,1c-2.9-1.2-5.6-3.2-8.6-3.9c-5.4-1.3-10.9-2.6-16.4-2.7
		c-6.7-0.1-8.3-0.1-10.4-6.6c-2.2-6.5-6-10.7-12.4-13.1c-6.7-2.5-9.2-7.9-6.5-16.1c3.4-10.5,4.1-21.2,3.5-32
		c-0.8-13.9,3-26.7,10-38.5c5.6-9.3,7.9-19.3,10.4-29.7c4.2-17,7.1-34,7.9-51.5c0.2-5.2,3.9-10.1,5.8-15.3c2-5.4,1-6.9-4.7-6.1
		c-4.9,0.7-9.6,2.3-14.5,3.4c-2.9,0.7-5.9,1.7-8.8,1.5c-16.7-1.4-32.2,3.7-47.6,8.9c-2.7,0.9-5.4,1.8-7.9,3.1
		c-17.3,8.8-33.7,4.9-49.5-3.7c-10.9-5.9-21.2-13.1-31.9-19.6c-3-1.8-6.1-3.3-9.2-5c-5.8-3.1-7.9-8.4-5.7-14.2
		c2.1-5.5,8.9-9.9,14.3-8.7c2.2,0.5,4.4,1.4,6.5,2.4c9.7,4.8,19.3,9.7,29,14.4c2.4,1.2,5.2,1.7,7.8,2.5c0.4-0.4,0.7-0.8,1.1-1.2
		c-1.7-3.1-3-6.4-5.1-9.2c-8.4-11.2-16.6-22.5-25.5-33.3c-12.5-15.1-18.6-32.4-20.4-51.5c0-0.5,0-1-0.1-1.5
		c-3.2-11.1-6.1-22.2-9.7-33.2c-2.1-6.3-4-12.3-2.2-18.9c1.3-4.7,4.3-5.8,8.7-3.7c3.6,1.7,7.5,3,11.4,3.9
		c7.1,1.7,12.3,10.4,10.2,19.2c-1.4,5.9,0,9.7,4.5,13.4c4,3.3,7.2,7.7,10.7,11.5c0.4-0.1,0.9-0.3,1.3-0.4c0.1-1.5,0.4-3,0.3-4.5
		c-1-10-3.3-19.6-7.8-28.6c-3.3-6.7-6.1-13.6-8.7-20.6c-1.9-5.3,2.5-13.2,7.8-15c3.3-1.1,5.7,0.6,7,3.2c2.6,5.2,4.6,10.6,7.3,15.8
		c1.6,3.2,3.6,6.4,6,9c2.6,2.8,5.3,1.4,5.5-2c0.3-5.4,0.4-11-0.9-16.2c-2-8.5-5.3-16.8-7.7-25.2c-1.2-4.3-2.3-8.7-2.5-13.1
		c-0.2-6.2,4-9.4,10.1-8.5c6.3,0.9,10.8,4.3,13.3,10.1c2.4,5.5,4.4,11.1,6.7,16.6C111.7,100.1,114.4,104.7,121.2,106.6z
		 M579.2,348.3c0.6,2.3,0.8,3.3,1.1,4.2c4.1,12.8,8.1,25.7,12.4,38.4c1.1,3.2,0.4,5-2.3,6.9c-10.7,7.6-21.3,15.5-31.8,23.3
		c-1.1,0.8-2.1,1.8-3.9,3.4c2.6,0.1,4,0.3,5.5,0.3c12.8,0,25.7,0.1,38.5-0.1c3.5-0.1,5.2,1,6.3,4.5c3.7,12.1,7.9,24,11.9,36
		c0.5,1.6,1.2,3.2,2.4,6.1c5-15.1,9.5-28.8,13.9-42.5c0.9-2.8,2.2-3.9,5.2-3.9c12.3,0.2,24.7,0,37,0c2.3,0,4.7,0,7,0
		c-1.2-2.3-2.4-3.3-3.7-4.3c-10.3-7.6-20.6-15.3-31.1-22.7c-2.6-1.9-3.2-3.5-2.2-6.6c4.2-12.6,8.1-25.3,12.1-38
		c0.4-1.2,0.6-2.5,1.2-4.9c-13.8,9.9-26.6,19.2-39.5,28.4C606.1,367.6,593.3,358.4,579.2,348.3z M706.8,424c0.1,0.4,0.2,0.9,0.3,1.3
		c1.8,0,3.5,0,5.3,0c12.7,0,25.3,0.1,38-0.2c3.5-0.1,4.9,1.1,5.9,4.3c3.4,10.9,7.1,21.8,10.8,32.7c1,3,2.1,6,3.5,10.1
		c5-15.1,9.7-28.9,14-42.8c1-3.2,2.5-4.1,5.6-4.1c13.3,0.1,26.6,0,40,0c1.2,0,2.4-0.2,4.6-0.4c-2.1-1.7-3.4-2.7-4.7-3.7
		c-8.7-6.4-17.5-12.8-26.2-19.2c-8.2-6-8.2-6-5.1-15.7c3.8-12,7.6-24,11.7-37.1c-2.2,1.4-3.5,2.1-4.6,2.9
		c-10.5,7.6-21.1,15.1-31.5,22.9c-2.7,2-4.6,2.2-7.4,0.1c-8.4-6.3-17-12.3-25.5-18.4c-3.3-2.4-6.6-4.7-9.9-7.1
		c3.5,14.2,7.7,27.8,12.3,41.3c1.2,3.6,0.7,5.6-2.5,7.9C729.8,407,718.4,415.6,706.8,424z M507.1,350.3c-0.3-0.2-0.6-0.4-0.9-0.6
		c-11.6,8.4-23.3,16.6-34.7,25.2c-3,2.2-4.9,2.1-7.8-0.1c-10.3-7.6-20.8-15-31.2-22.5c-1.3-0.9-2.6-1.7-4.8-3.2
		c0.7,2.6,1.1,4.2,1.6,5.7c3.9,12.2,7.6,24.4,11.8,36.5c1.2,3.4,0.4,5-2.3,7c-10.6,7.6-20.9,15.3-31.4,23.1c-1.2,0.9-2.4,2-4.5,3.7
		c11.7,0,22.1,0,32.6,0c5.3,0,12.1-1.8,15.5,0.8c3.6,2.8,4.2,9.7,6,14.9c3.4,10,6.7,20,10.5,31.3c5-15.2,9.7-29,14.1-42.9
		c1-3.1,2.4-4.1,5.6-4c13.3,0.2,26.6,0,40,0c1.2,0,2.4-0.2,4.6-0.4c-2.1-1.6-3.3-2.7-4.6-3.6c-9.5-7-18.9-14.2-28.7-20.8
		c-4.6-3.1-5.8-5.8-3.8-11.3C499.2,376.3,503,363.3,507.1,350.3z"/>
	<path d="M771.2,610.8c-8.8,1.2-17,2.9-25.2,3.3c-16.3,0.8-32.6,1.2-48.9,1c-13.5-0.2-26.9-2-40.3-2.3c-16.3-0.4-32,3.8-47.1,9.5
		c-15.7,5.9-31.6,7.7-48,6.1c-1.2-0.1-2.3-0.2-3.5-0.2c-14.7,0-20.2,5-20.1,19.6c0.1,10.8-2.5,20.6-6.7,30.3
		c-3.8,8.8-6.9,18-9.3,27.2c-2.8,11.3,0.3,22.5,3.6,33.3c13.3,42.8,26.6,85.5,40.2,128.2c1.6,5,4.4,9.7,7.2,14.2
		c3.6,5.9,4.2,11.6,0.7,17.8c-5,8.8-3.9,18.3-2.4,27.7c0.2,1.3,0.5,2.6,0.6,3.9c1.2,15.2-3.4,20.4-18.9,21.2
		c-2.2,0.1-4.3,0.2-6.5,0.1c-7.5-0.3-12.7,2.8-15.6,9.9c-4.1,10.2-11.3,17.2-22.2,19.7c-4.2,1-8.5,1.3-12.8,1.8
		c-6.3,0.7-12.6,1.2-18.9,1.9c-4.1,0.4-7.3-0.8-8.6-5c-1.2-3.9-3.2-4.6-7.1-3.3c-6.1,2-10-1.6-7.7-7.6c6.4-16.5,14-32.3,32.5-38.6
		c11.8-4,16.6-12.4,17.2-24.6c1.4-27.3-1.5-54.2-5.9-81c-4.4-26.9-8.2-53.9-13.5-80.6c-4.6-23.8-10.9-47.2-16.3-70.8
		c-1.6-6.9-2.4-14-3.7-21.1c-0.2-1-0.7-2-1.3-2.8c-1.7-2.3-3.8-4.4-5.1-7c-1.9-3.7-4.6-5.9-8.2-8.1c-5.7-3.5-10.5-8.6-15.3-13.5
		c-4.3-4.4-8.5-7.4-15.2-6.6c-2.9,0.4-6.1-0.8-9-2c-6.3-2.5-12.5-5.5-18.8-8.2c-3-1.3-6.2-2-9.1-3.5c-2.9-1.5-5.8-3.2-8.2-5.4
		c-8.1-7.5-9.6-17.7-12-27.8c-2.7-11.9-6-23.8-10.5-35.2c-2-5.2-7.3-9.3-11.5-13.4c-4.5-4.3-9.6-7.9-13.8-12.8
		c214.5,0,429.1,0,643.5,0c2.4,12,4.9,23.8,7,35.7c2.8,16.2,5.6,32.4,7.7,48.7c1.1,8.4,0.4,17,0.7,25.5c0.2,6.8,0.5,13.7,1.2,20.4
		c1.2,11.7,7,21.3,14.2,30.3c5.2,6.5,10.2,13.2,14.7,20.1c4.7,7.4,6.2,15.7,5.1,24.4c-2,15.1,0.3,29.8,3.6,44.5
		c4.9,22.2,8.7,44.6,14.2,66.7c2.8,11,8.3,21.3,12.6,31.9c1.4,3.5,3.3,6.9,4.5,10.5c2,5.8,2.1,11.8-2,16.6
		c-9.2,10.8-8.4,23-5.9,35.5c4.2,20.9-11.1,37.6-32.3,35.3c-4.8-0.5-9.6-0.3-14.5-0.6c-8.6-0.4-11.9-4.4-10.8-13
		c1.7-13.7,6-26.5,12.9-38.5c6.8-11.9,11.8-24.3,9.6-38.4c-0.8-5.2-1.8-10.5-3.4-15.5c-9.7-31.7-19.4-63.5-29.7-95
		c-2.7-8.4-6.9-16.7-12-23.8c-9.1-12.6-15.3-25.8-17.1-41.4c-1.3-11.4-7.4-21-15.5-29c-18.6-18.3-33.1-39.4-45.2-62.4
		c-3.5-6.7-8.2-12.9-13.1-18.7c-1.8-2.2-5.8-4-8.5-3.7c-4,0.4-5.6,4.4-5.8,8.3c-0.3,7.8-0.5,15.6-0.3,23.4
		c0.4,22.9,2.5,45.6,11.8,66.8c3.5,8,8.3,15.7,13.8,22.4c8.4,10.2,9.7,20.2,4.4,32.2c-11.5,26-17.5,53.6-21.5,81.6
		c-2,14-4.3,27.9-6.2,41.9c-0.6,4.4-0.7,9-0.6,13.5c0.4,11.6-3.6,21.2-12.2,28.9c-5.8,5.2-8.7,11.4-8.1,19.4
		c1.3,18.3-7.2,29.7-28,35.4c-4.1,1.1-8.5,1.5-12.8,1.8c-5.7,0.4-10.6-0.8-12.8-7.1c-1-3-3-2.5-5.7-1.5c-2.2,0.8-5.6,1.2-7,0
		c-1.5-1.3-2-4.8-1.5-7c0.6-2.6,2.3-5.1,4.1-7.2c9.4-11.2,19.1-22.2,28.6-33.4c11.4-13.6,18.7-28.7,19.4-47
		c0.8-23.1,2.4-46.2,4.1-69.3c2.7-35.7-9.2-67-27.8-96.5c-4.8-7.6-10-15-15.1-22.4C778.9,643.1,772.9,628.1,771.2,610.8z
		 M526.4,827.4c-8.4,7,0.9,56,13,68.8c0.1-4.6-0.3-9.2-1-13.7C535.8,864.1,524.5,847.6,526.4,827.4z"/>
	<path class="st0" d="M579.2,348.3c14.1,10.1,26.9,19.2,40,28.6c12.9-9.3,25.7-18.5,39.5-28.4c-0.6,2.3-0.8,3.6-1.2,4.9
		c-4,12.7-8,25.4-12.1,38c-1,3-0.4,4.7,2.2,6.6c10.5,7.4,20.7,15.1,31.1,22.7c1.3,1,2.6,2,3.7,4.3c-2.3,0-4.7,0-7,0
		c-12.3,0-24.7,0.1-37,0c-3,0-4.3,1.1-5.2,3.9c-4.4,13.7-8.9,27.4-13.9,42.5c-1.1-2.9-1.8-4.4-2.4-6.1c-4-12-8.1-23.9-11.9-36
		c-1.1-3.5-2.8-4.5-6.3-4.5c-12.8,0.2-25.7,0.1-38.5,0.1c-1.4,0-2.9-0.1-5.5-0.3c1.8-1.6,2.8-2.6,3.9-3.4
		c10.6-7.8,21.1-15.7,31.8-23.3c2.8-2,3.4-3.7,2.3-6.9c-4.3-12.8-8.3-25.6-12.4-38.4C580.1,351.6,579.8,350.6,579.2,348.3z"/>
	<path class="st0" d="M706.8,424c11.5-8.5,23-17.1,34.6-25.4c3.1-2.2,3.7-4.3,2.5-7.9c-4.6-13.5-8.8-27.1-12.3-41.3
		c3.3,2.4,6.6,4.7,9.9,7.1c8.5,6.1,17.1,12.1,25.5,18.4c2.8,2.1,4.6,2,7.4-0.1c10.4-7.8,21-15.3,31.5-22.9c1.1-0.8,2.4-1.5,4.6-2.9
		c-4.1,13.1-7.9,25.1-11.7,37.1c-3.1,9.7-3.1,9.7,5.1,15.7c8.7,6.4,17.5,12.8,26.2,19.2c1.3,1,2.5,2,4.7,3.7
		c-2.2,0.2-3.4,0.4-4.6,0.4c-13.3,0.1-26.6,0.2-40,0c-3.2,0-4.6,0.9-5.6,4.1c-4.4,13.9-9.1,27.8-14,42.8c-1.4-4.1-2.5-7.1-3.5-10.1
		c-3.6-10.9-7.4-21.7-10.8-32.7c-1-3.2-2.4-4.4-5.9-4.3c-12.6,0.3-25.3,0.2-38,0.2c-1.8,0-3.5,0-5.3,0
		C707,424.9,706.9,424.5,706.8,424z"/>
	<path class="st0" d="M507.1,350.3c-4.1,12.9-7.8,26-12.4,38.8c-2,5.5-0.8,8.2,3.8,11.3c9.8,6.6,19.1,13.8,28.7,20.8
		c1.3,1,2.5,2,4.6,3.6c-2.2,0.2-3.4,0.4-4.6,0.4c-13.3,0-26.6,0.1-40,0c-3.2,0-4.6,0.9-5.6,4c-4.4,13.9-9,27.7-14.1,42.9
		c-3.8-11.3-7.1-21.3-10.5-31.3c-1.8-5.2-2.3-12.1-6-14.9c-3.4-2.6-10.2-0.8-15.5-0.8c-10.4,0-20.9,0-32.6,0
		c2.1-1.7,3.2-2.8,4.5-3.7c10.4-7.7,20.8-15.5,31.4-23.1c2.7-1.9,3.5-3.6,2.3-7c-4.1-12.1-7.9-24.3-11.8-36.5
		c-0.5-1.5-0.9-3.1-1.6-5.7c2.2,1.4,3.5,2.2,4.8,3.2c10.4,7.5,20.9,14.8,31.2,22.5c2.9,2.1,4.8,2.3,7.8,0.1
		c11.4-8.6,23.1-16.8,34.7-25.2C506.4,349.9,506.7,350.1,507.1,350.3z"/>
	<path class="st0" d="M526.4,827.4c-2,20.2,9.4,36.7,12.1,55.1c0.7,4.5,1.1,9.1,1,13.7C527.4,883.4,518,834.4,526.4,827.4z"/>
</g>
</svg>
