<svg version="1.1" id="wheel" xmlns="http://www.w3.org/2000/svg" x="0px" y="0px"
	 viewBox="0 0 1963 1963.1" style="enable-background:new 0 0 1963 1963.1;" xml:space="preserve">
<g>
	<path style="fill:#090803;" d="M1943.8,942.7c-8.6-7.8-18.7-13.2-29.9-16.4c-31.1-8.9-60.9-6.5-88.6,11.1c-1.7,1.1-3.3,2-5.5,1.9
		c-32.9-0.9-64.9-5.7-95.4-18.8c-11.7-5-23-11.3-35.8-13.5c-2.5-0.4-2-2.2-2.2-3.8c-1.7-13.4-3.5-26.7-5.7-40
		c-12.1-72.5-35.2-141.4-68.9-206.8c-21.5-41.7-46.9-80.8-76.2-117.4c-1.3-1.6-3.1-2.8-1.1-5.5c4.7-6.5,7.8-13.9,10.4-21.5
		c12.3-35.4,32.7-65.7,58.2-92.7c1.5-1.6,3-2.9,5.4-3.3c20.2-3.6,37.2-13.5,51.4-27.9c18.3-18.6,30.4-40.1,29.7-67.3
		c-0.6-22.7-15.3-41-37.2-45.9c-17.1-3.9-33.3-0.8-48.6,7.2c-29.7,15.6-49.7,39-56.9,72.3c-0.4,1.7-1,3-2.2,4.3
		c-24.2,22.8-50.5,42.2-81.7,54.5c-11.1,4.4-22.7,7.8-32.7,14.6c-2.5,1.7-4,1.3-6.2-0.5c-52-41.6-108.7-75.3-170.2-100.9
		c-48.5-20.2-98.6-34.8-150.5-43.7c-14.1-2.4-28.3-4.3-42.5-6.1c-1.9-0.2-4.5,0.4-5.1-2.8c-1.7-10.1-6.1-19.3-10.4-28.5
		c-15-32.1-20.7-66.2-21.8-101.2c-0.1-1.8-0.1-3.5,1.1-5.2c15.1-22.1,19.5-46.7,15.9-72.8c-2.9-20.8-10.6-39.4-26.9-53.6
		c-17.8-15.5-41-16.9-60.2-3.2c-13.7,9.8-22.4,23.3-27.1,39.5c-9,31.3-6.7,61.2,11.3,89.1c1.1,1.7,1.9,3.3,1.8,5.5
		c-1.3,31.6-5.4,62.6-17.8,92.1c-4.9,11.6-11.2,22.7-13.8,35.2c-1,4.6-2.9,5.8-7,6.2c-18.7,1.9-37.3,4.7-55.8,8.4
		c-76.6,15.2-148.9,41.9-216.6,80.9c-31.6,18.2-61.8,38.7-90.1,61.6c-1.8,1.5-3.1,1.7-5.1,0.3c-5.8-4-12.2-6.9-18.8-9.1
		c-35.7-12.3-66.6-32.2-93.9-58.1c-2-1.9-4.1-3.6-4.6-6.8c-4.2-22.5-15.8-40.9-32.8-55.7c-19.1-16.7-40.6-27.4-67.1-24.5
		c-19.5,2.2-35.5,15.2-40.5,34.1c-4.8,18.2-1.8,35.6,7,52c15.7,29.2,38.8,49,71.9,56c2.1,0.5,3.6,1.5,5,3
		c24.2,25.7,44.3,54,56.4,87.5c3.2,8.9,6.4,17.9,11.7,25.8c1.8,2.7,1.8,4.2-0.3,6.8c-48.1,60.1-85.4,126.3-112,198.5
		c-19.7,53.6-32.6,108.9-38.8,165.7c-0.2,2.2-0.5,3.5-3.2,4c-7.4,1.3-14.4,4-21.1,7.3c-34,16.5-70,24-107.5,24.7
		c-2.2,0-4.2,0.1-6.2-1.2c-21.4-14.5-45.2-18.9-70.5-15.8c-18.5,2.3-35.5,8.3-49.7,21c-24.2,21.8-24.6,53.5-0.8,75.7
		c9.1,8.5,19.8,14.5,31.8,17.9c31.3,8.8,61.2,6.3,89-11.8c1.5-1,3-1.4,4.7-1.4c31.8,0.9,63,5.3,92.6,17.6
		c12.9,5.3,25.1,12.3,39,14.8c2.2,0.4,1.7,2.1,1.9,3.5c2.5,23,6.2,45.8,11,68.5c17,80.6,47.3,156,90.6,226
		c15,24.2,31.4,47.5,49.2,69.7c1.2,1.6,3.2,2.8,1.2,5.5c-5.1,6.9-8.2,14.8-11,22.8c-12.2,34.9-32.5,64.6-57.7,91.3
		c-1.5,1.6-3,3.1-5.3,3.5c-20,3.5-36.9,13.2-51,27.5c-18.8,18.9-31.2,40.8-30.1,68.6c0.8,20.7,13.8,38.3,33.7,44.1
		c19.5,5.6,37.8,1.8,55.1-7.9c27.9-15.7,46.8-38.4,53.7-70.2c0.4-1.8,0.8-3.4,2.2-4.8c23-21.5,47.8-40.3,77.1-52.6
		c12.4-5.2,25.5-8.8,36.9-16.2c2.9-1.9,4.5-1.8,7.1,0.3c27.6,22.4,56.9,42.2,87.6,60c51.4,29.8,105.8,52.7,163,68.7
		c36.9,10.3,74.4,17.7,112.5,21.8c2.9,0.3,4.4,1.2,4.9,4.2c1.2,6.9,3.8,13.4,6.9,19.7c16.5,33.6,23.8,69.3,25,106.5
		c0.1,2.8,0.4,5.4-1.5,8.1c-11.7,17-16.5,36.1-16.5,56.5c0,5.5,0.3,11,1.2,16.4c3.3,20.4,10.7,38.7,26.7,52.6
		c18.2,15.9,41.5,17.1,60.9,2.8c13.3-9.8,21.8-23.1,26.4-38.8c9.2-31.5,6.7-61.5-11.4-89.5c-1-1.6-1.6-3.1-1.6-5.1
		c0.8-24.5,3.6-48.8,10.6-72.4c4.7-16,12.1-30.9,18.4-46.3c1.9-4.7,1-11.4,5.1-13.9c4-2.4,10-1.5,15.1-2.2
		c43.6-5.9,86.4-15.3,128.2-29c58.8-19.2,114-45.6,165.9-79.3c19.7-12.8,38.8-26.4,57-41.3c2.3-1.8,3.8-2,6.3-0.2
		c5.9,4.1,12.5,7,19.2,9.3c35.6,12.1,66.2,32.3,93.3,58c2.4,2.3,3.9,4.8,4.5,8c7.2,39.1,48.1,77.2,87.7,79.1
		c23.8,1.1,46.9-9.9,53.1-37.6c3.8-17,0.6-33.3-7.6-48.6c-15.7-29.5-38.8-49.4-72.1-56.3c-1.7-0.4-3.1-1.1-4.3-2.4
		c-21-22.5-39.5-46.7-51.8-75.2c-5.9-13.7-9.7-28.3-18.3-40.8c-1.5-2.2,0.5-3.3,1.5-4.7c5.7-7.6,11.7-15,17.3-22.6
		c54.7-74.4,93.5-156.4,116.3-245.9c8-31.5,13.6-63.4,17.3-95.7c0.2-1.8,0.1-3.3,2.8-3.8c8.1-1.4,15.7-4.5,23-8.1
		c33.7-16.4,69.5-23.3,106.7-24.1c2,0,3.9,0.1,5.7,1.3c15.3,10.7,32.6,15.8,51,16.6c23.7,0.9,46-3.8,65.2-18.6
		C1969.2,1001.1,1970.4,966.7,1943.8,942.7z M40.1,1026.3c-15-7.8-27.2-18.1-31.5-35.3c-3.7-15,1-27.9,11-39.1
		c5.6-6.3,12.4-11,19.9-14.8c1.5-0.8,2.7-1.7,3.6,1c7.7,21.9,24.6,33.9,45.5,41.4c1.7,0.6,3.5,1.2,5.2,1.8c0.1,0,0.3,0.2,0.8,0.6
		c-14.7,4.4-27.7,10.8-38.2,21.6c-5.9,6.1-10.5,12.9-13.1,21C42.8,1025.8,42.7,1027.7,40.1,1026.3z M134.3,947.6
		c-0.6,7.3-1,14.6-1.3,20.1c-1.4,16.5,0.2,31.1,1.2,45.7c0.3,4.6-0.8,7.2-4.9,9.5c-24.3,14-49.8,16.3-76.5,8.5
		c-4-1.2-4.1-3.1-2.8-6.3c6.3-15.4,18.1-25.1,32.8-31.9c11.3-5.2,23.3-7.7,35.8-8.1c0.7,0,1.3,0,2,0c2.2-0.1,4.1-0.8,4.2-3.3
		c0.1-2.8-1.8-3.8-4.2-3.8c-8,0.1-15.9-1.1-23.7-3.2c-17.5-4.7-32.7-13.1-42.8-28.8c-7.5-11.8-6.7-13.8,6.8-16.5
		c24.9-5,48.6-2,70.4,12C133.7,943.1,134.6,944.7,134.3,947.6z M1598.5,415.2c-27.2,28.2-48,60.3-60.7,97.5
		c-1.8,5.3-4.1,10.5-7.6,15.7c-5.3-6.3-10.2-12.2-15.3-17.9c-10.1-11.5-12-24.7-8.9-39.2c1.9-8.9,5.8-16.1,12.5-22.5
		c19.6-18.8,38.6-38.2,57.7-57.5c2.4-2.5,3.8-3.2,6.3,0c5,6.2,10.5,12.1,15.9,17.9C1600.6,411.4,1600.8,412.8,1598.5,415.2z
		 M1447.9,454.9c-0.2-0.4-0.2-0.9-0.8-3.2c16.9,15.3,35.1,15.6,55.4,8.8c-6.3,20.3-6.5,38.4,7.5,54.7c-6.8-2.2-13-5.4-19.6-7.1
		c-10-2.5-20-3.2-30.2-1.8c-2.8,0.4-4,0-3.5-3.2C1459.4,486,1455.7,470.1,1447.9,454.9z M1616.1,284c12.5-3.9,25-5.4,37.7-1.3
		c16.5,5.4,27.4,19.5,28.7,37.1c0.7,9.1-0.5,17.9-3.3,26.6c-0.6,1.7-0.7,3.5-3.6,2.2c-21-9.9-41.4-6.4-61.5,3.1
		c-1.4,0.6-2.7,1.3-4.1,1.9c-0.4,0.1-1,0.3-1.1,0.2c-0.4-0.4,0-0.7,0.5-0.9c5-11,9.7-22.2,10.5-34.6c0.7-10.5-0.5-20.6-5.1-30.1
		C1613.9,286.5,1612.8,285,1616.1,284z M1554.4,352.2c6.4-29,23.9-49.2,49.5-63c2.8-1.5,3.7-0.4,4.8,1.9c3.4,7.1,4.7,14.5,4.8,23.2
		c-0.9,20.2-9.6,37.9-23.4,53.5c-2,2.3-6.4,4.6-2.8,8.1c3.4,3.2,5.6-1,7.7-2.9c14.7-13.1,31.4-21.7,51.3-23.3
		c9-0.7,17.5,0.9,25.7,4.7c2.5,1.2,3,2.4,1.6,5c-13.8,25.7-34.3,42.9-63.1,49.4c-2.4,0.5-4,0-5.6-1.9c-14.8-17.7-31-34-48.7-48.7
		C1554.3,356.5,1553.8,354.9,1554.4,352.2z M1466.8,418.6c30.6-12.3,56.7-31.4,80.4-53.8c2.9-2.7,4.5-2.6,7.1,0
		c5.9,5.6,12,11.1,18.2,16.4c2,1.7,2,2.7,0.1,4.6c-22,21.8-43.8,43.8-65.9,65.6c-5,4.9-12.2,5-18.6,6.3c-11.8,2.3-22.9,0.7-32.6-7
		c-7.1-5.7-14-11.7-21.4-17.9C1444.8,426.3,1456,422.9,1466.8,418.6z M1043.3,256.3c2.1,4.3,3.5,9,5.1,13.5c0.3,0.9,0.3,1.9,0.5,3.4
		c-11.3-1.5-22.5-0.8-33.3-3.8c-10.1-2.8-16.8-9.6-22.6-17.8c-5.5-7.8-8.6-15.8-8.4-25.8c0.6-27.3,0.3-54.6,0.1-82
		c0-3.6,0.6-5,4.6-4.6c8,0.8,16,1.1,23.9,1.5c3,0.1,4.3,1,4.3,4.4C1018,183.9,1026,221.2,1043.3,256.3z M1026,278.5
		c-4.5,1.8-9.1,3.5-13.5,5.5c-11.6,5.2-21.1,13.1-28.8,23.3c-0.9,1.2-1.7,3.8-3.8,0.9c-10.8-14.9-25.4-24.2-43.1-29.9
		c21.9-1.2,34.9-14.3,44.6-33.2C991.3,263.5,1004.1,277.2,1026,278.5z M936.9,39.7c8.8-16.4,20.3-29.4,40-32
		c13.9-1.8,25.4,3.6,35.3,12.9c5.8,5.4,10.2,11.8,13.7,18.9c0.9,1.8,1.2,2.8-1.2,3.7c-21.8,7.7-33.6,24.5-41.2,45.2
		c-0.7,1.8-0.6,4-2.5,5.6c-4.3-14.3-10.8-27.3-21.6-37.7c-5.9-5.7-12.7-10.3-20.5-12.9C936.9,42.7,935.6,42.2,936.9,39.7z
		 M927.4,78.8c-0.1-6.4,1.5-15.7,4-25c1.3-4.7,3.3-5.1,7.3-3.4c15.1,6.6,24.6,18.3,31.2,32.8c4.8,10.6,7.3,21.7,7.8,33.3
		c0,1.3,0.1,2.7,0.2,4c0.2,2.3,0.9,4.5,3.7,4.4c2.8-0.1,3.2-2.3,3.3-4.6c0.5-12.6,2.6-24.8,7.8-36.4c6.6-14.9,16.3-27,31.8-33.6
		c4.1-1.8,6-1.3,7.3,3.4c7.2,26.3,5.2,51.3-8.5,75.2c-2.2,3.9-4.7,5.7-9.5,5.2c-10.9-1.1-21.9-1.9-32.9-1.9c-10.8,0-21.6,1-32.4,1.9
		c-3.6,0.3-5.7-0.9-7.6-3.9C932.1,116.9,927.3,100,927.4,78.8z M926.1,241.5c11.1-25.6,16.5-52.6,18.6-80.3c0.4-5.7,0.8-11.3,0.9-17
		c0-2.4,0.6-3.6,3.3-3.7c8.8-0.4,17.6-0.8,26.4-1.4c2.5-0.2,3.1,0.8,3.1,3.1c-0.1,31,0,62-0.1,93c0,0.8,0,1.7-0.3,2.4
		c-7.3,15.4-15.9,29.5-34.6,32.9c-9.7,1.8-19.5,1.7-29.8,2.8C916.4,261.6,921.6,251.7,926.1,241.5z M415.2,364.5
		c19.4,18.3,40.4,34.6,64.4,46.7c11.4,5.8,23.5,10.1,35.3,14.9c4.6,1.8,9.1,3.8,13.5,6.8c-8.1,6.5-15.2,13.7-23.6,19.4
		c-12.2,8.3-25.2,6.7-38.4,3.5c-5.4-1.3-10-3.8-14-7.9c-20.2-20.6-40.6-40.9-61.1-61.1c-2.6-2.6-2.9-3.9,0.1-6.4
		c6.2-5.1,12-10.5,17.8-16C411.5,362.2,412.9,362.3,415.2,364.5z M506.2,502.6c0.2,1.6,1.8,4.3-2.2,3.7c-17.8-2.8-34.3,1.2-50.2,9
		c-0.4,0.2-0.8,0.3-1.1,0.4c0.1-0.4,0.2-0.8,0.4-1.2c13.8-15.9,13.9-34,7.5-54c20.1,6.4,38.5,6.5,54.8-7.9c-2.9,7.7-6.3,14.8-8,22.6
		C505.4,484.4,504.9,493.4,506.2,502.6z M284.3,347.7c-5.6-17.3-6.8-34.5,4.4-50.1c9.8-13.8,24.2-18,40.4-17.1
		c6.1,0.3,12.2,1.6,18,3.7c1.5,0.5,2.7,0.7,1.7,3c-10.4,21.5-6.5,42.3,3.4,62.8c0.4,0.9,0.8,1.8,1.2,2.7c0,0.4,0.1,0.8,0.1,1.2
		c-0.4-0.2-0.8-0.3-1.2-0.5c-12.5-6-25.4-10.5-39.6-10.4c-8.6,0.1-16.8,1.7-24.7,5.3C286.8,348.8,285.2,350.7,284.3,347.7z
		 M358,406.8c-1.8,2.1-3.6,2.5-6.1,1.9c-28.6-6.6-48.8-23.7-62.6-49.2c-1.5-2.8-0.7-4,1.9-5.2c7.1-3.3,14.5-4.5,24.7-4.5
		c18.4,0.5,35.7,9.2,51.1,22.6c0.9,0.8,1.7,1.6,2.5,2.4c1.7,1.6,3.5,3.6,6,1.4c2.6-2.4,0.9-4.5-0.9-6.4
		c-10.1-10.6-17.8-22.8-22-36.9c-4-13.6-4.5-27.1,1.1-40.5c1.5-3.7,3-4.7,6.9-2.5c24.7,14,41.6,33.8,48,61.9
		c0.7,2.9,0.3,4.8-2.2,6.9C388.7,373.1,372.6,389.2,358,406.8z M423.8,509.7c-12.4-35.9-33-66.6-59-93.9c-2.7-2.8-2.7-4.4-0.1-7.1
		c5.6-5.9,11-12.1,16.3-18.2c1.7-1.9,2.7-2.1,4.6-0.2c22,22.1,44,44.1,66,66.1c1.1,1.1,1.8,2.3,2.3,3.8c2.2,6.7,3.8,13.4,4.5,20.4
		c1,10.3-1.9,19.5-8.3,27.5c-5.5,6.9-11.3,13.5-17.3,20.7C428.6,522.5,426,516.1,423.8,509.7z M139.1,974.4
		c0.8-8.1,1.2-16.3,1.4-24.4c0.1-3.3,1.1-4.1,4.3-4.2c23.1-0.9,46.1-3.4,68.5-9.6c15.8-4.3,30.6-11.1,45.5-17.5
		c3.6-1.6,7.4-2.8,11.2-4.1c1.5-0.5,3.1-1,2.8,1.7c-1,9.8-0.9,19.6-3,29.3c-2,9.2-7.3,16.2-14.6,21.9c-1.4,1.1-3,2.1-4.5,3.2
		c-7.5,5.5-15.4,8.3-25,7.7c-12.3-0.8-24.6-0.2-37-0.2c-15.3,0-30.6-0.1-46,0C139.9,978.3,138.8,977.8,139.1,974.4z M269.7,1048.5
		c-8.4-2.3-16.2-6.1-24-9.7c-28.6-13-58.7-19.1-89.9-20.8c-4.2-0.2-8.3-0.6-12.5-0.7c-2.2,0-2.8-0.8-2.9-2.9
		c-0.4-8.8-0.8-17.6-1.6-26.4c-0.3-3.8,2-3,4-3c15.5,0,31,0,46.5,0c14.7,0,29.3,0.1,44,0c3.3,0,6.2,0.7,9,2.3
		c5.1,2.9,10,5.9,14.6,9.6c9,7.2,13.3,16.9,14.4,28.1c0.7,7.3,1.2,14.6,1.8,21.9C273.5,1050.6,271.2,1048.9,269.7,1048.5z
		 M244.8,981.6c19-9.8,32.3-23.1,33.2-45.6c5.7,18.7,15.8,34.1,32.2,45.5c-16.3,11.3-26.3,26.5-32.2,45
		C277,1004.4,263.7,991.4,244.8,981.6z M365.1,1547.1c18-19,33.9-39.7,45.8-63.2c6.1-12,10.5-24.7,15.7-37.2c1.6-4,3.3-7.9,6.3-12.1
		c6.1,7.3,12,14,17.6,21.1c8.3,10.4,9.3,22.3,6.8,35c-1.8,9-5.4,16.5-12.3,23.1c-19.7,18.9-38.8,38.4-58,57.8
		c-2.9,2.9-4.3,2.7-6.8-0.3c-4.8-5.8-9.8-11.4-15-16.8C362.4,1551.8,362.2,1550.1,365.1,1547.1z M515.2,1508.4
		c0.2,0.4,0.2,0.9,0.3,1.3c-0.8,0.8-1.3,0.1-1.7-0.3c-13.6-11.5-29.2-13.4-45.9-9.1c-1.9,0.5-3.9,0.9-5.8,1.4
		c-0.4-0.1-0.8-0.1-1.1-0.2c0.2-0.2,0.4-0.4,0.5-0.6c1-5.4,2.3-10.7,3-16.1c1.5-12.4-1.5-23.7-9.3-33.7c-0.9-1.2-1.8-2.4-3.2-4.2
		c6.4,2.6,11.9,5.1,17.6,7c11.1,3.8,22.5,4.2,34,2.7c2.5-0.3,3.4-0.1,2.9,2.6C503.5,1476.7,507.1,1493,515.2,1508.4z M347.5,1678.9
		c-16.8,5.2-33.5,6.7-48.9-3.8c-16.4-11.2-19.8-27.9-17.6-46.3c0.5-4.4,2.1-8.7,3.2-13.1c0.4-1.6,1.1-2.3,2.8-1.5
		c22.7,10.9,44.3,6.1,65.5-4.7c0.3-0.1,0.6-0.1,2-0.4c-5.9,11.2-10,22.1-11.2,34c-1.2,11,0.3,21.5,5,31.6
		C348.8,1676.2,350.6,1677.9,347.5,1678.9z M408.4,1611.7c-6.8,28.5-24,48.7-49.6,62.4c-2.6,1.4-3.4,0.3-4.5-1.8
		c-3.4-7-4.9-14.5-4.9-22.2c0.5-20.9,9.3-38.5,22.7-54c0.9-1,1.8-2,2.7-2.9c1.7-1.7,2.8-3.6,1-5.7c-2.1-2.4-4.2-1-6,0.7
		c-9,8.6-19.1,15.5-30.7,20c-15,5.9-30.3,7.6-45.7,1.7c-6.4-2.4-6.4-2.7-3-8.6c13.7-23.9,33.3-40.2,60.6-46.7
		c3.3-0.8,5.6-0.2,7.8,2.5c14.2,17.2,30,33,47.3,47.2C408.7,1606.4,409.2,1608.6,408.4,1611.7z M503.3,1541.6
		c-32.7,12-60.7,31.4-86,55c-5.1,4.8-5.1,4.8-10.3,0.1c-5.2-4.7-10.2-9.5-15.7-13.9c-3-2.4-3-3.7-0.3-6.4
		c20.2-20,40.3-40.2,60.5-60.3c11.8-11.8,35.2-15.3,50-7.3c3.3,1.8,6.5,4.1,9.4,6.5c5.9,4.8,11.6,9.9,17.7,15.1
		C520.4,1535.5,511.8,1538.5,503.3,1541.6z M920,1707.5c-2.6-5.4-4.8-10.9-6.2-17.7c11,1.4,21.7,0.9,32.1,3.4
		c6.8,1.6,12.8,4.8,17.5,10c2.8,3.1,5.3,6.4,7.7,9.8c5.2,7.2,7.5,14.9,7.3,24.2c-0.6,27.3-0.3,54.6-0.1,81.9c0,3.9-0.9,5.1-4.9,4.7
		c-8-0.8-15.9-1.2-23.9-1.5c-2.9-0.1-3.9-0.8-4-4C944.8,1779.7,937.2,1742.5,920,1707.5z M936.1,1685c14.1-4.5,26.6-11.1,36.8-21.7
		c2.5-2.6,4.8-5.5,7-8.4c1-1.3,1.8-1.9,3-0.2c10.9,15.1,25.8,24.6,43.8,30.3c-22.2,0.9-35.3,14.1-45.2,33.1
		C971.6,1699,958.2,1686,936.1,1685z M1026.2,1922.9c-8.8,16.5-20.3,29.8-40.2,32.4c-14.7,1.9-26.6-4.2-36.7-14.3
		c-5.1-5.1-9.1-11-12.3-17.5c-0.8-1.6-1.5-2.7,1.1-3.6c21.7-7.7,33.5-24.6,41.2-45.2c0.6-1.7,1.1-3.5,2.2-6.7
		c3.5,11.2,7.5,20.6,13.6,29c7.5,10.3,16.7,18.4,29,22.7C1025.6,1920.2,1027.6,1920.4,1026.2,1922.9z M1031,1911.2
		c-0.9,2.9-2.1,3.1-4.7,2.1c-16.5-6-26.4-18.6-33.4-33.9c-4.7-10.4-7.2-21.4-7.6-32.8c0-1.7-0.2-3.3-0.4-5c-0.2-2.1-1.2-3.5-3.4-3.5
		c-2.3,0.1-3.1,1.6-3.3,3.6c-0.6,5.6-0.8,11.3-1.8,16.9c-3.4,18.7-11,35.2-26.3,47.3c-4.8,3.8-11,9.1-16.2,7.3
		c-4.7-1.6-4.1-10.1-5.4-15.6c-1.2-5.4-1.2-10.9-1.4-16.4c0-17.5,4.1-33.9,13.6-48.8c1.7-2.7,3.5-3.8,6.9-3.5
		c11,0.9,21.9,1.9,32.9,1.9c11.5,0,22.9-1.1,34.4-1.9c3.3-0.2,5.2,0.7,6.9,3.5C1037.2,1857.3,1039.1,1883.6,1031,1911.2z
		 M1048.5,1693c-1.7,4.7-3.1,9.5-5.2,14c-17.3,35.1-25.1,72.4-25.8,111.4c-0.1,3.4-1.4,4.2-4.4,4.3c-8.3,0.3-16.6,0.7-24.9,1.5
		c-3.5,0.3-3.7-1.1-3.7-3.9c0.1-15.3,0.1-30.7,0.1-46c0-14.8,0-29.6,0-44.5c0-2.7,0.4-5.2,1.8-7.6c1.6-2.5,2.9-5.2,4.5-7.8
		c7.8-13.1,18.6-21.5,34.3-22.6c7-0.5,14-1,20.9-1.7C1048.7,1689.7,1049.4,1690.6,1048.5,1693z M1547.7,1598.5
		c-20.7-19.4-43-36.8-68.9-48.8c-12.4-5.7-25.1-10.5-37.6-15.8c-2.1-0.9-4.1-2.1-7-3.6c8-6.6,15.2-13,22.9-18.8
		c12.8-9.5,26.9-7.7,41.1-3.8c4.8,1.3,8.7,3.6,12.2,7.2c20.3,20.6,40.8,41.1,61.4,61.4c2.7,2.7,2.6,4-0.2,6.4
		c-6.2,5.1-12.1,10.4-17.9,15.9C1551.3,1600.9,1550,1600.6,1547.7,1598.5z M1456.6,1459.5c-0.3-1.6-0.6-3.3,2.3-2.8
		c17.7,2.7,34.4-0.8,50.1-9.1c0.4-0.1,1-0.4,1.2-0.2c0.4,0.5,0,0.8-0.5,1c-8.5,10.9-13.3,23-11.2,37.1c0.8,5.4,2,10.7,3.2,16.9
		c-19-6.5-36.9-6-52.9,7.1c-0.3,0.2-0.8,0.7-1,0.6c-0.8-0.3-0.3-0.9-0.1-1.4C1455.5,1493.1,1459.5,1476.9,1456.6,1459.5z
		 M1680.8,1623c3.5,15.2,3,30-6.8,42.9c-12.1,16-29.1,18.6-47.6,15.8c-3.6-0.5-7.1-1.8-10.6-2.7c-1.5-0.4-2.7-0.8-1.6-3
		c10.4-21.6,6.5-42.3-3.5-62.8c-0.1-0.1-0.1-0.2-0.2-0.4c-0.2-0.2-0.3-0.5-0.5-0.7c-0.1-0.1-0.1-0.2-0.2-0.3
		c-0.2-0.2-0.3-0.5-0.5-0.8c-0.1-0.2-0.1-0.4-0.2-0.6c0-0.2,0-0.4,0-0.6c0,0,0-0.1,0-0.1c0-0.1,0-0.1,0.1-0.2c0,0,0-0.1,0-0.1
		c0.1-0.2,0.1-0.4,0.3-0.5c0,0,0,0,0,0c-0.1,0.2-0.3,0.3-0.4,0.5c-0.1-0.1-0.2-0.2-0.3-0.3c0.2-0.1,0.5-0.1,0.7-0.2
		c0,0,0.1-0.1,0.1-0.1c0,0-0.1,0.1-0.1,0.1c0,0,0,0,0,0c0,0,0,0,0.1,0c2.8,1.5,5.6,3,8.4,4.2c0.8,0.4,1.6,0.7,2.4,1
		c2.7,1.1,5.5,2.2,8.3,3c0.7,0.2,1.4,0.4,2.2,0.6c0.6,0.2,1.2,0.3,1.8,0.5c0.3,0.1,0.6,0.1,0.9,0.2c0.5,0.1,1.1,0.2,1.6,0.4
		c0.8,0.2,1.7,0.3,2.5,0.5c0.5,0.1,1,0.2,1.5,0.2c0.5,0.1,1,0.1,1.5,0.2c0.4,0.1,0.9,0.1,1.3,0.2c0.5,0.1,0.9,0.1,1.4,0.1
		c0.4,0,0.9,0.1,1.3,0.1c0.4,0,0.9,0.1,1.3,0.1c0.6,0,1.2,0,1.8,0.1c0.5,0,1,0,1.5,0c5.4,0,10.9-0.7,16.5-2.1
		c1.4-0.4,2.9-0.8,4.3-1.3C1678.6,1613.8,1678.7,1613.8,1680.8,1623z M1604.5,1556.7c2-2.4,4.1-2.9,7-2.2
		c28.3,6.7,48.5,23.7,62.2,49c1.5,2.8,0.8,4.1-1.8,5.3c-6.9,3.2-14.2,4.7-21.8,4.5c-21.3-0.4-39-9.5-54.8-23.2
		c-2.2-1.9-4.4-6.6-8-2.8c-3.1,3.3,1,5.6,2.9,7.8c14.3,16.4,23.7,34.8,23.3,57.2c-0.1,6.9-1.8,13.5-4.8,19.7
		c-1.1,2.3-2.1,3.3-4.8,1.9c-25.7-14-43.2-34.3-49.6-63.5c-0.6-2.6,0.2-4,1.9-5.5C1573.7,1590.3,1589.9,1574.3,1604.5,1556.7z
		 M1536.5,1446.6c6.2,15.2,11.7,30.7,19.9,45.1c11.6,20.4,25.8,38.7,42,55.7c2.5,2.6,2.7,4.1,0.1,6.8c-5.7,5.8-11,12-16.3,18.2
		c-1.9,2.2-3,2.1-5,0.1c-21.7-21.8-43.5-43.6-65.3-65.4c-0.8-0.8-1.8-1.7-2.1-2.7c-6.2-17.8-9.1-35.3,4.7-51.3
		c5.2-6,10.3-12.2,15.8-18.6C1533.1,1438.2,1534.8,1442.4,1536.5,1446.6z M1678.4,1071.4c-7.6,58.2-22,114.6-43.7,169.1
		c-27.2,68.4-64.1,131.2-111.3,187.7c-15.8,18.9-37.9,25-62.2,22.4c-2.1-0.2-4.3-0.7-6.4-1.2c-4.9-0.9-6.3,0.3-5.3,5.1
		c4.9,22.1-0.5,41.9-12.9,60.2c-6,8.9-15.2,14.3-23.5,20.8c-47.9,37.6-99.9,68.3-155.9,92.3c-52.4,22.4-106.7,38.3-162.9,47.2
		c-14.6,2.3-29.3,5-44.1,5.7c-26.9,1.2-48.3-10-63.9-32c-4.6-6.4-5-6.4-9.7,0c-18.2,25.1-42.6,35.2-73.4,31.4
		c-38-4.7-75.6-11.6-112.5-22.1c-64.2-18.2-124.7-44.9-181.3-80.4c-25.6-16-50.4-33.1-73.3-52.8c-20.5-17.7-27.4-40.9-23.2-67.5
		c0.2-1,0.5-1.9,0.6-2.9c0.6-4.4-0.6-5.8-4.8-4.9c-21.8,5.1-41.5-0.1-59.8-12.1c-3.8-2.5-7-5.6-9.8-9.1
		c-73.8-90.1-122.7-192.2-146.3-306.3c-5.2-25-9.7-50.1-10.8-75.6c-0.8-18.7,7.1-35.3,19.7-49.3c4.2-4.6,9.1-8.3,14.2-11.7
		c4-2.7,4.1-4.7-0.1-7.3c-20.5-13-30.6-32.4-34.1-55.6c-1.3-8.4,1-16.9,2-25.3c8.5-70,27-137.3,55.7-201.7
		c26.3-58.9,60.2-113,101.3-162.6c9.2-11.1,33.4-20.9,53.3-20.8c3.2,0,8.7,0.6,14.1,1.7c4.9,1,6.3-0.2,5.2-5.2
		c-5.1-22.3,0.8-42.1,13.1-60.6c1.9-2.8,4-5.2,6.6-7.4c84.6-69.8,180.2-117.5,286.9-142.9c30-7.2,60.3-12.7,91.1-15
		c27.5-2.1,49.5,9.3,65.4,31.9c4.6,6.4,5.1,6.4,9.6,0.2c17.3-24,40.5-34.8,70.3-31.6c65.8,7.1,129.2,23,190.4,48
		c66.8,27.3,128,63.9,183.1,110.3c12.5,10.5,17.8,25.8,20.5,41.7c1.4,8.5,0.5,16.9-1.1,25.3c-1,5.2,0.3,6.4,5.5,5.3
		c23.6-5.2,44.5,1.3,63.3,15.5c6,4.5,9.9,11.2,14.6,17.1c67.3,85.5,112.7,181.3,135.7,287.7c6,27.7,10.1,55.7,12.7,83.9
		c0.5,5.8-1.3,11.2-2.8,16.6c-5,18.2-15,32.9-31,43.2c-4.8,3.1-4.9,4.9-0.3,7.8c20.6,13.1,31,32.8,33.8,56.3
		C1682.1,1051.4,1679.7,1061.5,1678.4,1071.4z M1685,1026.4c-3.5-8.8-6.8-17.4-12.1-25c-5.4-7.7-12.1-14.1-20-20
		c16.1-11.2,26.2-26.4,32.1-44.9c1.2,22.1,14.4,35.1,33.2,44.9C1699.4,991.3,1686,1004.3,1685,1026.4z M1823.7,989.9
		c-0.7,7.6-1.1,15.3-1.2,22.9c0,3.5-1.2,4.4-4.6,4.5c-23.3,1-46.4,3.5-69,9.7c-16.6,4.6-32,12-47.8,18.6c-3.5,1.5-7,2.9-11.5,3.5
		c1-9.9,1.8-19.2,2.9-28.4c1.2-9.9,6.2-17.8,13.9-24c2.2-1.8,4.6-3.3,6.9-5c6.9-5.1,14.4-7.2,23.2-7c27.5,0.5,55,0.3,82.5,0.1
		C1823,984.8,1824.1,985.9,1823.7,989.9z M1819.9,978.2c-15.3-0.1-30.6-0.1-46-0.1c-14.8,0-29.6-0.1-44.5,0.1
		c-3.1,0-5.8-0.6-8.5-2.2c-5-2.8-9.8-5.7-14.2-9.2c-9.7-7.6-14.2-17.7-15.2-29.7c-0.5-6.6-0.9-13.3-1.7-19.9
		c-0.4-3.4,0.7-3.6,3.5-2.7c9.1,2.7,17.7,6.9,26.3,10.7c28,12.6,57.6,18.1,88,19.9c4.6,0.3,10.4-1,13.6,1.3
		c3.5,2.5,1.2,8.7,1.8,13.2c0.6,4.8,0.3,9.7,0.9,14.5C1824.3,977.6,1823.1,978.3,1819.9,978.2z M1910.5,1031.3
		c-27.8,8.2-54.2,5.9-79-9.8c-2.3-1.4-3.1-3-2.9-5.6c0.6-8,0.8-16,1.5-23.9c1.2-13.4-0.2-26.6-1.4-39.9c-0.6-6.3,1-9.9,6.7-13.1
		c14.3-8,29.6-11.5,46-11.8c9.8,0.3,19.4,1.7,28.9,4.5c3.6,1.1,3.9,2.6,2.7,5.7c-6.1,15.8-18.1,25.5-32.9,32.4
		c-11.1,5.2-23,7.4-35.2,8.2c-2.8,0.2-6.9-0.8-6.7,3.7c0.2,4.3,4.2,3.3,7.1,3.5c18.9,0.9,36.3,6.1,51.3,18.1
		c7.6,6,13.2,13.5,16.6,22.6C1914.2,1028.8,1913.7,1030.3,1910.5,1031.3z M1947.1,1006.6c-6.1,8.6-14.4,14.7-23.7,19.5
		c-1.7,0.8-2.8,1.3-3.6-1.1c-7.6-21.8-24.4-33.7-45.1-41.2c-1.9-0.7-3.8-1.3-6.6-2.3c9.1-3.1,17.3-6.1,24.8-10.9
		c12.2-7.8,21.9-17.8,26.7-31.9c0.5-1.5,0.6-3.4,3.3-2c15.6,8.2,28.1,19.1,31.9,37.3C1957.3,986,1954.1,996.8,1947.1,1006.6z"/>
	<path style="fill:#FDCA00;" d="M1647.2,985.4c-4.6-2.9-4.5-4.7,0.3-7.8c16-10.4,26-25,31-43.2c1.5-5.4,3.3-10.9,2.8-16.6
		c-2.6-28.2-6.7-56.2-12.7-83.9c-23-106.4-68.4-202.2-135.7-287.7c-4.6-5.9-8.6-12.6-14.6-17.1c-18.8-14.2-39.7-20.7-63.3-15.5
		c-5.1,1.1-6.5-0.1-5.5-5.3c1.6-8.4,2.5-16.8,1.1-25.3c-2.7-16-8-31.2-20.5-41.7c-55.1-46.5-116.3-83-183.1-110.3
		c-61.2-25-124.7-40.9-190.4-48c-29.8-3.2-53,7.6-70.3,31.6c-4.5,6.2-5.1,6.3-9.6-0.2c-16-22.6-37.9-33.9-65.4-31.9
		c-30.7,2.3-61.1,7.8-91.1,15c-106.7,25.4-202.3,73.1-286.9,142.9c-2.6,2.2-4.8,4.6-6.6,7.4c-12.4,18.5-18.2,38.3-13.1,60.6
		c1.2,5-0.3,6.2-5.2,5.2c-5.4-1.2-10.8-1.8-14.1-1.7c-19.9-0.1-44,9.6-53.3,20.8c-41.2,49.6-75,103.8-101.3,162.6
		c-28.8,64.4-47.3,131.7-55.7,201.7c-1,8.4-3.3,17-2,25.3c3.5,23.2,13.6,42.7,34.1,55.6c4.2,2.6,4.1,4.7,0.1,7.3
		c-5.2,3.4-10.1,7.1-14.2,11.7c-12.6,14-20.5,30.6-19.7,49.3c1.1,25.4,5.6,50.6,10.8,75.6c23.6,114.1,72.5,216.2,146.3,306.3
		c2.9,3.5,6,6.6,9.8,9.1c18.4,12,38,17.2,59.8,12.1c4.2-1,5.4,0.4,4.8,4.9c-0.1,1-0.4,1.9-0.6,2.9c-4.2,26.6,2.7,49.9,23.2,67.5
		c22.8,19.7,47.7,36.8,73.3,52.8c56.6,35.5,117.1,62.2,181.3,80.4c36.9,10.5,74.5,17.3,112.5,22.1c30.8,3.8,55.2-6.3,73.4-31.4
		c4.6-6.4,5.1-6.4,9.7,0c15.6,22,37,33.3,63.9,32c14.7-0.7,29.4-3.4,44.1-5.7c56.3-8.9,110.6-24.8,162.9-47.2
		c56-23.9,108-54.6,155.9-92.3c8.2-6.4,17.4-11.9,23.5-20.8c12.4-18.3,17.8-38.1,12.9-60.2c-1.1-4.9,0.4-6.1,5.3-5.1
		c2.1,0.4,4.2,0.9,6.4,1.2c24.3,2.5,46.4-3.6,62.2-22.4c47.3-56.4,84.1-119.2,111.3-187.7c21.7-54.5,36.1-110.9,43.7-169.1
		c1.3-9.9,3.7-20.1,2.6-29.8C1678.2,1018.2,1667.9,998.5,1647.2,985.4z M981.5,1568c-323.8,0-587.1-263.5-586.5-586.8
		c0.7-324.9,262.8-586.3,587.6-586.1c323,0.2,585.3,263,585.2,586.4C1567.8,1305.4,1305.2,1568,981.5,1568z"/>
	<path style="fill:#FDCA00;" d="M1613.5,314.3c-0.9,20.2-9.6,37.9-23.4,53.4c-2,2.3-6.4,4.6-2.8,8.1c3.4,3.2,5.6-1,7.7-2.9
		c14.7-13.1,31.4-21.7,51.3-23.3c9-0.7,17.5,0.9,25.7,4.7c2.5,1.2,3,2.4,1.7,5c-13.8,25.7-34.3,42.9-63.1,49.4c-2.4,0.5-4,0-5.6-1.9
		c-14.8-17.7-31-34-48.7-48.7c-2.1-1.7-2.5-3.3-1.9-6c6.4-29,23.9-49.2,49.5-63c2.8-1.5,3.7-0.4,4.8,1.9
		C1612.1,298.2,1613.4,305.6,1613.5,314.3z"/>
	<path style="fill:#FDCA00;" d="M133,967.7c-1.4,16.5,0.2,31.1,1.2,45.7c0.3,4.6-0.8,7.2-4.9,9.5c-24.3,14-49.8,16.3-76.5,8.5
		c-4-1.2-4.1-3-2.8-6.3c6.3-15.4,18.1-25.1,32.8-31.9c11.3-5.2,23.3-7.7,35.7-8c0.7,0,1.3,0,2,0c2.2-0.1,4.1-0.8,4.2-3.3
		c0.1-2.8-1.8-3.8-4.2-3.7c-8,0.1-16-1.1-23.7-3.2c-17.5-4.7-32.7-13.1-42.8-28.8c-7.5-11.8-6.7-13.8,6.8-16.6
		c24.9-5,48.6-2,70.4,12c2.4,1.5,3.3,3.2,3,6.1C133.7,954.9,133.3,962.2,133,967.7z"/>
	<path style="fill:#FDCA00;" d="M315.9,349.8c18.4,0.5,35.7,9.2,51.1,22.6c0.9,0.8,1.7,1.6,2.5,2.4c1.7,1.6,3.5,3.6,6,1.4
		c2.6-2.4,0.9-4.5-0.9-6.4c-10.1-10.6-17.8-22.8-22-36.9c-4-13.6-4.5-27.1,1.1-40.5c1.5-3.7,3-4.7,6.9-2.5
		c24.7,14,41.6,33.8,48,61.9c0.7,2.9,0.3,4.8-2.2,6.9c-17.6,14.6-33.7,30.7-48.3,48.3c-1.8,2.1-3.6,2.5-6.1,1.9
		c-28.6-6.6-48.8-23.7-62.6-49.2c-1.5-2.9-0.7-4,1.9-5.2C298.2,350.9,305.7,349.7,315.9,349.8z"/>
	<path style="fill:#FDCA00;" d="M1650,1613.4c-21.4-0.4-39-9.5-54.8-23.2c-2.2-1.9-4.4-6.6-8-2.8c-3.1,3.3,1,5.6,2.9,7.8
		c14.3,16.4,23.7,34.8,23.3,57.2c-0.1,6.9-1.8,13.5-4.8,19.7c-1.1,2.4-2.1,3.3-4.8,1.9c-25.7-14-43.2-34.3-49.6-63.5
		c-0.6-2.6,0.2-4,2-5.5c17.5-14.7,33.7-30.7,48.2-48.3c2-2.4,4.1-2.9,7-2.2c28.3,6.7,48.5,23.7,62.2,49c1.5,2.8,0.8,4.1-1.8,5.3
		C1664.9,1612,1657.7,1613.6,1650,1613.4z"/>
	<path style="fill:#FDCA00;" d="M1881.4,927.2c9.7,0.3,19.4,1.7,28.9,4.5c3.6,1.1,3.9,2.6,2.7,5.7c-6.1,15.8-18.1,25.5-32.9,32.4
		c-11.1,5.2-23,7.4-35.2,8.2c-2.8,0.2-6.9-0.8-6.7,3.7c0.2,4.3,4.2,3.3,7.1,3.5c18.9,0.9,36.3,6.1,51.3,18.1
		c7.5,6,13.2,13.5,16.6,22.7c1.1,2.9,0.6,4.5-2.6,5.4c-27.8,8.2-54.2,5.9-79-9.8c-2.3-1.4-3.1-3-2.9-5.6c0.6-8,0.8-16,1.5-23.9
		c1.2-13.4-0.2-26.6-1.4-39.9c-0.5-6.3,1-9.9,6.7-13.1C1849.8,931,1865.1,927.6,1881.4,927.2z"/>
	<path style="fill:#FDCA00;" d="M349.5,1650c0.5-20.9,9.3-38.5,22.7-54c0.9-1,1.8-2,2.7-2.9c1.7-1.7,2.8-3.6,1-5.7
		c-2.1-2.4-4.1-1-6,0.7c-9,8.6-19.1,15.5-30.7,20c-15,5.9-30.3,7.6-45.7,1.7c-6.4-2.4-6.4-2.7-3-8.6c13.7-23.9,33.3-40.2,60.6-46.7
		c3.3-0.8,5.6-0.2,7.8,2.5c14.2,17.2,30,33,47.3,47.2c2.6,2.1,3.1,4.4,2.3,7.4c-6.8,28.5-24,48.7-49.6,62.4
		c-2.6,1.4-3.4,0.3-4.4-1.8C351,1665.3,349.5,1657.8,349.5,1650z"/>
	<path style="fill:#FDCA00;" d="M927.4,78.8c-0.1-6.4,1.5-15.7,4-25c1.3-4.7,3.3-5.1,7.3-3.4c15.1,6.6,24.7,18.3,31.2,32.9
		c4.8,10.6,7.3,21.7,7.8,33.3c0,1.3,0.1,2.7,0.2,4c0.2,2.3,0.9,4.5,3.7,4.4c2.8-0.1,3.3-2.3,3.3-4.6c0.4-12.6,2.6-24.8,7.7-36.4
		c6.6-14.9,16.3-27,31.8-33.6c4.1-1.7,6-1.3,7.3,3.4c7.2,26.3,5.2,51.3-8.5,75.2c-2.2,3.9-4.7,5.7-9.5,5.2
		c-10.9-1-21.9-1.9-32.9-1.9c-10.8,0-21.6,1-32.4,1.9c-3.7,0.3-5.7-0.9-7.6-3.9C932.1,116.9,927.3,100,927.4,78.8z"/>
	<path style="fill:#FDCA00;" d="M927.3,1881.3c0-17.5,4.1-33.9,13.6-48.8c1.7-2.7,3.5-3.8,6.9-3.5c10.9,0.9,21.9,1.9,32.9,1.9
		c11.5,0,22.9-1.1,34.4-1.9c3.3-0.2,5.2,0.7,6.9,3.5c15.3,24.9,17.2,51.2,9,78.7c-0.9,2.9-2.1,3.1-4.7,2.1
		c-16.5-6-26.4-18.6-33.4-33.9c-4.7-10.4-7.2-21.4-7.6-32.9c-0.1-1.7-0.3-3.3-0.4-5c-0.2-2.1-1.2-3.5-3.4-3.5
		c-2.3,0-3.1,1.6-3.3,3.6c-0.6,5.6-0.8,11.3-1.8,16.9c-3.4,18.7-11,35.2-26.3,47.3c-4.8,3.8-11,9.2-16.2,7.4
		c-4.7-1.6-4.1-10.1-5.4-15.6C927.4,1892.3,927.5,1886.8,927.3,1881.3z"/>
	<path style="fill:#FDCA00;" d="M913.6,273.4c2.9-11.8,8.1-21.7,12.5-31.9c11.1-25.6,16.6-52.6,18.6-80.3c0.4-5.6,0.8-11.3,0.9-17
		c0-2.4,0.6-3.6,3.3-3.7c8.8-0.4,17.6-0.9,26.4-1.4c2.5-0.2,3.1,0.8,3.1,3.1c-0.1,31,0,62-0.1,93c0,0.8,0,1.7-0.3,2.4
		c-7.3,15.4-15.9,29.5-34.6,32.9C933.6,272.3,923.8,272.2,913.6,273.4z"/>
	<path style="fill:#FDCA00;" d="M1530.2,528.5c-5.3-6.3-10.2-12.2-15.3-17.9c-10.1-11.5-12-24.6-8.9-39.2
		c1.9-8.9,5.8-16.1,12.5-22.5c19.6-18.8,38.6-38.3,57.7-57.6c2.5-2.5,3.8-3.2,6.4,0c5,6.2,10.5,12.1,16,17.9c2.1,2.3,2.3,3.7,0,6.1
		c-27.2,28.2-48,60.3-60.7,97.5C1536,518.1,1533.7,523.3,1530.2,528.5z"/>
	<path style="fill:#FDCA00;" d="M913.8,1689.9c11,1.4,21.7,0.9,32.1,3.4c6.8,1.6,12.8,4.8,17.5,10c2.8,3.1,5.3,6.4,7.7,9.8
		c5.2,7.2,7.5,14.9,7.3,24.2c-0.6,27.3-0.3,54.6-0.1,81.9c0,3.9-0.9,5.1-4.9,4.7c-7.9-0.8-15.9-1.2-23.9-1.5c-2.9-0.1-3.9-0.8-4-4
		c-0.8-38.7-8.4-75.9-25.5-110.9C917.4,1702.2,915.2,1696.6,913.8,1689.9z"/>
	<path style="fill:#FDCA00;" d="M984.6,1774.2c0-14.8,0-29.7,0-44.5c0-2.7,0.4-5.2,1.8-7.6c1.6-2.5,2.9-5.2,4.4-7.8
		c7.8-13.1,18.6-21.6,34.3-22.6c7-0.5,13.9-1,20.9-1.7c2.6-0.3,3.4,0.6,2.5,3c-1.7,4.7-3.1,9.5-5.3,14
		c-17.3,35.1-25.1,72.4-25.8,111.4c-0.1,3.4-1.4,4.1-4.4,4.3c-8.3,0.3-16.6,0.7-24.9,1.5c-3.4,0.3-3.7-1.1-3.7-3.9
		C984.6,1804.9,984.6,1789.5,984.6,1774.2z"/>
	<path style="fill:#FDCA00;" d="M1048.8,273.2c-11.3-1.5-22.5-0.8-33.3-3.8c-10.1-2.8-16.8-9.6-22.6-17.8
		c-5.5-7.8-8.6-15.8-8.4-25.8c0.6-27.3,0.3-54.6,0.1-82c0-3.6,0.6-5,4.6-4.6c8,0.7,15.9,1.1,23.9,1.5c3,0.1,4.3,1,4.3,4.4
		c0.6,38.9,8.5,76.2,25.8,111.3c2.1,4.3,3.5,9,5.1,13.5C1048.7,270.7,1048.6,271.7,1048.8,273.2z"/>
	<path style="fill:#FDCA00;" d="M528.6,1530.3c-8.2,5.2-16.8,8.2-25.3,11.3c-32.7,12-60.7,31.4-86,55c-5.1,4.8-5.1,4.8-10.3,0.1
		c-5.2-4.7-10.3-9.5-15.7-13.9c-3-2.4-3-3.7-0.3-6.4c20.2-20,40.3-40.2,60.5-60.3c11.8-11.8,35.2-15.3,50-7.3
		c3.3,1.8,6.5,4.1,9.4,6.5C516.8,1520.1,522.5,1525.1,528.6,1530.3z"/>
	<path style="fill:#FDCA00;" d="M1434.2,1530.3c8-6.6,15.2-13,22.9-18.7c12.8-9.5,26.9-7.7,41.1-3.9c4.8,1.3,8.7,3.6,12.2,7.1
		c20.3,20.6,40.8,41.1,61.4,61.4c2.7,2.7,2.6,4-0.2,6.4c-6.2,5.1-12.1,10.4-17.9,15.9c-2.4,2.3-3.7,2-5.9-0.1
		c-20.7-19.5-43-36.8-68.9-48.8c-12.3-5.7-25.1-10.5-37.6-15.8C1439.1,1533.1,1437.1,1531.8,1434.2,1530.3z"/>
	<path style="fill:#FDCA00;" d="M432.8,1434.6c6.1,7.3,12,14,17.6,21.1c8.3,10.4,9.3,22.3,6.8,35c-1.8,9-5.4,16.5-12.3,23.1
		c-19.7,18.9-38.8,38.4-58,57.8c-2.9,2.9-4.3,2.7-6.8-0.3c-4.8-5.8-9.8-11.4-15-16.7c-2.7-2.8-2.9-4.5,0-7.5
		c18-19,33.9-39.7,45.8-63.2c6.1-12,10.5-24.7,15.7-37.2C428.2,1442.8,429.9,1438.8,432.8,1434.6z"/>
	<path style="fill:#FDCA00;" d="M1434.2,432.8c10.6-6.5,21.8-9.9,32.6-14.2c30.6-12.3,56.6-31.4,80.4-53.8c2.9-2.7,4.5-2.6,7.1,0
		c5.9,5.6,12,11,18.2,16.4c2,1.7,2,2.7,0.1,4.6c-22,21.8-43.8,43.8-65.9,65.6c-5,4.9-12.1,5-18.6,6.3c-11.8,2.3-23,0.7-32.6-7
		C1448.5,445,1441.6,439,1434.2,432.8z"/>
	<path style="fill:#FDCA00;" d="M528.4,432.8c-8.1,6.5-15.2,13.7-23.6,19.4c-12.2,8.3-25.2,6.7-38.4,3.5c-5.4-1.3-9.9-3.8-14-7.9
		c-20.2-20.6-40.6-40.9-61.1-61.1c-2.6-2.6-2.9-3.9,0.1-6.4c6.2-5.1,12-10.5,17.8-16c2.3-2.2,3.7-2.1,6,0.1
		c19.4,18.4,40.4,34.6,64.4,46.7c11.4,5.8,23.5,10.1,35.3,14.9C519.5,427.9,524,429.9,528.4,432.8z"/>
	<path style="fill:#FDCA00;" d="M1774,978.2c-14.8,0-29.6-0.1-44.5,0.1c-3.1,0-5.8-0.6-8.5-2.2c-4.9-2.8-9.8-5.7-14.2-9.2
		c-9.7-7.6-14.2-17.7-15.2-29.7c-0.5-6.6-0.9-13.3-1.7-19.9c-0.4-3.4,0.7-3.6,3.5-2.7c9.1,2.7,17.6,6.9,26.3,10.7
		c28,12.6,57.6,18.1,88,19.9c4.6,0.3,10.4-1,13.6,1.3c3.5,2.5,1.2,8.6,1.8,13.2c0.6,4.8,0.3,9.7,0.9,14.4c0.4,3.5-0.8,4.1-4,4.1
		C1804.6,978.1,1789.3,978.2,1774,978.2z"/>
	<path style="fill:#FDCA00;" d="M432.8,528.8c-4.2-6.3-6.8-12.6-9-19c-12.4-35.9-32.9-66.6-59-93.9c-2.7-2.8-2.7-4.4-0.1-7.1
		c5.6-5.9,11-12.1,16.3-18.2c1.7-1.9,2.7-2.1,4.6-0.2c22,22.1,44,44.1,66,66.1c1.1,1.1,1.8,2.3,2.3,3.8c2.2,6.6,3.8,13.4,4.5,20.4
		c1,10.3-1.9,19.5-8.3,27.5C444.6,514.9,438.8,521.6,432.8,528.8z"/>
	<path style="fill:#FDCA00;" d="M188.8,978.2c-15.3,0-30.6-0.1-46,0.1c-2.9,0-4-0.4-3.7-3.8c0.8-8.1,1.2-16.3,1.4-24.4
		c0.1-3.3,1.1-4.1,4.3-4.2c23.1-0.9,46.1-3.4,68.5-9.6c15.7-4.4,30.6-11.1,45.5-17.5c3.7-1.6,7.5-2.8,11.2-4.1
		c1.5-0.5,3.1-1,2.8,1.7c-0.9,9.8-0.9,19.6-3,29.3c-2,9.2-7.3,16.2-14.6,21.9c-1.4,1.1-3,2.1-4.5,3.2c-7.4,5.5-15.4,8.3-25,7.7
		C213.5,977.6,201.1,978.2,188.8,978.2z"/>
	<path style="fill:#FDCA00;" d="M1530.1,1434.5c3,3.7,4.7,8,6.4,12.1c6.2,15.2,11.7,30.7,19.9,45.1c11.6,20.4,25.9,38.7,42,55.7
		c2.5,2.6,2.7,4.1,0.1,6.8c-5.7,5.8-11,12-16.3,18.2c-1.9,2.2-3,2.1-5,0.1c-21.7-21.8-43.5-43.6-65.3-65.4c-0.8-0.8-1.8-1.7-2.1-2.7
		c-6.2-17.8-9.1-35.3,4.7-51.3C1519.6,1447,1524.7,1440.9,1530.1,1434.5z"/>
	<path style="fill:#FDCA00;" d="M189.4,985c14.7,0,29.3,0.1,44-0.1c3.3,0,6.2,0.7,9,2.3c5.1,2.9,10,5.9,14.6,9.6
		c9,7.2,13.3,16.9,14.4,28.1c0.7,7.3,1.1,14.6,1.8,21.9c0.4,3.8-1.9,2.1-3.4,1.7c-8.4-2.3-16.2-6.1-24-9.7
		c-28.6-13-58.7-19.1-89.9-20.8c-4.2-0.2-8.3-0.6-12.5-0.7c-2.2,0-2.8-0.8-2.9-2.9c-0.4-8.8-0.8-17.6-1.6-26.4c-0.3-3.8,2-3,4-3
		C158.4,985,173.9,985,189.4,985z"/>
	<path style="fill:#FDCA00;" d="M1689.7,1049.1c1-9.9,1.8-19.2,2.9-28.4c1.2-9.9,6.2-17.8,13.9-24c2.2-1.8,4.6-3.3,6.9-5
		c6.9-5.1,14.4-7.2,23.3-7c27.5,0.5,55,0.3,82.5,0.1c4,0,5.1,1,4.7,5c-0.7,7.6-1.1,15.3-1.2,22.9c0,3.5-1.2,4.4-4.6,4.5
		c-23.3,1-46.4,3.5-69,9.7c-16.6,4.6-32,12-47.8,18.6C1697.7,1047.1,1694.1,1048.6,1689.7,1049.1z"/>
	<path style="fill:#FDCA00;" d="M1609.4,353c5-11.1,9.7-22.2,10.5-34.6c0.7-10.5-0.5-20.5-5.1-30.1c-0.9-1.8-2-3.3,1.2-4.3
		c12.5-3.9,25-5.4,37.7-1.3c16.5,5.4,27.4,19.5,28.7,37.1c0.7,9.1-0.5,17.9-3.3,26.6c-0.5,1.7-0.7,3.5-3.6,2.2
		c-21-9.9-41.4-6.4-61.5,3.1c-1.3,0.6-2.7,1.3-4.1,1.9C1609.9,353.4,1609.6,353.2,1609.4,353z"/>
	<path style="fill:#FDCA00;" d="M981,94c-4.3-14.3-10.8-27.3-21.6-37.7c-5.9-5.7-12.7-10.3-20.5-12.9c-2.1-0.7-3.4-1.2-2-3.7
		c8.8-16.4,20.3-29.4,40-32c13.9-1.8,25.4,3.6,35.3,12.9c5.8,5.4,10.2,11.8,13.7,18.9c0.9,1.8,1.2,2.8-1.2,3.6
		c-21.8,7.7-33.6,24.5-41.2,45.2C982.9,90.3,982.9,92.4,981,94z"/>
	<path style="fill:#FDCA00;" d="M1868.2,981.5c9.1-3.1,17.3-6.1,24.8-10.9c12.2-7.8,21.9-17.8,26.7-31.9c0.5-1.5,0.6-3.4,3.3-2
		c15.6,8.2,28.1,19.1,31.9,37.3c2.5,12-0.8,22.8-7.7,32.5c-6.1,8.6-14.4,14.7-23.7,19.5c-1.7,0.9-2.8,1.3-3.6-1.1
		c-7.6-21.8-24.4-33.7-45.1-41.2C1872.9,983.1,1871,982.5,1868.2,981.5z"/>
	<path style="fill:#FDCA00;" d="M94.5,981.8c-14.7,4.4-27.7,10.8-38.2,21.6c-5.9,6.1-10.4,12.9-13.1,21c-0.5,1.4-0.5,3.3-3.2,1.9
		c-15-7.8-27.2-18.1-31.5-35.3c-3.7-15,1-27.9,11-39.1c5.6-6.3,12.4-11,19.9-14.8c1.5-0.8,2.7-1.7,3.6,0.9
		c7.7,21.9,24.6,33.9,45.5,41.4c1.7,0.6,3.4,1.2,5.2,1.8C93.9,981.3,94,981.4,94.5,981.8z"/>
	<path style="fill:#FDCA00;" d="M352.3,353.3c-12.5-6-25.4-10.5-39.6-10.4c-8.6,0.1-16.8,1.7-24.7,5.3c-1.3,0.6-2.8,2.5-3.8-0.5
		c-5.6-17.3-6.8-34.5,4.4-50.1c9.8-13.7,24.2-18,40.4-17.1c6.1,0.3,12.2,1.6,18,3.7c1.5,0.5,2.7,0.7,1.6,3
		c-10.4,21.5-6.5,42.3,3.5,62.8c0.4,0.9,0.8,1.8,1.2,2.7C353,352.9,352.7,353.1,352.3,353.3z"/>
	<path style="fill:#FDCA00;" d="M354.4,1609.1c-5.9,11.1-10,22.1-11.2,34c-1.2,11,0.3,21.6,5,31.6c0.7,1.5,2.5,3.1-0.7,4.1
		c-16.8,5.2-33.5,6.7-48.9-3.8c-16.4-11.2-19.8-27.9-17.5-46.3c0.5-4.4,2.1-8.7,3.2-13.1c0.4-1.6,1.1-2.3,2.8-1.5
		c22.7,10.9,44.3,6.1,65.5-4.7C352.7,1609.4,353,1609.4,354.4,1609.1z"/>
	<path style="fill:#FDCA00;" d="M981.5,1868c3.5,11.2,7.5,20.6,13.6,29c7.5,10.3,16.7,18.4,29,22.7c1.5,0.5,3.5,0.7,2.1,3.2
		c-8.8,16.5-20.3,29.8-40.2,32.4c-14.7,1.9-26.6-4.2-36.7-14.3c-5.1-5.1-9.1-11-12.3-17.5c-0.8-1.6-1.5-2.7,1.1-3.6
		c21.7-7.7,33.6-24.6,41.2-45.2C980,1873,980.5,1871.3,981.5,1868z"/>
	<path style="fill:#FDCA00;" d="M1609.7,1608.8c17.6,9.9,36,14.4,56.1,9.4c1.4-0.4,2.9-0.8,4.3-1.3c8.5-3.1,8.6-3.1,10.7,6.1
		c3.5,15.2,3,30-6.8,42.9c-12.1,16-29.1,18.6-47.6,15.8c-3.6-0.5-7.1-1.8-10.6-2.7c-1.5-0.4-2.7-0.8-1.6-3
		c10.4-21.6,6.5-42.4-3.5-62.8c-0.6-1.3-2.4-2.6-1-4.4L1609.7,1608.8z"/>
	<path style="fill:#FDCA00;" d="M278,1026.6c-1-22.2-14.3-35.2-33.2-45c19-9.8,32.3-23.1,33.2-45.6c5.7,18.7,15.8,34.1,32.2,45.5
		C293.9,992.8,283.9,1008.1,278,1026.6z"/>
	<path style="fill:#FDCA00;" d="M1684.9,936.7c1.2,22.1,14.4,35.1,33.2,44.9c-18.7,9.8-32.1,22.8-33.1,44.9
		c-3.5-8.8-6.8-17.3-12.1-25c-5.4-7.7-12.1-14.1-20-20C1669,970.3,1679,955.1,1684.9,936.7z"/>
	<path style="fill:#FDCA00;" d="M936.1,1685c14.1-4.5,26.6-11.1,36.8-21.7c2.5-2.6,4.8-5.5,7.1-8.4c1-1.3,1.8-1.9,3-0.2
		c10.9,15.1,25.8,24.6,43.8,30.3c-22.2,0.9-35.3,14.1-45.2,33.1C971.6,1699,958.2,1686,936.1,1685z"/>
	<path style="fill:#FDCA00;" d="M461.4,1501c1-5.4,2.3-10.7,3-16.1c1.5-12.4-1.5-23.7-9.3-33.7c-0.9-1.2-1.8-2.4-3.1-4.2
		c6.3,2.6,11.8,5.1,17.6,7c11.1,3.8,22.5,4.2,34,2.7c2.5-0.3,3.4-0.1,2.9,2.6c-2.9,17.4,0.7,33.7,8.8,49.1c0.2,0.4,0.2,0.9,0.3,1.3
		c-0.8,0.8-1.3,0.1-1.7-0.3c-13.6-11.6-29.2-13.4-45.9-9.1c-1.9,0.5-3.9,0.9-5.8,1.4C461.9,1501.5,461.7,1501.2,461.4,1501z"/>
	<path style="fill:#FDCA00;" d="M936.7,278.2c21.9-1.2,34.9-14.3,44.6-33.2c9.9,18.6,22.8,32.2,44.6,33.6c-4.5,1.8-9.1,3.5-13.5,5.5
		c-11.6,5.2-21.1,13.1-28.8,23.3c-0.9,1.2-1.7,3.8-3.8,0.9C969.1,293.2,954.5,283.9,936.7,278.2z"/>
	<path style="fill:#FDCA00;" d="M1447.8,1508.6c7.7-15.5,11.7-31.7,8.8-49.2c-0.3-1.6-0.6-3.3,2.3-2.8c17.7,2.7,34.4-0.8,50.1-9.1
		c0.2,0.2,0.4,0.5,0.7,0.7c-8.5,10.9-13.3,23-11.2,37.1c0.8,5.4,2,10.7,3.2,16.9c-19-6.5-36.9-6-52.9,7.1
		C1448.5,1509.1,1448.1,1508.9,1447.8,1508.6z"/>
	<path style="fill:#FDCA00;" d="M1502.4,460.5c-6.3,20.3-6.5,38.4,7.5,54.7c-6.8-2.2-13-5.4-19.6-7.1c-10-2.6-20-3.3-30.2-1.8
		c-2.8,0.4-4,0-3.5-3.2c2.8-17.1-0.9-33-8.8-48.2c-0.2-0.4-0.2-0.9-0.8-3.2C1463.9,467,1482.2,467.3,1502.4,460.5z"/>
	<path style="fill:#FDCA00;" d="M453.1,514.6c13.8-15.9,13.9-34,7.5-54c20.1,6.4,38.5,6.5,54.8-7.9c-2.9,7.7-6.3,14.8-8,22.6
		c-2,9-2.5,18.1-1.2,27.2c0.2,1.6,1.8,4.4-2.2,3.7c-17.8-2.8-34.3,1.2-50.2,9C453.6,515.1,453.3,514.9,453.1,514.6z"/>
	<path style="fill:#FDCA00;" d="M462.1,1501.8c-0.4-0.1-0.8-0.1-1.1-0.2c0.2-0.2,0.4-0.4,0.5-0.6
		C461.7,1501.2,461.9,1501.5,462.1,1501.8z"/>
	<path style="fill:#FDCA00;" d="M1448.8,1509.4c-0.3,0.2-0.8,0.7-1,0.6c-0.8-0.3-0.3-0.9-0.1-1.4
		C1448.1,1508.9,1448.5,1509.1,1448.8,1509.4z"/>
	<path style="fill:#FDCA00;" d="M1609.8,1608.7c-0.2,0.2-0.4,0.4-0.5,0.6c-0.1-0.1-0.2-0.2-0.3-0.3c0.3-0.1,0.5-0.1,0.8-0.2
		C1609.7,1608.8,1609.8,1608.7,1609.8,1608.7z"/>
	<path style="fill:#FDCA00;" d="M453.8,515.4c-0.4,0.1-0.8,0.3-1.2,0.4c0.1-0.4,0.3-0.8,0.4-1.2
		C453.3,514.9,453.6,515.1,453.8,515.4z"/>
	<path style="fill:#FDCA00;" d="M1509.1,1447.6c0.4-0.1,1-0.4,1.2-0.3c0.4,0.5,0,0.8-0.5,1
		C1509.5,1448.1,1509.3,1447.8,1509.1,1447.6z"/>
	<path style="fill:#FDCA00;" d="M1610.1,353.6c-0.4,0.1-1,0.4-1.1,0.2c-0.4-0.4,0-0.7,0.5-0.9
		C1609.6,353.2,1609.9,353.4,1610.1,353.6z"/>
	<path style="fill:#FDCA00;" d="M353.4,352.6c0.1,0.4,0.1,0.8,0.2,1.2c-0.4-0.2-0.8-0.3-1.2-0.5C352.7,353.1,353,352.9,353.4,352.6z
		"/>
	<path style="fill:#090803;" d="M982.7,395.1c-324.8-0.2-586.9,261.2-587.6,586.1c-0.7,323.3,262.7,586.8,586.5,586.8
		c323.7,0,586.2-262.6,586.3-586.4C1567.9,658.1,1305.7,395.3,982.7,395.1z M981.3,1562.1c-320.5,0-580.9-260.7-580.5-580.8
		C401.3,660,661,400.9,982.4,401.1c320.1,0.2,579.9,260.4,579.6,580.5C1561.8,1302.5,1302,1562.1,981.3,1562.1z"/>
	<path style="fill:#FDCA00;" d="M982.4,401.1C661,400.9,401.3,660,400.9,981.2c-0.5,320.2,260,580.8,580.5,580.8
		c320.7,0,580.5-259.6,580.7-580.5C1562.3,661.4,1302.5,401.2,982.4,401.1z M980.3,1526.1c-299.5-0.3-543-244.6-542.8-544.4
		c0.2-300.9,243.9-544,544.9-543.6c300.1,0.3,543.7,244.5,543.2,544.5C1525.1,1283,1280.9,1526.4,980.3,1526.1z"/>
	<path style="fill:#090803;" d="M982.3,438c-301-0.3-544.6,242.8-544.9,543.6c-0.2,299.9,243.3,544.1,542.8,544.4
		c300.7,0.3,544.8-243.1,545.3-543.6C1526,682.5,1282.4,438.3,982.3,438z M1517.7,945c0.7,9.6,0.8,19.3,1.2,28.9
		c0.1,3.2-0.7,4.3-4,4.2c-14.5-0.2-29-0.1-43.5-0.1c-14,0-28,0-42,0c-2.7,0-5.1-0.6-7.6-1.8c-18.7-9-28.6-24.1-31.1-44.5
		c-0.9-7.1-1.1-14.3-1.5-21.4c-0.2-3.6,1-3.8,4-2.8c11.2,3.9,21.5,9.7,32.2,14.6c24.2,11,49.7,16.5,76.1,18.7
		c4.3,0.4,8.6,0.8,13,0.9C1516.7,942,1517.5,942.6,1517.7,945z M1201.7,988.3c-0.1-2.8,1.1-3.3,3.6-3.3c46,0.1,91.9,0,137.9,0
		c2.3,0,4.1,0.8,6,2c8.7,5.7,15.2,13.4,20.1,22.5c7.4,13.7,10.9,28.5,12.5,43.8c0.4,3.9-0.5,4.3-3.9,2.8
		c-17.8-8.2-36.2-14.8-55.2-20.2c-38.3-10.8-77.4-16.1-117.2-17c-1.8,0-3.7-0.1-5.5-0.1c-0.3,0-0.6-0.2-1-0.3
		C1200.2,1008.5,1201.8,998.4,1201.7,988.3z M1198.7,944.4c8.7-0.4,17.3-0.7,25.9-1.2c52.6-3.1,103.4-14,151.6-35.6
		c1.2-0.5,2.4-1.1,3.7-1.6c1.5-0.5,2.2,0,2.1,1.6c-2.7,25.3-8.7,49.2-29.7,66.4c-3.7,3-7.5,4.2-12.3,4.2c-44.5-0.2-88.9-0.1-133.4,0
		c-3.7,0-5.1-0.7-5.1-4.8C1201.6,963.7,1200.1,954.2,1198.7,944.4z M1377.3,1010.7c-2.6-5.8-6-11.1-10-16c-4-4.9-8.7-9.1-14.2-13.1
		c16.5-11.6,25.3-28,31-46.6c3.4,20.9,13.9,36.6,33.5,46.7c-19.5,9.9-29.9,25.4-33.2,47C1381.8,1022,1379.8,1016.3,1377.3,1010.7z
		 M1394.9,638.5c52.5,63.6,88.9,135.3,108.7,215.4c6,24.3,10,48.9,12.7,73.7c0.9,7.8,0.8,7.8-6.8,7.5c-33.7-1.5-65.7-9.6-95.6-25.3
		c-9.9-5.2-19.9-10-31.4-10.8c-2.1-0.1-3.8,0.2-5.7,1.1c-37.1,17.2-76.1,27.6-116.5,33.1c-19.2,2.6-38.4,4-57.8,4.3
		c-3.7,0.1-5.4-0.5-6.3-4.7c-5.5-24.9-15.2-48.1-29-69.5c-1.5-2.3-1.9-3.6,0.4-5.8c43.2-41.6,91.6-75.5,148.1-96.7
		c7.6-2.8,11.1-8.4,14.5-14.6c5-9.2,7.8-19.4,11.2-29.3c10.3-30,27.7-55.5,48.7-78.8C1392.3,635.7,1393.2,636.4,1394.9,638.5z
		 M1289.5,1288.7c-1.8,1-3.2,0.2-4.6-0.1c-16.3-4-31.7-1.8-45.9,7.3c-1.4,0.9-2.9,1.6-4.3,2.4c-0.2,0.5-0.5,0.8-1,0.5c0,0,0,0,0,0
		c0-0.1,0-0.1,0-0.2c0-0.1,0-0.2,0.1-0.4c0-0.2,0.1-0.4,0.1-0.5v0c0.3-0.7,0.7-1.4,1-2.1c0,0,0,0,0,0c1-2.1,2-4.2,2.9-6.4
		c0.9-2.2,1.8-4.3,2.6-6.5c0.3-0.7,0.5-1.5,0.8-2.2c0.2-0.6,0.4-1.2,0.6-1.8c0.1-0.2,0.1-0.4,0.2-0.6c0.2-0.7,0.4-1.3,0.6-2
		c0.2-0.6,0.3-1.3,0.5-1.9c0.1-0.2,0.1-0.5,0.2-0.7c0.2-0.6,0.3-1.2,0.4-1.9c0.2-0.8,0.3-1.5,0.5-2.3c0.1-0.7,0.3-1.4,0.4-2.2
		c0-0.2,0-0.3,0.1-0.5c0.1-0.8,0.2-1.5,0.3-2.3c0.1-0.7,0.2-1.4,0.2-2.1c0.4-5,0.2-10-0.5-14.9c-0.2-1.4-0.7-3,2-2.6
		c17.5,2.6,33.6-1.8,49-9.8c0.7-0.4,1.5-0.6,2.8-0.8C1286.9,1251,1283.1,1269.1,1289.5,1288.7z M1225.1,1299.2
		c-4,6.7-8.5,13.1-14.5,19.5c-22.2-60.5-57.6-111.6-101.9-157.1c8.5-6.4,16.8-12.8,24.2-20.2c2.5-2.5,3.4,0,4.7,1.2
		c15.3,15.3,30.6,30.6,46,45.9c16,16,31.9,32.2,48.2,47.9c4.6,4.5,6.2,9.5,6.6,15.5C1239.7,1269.3,1233.9,1284.7,1225.1,1299.2z
		 M1269.1,1237.5c-4.2,0.9-8.5,1.2-12.8,1.7c-8.5-0.1-15.3-2.7-21.6-9.2c-30.3-30.9-61-61.4-91.8-91.9c-2.7-2.7-2.9-4.1-0.1-6.9
		c6.1-5.9,11.4-12.6,16.2-19.6c2.1-3,3.2-2.6,5.5-0.3c25.1,24.2,52.3,45.9,82,64.1c21.3,13.1,43.5,24.3,66.9,33.1
		c1.6,0.6,4.1,0.6,4.4,2.6c0.2,1.6-2,2.4-3.3,3.4C1300.9,1225.3,1286.4,1234.1,1269.1,1237.5z M981.3,1195.9
		c-118.3-0.2-214-96.1-214-214.4c0-118.5,96.1-214.6,214.4-214.4c118.5,0.2,214.5,96.5,214,214.8
		C1195.2,1100.5,1099.3,1196.1,981.3,1195.9z M984.7,1207.6c0-4.3,0.7-6.1,5.5-6.1c7.8,0,15.6-0.6,23.3-2.2c4-0.8,5.4,0,5.4,4.5
		c0.6,31.2,3.8,62.1,10.4,92.6c5.9,27.4,14.2,53.9,25.8,79.5c0.8,1.7,1.5,3.3,2.1,5.1c0.1,0.3-0.1,0.6-0.2,1.5
		c-26.4-3.1-51.6-8.7-69.1-31.4c-2.3-3-3.4-6.2-3.4-10.1C984.8,1296.5,984.9,1252.1,984.7,1207.6z M978.2,1342.2
		c0,3-1.2,5.5-2.8,7.8c-10.9,15.4-26.6,23.1-44.2,27.9c-8.3,2.2-16.7,3.6-25.8,4.2c4.1-10.1,8.2-19.6,11.7-29.2
		c13.3-35.7,21.1-72.7,24.7-110.6c1.2-12.9,2-25.9,2.1-38.9c0-3.9,1.3-4.8,5-4c8.3,1.6,16.8,2.1,25.3,2.4c3,0.1,4,0.9,3.9,4
		C978.1,1251.3,978.1,1296.8,978.2,1342.2z M664.3,1234.7c1.7-1.4,2.8,0,3.7,0.5c15.1,7.8,31,11.8,48.1,9.5c1.6-0.2,2.7-0.3,2.4,1.8
		c-3.3,18.5,2.7,35.1,10.5,51.3c0.1,0.3,0.5,1,0.4,1c-0.5,0.4-0.8,0-1-0.5c-10-6-20.2-11.4-32.4-11.7c-6-0.2-11.9,0.5-17.8,1.8
		c-1.4,0.3-2.8,1.1-4.8,0.3C679.7,1269.3,676.2,1251.2,664.3,1234.7z M662.4,1224.3c-6.2-3.9-12.1-8.2-18.1-13.6
		c31.7-11.5,60.6-26.8,87.9-45.2c23.5-15.8,45.4-33.8,65.8-53.5c2.8-2.8,4.2-2.9,6.5,0.5c4.8,7,10.3,13.5,16.3,19.5
		c2.2,2.2,2,3.4-0.1,5.5c-32.3,32.2-64.6,64.5-96.9,96.8c-4.6,4.6-10.8,4.2-16.4,4.3C690.8,1239,676.1,1232.9,662.4,1224.3z
		 M725.1,1267.3c-1.2-6.6-1.1-13.2-0.2-19.9c0.5-3.6,2-6.4,4.6-9.1c31.9-31.7,63.6-63.5,95.4-95.3c1-1,2.1-2,3.3-3.2
		c1,0.8,1.9,1.6,2.7,2.3c6.4,6.1,13.2,11.8,20.4,16.8c2.9,2.1,2.6,3.1,0.3,5.4c-20.5,21.1-39,43.7-55.3,68.1
		c-17.1,25.7-31.5,52.8-42.2,81.7c-1.3,3.5-2.1,4.9-5.1,1.1C737.8,1301,728.4,1285.7,725.1,1267.3z M674.3,677.3
		c-0.6-2.2-1.3-4.1,2.3-3.1c18.8,5.3,35.8,1.3,51.6-9.4c0.4-0.1,0.7-0.3,1.1-0.4c-0.1,0.4-0.3,0.7-0.4,1.1
		c-4.7,10.3-9.3,20.6-10.7,32c-0.7,6-1,11.9,0.1,17.9c0.4,2.1,0.5,3.5-2.5,3.1c-17.7-2.5-33.9,2.2-49.4,10.4
		c-0.4,0.2-0.9,0.3-1.5,0.5c-0.9-1.4,0.4-2.2,0.9-3C676,711.2,679,694.9,674.3,677.3z M752.1,644.2c5.1,13.4,10.3,25.8,16.2,37.9
		c20.9,42.7,48.7,80.4,81.4,114.7c4.4,4.6,4.3,4.5-0.5,8.4c-6.3,5.1-12.6,10.4-18.7,15.8c-1.8,1.6-2.7,2.2-4.7,0.2
		c-32.4-32.6-64.9-65.1-97.4-97.5c-3-3-3.3-6.8-3.7-10.5c-1-10.1,0.3-19.9,3.7-29.5C733.5,669.2,741.7,656.7,752.1,644.2z
		 M706.3,724.2c8.6-0.2,15.6,2.2,22.1,8.8c29.9,30.6,60.3,60.8,90.7,90.9c3.2,3.2,4,4.9,0.4,8.5c-5.5,5.5-10.4,11.7-15,18.1
		c-2.6,3.6-3.9,3.3-6.9,0.4c-31.8-30.7-66.8-57-106-77.6c-14-7.3-28.4-13.9-43.2-19.3c-1.2-0.5-2.4-1-4.6-1.9
		C662.7,736.9,681.9,724.7,706.3,724.2z M978,756.3c0,3.7-0.6,5.1-4.8,5.2c-8.3,0.1-16.7,0.7-24.8,2.3c-3.8,0.8-4.5-0.4-4.5-3.9
		c-0.4-30.4-3.6-60.4-9.7-90.2c-6.1-29.2-14.9-57.6-27.4-84.7c-0.5-1-0.8-2.1-1.7-4.4c27,3.1,51.8,8.6,69.4,30.7
		c2.5,3.1,3.6,6.5,3.6,10.5C977.9,666.7,977.9,711.5,978,756.3z M984.8,710.1c0-29.2,0.1-58.3-0.1-87.5c0-4.1,1.1-7.4,3.5-10.6
		c9.8-13.4,23.6-20.8,39-25.6c9.7-3,19.7-4.8,30.7-5.5c-8.9,19.4-16,38.6-21.6,58.2c-9.8,34.6-15.2,69.8-16.8,105.7
		c-0.2,5.5-0.6,11-0.7,16.5c0,2.2-0.8,2.8-3,2.4c-9-1.7-18.2-2.4-27.3-2.6c-3.3-0.1-3.7-1.4-3.7-4.2
		C984.9,741.4,984.8,725.7,984.8,710.1z M1298.8,728.5c-1.6,1.2-2.5,0-3.4-0.5c-15.1-7.7-30.9-12-48.1-9.7c-2.2,0.3-3.1-0.1-2.8-2.4
		c2.9-18.1-2.6-34.5-10.6-50.3c-0.1-0.4-0.1-0.8-0.2-1.2c0.4,0.1,0.7,0.3,1.1,0.5c12.4,8.1,25.7,13.1,40.8,11.3
		c4.4-0.5,8.8-1.5,13.9-2.4C1283.4,693.8,1286.6,712,1298.8,728.5z M1318.6,752.3c-24.1,8.9-46.3,19.5-67.4,32.1
		c-31.3,18.7-59.9,41-86,66.4c-3.1,3-4.4,3-6.8-0.6c-4.7-6.9-10.1-13.2-16-19.2c-2-2-2.6-3.2-0.3-5.6c32.5-32.3,64.9-64.7,97.2-97.1
		c2.2-2.2,4.8-2.7,7.6-3.2c18.6-3.1,35.1,2.9,50.9,12.1C1305.1,741.4,1311.9,746,1318.6,752.3z M1238.6,710.9
		c-0.4,6.2-2.3,11.2-7,15.8c-31.4,31-62.6,62.3-93.7,93.6c-2.6,2.6-3.9,2.7-6.5,0.1c-6.9-6.9-14.7-12.9-22.9-18.8
		c44.3-45.7,79.8-96.8,101.9-157.1c4.4,3.9,7.3,8.3,10.3,12.6C1231.9,673.3,1239.9,690.5,1238.6,710.9z M1363.6,604.5
		c0.9,0.9,1.7,1.5,2.4,2.2c6.7,7.2,13.3,14.5,20.1,21.5c2.6,2.7,0.5,4-0.9,5.6c-17.2,19.1-32.3,39.8-43,63.4
		c-5.4,12-9.2,24.6-13.8,36.9c-4.9,13.1-5.1,13.1-14.3,2.6c-8.5-9.6-16.5-19.7-19.5-32.6c-2.6-11.3-0.9-22.2,3.1-32.8
		c0.7-1.8,2-3,3.3-4.3c19.8-19.8,39.6-39.6,59.4-59.4C1361.2,606.6,1362.4,605.6,1363.6,604.5z M1337.8,579.7
		c6.3,5.7,12.4,11.6,18.7,17.3c1.9,1.7,2,2.7,0.1,4.6c-20.7,20.5-41.1,41.3-62,61.6c-6,5.8-14.6,5.9-22.5,6.6
		c-7.9,0.7-15.5-1.1-22.8-4.5c-10-4.7-24.6-16.1-32.2-25.1c6.3-4.2,13.4-6.7,20.5-8.8c33.9-10.3,63.3-28.3,89.4-51.9
		C1332.3,574.8,1332.4,574.8,1337.8,579.7z M1032.7,446.8c96.3,9.4,183.7,42.4,262.4,98.7c11,7.8,21.6,16.1,32.1,25
		c-24.4,22.8-51.2,41-82.9,51.7c-10.5,3.5-21.2,6.8-30.9,12.4c-5.3,3.1-9,7-11.3,13.1c-21.3,56.3-55.1,104.5-96.6,147.6
		c-1.8,1.9-3.1,2.2-5.4,0.7c-22.1-14.4-46.1-24.2-71.9-29.7c-3.3-0.7-2.8-2.5-2.8-4.6c0.6-42.7,6.3-84.6,18.5-125.5
		c5.2-17.5,11.5-34.7,19.5-51.2c1.8-3.8,0.3-7.5-0.4-11.1c-1.7-8.7-5.5-16.7-9.6-24.5c-16.3-30.5-23.8-63.3-25.8-97.6
		C1027.4,447.6,1027.8,446.3,1032.7,446.8z M989.6,444.7c9,0.6,18,1,27,1c4.1,0,4.5,2.2,4.6,5.3c0.7,17,2.9,33.8,6.8,50.4
		c4.1,17.4,10.9,33.8,18.9,49.8c3.6,7.2,7.4,14.5,9.3,22.9c-15.8-0.9-31.4-0.7-45.8-7.8c-12.1-6-19.7-16.1-25-28.1
		c-0.7-1.6-0.6-3.2-0.6-4.9c0-27.8,0.1-55.7-0.1-83.5C984.7,445.8,985.6,444.4,989.6,444.7z M1029,578.5c-8,3.1-15,5.2-21.4,8.6
		c-9.4,5-17.6,11.4-24,19.9c-0.8,1.1-1.5,3.7-3.5,1c-10.9-14.9-26.3-23.1-43.5-28.4c-0.4-0.1-0.8-0.5-1.7-1.2
		c21-3,36.4-13.6,46.6-33C991.7,564.9,1007.1,575.5,1029,578.5z M945.4,445.6c9.8-0.2,19.6-0.7,29.5-1.1c2.5-0.1,3,1.1,3,3.3
		c0,29.3,0.4,58.6-0.3,87.9c-0.2,9.1-7,16-13.3,22.2c-10.4,10.5-24,13.8-38.1,15.1c-6.4,0.6-12.9,0.8-19.6,1.2
		c1.6-7.4,4.5-13.8,7.8-19.9c17.4-32.6,26-67.5,27.2-104.3C941.7,447.2,942.3,445.7,945.4,445.6z M673.6,541.3
		c57.5-40.2,120.5-68.1,188.8-83.7c22.9-5.2,46.1-8.8,69.5-10.9c3.2-0.3,3.5,0.7,3.3,3.4c-1.8,34.3-9,67.2-25.1,97.8
		c-5,9.4-9.5,19-11.1,29.8c-0.5,3.4-0.2,6.3,1.3,9.5c14.6,31.6,24.2,64.7,30.1,98.9c4.3,24.8,6.3,49.9,7,75c0.1,3.4-0.6,4.7-4.2,5.5
		c-25,5.6-48.5,15.1-70,29.1c-2.5,1.6-4,1.6-6.2-0.7c-42.4-44.2-76.7-93.6-97.9-151.4c-0.8-2.2-2.2-3.6-3.9-4.9
		c-7.6-6.2-16.6-9.8-25.8-12.7c-35.7-10.9-66.7-29.6-93.7-55.7C647.9,560,660.6,550.4,673.6,541.3z M607.2,596.3
		c6.9-6.1,13.6-12.3,20.2-18.7c2.5-2.4,4-2.2,6.4,0.1c16.9,15.5,35.1,29.1,55.6,39.5c13.1,6.6,26.9,11.3,40.8,16.1
		c5.3,1.8,10.5,3.9,15.8,7.2c-14.1,13.1-27.4,26.6-47.4,29.1c-9.6,1.2-18.9-0.8-27.8-4.4c-1.3-0.5-2.4-1.7-3.5-2.7
		c-20.1-20-40-40.1-60.2-60C604.5,599.9,604.6,598.6,607.2,596.3z M577.4,627.4c6.5-6.7,12.8-13.6,19-20.5c1.9-2.1,3-2.6,5.3-0.3
		c20.4,20.6,41,41,61.4,61.6c5.1,5.1,5.1,12.4,6.4,19.1c0.4,2,0.2,4,0.3,6c0.2,10.8-3.5,20.2-9.3,29c-5.1,7.8-11.5,14.7-17.8,21.5
		c-2.2,2.4-3.1,1.8-4.4-0.8c-2.5-5.1-4.7-10.3-6.3-15.7c-10.6-35.6-29.5-66.5-54.6-93.6C575.1,631.2,575.1,629.8,577.4,627.4z
		 M446.3,931.5c5.7-61.7,21.7-120.6,47.9-176.7c19.4-41.7,44-80.1,73.1-115.7c2.4-2.9,3.5-3.2,6.2-0.2c23.7,26.1,41.7,55.5,52,89.4
		c2.5,8.1,5.6,16,10.2,23.2c2.7,4.2,6,7.2,11.2,9.1c43.4,16.2,82.3,40.2,118,69.7c10.3,8.5,20.1,17.5,29.8,26.6
		c2.3,2.2,2.9,3.5,1,6.5c-14,21.6-23.7,44.9-29.1,70c-0.7,3.2-1.9,4.5-5.3,4.1c-3.5-0.4-7-0.1-10.5-0.1
		c-57.6-2.4-113.2-13.5-165.8-37.7c-3.5-1.6-6.8-0.6-10.2,0c-11.8,2.2-22.1,8-32.7,13.3c-29.1,14.5-60.2,20.8-92.4,22.3
		C446.5,935.4,446,934.5,446.3,931.5z M580.8,1055.6c2.6-22.8,7.8-44.6,24.6-61.8c5.8-5.9,12.1-9.2,21.1-8.9
		c20.8,0.7,41.7,0.2,62.5,0.2c22.5,0,45,0.1,67.5-0.1c3.7,0,5.3,0.6,5.1,4.8c-0.3,8.5,1,17,2.2,25.4c0.5,3,0.1,4-3.2,4
		c-18.3,0.1-36.6,1.5-54.8,3.8c-40.8,5.1-80.3,15.2-118,32.1c-1.5,0.7-3,1.4-4.6,2C581.8,1057.6,580.5,1057.8,580.8,1055.6z
		 M578.8,1028c-3.5-20.8-13.9-36.6-33.5-46.4c19.5-10,30.1-25.6,33.5-46.4c5.9,18.6,14.6,35,31.1,46.4
		C593.4,993.1,584.6,1009.4,578.8,1028z M761.3,975.3c0,2.2-0.8,3-2.9,2.8c-0.8-0.1-1.7,0-2.5,0c-44.6,0-89.3,0-133.9,0.1
		c-3.7,0-6.7-1-9.7-3.1c-15.4-11.2-22.9-27.2-27.6-45c-2-7.9-3.3-15.9-3.8-24.9c58.4,27,119.6,38.1,183.1,39.1
		C762.7,954.8,761.2,964.9,761.3,975.3z M444.2,973.1c0.5-9.1,0.3-18.3,1.1-27.4c0.2-2.8,1.1-3.5,3.8-3.6
		c37.8-1.4,73.6-10.4,107-28.4c4.5-2.4,9.5-4,14.2-6c2.3-1,3.3-0.6,3.2,2.2c-0.3,12.5-1,24.9-5.1,36.9
		c-5.2,15.1-16.3,24.3-30.2,30.7c-1.4,0.7-3.2,0.5-4.9,0.5c-14,0-28,0-42,0c-14.2,0-28.3-0.2-42.5,0.1
		C444.9,978.3,444,976.9,444.2,973.1z M445.1,1016.6c-0.1-9.2-0.5-18.3-1.1-27.5c-0.2-3.3,0.8-4.2,4.1-4.2c14.5,0.2,29,0.1,43.5,0.1
		c14.2,0,28.3,0,42.5,0c2.6,0,4.8,0.6,7.1,1.7c19.4,9.2,29.1,25.1,31.3,46c0.7,6.6,0.8,13.3,1.3,19.9c0.3,3.6-0.9,3.8-3.9,2.7
		c-8.7-3-16.8-7.2-25-11.3c-29.9-14.9-61.8-21.2-94.8-22.8C446.5,1021.2,445.1,1020.4,445.1,1016.6z M566.5,1323.6
		c-43.4-53.1-75.9-112.2-96.9-177.5c-11.6-36.1-19.2-73-22.9-110.7c-0.8-7.6-0.5-7.6,6.9-7.3c32.2,1.8,63.1,8.6,92,23.6
		c9.6,5,19.2,9.8,30,11.9c4.3,0.8,8.2,0.5,12.4-1.4c34.2-15.7,70.2-25.6,107.3-31.2c21.6-3.3,43.4-4.7,65.2-5.5
		c3.7-0.1,5.4,0.6,6.3,4.7c5.4,24.7,15,47.8,28.7,69.1c1.8,2.8,1.9,4.3-0.7,6.9c-37.6,36.1-79.3,66.3-127,87.8
		c-7.4,3.3-15,6.4-22.6,9.1c-3.4,1.2-5.6,3.3-7.6,6c-5.8,7.7-9.2,16.5-12,25.6c-10.3,33.7-28,63-51.6,89
		C570.7,1327.2,569.4,1327.2,566.5,1323.6z M576.3,1335c-2.4-2.6-0.4-3.7,0.9-5.2c12.3-13.6,23.5-28,33-43.8
		c9.8-16.2,16.4-33.7,22.3-51.6c1.9-5.8,4.2-11.5,7.7-17.5c15.2,16.4,31.3,32,29.2,57c-0.8,10.1-3.5,19-11.5,26.6
		c-20,19.1-39.2,38.9-58.8,58.6C591,1351.3,583.8,1343,576.3,1335z M626.6,1385.6c-6.6-6.4-13.3-12.6-20.1-18.7
		c-2.3-2.1-2.2-3.3,0-5.5c20.5-20.3,40.7-40.9,61.3-61c6.9-6.7,16.5-6.2,23.3-7.2c15-0.2,25.9,5.2,36,12.7c5.8,4.3,11,9.2,16.3,14
		c2.5,2.3,2.7,3.4-0.6,5c-7.7,3.6-15.7,6.3-23.8,9c-32.4,10.5-60.2,28.8-85.1,51.7C631,1388.1,629.3,1388.2,626.6,1385.6z
		 M931.3,1517.2c-26.5-2.5-52.8-6.9-78.6-13.3c-79-19.6-149.9-55.5-212.8-107.1c-4.7-3.9-4.6-3.8,0-8c26.2-23.9,55.9-41.6,90-51.8
		c9.2-2.8,18.1-6.6,25.8-12.7c1.7-1.4,3-2.8,3.8-5c17.5-48.1,44.4-90.6,77.8-129.2c6.5-7.6,13.5-14.7,20.2-22.2
		c1.8-2.1,3.1-2.5,5.7-0.8c21.7,13.9,45.1,24,70.4,29.3c2.9,0.6,4.5,1.6,4.2,5.1c-0.4,4.5-0.1,9-0.1,13.5
		c-2.1,39.4-8,78.1-19.8,115.8c-5,16.2-10.9,32.1-18.3,47.4c-2,4.1-0.2,8.2,0.7,12.1c1.8,8,5.1,15.4,9,22.6
		c16.9,31.4,24.5,65.1,26.3,100.5C935.6,1517.1,934.4,1517.5,931.3,1517.2z M973.9,1519.2c-8.5-0.3-17-0.6-25.5-0.8
		c-5.6-0.1-6.7-2.1-6.8-7.2c-0.6-19.7-3.6-39.1-8.9-58.1c-4.2-14.9-10.5-29-17.4-42.9c-3.3-6.7-6.7-13.4-8.4-21.1
		c14.2,0.6,28.2,0.7,41.5,5.8c14.3,5.5,23.2,16.3,29.2,29.8c0.6,1.5,0.7,3.2,0.7,4.9c0,28.3,0,56.7,0.1,85
		C978.2,1518.1,977.6,1519.4,973.9,1519.2z M935.4,1384.7c1.5-2,3.4-2,5-2.6c15.4-5.3,29.1-13.2,39-26.5c1-1.4,1.8-2.9,3.6-0.5
		c10.5,14.3,25.2,22.4,41.6,27.7c0.7,0.2,1.7,0.2,2.2,1.9c-20.4,3.1-35.5,13.7-45.5,32.8C971.4,1398.5,956.2,1387.8,935.4,1384.7z
		 M1021.4,1512.1c-0.1,4.4-1.2,6.2-6.1,6.4c-8.8,0.3-17.7,0.6-26.5,0.9c-2.9,0.1-4.1-0.4-4.1-3.7c0.1-29,0.1-58,0-87
		c0-2.8,1-5.2,2.2-7.6c8.1-16,20.7-26.1,38.6-29.3c10-1.8,20.1-2.4,30.6-2.6c-1.1,6.1-3.5,11.4-6.1,16.5
		c-9.8,19.5-18.6,39.4-23.1,60.9C1023.9,1481.6,1021.8,1496.8,1021.4,1512.1z M1324.6,1395.4c-17.1,14.3-35.1,27.5-53.9,39.5
		c-43.7,27.8-90.4,49.1-140.2,63.5c-31.6,9.1-63.7,15.2-96.4,18.5c-6.8,0.7-6.8,0.6-6.4-5.5c1.5-34.2,9.3-66.7,25.3-97.2
		c5.2-9.9,9.9-20,10.9-31.4c0.2-1.8,0.2-3.4-0.7-5.2c-15-31.8-24.8-65.1-30.8-99.7c-4.4-25.2-6.6-50.5-7.2-76
		c-0.1-3.8,1.2-5.1,4.7-5.8c25-5.3,48-15.2,69.5-28.9c2-1.3,3.5-2.3,5.8,0.1c39,40.7,71.3,85.9,93.1,138.3c1,2.5,2.4,4.8,2.9,7.4
		c1.8,9.5,8.8,13.9,16.6,17.8c12.7,6.2,26.5,9.6,39.6,15c25.6,10.6,47.5,26.6,68,44.8C1328.3,1393.2,1326.2,1394,1324.6,1395.4z
		 M1356.1,1367.1c-6.9,6-13.6,12.2-20.2,18.6c-2.4,2.4-3.8,2.3-6.4-0.1c-19.6-17.9-41-33.4-65.4-44.2c-12.5-5.5-25.7-9.1-38.2-14.3
		c-2.9-1.2-5.8-2.3-8.8-4.6c13.7-12.7,26.7-25.9,46.2-28.8c10-1.5,19.5,0.6,28.8,4.2c1.5,0.6,2.7,1.9,3.9,3c20,20,40,40.1,60.1,60
		C1358.6,1363.3,1358.7,1364.7,1356.1,1367.1z M1385.3,1336.5c-7.2,7.4-14,15.1-21.2,22.9c-21.8-21.9-43.5-43.3-64.8-65.1
		c-4.6-4.7-4.9-11.5-5.8-17.7c-1.9-12.8,1.4-24.4,8.4-35.1c5.3-8.1,11.8-15.2,18.4-22.4c2-2.2,2.9-1.9,4.1,0.6
		c3,6.2,5.4,12.5,7.4,19c10.6,34.4,29.1,64.1,53.4,90.3C1388,1331.9,1388.2,1333.6,1385.3,1336.5z M1516.7,1031.2
		c-1.5,17.9-4.1,35.7-7.6,53.4c-17.5,88.9-55.1,168.3-112.4,238.4c-3.9,4.8-3.9,4.8-8,0.3c-23.4-25.7-41-54.7-51.2-88.1
		c-2.8-9.1-6.3-17.9-11.8-25.7c-2.2-3.1-4.8-5.1-8.4-6.5c-52.1-19.5-97.6-49.7-138.5-87c-3.8-3.5-7.4-7.2-11.3-10.6
		c-1.9-1.6-2.1-2.8-0.7-5c14.4-22.1,24.3-46.1,29.8-71.9c0.5-2.4,1.6-3.3,4.1-3.1c3.8,0.2,7.7,0.1,11.5,0.1
		c55.7,2.5,109.6,12.8,160.7,35.8c6.8,3.1,12.9,2.9,19.6,1c9.3-2.7,17.9-7,26.5-11.4c29.8-15.2,61.6-21.7,94.7-23.2
		C1516.7,1027.7,1516.9,1028.8,1516.7,1031.2z M1518.7,989.1c-0.3,9.3-0.4,18.6-1,28c-0.2,3.4-1.4,3.9-4.4,4.1
		c-27.4,1.3-54.3,5.5-79.8,16c-11.8,4.9-23.2,10.8-34.9,16c-9.2,4.1-9.3,3.9-9-5.9c0.3-10.4,1.3-20.6,4.7-30.5
		c5.1-15.1,16-24.5,30-31c1.9-0.9,3.9-0.7,5.9-0.7c13.8,0,27.7,0,41.5,0c14.3,0,28.7,0.1,43-0.1
		C1517.8,984.9,1518.8,985.8,1518.7,989.1z"/>
	<path style="fill:#FDCA00;" d="M981.7,767.2C863.3,767,767.2,863,767.3,981.5c0,118.2,95.7,214.1,214,214.4
		c118.1,0.2,214-95.5,214.5-213.9C1196.2,863.7,1100.2,767.4,981.7,767.2z M981.6,1144.9c-90.1,0-163-72.9-163.3-163.3
		c-0.2-90,72.9-163.3,163.1-163.4c90.2-0.1,163.3,73,163.3,163.2C1144.7,1071.6,1071.6,1144.8,981.6,1144.9z"/>
	<path style="fill:#FDCA00;" d="M905.4,1382.1c4.1-10.1,8.2-19.6,11.7-29.2c13.3-35.7,21.1-72.7,24.7-110.6
		c1.2-12.9,2.1-25.9,2.1-38.9c0-3.9,1.3-4.8,5-4.1c8.3,1.6,16.8,2.1,25.3,2.4c3,0.1,4,0.9,3.9,4c-0.1,45.5-0.1,90.9,0,136.4
		c0,3-1.2,5.4-2.8,7.8c-10.9,15.4-26.6,23.1-44.2,27.9C922.9,1380.2,914.5,1381.5,905.4,1382.1z"/>
	<path style="fill:#FDCA00;" d="M1057.2,1382.4c-26.4-3.2-51.6-8.7-69.1-31.4c-2.3-3-3.4-6.2-3.4-10.1c0.1-44.5,0.1-88.9,0-133.4
		c0-4.3,0.7-6.1,5.6-6.1c7.8,0,15.6-0.6,23.3-2.2c4.1-0.8,5.4,0,5.5,4.5c0.6,31.2,3.8,62.1,10.4,92.6c5.9,27.4,14.3,53.9,25.8,79.5
		c0.8,1.7,1.4,3.4,2.1,5C1057.5,1381.2,1057.3,1381.6,1057.2,1382.4z"/>
	<path style="fill:#FDCA00;" d="M1057.9,581c-8.9,19.4-16.1,38.5-21.7,58.2c-9.8,34.6-15.2,69.8-16.8,105.7
		c-0.2,5.5-0.6,11-0.7,16.5c0,2.2-0.8,2.8-3,2.4c-9-1.7-18.2-2.4-27.3-2.6c-3.3-0.1-3.7-1.4-3.7-4.2c0.1-15.7,0.1-31.3,0.1-47
		c0-29.2,0.1-58.3-0.1-87.5c0-4.1,1.1-7.4,3.5-10.6c9.8-13.4,23.6-20.8,39-25.6C1036.8,583.4,1046.8,581.7,1057.9,581z"/>
	<path style="fill:#FDCA00;" d="M644.2,1210.8c31.7-11.5,60.6-26.8,87.9-45.2c23.6-15.8,45.4-33.7,65.8-53.5
		c2.8-2.7,4.1-2.9,6.5,0.5c4.8,7,10.3,13.5,16.3,19.5c2.2,2.2,2,3.4-0.1,5.5c-32.3,32.2-64.6,64.5-96.9,96.8
		c-4.6,4.6-10.8,4.2-16.4,4.3c-16.5,0.3-31.2-5.8-45-14.4C656.2,1220.5,650.3,1216.2,644.2,1210.8z"/>
	<path style="fill:#FDCA00;" d="M1108.6,801.5c44.3-45.7,79.8-96.8,101.9-157.1c4.4,3.9,7.4,8.3,10.3,12.6
		c11,16.2,19,33.5,17.8,53.9c-0.4,6.2-2.3,11.2-7,15.8c-31.4,31-62.6,62.3-93.7,93.6c-2.6,2.6-3.9,2.7-6.6,0.1
		C1124.6,813.4,1116.7,807.5,1108.6,801.5z"/>
	<path style="fill:#FDCA00;" d="M1198.7,944.4c8.7-0.4,17.3-0.7,25.9-1.2c52.6-3.1,103.4-14,151.6-35.6c1.2-0.5,2.4-1.1,3.7-1.6
		c1.5-0.5,2.2,0,2.1,1.6c-2.7,25.3-8.7,49.2-29.7,66.4c-3.6,3-7.5,4.2-12.3,4.2c-44.5-0.2-88.9-0.1-133.4,0c-3.7,0-5.1-0.7-5.1-4.8
		C1201.6,963.7,1200.1,954.2,1198.7,944.4z"/>
	<path style="fill:#FDCA00;" d="M580.9,905.2c58.4,27,119.6,38.1,183.1,39.1c-1.3,10.4-2.9,20.6-2.7,30.9c0,2.2-0.8,3-2.9,2.8
		c-0.8-0.1-1.7,0-2.5,0c-44.6,0-89.3,0-133.9,0.1c-3.7,0-6.7-1-9.7-3.1c-15.4-11.2-22.9-27.2-27.6-45
		C582.7,922.2,581.5,914.2,580.9,905.2z"/>
	<path style="fill:#FDCA00;" d="M1256.3,1239.3c-8.5-0.1-15.3-2.7-21.6-9.2c-30.3-31-61-61.4-91.8-91.9c-2.7-2.7-2.9-4.1-0.1-6.9
		c6.1-5.9,11.4-12.6,16.2-19.6c2.1-3,3.2-2.6,5.5-0.3c25.1,24.2,52.3,45.9,82,64.1c21.3,13.1,43.5,24.3,66.9,33.1
		c1.6,0.6,4.1,0.6,4.4,2.6c0.2,1.6-2,2.4-3.3,3.4c-13.6,10.7-28.2,19.5-45.4,23C1264.9,1238.4,1260.6,1238.7,1256.3,1239.3z"/>
	<path style="fill:#FDCA00;" d="M1210.7,1318.7c-22.2-60.5-57.6-111.6-101.9-157.1c8.5-6.4,16.8-12.8,24.2-20.2
		c2.5-2.5,3.5,0,4.7,1.2c15.3,15.3,30.6,30.6,46,45.9c16,16,31.9,32.2,48.2,47.9c4.6,4.5,6.2,9.5,6.7,15.5
		c1.2,17.3-4.6,32.7-13.4,47.2C1221.1,1305.9,1216.7,1312.3,1210.7,1318.7z"/>
	<path style="fill:#FDCA00;" d="M643.8,752.2c18.9-15.3,38.1-27.4,62.4-28c8.6-0.2,15.6,2.2,22.1,8.8c29.9,30.6,60.3,60.8,90.7,90.9
		c3.2,3.2,4,4.9,0.4,8.5c-5.5,5.5-10.4,11.7-14.9,18.1c-2.6,3.6-3.9,3.3-6.9,0.4c-31.8-30.7-66.8-57-106-77.6
		c-14-7.3-28.4-13.8-43.2-19.3C647.3,753.6,646.1,753.1,643.8,752.2z"/>
	<path style="fill:#FDCA00;" d="M688.9,985.1c22.5,0,45,0.1,67.5-0.1c3.7,0,5.3,0.6,5.1,4.8c-0.3,8.5,1,17,2.2,25.4
		c0.4,3,0.1,4-3.2,4c-18.3,0.1-36.6,1.6-54.8,3.8c-40.8,5.1-80.3,15.3-118,32.1c-1.5,0.7-3,1.4-4.6,2c-1.4,0.6-2.7,0.7-2.4-1.5
		c2.6-22.8,7.8-44.6,24.6-61.8c5.8-5.9,12.1-9.2,21.1-8.9C647.3,985.6,668.1,985.1,688.9,985.1z"/>
	<path style="fill:#FDCA00;" d="M1318.6,752.3c-24.1,8.9-46.3,19.5-67.4,32.1c-31.3,18.7-59.9,41-86,66.4c-3.1,3-4.4,3-6.8-0.6
		c-4.7-6.9-10.1-13.2-16-19.2c-2-2-2.6-3.3-0.3-5.6c32.5-32.3,64.9-64.7,97.2-97.1c2.2-2.2,4.8-2.7,7.6-3.2
		c18.6-3.1,35.1,2.9,50.9,12.1C1305.1,741.4,1311.9,746,1318.6,752.3z"/>
	<path style="fill:#FDCA00;" d="M752.1,644.2c5.1,13.4,10.3,25.8,16.2,37.9c20.9,42.6,48.7,80.4,81.4,114.7c4.4,4.6,4.3,4.5-0.5,8.4
		c-6.3,5.1-12.6,10.4-18.7,15.8c-1.8,1.6-2.7,2.1-4.7,0.2c-32.4-32.6-64.9-65.1-97.5-97.5c-3-3-3.3-6.8-3.7-10.5
		c-1-10.1,0.3-19.9,3.7-29.4C733.5,669.2,741.7,656.7,752.1,644.2z"/>
	<path style="fill:#FDCA00;" d="M828.2,1139.9c1,0.9,1.9,1.6,2.7,2.3c6.4,6.1,13.1,11.8,20.4,16.9c2.9,2,2.6,3.1,0.3,5.4
		c-20.5,21.1-39,43.7-55.3,68.1c-17.1,25.7-31.5,52.8-42.2,81.7c-1.3,3.5-2.1,4.9-5.1,1.1c-11.3-14.5-20.7-29.8-24-48.2
		c-1.2-6.6-1.1-13.3-0.2-19.9c0.5-3.6,2-6.4,4.6-9.1c31.9-31.7,63.6-63.5,95.4-95.3C825.9,1142,827,1141,828.2,1139.9z"/>
	<path style="fill:#FDCA00;" d="M1198.9,1018.5c1.3-10,2.9-20.1,2.7-30.2c-0.1-2.8,1.1-3.3,3.6-3.3c46,0.1,91.9,0.1,137.9,0
		c2.3,0,4.1,0.8,6,2c8.7,5.7,15.2,13.4,20.1,22.5c7.4,13.7,10.9,28.5,12.5,43.8c0.4,3.9-0.5,4.3-3.9,2.8
		c-17.8-8.2-36.2-14.8-55.2-20.2c-38.3-10.8-77.4-16.1-117.2-17c-1.8,0-3.7-0.1-5.5-0.1C1199.6,1018.8,1199.3,1018.6,1198.9,1018.5z
		"/>
	<path style="fill:#FDCA00;" d="M905,580.6c27,3.1,51.8,8.6,69.4,30.7c2.5,3.1,3.6,6.5,3.6,10.5c-0.1,44.8-0.1,89.6,0,134.4
		c0,3.7-0.6,5.2-4.8,5.2c-8.3,0.1-16.7,0.7-24.8,2.3c-3.8,0.8-4.5-0.4-4.5-3.9c-0.4-30.4-3.6-60.5-9.7-90.2
		c-6.1-29.2-14.9-57.6-27.4-84.7C906.3,584,905.9,582.9,905,580.6z"/>
	<path style="fill:#FDCA00;" d="M906.8,1389.2c14.2,0.6,28.2,0.7,41.5,5.8c14.3,5.5,23.2,16.3,29.2,29.8c0.6,1.5,0.7,3.2,0.7,4.9
		c0,28.3,0,56.7,0.1,85c0,3.4-0.7,4.7-4.4,4.5c-8.5-0.4-17-0.6-25.5-0.8c-5.6-0.1-6.7-2.1-6.8-7.2c-0.6-19.7-3.6-39.1-8.9-58.1
		c-4.2-14.9-10.5-29-17.4-42.9C911.9,1403.6,908.6,1396.9,906.8,1389.2z"/>
	<path style="fill:#FDCA00;" d="M1056.2,1389.1c-1.1,6.1-3.5,11.4-6.1,16.5c-9.8,19.5-18.6,39.4-23.1,60.9
		c-3.1,15-5.2,30.2-5.6,45.5c-0.1,4.4-1.2,6.2-6.1,6.4c-8.8,0.3-17.6,0.6-26.5,0.9c-2.9,0.1-4.1-0.4-4.1-3.7c0.1-29,0.1-58,0-87
		c0-2.8,1-5.2,2.2-7.6c8.1-16,20.7-26.1,38.6-29.3C1035.7,1389.9,1045.8,1389.3,1056.2,1389.1z"/>
	<path style="fill:#FDCA00;" d="M1056.2,574c-15.8-0.9-31.4-0.7-45.8-7.8c-12.1-6-19.7-16.1-25-28.1c-0.7-1.6-0.6-3.3-0.6-4.9
		c0-27.8,0.1-55.7-0.1-83.5c0-3.8,0.8-5.3,4.9-5c9,0.6,18,1,27,1c4.1,0,4.5,2.2,4.6,5.3c0.7,17,2.9,33.8,6.8,50.4
		c4.1,17.4,10.9,33.8,18.9,49.8C1050.5,558.3,1054.3,565.6,1056.2,574z"/>
	<path style="fill:#FDCA00;" d="M599.1,1359.2c-8.1-7.9-15.3-16.2-22.8-24.2c-2.4-2.6-0.4-3.7,0.9-5.2c12.3-13.6,23.5-28,33-43.8
		c9.8-16.2,16.4-33.7,22.3-51.6c1.9-5.8,4.2-11.5,7.7-17.5c15.2,16.4,31.3,32,29.2,57c-0.8,10.1-3.6,19-11.5,26.6
		C638,1319.6,618.8,1339.5,599.1,1359.2z"/>
	<path style="fill:#FDCA00;" d="M1364.2,1359.4c-21.9-21.9-43.5-43.3-64.8-65.1c-4.6-4.7-4.8-11.5-5.8-17.7
		c-1.9-12.8,1.4-24.4,8.4-35.1c5.3-8.1,11.8-15.2,18.4-22.4c2-2.2,2.9-1.9,4.1,0.6c3,6.1,5.4,12.5,7.4,19
		c10.6,34.4,29.1,64.1,53.4,90.3c2.7,2.9,2.9,4.6,0.1,7.5C1378.2,1343.9,1371.3,1351.6,1364.2,1359.4z"/>
	<path style="fill:#FDCA00;" d="M1471.4,978.1c-14,0-28,0-42,0c-2.7,0-5.1-0.5-7.6-1.7c-18.7-9-28.6-24.1-31.1-44.5
		c-0.9-7.1-1.1-14.3-1.5-21.4c-0.2-3.6,1-3.8,4-2.8c11.2,3.9,21.5,9.7,32.2,14.6c24.2,11,49.7,16.5,76.1,18.7
		c4.3,0.4,8.6,0.8,13,0.9c2.2,0.1,3.1,0.7,3.3,3.1c0.7,9.6,0.8,19.3,1.2,28.9c0.1,3.2-0.7,4.3-4,4.2
		C1500.3,978,1485.9,978.1,1471.4,978.1z"/>
	<path style="fill:#FDCA00;" d="M1217.1,1322.5c13.7-12.7,26.7-25.9,46.2-28.8c10-1.5,19.5,0.6,28.8,4.2c1.5,0.6,2.7,1.9,3.9,3
		c20,20,40,40.1,60.1,60c2.5,2.4,2.7,3.8,0,6.2c-6.9,6-13.6,12.2-20.2,18.6c-2.4,2.4-3.8,2.3-6.4-0.1c-19.6-17.9-41-33.4-65.4-44.2
		c-12.5-5.5-25.6-9.1-38.2-14.3C1223,1325.9,1220,1324.8,1217.1,1322.5z"/>
	<path style="fill:#FDCA00;" d="M491.5,978.1c-14.2,0-28.3-0.2-42.5,0.1c-4.1,0.1-5-1.3-4.8-5.1c0.5-9.1,0.3-18.3,1.1-27.4
		c0.2-2.8,1.1-3.5,3.8-3.6c37.8-1.4,73.6-10.4,107-28.4c4.5-2.4,9.5-4,14.2-6c2.3-1,3.3-0.6,3.2,2.2c-0.3,12.5-1,24.9-5.1,36.9
		c-5.2,15.1-16.3,24.3-30.2,30.7c-1.4,0.7-3.3,0.5-4.9,0.5C519.5,978.1,505.5,978.1,491.5,978.1z"/>
	<path style="fill:#FDCA00;" d="M1217.1,640.3c6.3-4.3,13.4-6.7,20.5-8.8c33.9-10.3,63.3-28.3,89.4-51.9c5.3-4.8,5.3-4.8,10.8,0.2
		c6.3,5.7,12.4,11.6,18.7,17.3c1.9,1.7,2,2.7,0.1,4.6c-20.7,20.5-41.1,41.3-62,61.6c-6,5.8-14.6,5.9-22.5,6.6
		c-7.9,0.7-15.5-1.1-22.7-4.5C1239.4,660.7,1224.8,649.3,1217.1,640.3z"/>
	<path style="fill:#FDCA00;" d="M691,1293.2c15-0.2,25.9,5.2,36,12.7c5.7,4.3,11,9.2,16.3,14c2.6,2.3,2.7,3.4-0.6,5
		c-7.7,3.6-15.7,6.3-23.8,9c-32.4,10.5-60.2,28.8-85.1,51.7c-2.8,2.6-4.5,2.7-7.2,0.1c-6.6-6.4-13.3-12.6-20.1-18.7
		c-2.3-2.1-2.2-3.3,0-5.5c20.5-20.3,40.7-40.9,61.3-61C674.6,1293.7,684.2,1294.2,691,1293.2z"/>
	<path style="fill:#FDCA00;" d="M491.6,985.1c14.2,0,28.3,0,42.5,0c2.6,0,4.8,0.6,7.1,1.7c19.4,9.2,29.1,25.1,31.3,46
		c0.7,6.6,0.7,13.3,1.3,19.9c0.3,3.5-0.9,3.8-3.9,2.7c-8.7-3-16.8-7.2-25-11.3c-29.9-14.9-61.8-21.2-94.8-22.8
		c-3.6-0.2-4.9-1-4.9-4.7c-0.1-9.2-0.5-18.3-1.1-27.4c-0.2-3.3,0.8-4.2,4.1-4.2C462.6,985.2,477.1,985.1,491.6,985.1z"/>
	<path style="fill:#FDCA00;" d="M669.8,693.2c0.2,10.7-3.5,20.2-9.3,29c-5.1,7.8-11.5,14.7-17.8,21.5c-2.2,2.4-3.1,1.8-4.4-0.8
		c-2.5-5.1-4.7-10.3-6.3-15.7c-10.6-35.6-29.5-66.4-54.6-93.6c-2.4-2.5-2.3-3.9,0-6.3c6.5-6.7,12.8-13.6,19-20.5
		c1.9-2.1,3-2.6,5.3-0.3c20.4,20.6,41,41,61.4,61.6c5.1,5.1,5.1,12.4,6.4,19.1C669.9,689.2,669.7,691.2,669.8,693.2z"/>
	<path style="fill:#FDCA00;" d="M746,640.4c-14.1,13.1-27.4,26.6-47.4,29.1c-9.7,1.2-18.9-0.8-27.8-4.4c-1.3-0.5-2.4-1.7-3.5-2.7
		c-20-20-40-40.1-60.2-60c-2.6-2.5-2.5-3.9,0.1-6.2c6.9-6.1,13.6-12.3,20.2-18.7c2.5-2.4,4-2.2,6.4,0.1
		c16.9,15.5,35.1,29.1,55.6,39.5c13.1,6.6,26.9,11.3,40.8,16.1C735.5,635.1,740.7,637.2,746,640.4z"/>
	<path style="fill:#FDCA00;" d="M1471.6,985c14.3,0,28.7,0.1,43-0.1c3.2,0,4.3,0.8,4.2,4.1c-0.3,9.3-0.4,18.6-1,28
		c-0.2,3.4-1.4,3.9-4.4,4.1c-27.4,1.3-54.3,5.5-79.8,16c-11.8,4.9-23.2,10.8-34.9,16c-9.2,4.1-9.3,3.9-9.1-5.9
		c0.3-10.3,1.3-20.6,4.7-30.5c5.1-15.1,16-24.5,30-31c1.9-0.9,3.9-0.7,5.9-0.7C1443.9,985,1457.7,985,1471.6,985z"/>
	<path style="fill:#FDCA00;" d="M1363.6,604.5c0.9,0.9,1.7,1.5,2.4,2.2c6.7,7.2,13.3,14.5,20.1,21.5c2.6,2.7,0.5,4-0.9,5.6
		c-17.2,19.2-32.3,39.8-43,63.4c-5.4,12-9.2,24.6-13.8,36.9c-4.9,13.1-5.1,13.1-14.3,2.6c-8.5-9.6-16.5-19.7-19.5-32.6
		c-2.6-11.3-0.9-22.1,3.1-32.8c0.7-1.8,2-3,3.3-4.3c19.8-19.8,39.6-39.6,59.4-59.4C1361.2,606.6,1362.4,605.6,1363.6,604.5z"/>
	<path style="fill:#FDCA00;" d="M906.6,574.1c1.6-7.4,4.5-13.8,7.8-19.9c17.4-32.6,26-67.5,27.2-104.3c0.1-2.8,0.6-4.3,3.8-4.4
		c9.8-0.2,19.6-0.7,29.4-1.1c2.5-0.1,3,1.1,3,3.3c0,29.3,0.4,58.6-0.3,87.9c-0.2,9.1-7,16-13.3,22.2c-10.5,10.5-24,13.8-38.1,15.1
		C919.8,573.6,913.4,573.7,906.6,574.1z"/>
	<path style="fill:#FDCA00;" d="M981.5,545.4c10.2,19.5,25.6,30,47.6,33.1c-8,3.1-15,5.2-21.4,8.6c-9.4,5-17.6,11.4-24.1,19.9
		c-0.8,1.1-1.5,3.7-3.5,0.9c-10.9-14.9-26.3-23.1-43.5-28.4c-0.4-0.1-0.8-0.5-1.7-1.2C955.9,575.4,971.2,564.8,981.5,545.4z"/>
	<path style="fill:#FDCA00;" d="M1234.9,664.8c12.4,8.1,25.7,13.1,40.8,11.3c4.4-0.5,8.8-1.5,13.9-2.4c-6.2,20-3,38.3,9.2,54.8
		c-1.6,1.2-2.5,0-3.4-0.5c-15.1-7.7-30.9-12-48-9.7c-2.2,0.3-3.1-0.1-2.8-2.4c2.9-18.1-2.6-34.5-10.6-50.3
		C1234.3,665.3,1234.6,665.1,1234.9,664.8z"/>
	<path style="fill:#FDCA00;" d="M578.8,935.2c5.9,18.6,14.6,35,31.1,46.4c-16.5,11.6-25.3,27.8-31.1,46.5
		c-3.5-20.8-13.9-36.6-33.5-46.4C564.7,971.6,575.3,956,578.8,935.2z"/>
	<path style="fill:#FDCA00;" d="M1026.9,1384.8c-20.4,3.1-35.5,13.7-45.5,32.7c-10.1-19.1-25.2-29.7-46-32.8c1.5-2,3.4-2,5-2.6
		c15.4-5.3,29.1-13.2,39-26.5c1.1-1.4,1.8-2.9,3.6-0.5c10.5,14.3,25.2,22.4,41.6,27.7C1025.5,1383.2,1026.4,1383.1,1026.9,1384.8z"
		/>
	<path style="fill:#FDCA00;" d="M1234,1297.6c5.7-11.2,10.1-22.8,11.2-35.4c0.4-5,0.2-10-0.5-14.9c-0.2-1.4-0.7-3,2-2.6
		c17.5,2.6,33.6-1.8,49-9.8c0.7-0.4,1.5-0.7,2.8-0.8c-11.6,16.9-15.4,35-9,54.6c-1.8,1-3.2,0.2-4.6-0.1c-16.3-4-31.7-1.8-45.9,7.3
		c-1.4,0.9-2.9,1.6-4.3,2.4C1234.5,1298.1,1234.2,1297.8,1234,1297.6z"/>
	<path style="fill:#FDCA00;" d="M728.8,665.4c-4.7,10.3-9.3,20.6-10.7,32c-0.7,6-1,11.9,0.1,17.9c0.4,2.1,0.5,3.5-2.5,3.1
		c-17.7-2.5-33.9,2.2-49.4,10.4c-0.4,0.2-0.9,0.3-1.5,0.5c-0.9-1.4,0.4-2.2,0.9-3c10.2-15,13.3-31.3,8.5-48.9
		c-0.6-2.2-1.3-4.1,2.3-3.1c18.8,5.3,35.8,1.3,51.6-9.4C728.4,664.9,728.6,665.2,728.8,665.4z"/>
	<path style="fill:#FDCA00;" d="M1384.2,934.9c3.4,20.9,13.9,36.6,33.5,46.7c-19.5,9.9-29.9,25.5-33.2,47
		c-2.6-6.6-4.7-12.3-7.2-17.9c-2.6-5.8-6-11.1-10-16c-4-4.9-8.7-9.1-14.2-13.1C1369.6,969.9,1378.5,953.5,1384.2,934.9z"/>
	<path style="fill:#FDCA00;" d="M728.3,1298.4c-10-6-20.2-11.4-32.4-11.7c-6-0.1-11.9,0.5-17.8,1.9c-1.4,0.3-2.8,1.1-4.8,0.3
		c6.3-19.6,2.8-37.6-9.1-54.1c1.7-1.4,2.7,0,3.7,0.5c15.1,7.8,31,11.8,48.1,9.5c1.6-0.2,2.7-0.3,2.4,1.7
		c-3.3,18.5,2.7,35.1,10.5,51.3C728.7,1298,728.5,1298.2,728.3,1298.4z"/>
	<path style="fill:#FDCA00;" d="M728.9,1297.8c0.1,0.4,0.5,1,0.4,1c-0.5,0.4-0.8,0-1-0.4C728.5,1298.2,728.7,1298,728.9,1297.8z"/>
	<path style="fill:#FDCA00;" d="M1234,665.6c-0.1-0.4-0.2-0.8-0.2-1.2c0.4,0.2,0.7,0.3,1.1,0.5
		C1234.6,665.1,1234.3,665.3,1234,665.6z"/>
	<path style="fill:#FDCA00;" d="M728.2,664.7c0.4-0.1,0.7-0.3,1.1-0.4c-0.1,0.4-0.3,0.7-0.4,1.1
		C728.6,665.2,728.4,664.9,728.2,664.7z"/>
	<path style="fill:#FDCA00;" d="M1234.7,1298.3c-0.2,0.5-0.5,0.8-1,0.5c-0.2-0.1,0.1-0.7,0.2-1.1
		C1234.2,1297.8,1234.5,1298.1,1234.7,1298.3z"/>
	<path style="fill:#090803;" d="M981.4,818.2c-90.2,0-163.4,73.3-163.1,163.4c0.2,90.4,73.2,163.3,163.3,163.3
		c90.1-0.1,163.2-73.3,163.1-163.5C1144.7,891.2,1071.6,818.2,981.4,818.2z M981.3,1138.9c-86.8-0.1-157.2-70.7-157-157.5
		c0.1-87.3,70.5-157.4,157.8-157.1c86.6,0.2,156.7,70.7,156.5,157.4C1138.5,1068.6,1068.1,1139,981.3,1138.9z"/>
	<path style="fill:#FDCA00;" d="M982.1,824.2c-87.3-0.2-157.7,69.8-157.8,157.1c-0.1,86.9,70.2,157.4,157,157.5
		c86.8,0.1,157.2-70.3,157.3-157.2C1138.8,894.9,1068.8,824.5,982.1,824.2z M980.4,1094.6c-62.2-0.8-112.9-51.6-112.4-113.2
		c0.5-63,51.7-114,114.5-113.1c66.1,1,112.8,55,112.4,114.2C1094.5,1044.5,1042.4,1095.4,980.4,1094.6z"/>
	<path style="fill:#090803;" d="M982.5,868.3c-62.8-0.9-113.9,50-114.5,113.1c-0.5,61.6,50.2,112.4,112.4,113.2
		c62,0.8,114.1-50.1,114.5-112.1C1095.3,923.3,1048.5,869.2,982.5,868.3z M892.2,1037.8c-7.3-7.4-10.2-17.4-13-27.1
		c-15.4-53.3,14.4-110.7,66.9-129c0.6-0.2,1.3-0.3,2.9-0.6c-7.7,7.2-14.2,14.3-19.3,22.4c-11.5,18.3-18.1,38-17.2,59.8
		c0.5,10.6,2.9,20.8,10.4,28.9c10,10.8,22.3,11,35.4,7.4c7.6-2.1,14.5-5.7,21-9.9c2.1-1.4,3.7-1.4,5.9-0.4
		c15.1,6.9,21.5,20.1,17.9,36.4c-6.4,28.3-29.9,43.8-60.7,38.9C922.7,1061.4,906.1,1051.8,892.2,1037.8z M1048,1062.9
		c-36.2,29.3-85.3,31.7-124.2,6.3c-1.2-0.8-2.3-1.8-3.5-2.7c-0.8-0.2-1.5-0.4-1.8-1.3c-0.3-0.2-0.6-0.5-0.9-0.7
		c0.6-0.6,1-0.2,1.3,0.3c0.8-0.2,1.4,0.1,1.9,0.7c11.3,4.1,22.8,7,35,6.7c28.6-0.8,51.8-22,54.7-50.4c1.8-17.4-5.9-31-22.5-38.3
		c-4-1.8-4.6-3.5-3.7-7.4c1.6-7.4,3.4-14.6,6.9-21.3c9.2-17.5,25.8-24.2,44.2-17c24,9.5,37.4,28.2,42.2,53
		C1083.4,1021,1070.9,1044.3,1048,1062.9z M1082.5,983.3c-6.2-22.3-19-39.5-40.1-49.6c-25-12-48.6-2.7-59.3,22.9
		c-2.9,6.9-4.9,14.1-5.6,21.6c-0.4,3.6-1.8,6-5.2,7.7c-7,3.5-13.9,7.1-21.8,8.3c-14.5,2.3-24.7-4-28.9-18.1
		c-4.1-13.5-2.8-27,0.9-40.4c6.4-22.5,18.7-41,37.8-54.8c5.1-3.6,10.5-5.3,16.7-5.6c51-2.6,98.8,34.8,108.4,85
		c2.5,12.9,2.8,25.8,0.2,38.8C1084.6,994,1084,988.5,1082.5,983.3z"/>
	<path style="fill:#FDCA00;" d="M920.8,1065.5c-0.2,0.3-0.3,0.7-0.5,1c-0.8-0.2-1.5-0.4-1.8-1.3c0.1-0.1,0.3-0.2,0.4-0.4
		C919.7,1064.6,920.3,1064.9,920.8,1065.5z"/>
	<path style="fill:#FDCA00;" d="M918.5,1065.2c-0.3-0.2-0.6-0.4-0.9-0.7c0.6-0.6,1-0.3,1.3,0.3
		C918.8,1064.9,918.7,1065,918.5,1065.2z"/>
</g>
</svg>
